<svg width="80" height="80" viewBox="0 0 80 80" fill="none" xmlns="http://www.w3.org/2000/svg">
<rect width="80" height="80" rx="40" fill="#FD495C"/>
<path d="M51.7488 16.98C51.4782 16.5239 51.0376 16.1939 50.5237 16.0626C50.0099 15.9314 49.465 16.0096 49.0088 16.28L43.1088 19.82C42.7617 20.0021 42.4006 20.1559 42.0288 20.28V14C42.0288 13.4696 41.8181 12.9609 41.443 12.5858C41.0679 12.2107 40.5592 12 40.0288 12C39.4984 12 38.9897 12.2107 38.6146 12.5858C38.2395 12.9609 38.0288 13.4696 38.0288 14V20.28C37.657 20.1559 37.2959 20.0021 36.9488 19.82L30.9488 16.28C30.4976 16.0761 29.9868 16.0468 29.5153 16.1978C29.0438 16.3487 28.645 16.6692 28.3961 17.0973C28.1473 17.5253 28.066 18.0304 28.1681 18.5149C28.2702 18.9994 28.5484 19.4288 28.9488 19.72L34.8288 23.24C36.3781 24.1812 38.156 24.6789 39.9688 24.6789C41.7816 24.6789 43.5595 24.1812 45.1088 23.24L50.9888 19.72C51.2196 19.591 51.4226 19.4175 51.586 19.2096C51.7494 19.0017 51.8699 18.7634 51.9405 18.5086C52.0112 18.2538 52.0307 17.9875 51.9978 17.7251C51.9648 17.4627 51.8802 17.2095 51.7488 16.98Z" fill="#00953B"/>
<path d="M44.1489 23.54C43.8018 23.54 43.4607 23.4496 43.1591 23.2778C42.8575 23.1059 42.6059 22.8586 42.4289 22.56C42.1567 22.1063 42.0754 21.5631 42.2029 21.0496C42.3303 20.536 42.6561 20.0939 43.1089 19.82L49.0089 16.28C49.46 16.0761 49.9708 16.0468 50.4424 16.1978C50.9139 16.3488 51.3127 16.6693 51.5615 17.0973C51.8104 17.5253 51.8916 18.0305 51.7895 18.5149C51.6875 18.9994 51.4093 19.4288 51.0089 19.72L45.1689 23.24C44.8622 23.4302 44.5097 23.5339 44.1489 23.54ZM35.9089 23.54C35.548 23.5339 35.1956 23.4302 34.8889 23.24L29.0089 19.72C28.6084 19.4288 28.3303 18.9994 28.2282 18.5149C28.1261 18.0305 28.2073 17.5253 28.4562 17.0973C28.705 16.6693 29.1038 16.3488 29.5754 16.1978C30.0469 16.0468 30.5577 16.0761 31.0089 16.28L37.0089 19.82C37.4616 20.0939 37.7874 20.536 37.9148 21.0496C38.0423 21.5631 37.961 22.1063 37.6889 22.56C37.5068 22.8675 37.2456 23.1206 36.9326 23.2929C36.6195 23.4653 36.266 23.5506 35.9089 23.54Z" fill="#4FB15C"/>
<path d="M48.6889 20.8C48.2507 20.7999 47.8247 20.6559 47.4763 20.3901C47.1279 20.1243 46.8765 19.7515 46.7606 19.3289C46.6448 18.9063 46.6709 18.4574 46.835 18.0511C46.9991 17.6448 47.292 17.3036 47.6689 17.08L49.0089 16.28C49.46 16.0761 49.9708 16.0468 50.4424 16.1978C50.9139 16.3488 51.3127 16.6693 51.5615 17.0973C51.8104 17.5253 51.8916 18.0305 51.7895 18.5149C51.6875 18.9994 51.4093 19.4288 51.0089 19.72L49.6889 20.52C49.3836 20.694 49.0401 20.7902 48.6889 20.8ZM31.2889 20.76C30.9307 20.7544 30.5797 20.658 30.2689 20.48L29.0089 19.72C28.6084 19.4288 28.3303 18.9994 28.2282 18.5149C28.1261 18.0305 28.2073 17.5253 28.4562 17.0973C28.705 16.6693 29.1038 16.3488 29.5754 16.1978C30.0469 16.0468 30.5577 16.0761 31.0089 16.28L32.2889 17.04C32.7416 17.3139 33.0674 17.756 33.1948 18.2696C33.3223 18.7831 33.241 19.3263 32.9689 19.78C32.7954 20.0728 32.55 20.3165 32.256 20.488C31.962 20.6595 31.6291 20.7531 31.2889 20.76Z" fill="#9ADC8E"/>
<path d="M62.0289 42C61.9677 42.1718 61.8942 42.3389 61.8089 42.5C60.5089 45.22 59.2089 47.72 57.9489 50C51.2889 62 45.2489 68 39.9489 68C36.8889 68 33.6089 66 30.0689 62C27.9432 59.4923 26.0236 56.8169 24.3289 54C23.5489 52.76 22.7689 51.42 21.9889 50C20.7089 47.72 19.4089 45.22 18.1089 42.5C18.0745 42.3347 18.0478 42.1678 18.0289 42C17.4639 40.7293 17.0931 39.3809 16.9289 38C16.6352 35.244 17.1567 32.4624 18.4289 30C19.2507 28.3851 20.3782 26.9452 21.7489 25.76C23.1805 24.5827 24.9111 23.8265 26.7476 23.5758C28.584 23.325 30.4541 23.5896 32.1489 24.34L36.0289 26C37.2926 26.5425 38.6536 26.8223 40.0289 26.8223C41.4042 26.8223 42.7651 26.5425 44.0289 26L47.8689 24.3C49.5637 23.5496 51.4337 23.285 53.2702 23.5358C55.1066 23.7865 56.8373 24.5427 58.2689 25.72C60.5623 27.669 62.1665 30.3051 62.8438 33.2376C63.5211 36.1701 63.2353 39.2427 62.0289 42Z" fill="#FF7785"/>
<path d="M44.0288 34C44.0288 35.0609 43.6074 36.0783 42.8572 36.8284C42.1071 37.5786 41.0897 38 40.0288 38H16.8688C16.5751 35.244 17.0966 32.4624 18.3688 30H40.0288C41.0897 30 42.1071 30.4214 42.8572 31.1716C43.6074 31.9217 44.0288 32.9391 44.0288 34ZM52.0288 46C52.0288 47.0609 51.6074 48.0783 50.8572 48.8284C50.1071 49.5786 49.0897 50 48.0288 50H22.0288C20.7488 47.72 19.4488 45.22 18.1488 42.5C18.1009 42.3353 18.0609 42.1685 18.0288 42H48.0288C49.0897 42 50.1071 42.4214 50.8572 43.1716C51.6074 43.9217 52.0288 44.9391 52.0288 46ZM46.0288 58C46.0288 59.0609 45.6074 60.0783 44.8572 60.8284C44.1071 61.5786 43.0897 62 42.0288 62H30.1488C28.0231 59.4923 26.1035 56.8169 24.4088 54H42.0288C43.0897 54 44.1071 54.4214 44.8572 55.1716C45.6074 55.9217 46.0288 56.9391 46.0288 58Z" fill="#F15A6A"/>
<path d="M51.0288 36C51.5811 36 52.0288 35.5523 52.0288 35C52.0288 34.4477 51.5811 34 51.0288 34C50.4765 34 50.0288 34.4477 50.0288 35C50.0288 35.5523 50.4765 36 51.0288 36Z" fill="#F45356"/>
<path d="M53.0288 30C53.5811 30 54.0288 29.5523 54.0288 29C54.0288 28.4477 53.5811 28 53.0288 28C52.4765 28 52.0288 28.4477 52.0288 29C52.0288 29.5523 52.4765 30 53.0288 30Z" fill="#F45356"/>
<path d="M27.0288 30C27.5811 30 28.0288 29.5523 28.0288 29C28.0288 28.4477 27.5811 28 27.0288 28C26.4765 28 26.0288 28.4477 26.0288 29C26.0288 29.5523 26.4765 30 27.0288 30Z" fill="#F45356"/>
<path d="M47.0288 32C47.5811 32 48.0288 31.5523 48.0288 31C48.0288 30.4477 47.5811 30 47.0288 30C46.4765 30 46.0288 30.4477 46.0288 31C46.0288 31.5523 46.4765 32 47.0288 32Z" fill="#F45356"/>
<path d="M57.0288 36C57.5811 36 58.0288 35.5523 58.0288 35C58.0288 34.4477 57.5811 34 57.0288 34C56.4765 34 56.0288 34.4477 56.0288 35C56.0288 35.5523 56.4765 36 57.0288 36Z" fill="#F45356"/>
<path d="M55.0288 50C55.5811 50 56.0288 49.5523 56.0288 49C56.0288 48.4477 55.5811 48 55.0288 48C54.4765 48 54.0288 48.4477 54.0288 49C54.0288 49.5523 54.4765 50 55.0288 50Z" fill="#F45356"/>
<path d="M49.0288 56C49.5811 56 50.0288 55.5523 50.0288 55C50.0288 54.4477 49.5811 54 49.0288 54C48.4765 54 48.0288 54.4477 48.0288 55C48.0288 55.5523 48.4765 56 49.0288 56Z" fill="#F45356"/>
<path d="M55.0288 42C55.5811 42 56.0288 41.5523 56.0288 41C56.0288 40.4477 55.5811 40 55.0288 40C54.4765 40 54.0288 40.4477 54.0288 41C54.0288 41.5523 54.4765 42 55.0288 42Z" fill="#F45356"/>
<path fill-rule="evenodd" clip-rule="evenodd" d="M39.0288 34C39.5811 34 40.0288 33.5523 40.0288 33C40.0288 32.4477 39.5811 32 39.0288 32C38.4765 32 38.0288 32.4477 38.0288 33C38.0288 33.5523 38.4765 34 39.0288 34ZM27.0288 48C27.5811 48 28.0288 47.5523 28.0288 47C28.0288 46.4477 27.5811 46 27.0288 46C26.4765 46 26.0288 46.4477 26.0288 47C26.0288 47.5523 26.4765 48 27.0288 48ZM24.0288 35C24.0288 35.5523 23.5811 36 23.0288 36C22.4765 36 22.0288 35.5523 22.0288 35C22.0288 34.4477 22.4765 34 23.0288 34C23.5811 34 24.0288 34.4477 24.0288 35ZM37.0288 46C37.5811 46 38.0288 45.5523 38.0288 45C38.0288 44.4477 37.5811 44 37.0288 44C36.4765 44 36.0288 44.4477 36.0288 45C36.0288 45.5523 36.4765 46 37.0288 46ZM48.0288 45C48.0288 45.5523 47.5811 46 47.0288 46C46.4765 46 46.0288 45.5523 46.0288 45C46.0288 44.4477 46.4765 44 47.0288 44C47.5811 44 48.0288 44.4477 48.0288 45ZM33.0288 56C33.5811 56 34.0288 55.5523 34.0288 55C34.0288 54.4477 33.5811 54 33.0288 54C32.4765 54 32.0288 54.4477 32.0288 55C32.0288 55.5523 32.4765 56 33.0288 56ZM44.0288 59C44.0288 59.5523 43.5811 60 43.0288 60C42.4765 60 42.0288 59.5523 42.0288 59C42.0288 58.4477 42.4765 58 43.0288 58C43.5811 58 44.0288 58.4477 44.0288 59Z" fill="#AA2937"/>
<path fill-rule="evenodd" clip-rule="evenodd" d="M32.0288 42C32.0288 43.1046 30.2379 44 28.0288 44C25.8197 44 24.0288 43.1046 24.0288 42C24.0288 40.8954 25.8197 40 28.0288 40C30.2379 40 32.0288 40.8954 32.0288 42ZM56.0288 42C56.0288 43.1046 54.2379 44 52.0288 44C49.8197 44 48.0288 43.1046 48.0288 42C48.0288 40.8954 49.8197 40 52.0288 40C54.2379 40 56.0288 40.8954 56.0288 42Z" fill="#FF8B8D"/>
<path d="M40.0288 67.9998C33.7288 67.9998 26.3688 59.4198 18.1888 42.4998C16.8472 39.7087 16.4688 36.5516 17.113 33.5225C17.7572 30.4934 19.3875 27.7635 21.7488 25.7598C21.9497 25.5904 22.182 25.4622 22.4325 25.3826C22.6829 25.303 22.9466 25.2735 23.2085 25.2958C23.4703 25.3181 23.7252 25.3917 23.9586 25.5125C24.192 25.6333 24.3994 25.7989 24.5688 25.9998C24.7382 26.2007 24.8664 26.4331 24.946 26.6835C25.0256 26.934 25.0551 27.1977 25.0328 27.4595C25.0105 27.7214 24.9369 27.9763 24.8161 28.2097C24.6953 28.4431 24.5297 28.6504 24.3288 28.8198C22.6329 30.254 21.4628 32.2118 21.0029 34.3847C20.543 36.5575 20.8195 38.8216 21.7888 40.8198C32.0288 61.7398 38.0288 63.9998 40.0288 63.9998C40.5592 63.9998 41.0679 64.2105 41.443 64.5856C41.8181 64.9607 42.0288 65.4694 42.0288 65.9998C42.0288 66.5303 41.8181 67.039 41.443 67.414C41.0679 67.7891 40.5592 67.9998 40.0288 67.9998Z" fill="#DA3445"/>
<path d="M32.0288 41.9997C30.989 41.9859 29.9913 41.5868 29.2288 40.8797C28.8559 40.4907 28.5576 40.0365 28.3488 39.5397C28.1376 39.0538 28.0286 38.5296 28.0288 37.9997C28.0426 36.9599 28.4417 35.9622 29.1488 35.1997C29.9144 34.4376 30.9486 34.0067 32.0288 33.9997C32.3013 33.9701 32.5763 33.9701 32.8488 33.9997L33.5488 34.2197C33.8518 34.3357 34.1351 34.4976 34.3888 34.6997L34.6888 34.9197L34.7888 35.0197H34.9088C35.6587 35.8276 36.061 36.8979 36.0288 37.9997C36.0309 38.5233 35.9218 39.0414 35.7088 39.5197C35.535 39.9814 35.2697 40.4032 34.9288 40.7597V40.8797H34.7888L34.3288 41.2197C34.1208 41.3772 33.892 41.5051 33.6488 41.5997C33.3947 41.6979 33.1341 41.7781 32.8688 41.8397L32.0288 41.9997ZM48.0288 41.9997C47.007 41.9744 46.0279 41.5842 45.2688 40.8997L45.1288 40.7597C44.7967 40.4039 44.5324 39.9905 44.3488 39.5397C44.1376 39.0538 44.0286 38.5296 44.0288 37.9997C44.0267 37.4761 44.1358 36.958 44.3488 36.4797C44.5264 36.0199 44.7912 35.5989 45.1288 35.2397C45.5169 34.8462 45.9791 34.5335 46.4888 34.3197C46.9746 34.1079 47.4989 33.999 48.0288 33.9997C49.0892 33.9883 50.1107 34.3983 50.8688 35.1397C51.2244 35.5192 51.509 35.9596 51.7088 36.4397C51.936 36.9275 52.0456 37.4619 52.0288 37.9997C52.0383 38.5756 51.9079 39.1453 51.6488 39.6597C51.4745 40.0654 51.2309 40.4377 50.9288 40.7597C50.1599 41.5341 49.1199 41.9788 48.0288 41.9997Z" fill="#FFE7E7"/>
<path d="M48.0288 40C49.1334 40 50.0288 39.1046 50.0288 38C50.0288 36.8954 49.1334 36 48.0288 36C46.9242 36 46.0288 36.8954 46.0288 38C46.0288 39.1046 46.9242 40 48.0288 40Z" fill="#511D21"/>
<path d="M32.0288 40C33.1334 40 34.0288 39.1046 34.0288 38C34.0288 36.8954 33.1334 36 32.0288 36C30.9242 36 30.0288 36.8954 30.0288 38C30.0288 39.1046 30.9242 40 32.0288 40Z" fill="#511D21"/>
<path d="M47.0288 38C47.5811 38 48.0288 37.5523 48.0288 37C48.0288 36.4477 47.5811 36 47.0288 36C46.4765 36 46.0288 36.4477 46.0288 37C46.0288 37.5523 46.4765 38 47.0288 38Z" fill="white"/>
<path d="M31.0288 38C31.5811 38 32.0288 37.5523 32.0288 37C32.0288 36.4477 31.5811 36 31.0288 36C30.4765 36 30.0288 36.4477 30.0288 37C30.0288 37.5523 30.4765 38 31.0288 38Z" fill="white"/>
<path d="M40.0288 58C38.9679 58 37.9505 57.5786 37.2004 56.8284C36.4502 56.0783 36.0288 55.0609 36.0288 54V52C36.0288 50.9391 36.4502 49.9217 37.2004 49.1716C37.9505 48.4214 38.9679 48 40.0288 48C41.0897 48 42.1071 48.4214 42.8572 49.1716C43.6074 49.9217 44.0288 50.9391 44.0288 52V54C44.0288 55.0609 43.6074 56.0783 42.8572 56.8284C42.1071 57.5786 41.0897 58 40.0288 58Z" fill="#511D21"/>
<path d="M40.0288 48C38.9679 48 37.9505 48.4214 37.2004 49.1716C36.4502 49.9217 36.0288 50.9391 36.0288 52H44.0288C44.0288 50.9391 43.6074 49.9217 42.8572 49.1716C42.1071 48.4214 41.0897 48 40.0288 48Z" fill="white"/>
<path d="M40.0288 54C38.9679 54 37.9505 54.4214 37.2004 55.1716C36.4502 55.9217 36.0288 56.9391 36.0288 58H44.0288C44.0288 56.9391 43.6074 55.9217 42.8572 55.1716C42.1071 54.4214 41.0897 54 40.0288 54Z" fill="#FD495C"/>
<path d="M40.0288 60C38.4375 60 36.9114 59.3679 35.7862 58.2426C34.6609 57.1174 34.0288 55.5913 34.0288 54V52C34.0288 50.4087 34.6609 48.8826 35.7862 47.7574C36.9114 46.6321 38.4375 46 40.0288 46C41.6201 46 43.1462 46.6321 44.2715 47.7574C45.3967 48.8826 46.0288 50.4087 46.0288 52V54C46.0288 55.5913 45.3967 57.1174 44.2715 58.2426C43.1462 59.3679 41.6201 60 40.0288 60ZM40.0288 50C39.4984 50 38.9897 50.2107 38.6146 50.5858C38.2395 50.9609 38.0288 51.4696 38.0288 52V54C38.0288 54.5304 38.2395 55.0391 38.6146 55.4142C38.9897 55.7893 39.4984 56 40.0288 56C40.5592 56 41.068 55.7893 41.443 55.4142C41.8181 55.0391 42.0288 54.5304 42.0288 54V52C42.0288 51.4696 41.8181 50.9609 41.443 50.5858C41.068 50.2107 40.5592 50 40.0288 50Z" fill="#FFB6B7"/>
<path d="M60.0288 43.62C59.7308 43.6182 59.4369 43.5499 59.1688 43.42C58.6923 43.1909 58.326 42.7824 58.1498 42.284C57.9737 41.7855 58.0021 41.2376 58.2288 40.76C59.1981 38.7617 59.4746 36.4976 59.0147 34.3248C58.5547 32.152 57.3846 30.1941 55.6888 28.76C54.8306 28.0665 53.7979 27.623 52.704 27.4783C51.6102 27.3337 50.4977 27.4934 49.4888 27.94L45.6288 29.64C45.3885 29.7465 45.1295 29.8047 44.8668 29.8111C44.604 29.8175 44.3425 29.772 44.0973 29.6772C43.8521 29.5825 43.628 29.4404 43.4378 29.259C43.2476 29.0776 43.095 28.8604 42.9888 28.62C42.7811 28.1345 42.7739 27.5865 42.9687 27.0956C43.1636 26.6048 43.5446 26.2109 44.0288 26L47.8688 24.3C49.5636 23.5496 51.4336 23.285 53.27 23.5358C55.1065 23.7865 56.8371 24.5427 58.2688 25.72C60.63 27.7236 62.2603 30.4536 62.9045 33.4827C63.5487 36.5117 63.1704 39.6689 61.8288 42.46C61.6695 42.8041 61.4158 43.0958 61.0971 43.3012C60.7784 43.5066 60.4079 43.6171 60.0288 43.62Z" fill="#FF8B8D"/>
<path d="M57.0088 29.28C56.5415 29.281 56.0886 29.1182 55.7288 28.82C54.8706 28.1265 53.8379 27.683 52.7441 27.5384C51.6502 27.3937 50.5377 27.5534 49.5288 28C49.2885 28.1064 49.0295 28.1644 48.7668 28.1707C48.5041 28.177 48.2427 28.1315 47.9975 28.0368C47.7524 27.9421 47.5283 27.8 47.3381 27.6187C47.1478 27.4374 46.9951 27.2204 46.8888 26.98C46.7824 26.7397 46.7244 26.4808 46.7181 26.2181C46.7118 25.9553 46.7573 25.6939 46.852 25.4488C46.9467 25.2036 47.0888 24.9796 47.2701 24.7893C47.4514 24.5991 47.6685 24.4464 47.9088 24.34C49.6036 23.5897 51.4736 23.3251 53.3101 23.5758C55.1465 23.8266 56.8772 24.5828 58.3088 25.76C58.6195 26.0258 58.8413 26.3803 58.9444 26.776C59.0474 27.1717 59.0267 27.5894 58.8851 27.9729C58.7434 28.3565 58.4876 28.6874 58.1522 28.9211C57.8167 29.1548 57.4176 29.2801 57.0088 29.28ZM60.8688 35.4C60.4172 35.4155 59.9738 35.2776 59.6106 35.0089C59.2475 34.7402 58.986 34.3564 58.8688 33.92C58.8688 33.6 58.6888 33.28 58.5888 32.98C58.4076 32.484 58.43 31.9364 58.6511 31.4568C58.8722 30.9772 59.274 30.6045 59.7688 30.42C60.2648 30.2389 60.8124 30.2613 61.292 30.4824C61.7716 30.7034 62.1443 31.1052 62.3288 31.6C62.4888 32.02 62.6288 32.44 62.7488 32.88C62.8182 33.1348 62.8365 33.4008 62.8026 33.6627C62.7688 33.9246 62.6833 34.1772 62.5513 34.4059C62.4193 34.6346 62.2433 34.8349 62.0335 34.9952C61.8236 35.1556 61.5841 35.2728 61.3288 35.34L60.8688 35.4Z" fill="#FFC5C6"/>
<path d="M20.9688 45.6198C20.5995 45.6187 20.2377 45.5153 19.9235 45.3212C19.6093 45.127 19.355 44.8497 19.1888 44.5198L18.1888 42.5198C17.9554 42.0424 17.9212 41.4919 18.0938 40.9893C18.2663 40.4867 18.6314 40.0732 19.1088 39.8398C19.5862 39.6064 20.1368 39.5722 20.6394 39.7448C21.142 39.9173 21.5554 40.2824 21.7888 40.7598L22.7488 42.7598C22.8694 42.9947 22.9423 43.2511 22.9633 43.5142C22.9843 43.7774 22.953 44.0421 22.8712 44.2931C22.7894 44.5441 22.6587 44.7765 22.4867 44.9767C22.3146 45.1769 22.1046 45.3411 21.8688 45.4598C21.5852 45.5819 21.2772 45.6367 20.9688 45.6198ZM29.7688 60.3598C29.4583 60.3598 29.1521 60.2875 28.8744 60.1487C28.5967 60.0098 28.3551 59.8082 28.1688 59.5598C25.9016 56.5203 23.8499 53.3259 22.0288 49.9998C21.7636 49.5357 21.6936 48.9852 21.8343 48.4695C21.9749 47.9538 22.3147 47.515 22.7788 47.2498C23.243 46.9846 23.7934 46.9146 24.3092 47.0553C24.8249 47.1959 25.2636 47.5357 25.5288 47.9998C27.2488 51.1768 29.1867 54.2308 31.3288 57.1398C31.6492 57.5617 31.7892 58.0935 31.7179 58.6184C31.6467 59.1434 31.3701 59.6186 30.9488 59.9398C30.6106 60.2026 30.197 60.3498 29.7688 60.3598Z" fill="#AA2937"/>
<path d="M54.0289 34.0001C53.8978 34.0017 53.7677 33.9758 53.6472 33.9242C53.5266 33.8725 53.4182 33.7962 53.3289 33.7001L53.0889 33.4601C52.1482 32.5248 50.8755 31.9999 49.5489 32.0001H48.0289C47.7637 32.0001 47.5093 31.8947 47.3218 31.7072C47.1343 31.5197 47.0289 31.2653 47.0289 31.0001C47.0289 30.7349 47.1343 30.4805 47.3218 30.293C47.5093 30.1055 47.7637 30.0001 48.0289 30.0001H49.5489C50.464 29.9882 51.3722 30.1589 52.2204 30.5023C53.0687 30.8458 53.8399 31.3549 54.4889 32.0001L54.7289 32.2401C54.8246 32.3299 54.9008 32.4383 54.9529 32.5587C55.0051 32.6791 55.0319 32.8089 55.0319 32.9401C55.0319 33.0713 55.0051 33.2011 54.9529 33.3215C54.9008 33.4419 54.8246 33.5503 54.7289 33.6401C54.6452 33.7471 54.5393 33.8347 54.4184 33.8969C54.2976 33.959 54.1647 33.9943 54.0289 34.0001ZM26.0289 34.0001C26.1601 34.0017 26.2901 33.9758 26.4107 33.9242C26.5312 33.8725 26.6396 33.7962 26.7289 33.7001L26.9689 33.4601C27.9097 32.5248 29.1824 31.9999 30.5089 32.0001H32.0289C32.2941 32.0001 32.5485 31.8947 32.736 31.7072C32.9236 31.5197 33.0289 31.2653 33.0289 31.0001C33.0289 30.7349 32.9236 30.4805 32.736 30.293C32.5485 30.1055 32.2941 30.0001 32.0289 30.0001H30.5089C29.5939 29.9882 28.6856 30.1589 27.8374 30.5023C26.9891 30.8458 26.2179 31.3549 25.5689 32.0001L25.3289 32.2401C25.2333 32.3299 25.157 32.4383 25.1049 32.5587C25.0528 32.6791 25.0259 32.8089 25.0259 32.9401C25.0259 33.0713 25.0528 33.2011 25.1049 33.3215C25.157 33.4419 25.2333 33.5503 25.3289 33.6401C25.4126 33.7471 25.5186 33.8347 25.6394 33.8969C25.7603 33.959 25.8931 33.9943 26.0289 34.0001Z" fill="#FFC5C6"/>
</svg>
