<svg width="14" height="16" viewBox="0 0 14 16" fill="none" xmlns="http://www.w3.org/2000/svg">
<path d="M6.46262 15.8434C6.46262 15.8434 6.46312 15.8437 7 15.0001L7.53688 15.8437C7.20931 16.0522 6.79019 16.0519 6.46262 15.8434Z" fill="currentColor"/>
<path fill-rule="evenodd" clip-rule="evenodd" d="M10 7.00008C10 8.65693 8.65685 10.0001 7 10.0001C5.34315 10.0001 4 8.65693 4 7.00008C4 5.34322 5.34315 4.00008 7 4.00008C8.65685 4.00008 10 5.34322 10 7.00008ZM8 7.00008C8 7.55236 7.55228 8.00008 7 8.00008C6.44772 8.00008 6 7.55236 6 7.00008C6 6.44779 6.44772 6.00008 7 6.00008C7.55228 6.00008 8 6.44779 8 7.00008Z" fill="currentColor"/>
<path fill-rule="evenodd" clip-rule="evenodd" d="M6.46262 15.8434L7 15.0001C7.53688 15.8437 7.53802 15.843 7.53802 15.843L7.53972 15.8419L7.54475 15.8387L7.56122 15.8281C7.57501 15.8191 7.59435 15.8065 7.61887 15.7903C7.66791 15.7579 7.73774 15.7111 7.8254 15.6506C8.00061 15.5298 8.24764 15.3542 8.54263 15.13C9.13093 14.6828 9.91848 14.0359 10.7098 13.2386C12.2454 11.6913 14 9.37431 14 6.72735C14 4.92776 13.2506 3.21184 11.9331 1.9542C10.6172 0.698071 8.84189 7.62939e-05 7 7.62939e-05C5.15811 7.62939e-05 3.38283 0.698071 2.06688 1.9542C0.749358 3.21184 0 4.92776 0 6.72735C0 9.37431 1.75461 11.6913 3.29023 13.2386C4.08152 14.0359 4.86907 14.6828 5.45737 15.13C5.75236 15.3542 5.99939 15.5298 6.1746 15.6506C6.26226 15.7111 6.33209 15.7579 6.38113 15.7903C6.40565 15.8065 6.425 15.8191 6.43878 15.8281L6.45525 15.8387L6.46028 15.8419L6.46262 15.8434ZM3.44783 3.40091C4.38233 2.5089 5.6593 2.00008 7 2.00008C8.3407 2.00008 9.61767 2.5089 10.5522 3.40091C11.4851 4.29142 12 5.48901 12 6.72735C12 8.53494 10.7546 10.3543 9.29023 11.8297C8.58152 12.5438 7.86907 13.1298 7.33237 13.5378C7.21153 13.6296 7.10003 13.7121 7 13.7847C6.89997 13.7121 6.78847 13.6296 6.66763 13.5378C6.13093 13.1298 5.41848 12.5438 4.70977 11.8297C3.24539 10.3543 2 8.53494 2 6.72735C2 5.48901 2.51492 4.29142 3.44783 3.40091Z" fill="currentColor"/>
</svg>
