<svg width="14" height="12" viewBox="0 0 14 12" fill="none" xmlns="http://www.w3.org/2000/svg">
<path d="M4.58824 11.6875C9.49392 11.6875 12.1771 7.31082 12.1771 3.51538C12.1771 3.39107 12.1771 3.26732 12.1693 3.14413C12.6913 2.73754 13.1419 2.23412 13.5 1.65742C13.0132 1.8897 12.4968 2.04202 11.9681 2.10931C12.5249 1.75037 12.9416 1.1858 13.1407 0.520695C12.6171 0.855248 12.0443 1.09103 11.447 1.21785C11.0449 0.757383 10.513 0.452473 9.93377 0.350305C9.3545 0.248137 8.7601 0.354406 8.24257 0.652667C7.72503 0.950929 7.3132 1.42455 7.07082 2.00025C6.82843 2.57595 6.769 3.22163 6.90172 3.83736C5.84131 3.78012 4.80393 3.48337 3.85693 2.96639C2.90993 2.44941 2.07448 1.72375 1.4048 0.836515C1.06373 1.4688 0.959264 2.21731 1.11268 2.92963C1.26609 3.64194 1.66585 4.26452 2.23056 4.67059C1.80611 4.65704 1.39091 4.53374 1.02 4.31109C1.02 4.32285 1.02 4.33517 1.02 4.34749C1.02017 5.01061 1.23334 5.65325 1.62335 6.16642C2.01336 6.67959 2.5562 7.03168 3.1598 7.16299C2.76713 7.27831 2.35514 7.29517 1.95548 7.21227C2.12591 7.78296 2.45773 8.28203 2.90452 8.63966C3.3513 8.99729 3.89072 9.1956 4.44732 9.20686C3.50286 10.0062 2.33615 10.4401 1.13492 10.4388C0.92271 10.4383 0.710706 10.4245 0.5 10.3973C1.71973 11.2402 3.13895 11.6873 4.58824 11.6853" fill="currentColor"/>
</svg>
