<svg width="188" height="160" viewBox="0 0 188 160" fill="none" xmlns="http://www.w3.org/2000/svg">
<path d="M176.197 100.733C177.925 90.9416 176.812 86.4053 176.812 86.4053C176.732 85.4705 176.304 84.5996 175.613 83.9646C174.922 83.3296 174.017 82.9767 173.078 82.9755H124.093C122.156 82.9755 120.938 84.4322 121.399 86.2086C121.399 86.2086 122.838 91.8329 121.94 96.9346C120.396 105.681 110.395 115.762 110.395 115.762C108.907 117.262 109.276 118.497 111.213 118.497H166.823C167.876 118.42 168.89 118.059 169.756 117.455C170.622 116.85 171.308 116.023 171.744 115.061C171.744 115.061 174.45 110.525 176.178 100.733" fill="currentColor"/>
<path d="M76.4671 0.886583C76.1882 0.601127 75.854 0.375431 75.4849 0.223256C75.1159 0.0710814 74.7197 -0.00438526 74.3205 0.00145957H23.1824C13.7224 0.00145957 4.72986 7.50041 2.72469 16.8618L2.1096 20.39L0.0613826 32.0011C-0.0356015 32.4699 -0.0174429 32.9553 0.114316 33.4156C0.246076 33.8759 0.487517 34.2975 0.817942 34.6441C1.09717 34.9288 1.43155 35.1535 1.80063 35.3047C2.16972 35.4558 2.56577 35.5301 2.96458 35.5231H68.0527C69.0395 35.4853 69.9849 35.1176 70.7377 34.479C71.4904 33.8404 72.007 32.9679 72.2046 32.0011L77.2237 3.52966C77.3206 3.0608 77.3025 2.57543 77.1707 2.11512C77.0389 1.65481 76.7975 1.23327 76.4671 0.886583Z" fill="currentColor"/>
<path d="M69.1414 42.3705C68.8622 42.0859 68.5278 41.8611 68.1588 41.71C67.7897 41.5589 67.3936 41.4845 66.9948 41.4915H38.6271C29.1733 41.4915 20.1746 48.9843 18.1695 58.3519L17.5544 61.8739L15.5 73.4973C15.4046 73.9662 15.4235 74.4511 15.5552 74.9112C15.6869 75.3712 15.9274 75.7928 16.2565 76.1404C16.5367 76.4255 16.8721 76.6505 17.2423 76.8016C17.6124 76.9528 18.0095 77.0268 18.4093 77.0194H60.7332C61.7199 76.9815 62.6654 76.6139 63.4182 75.9753C64.1709 75.3367 64.6875 74.4641 64.8851 73.4973L69.9041 45.0259C70.0011 44.557 69.983 44.0717 69.8512 43.6114C69.7194 43.1511 69.478 42.7295 69.1476 42.3828" fill="currentColor"/>
<path d="M61.8281 83.8545C61.5489 83.5698 61.2145 83.3451 60.8454 83.194C60.4763 83.0428 60.0803 82.9685 59.6814 82.9755H31.3076C21.8476 82.9755 12.8551 90.4683 10.85 99.8358L10.2349 103.364L8.18663 114.969C8.09175 115.439 8.11092 115.925 8.24255 116.386C8.37418 116.846 8.61445 117.269 8.94319 117.618C9.22243 117.903 9.5568 118.128 9.92589 118.279C10.295 118.43 10.691 118.504 11.0898 118.497H53.4199C54.407 118.46 55.3528 118.091 56.1049 117.451C56.8569 116.811 57.3715 115.937 57.5656 114.969L62.5908 86.5037C62.6862 86.0338 62.6673 85.548 62.5356 85.0869C62.404 84.6259 62.1634 84.2032 61.8342 83.8545" fill="currentColor"/>
<path d="M54.5086 125.338C54.2285 125.055 53.894 124.831 53.5251 124.68C53.1562 124.529 52.7606 124.454 52.3619 124.459H23.9881C14.5281 124.459 5.53561 131.952 3.53043 141.32L2.91535 144.848L0.86713 156.477C0.771199 156.946 0.789877 157.431 0.921584 157.892C1.05329 158.352 1.29415 158.773 1.62369 159.121C1.90292 159.405 2.23729 159.63 2.60638 159.781C2.97547 159.932 3.37152 160.007 3.77033 160H46.1004C47.0867 159.962 48.0318 159.595 48.7837 158.956C49.5357 158.317 50.0507 157.444 50.2461 156.477L55.2713 128.006C55.3662 127.536 55.347 127.05 55.2154 126.59C55.0837 126.129 54.8435 125.706 54.5147 125.357" fill="currentColor"/>
<path d="M187.926 3.52966C188.026 3.0996 188.025 2.65255 187.923 2.22295C187.822 1.79335 187.624 1.39269 187.343 1.05182C187.063 0.710953 186.708 0.438982 186.306 0.256878C185.903 0.0747744 185.465 -0.0126096 185.023 0.00146699H87.3479C86.3601 0.0385544 85.4134 0.406715 84.6603 1.04669C83.9072 1.68667 83.3915 2.56124 83.1961 3.52966L78.1709 32.0011C78.0727 32.4312 78.0747 32.8782 78.1766 33.3075C78.2785 33.7367 78.4777 34.1369 78.7587 34.4772C79.0398 34.8174 79.3953 35.0886 79.7977 35.27C80.2002 35.4513 80.639 35.5379 81.0802 35.5231H164.805C174.259 35.5231 183.258 28.0303 185.257 18.6628L185.872 15.2084V15.1346C185.903 14.9318 185.946 14.7166 185.983 14.5199L187.914 3.5481L187.926 3.52966Z" fill="currentColor"/>
<path d="M173.816 74.6836C167.844 56.0776 151.612 42.9053 129.961 41.6206C129.118 41.5407 124.88 41.4915 123.81 41.4915H80.0284C79.5984 41.4962 79.1721 41.5731 78.7675 41.719H78.7183C78.3059 41.8643 77.918 42.0716 77.5681 42.3336C77.3473 42.4906 77.1414 42.6676 76.953 42.8623C76.7881 43.0403 76.6379 43.2315 76.504 43.4339C76.4836 43.457 76.4651 43.4816 76.4486 43.5077C76.3338 43.6903 76.233 43.8814 76.1473 44.0793C76.1473 44.1285 76.098 44.1715 76.0796 44.2207C75.9857 44.4574 75.9136 44.7023 75.8643 44.9521L73.8161 56.5632L73.201 60.0914C71.8847 69.4528 78.2508 76.9517 87.7047 76.9517H171.91C173.324 76.9517 174.265 76.042 173.81 74.6283" fill="currentColor"/>
<path d="M164.627 126.789C152.079 145.413 131.203 158.567 109.122 159.852C108.242 159.926 103.992 159.981 102.897 159.981H59.1156C58.7124 159.981 58.3133 159.902 57.9408 159.748H57.8977C57.5512 159.605 57.2358 159.396 56.9689 159.133C56.815 158.973 56.6808 158.796 56.5691 158.604C56.4659 158.424 56.3833 158.232 56.3231 158.033C56.3092 158.008 56.2988 157.981 56.2923 157.953C56.2431 157.767 56.2102 157.578 56.1939 157.387C56.1939 157.338 56.1939 157.295 56.1939 157.246C56.1747 156.989 56.185 156.732 56.2247 156.477L58.2729 144.873L58.888 141.344C60.8809 131.977 69.8857 124.484 79.3457 124.484H163.551C164.959 124.484 165.58 125.4 164.633 126.814" fill="currentColor"/>
</svg>
