<svg width="19" height="20" viewBox="0 0 19 20" fill="none" xmlns="http://www.w3.org/2000/svg">
<path d="M16.1812 10.5746L10.0012 16.7646C9.19105 17.4846 8.13638 17.8679 7.05296 17.836C5.96953 17.8041 4.93923 17.3595 4.17281 16.5931C3.40638 15.8266 2.96174 14.7963 2.92985 13.7129C2.89796 12.6295 3.28122 11.5748 4.00123 10.7646L12.0012 2.76463C12.4789 2.31093 13.1125 2.05796 13.7712 2.05796C14.43 2.05796 15.0636 2.31093 15.5412 2.76463C16.0066 3.23622 16.2675 3.8721 16.2675 4.53463C16.2675 5.19716 16.0066 5.83304 15.5412 6.30463L8.64123 13.1946C8.57295 13.2682 8.49084 13.3275 8.39961 13.3694C8.30838 13.4112 8.20981 13.4346 8.10952 13.4383C8.00923 13.442 7.90919 13.4259 7.81512 13.391C7.72104 13.3561 7.63477 13.3029 7.56123 13.2346C7.48769 13.1663 7.42832 13.0842 7.38651 12.993C7.3447 12.9018 7.32127 12.8032 7.31756 12.7029C7.31384 12.6026 7.32992 12.5026 7.36487 12.4085C7.39981 12.3144 7.45295 12.2282 7.52123 12.1546L12.6512 7.03463C12.8395 6.84633 12.9453 6.59093 12.9453 6.32463C12.9453 6.05833 12.8395 5.80293 12.6512 5.61463C12.4629 5.42633 12.2075 5.32054 11.9412 5.32054C11.6749 5.32054 11.4195 5.42633 11.2312 5.61463L6.10123 10.7546C5.84454 11.0093 5.6408 11.3123 5.50177 11.6462C5.36273 11.98 5.29115 12.338 5.29115 12.6996C5.29115 13.0612 5.36273 13.4193 5.50177 13.7531C5.6408 14.0869 5.84454 14.3899 6.10123 14.6446C6.62561 15.1441 7.32204 15.4227 8.04623 15.4227C8.77043 15.4227 9.46686 15.1441 9.99123 14.6446L16.8812 7.74463C17.6761 6.89158 18.1089 5.7633 18.0883 4.5975C18.0677 3.43169 17.5954 2.31938 16.771 1.4949C15.9465 0.670422 14.8342 0.19815 13.6684 0.177581C12.5026 0.157012 11.3743 0.589751 10.5212 1.38463L2.52123 9.38463C1.44243 10.5795 0.866262 12.1445 0.912767 13.7536C0.959273 15.3627 1.62487 16.8919 2.77087 18.0224C3.91688 19.1529 5.45491 19.7977 7.06452 19.8223C8.67413 19.847 10.2312 19.2496 11.4112 18.1546L17.6012 11.9746C17.6945 11.8814 17.7684 11.7707 17.8189 11.6489C17.8694 11.5271 17.8953 11.3965 17.8953 11.2646C17.8953 11.1328 17.8694 11.0022 17.8189 10.8804C17.7684 10.7586 17.6945 10.6479 17.6012 10.5546C17.508 10.4614 17.3973 10.3874 17.2755 10.337C17.1537 10.2865 17.0231 10.2605 16.8912 10.2605C16.7594 10.2605 16.6288 10.2865 16.507 10.337C16.3852 10.3874 16.2745 10.4614 16.1812 10.5546V10.5746Z" fill="white"/>
</svg>
