<svg width="16" height="14" viewBox="0 0 16 14" fill="none" xmlns="http://www.w3.org/2000/svg">
<path fill-rule="evenodd" clip-rule="evenodd" d="M0 1C0 0.447715 0.447715 0 1 0H5.2C6.19251 0 7.15359 0.37504 7.86955 1.05691C7.91423 1.09946 7.95772 1.14299 8 1.18745C8.04228 1.14299 8.08577 1.09946 8.13045 1.05691C8.84641 0.37504 9.80749 0 10.8 0H15C15.5523 0 16 0.447715 16 1V11C16 11.5523 15.5523 12 15 12H10.1C9.79295 12 9.5077 12.1166 9.30473 12.3099C9.10342 12.5016 9 12.751 9 13C9 13.5523 8.55228 14 8 14C7.44772 14 7 13.5523 7 13C7 12.751 6.89658 12.5016 6.69527 12.3099C6.4923 12.1166 6.20705 12 5.9 12H1C0.447715 12 0 11.5523 0 11V1ZM7 10.1951C6.65051 10.0669 6.27787 10 5.9 10H2V2H5.2C5.69271 2 6.156 2.18686 6.49024 2.50519C6.82283 2.82193 7 3.24082 7 3.66667V10.1951ZM9 10.1951C9.34949 10.0668 9.72213 10 10.1 10H14V2H10.8C10.3073 2 9.844 2.18686 9.50976 2.50519C9.17717 2.82193 9 3.24082 9 3.66667V10.1951Z" fill="currentColor"/>
</svg>
