<svg width="100" height="160" viewBox="0 0 100 160" fill="none" xmlns="http://www.w3.org/2000/svg">
<path fill-rule="evenodd" clip-rule="evenodd" d="M77.5534 93.9862L77.5459 93.9825L49.946 74.0081L22.3461 93.9825C21.4964 94.6133 20.2225 94.6133 19.1614 93.9825C18.3117 93.3517 17.8875 92.0901 18.1002 91.0392L28.7154 58.8708L1.11547 38.8964C0.265801 38.2656 -0.158407 37.004 0.0543093 35.9531C0.478517 34.9022 1.32819 34.0608 2.60207 34.0608H36.7829L47.3981 1.89235C47.8223 0.841453 48.672 0 49.9459 0C51.2198 0 52.0694 0.630794 52.4936 1.89235L63.1088 34.0608H97.2897C98.3509 34.0608 99.4132 34.6916 99.8374 35.9531C100.262 37.004 99.8374 38.2656 98.7763 38.8964L71.1764 58.8708L81.7915 91.0392C82.2158 92.0901 81.7915 93.3517 80.7304 93.9825C80.3062 94.1919 79.6692 94.4026 79.0323 94.4026C78.3992 94.4025 77.9763 94.1943 77.5534 93.9862ZM49.9471 68.1205C50.5803 68.1205 51.0032 68.3287 51.4262 68.5369L51.4337 68.5406L73.9382 84.7302L65.2337 58.4491C64.8095 57.3982 65.2337 56.1366 66.2948 55.5058L88.7994 39.3163H60.9864C59.9253 39.3163 58.8629 38.6855 58.4387 37.4239L49.9468 11.3538L41.2422 37.6349C40.818 38.6858 39.9683 39.5272 38.6945 39.5272H10.8828L33.3873 55.7168C34.237 56.3476 34.6612 57.6091 34.4485 58.66L25.7439 84.9411L48.4599 68.5419L48.4623 68.5407C48.887 68.3304 49.3114 68.1205 49.9471 68.1205Z" fill="white"/>
<path d="M52.7065 109.326V75.6793C52.7065 74.2071 51.4326 72.9455 49.946 72.9455C48.4593 72.9455 47.1855 74.2071 47.1855 75.6793V109.326H20.6503C19.1637 109.326 17.8898 110.588 17.8898 112.06V155.045H23.1969V114.584H76.6966V154.532H9.18533C7.6987 154.532 6.42483 155.794 6.42483 157.266C6.42483 158.738 7.6987 160 9.18533 160H90.7097C92.1963 160 93.4702 158.738 93.4714 157.266C93.4714 155.794 92.1976 154.532 90.7109 154.532H82.4294L82.4306 112.06C82.4306 110.588 81.1567 109.326 79.6701 109.326H52.7065Z" fill="white"/>
<path fill-rule="evenodd" clip-rule="evenodd" d="M66.0808 144.442H33.5982V124.889H66.0808V144.442ZM38.9062 139.185H60.7737V130.145H38.9062V139.185Z" fill="white"/>
</svg>
