<svg width="74" height="48" viewBox="0 0 74 48" fill="none" xmlns="http://www.w3.org/2000/svg">
<path d="M72.5908 1.18983C72.2126 0.80536 71.7602 0.501685 71.2609 0.297239C70.7617 0.0927936 70.2261 -0.00815854 69.6867 0.000515074H31.3361C18.5409 0.000515074 6.38163 10.1272 3.69077 22.7835L2.84939 27.5485L0.0809783 43.2382C-0.0481526 43.872 -0.0225436 44.5275 0.155637 45.1492C0.333818 45.771 0.659323 46.3406 1.10459 46.8101C1.48222 47.1953 1.93455 47.4994 2.43391 47.7039C2.93326 47.9084 3.46912 48.009 4.00871 47.9994H61.2147C63.8397 47.9994 66.3638 45.857 66.8252 43.2382L73.6144 4.76554C73.7439 4.1312 73.7184 3.47504 73.5402 2.85262C73.3621 2.23019 73.0364 1.65983 72.5908 1.18983Z" fill="#FD495C"/>
<path d="M50.1802 27.1214C50.3416 26.413 50.3752 25.6814 50.2794 24.9612C50.2696 24.8243 50.2096 24.696 50.1107 24.6008C50.0119 24.5057 49.8813 24.4505 49.7442 24.4459H42.7285C42.6673 24.4427 42.6062 24.4546 42.5505 24.4804C42.4949 24.5063 42.4464 24.5453 42.4093 24.5941C42.3722 24.643 42.3476 24.7001 42.3376 24.7606C42.3276 24.8212 42.3326 24.8832 42.352 24.9414C42.4418 25.4727 42.4418 26.0153 42.352 26.5467C42.0286 27.6037 41.4579 28.5684 40.6872 29.3609C40.4891 29.5987 40.5287 29.777 40.8062 29.777H48.7335C48.8875 29.7621 49.0346 29.7066 49.16 29.616C49.2854 29.5255 49.3844 29.4032 49.447 29.2618C49.7766 28.5888 49.991 27.8653 50.0812 27.1214" fill="white"/>
<path d="M35.9308 12.1387C35.8903 12.0952 35.8412 12.0604 35.7867 12.0366C35.7321 12.0127 35.6733 12.0003 35.6137 12H28.3008C27.6025 12.0396 26.9373 12.3103 26.4098 12.7696C25.8824 13.2289 25.5227 13.8506 25.3875 14.5367L25.2884 15.0718L25.011 16.8159C24.9955 16.8851 24.9964 16.957 25.0136 17.0258C25.0308 17.0946 25.0638 17.1584 25.11 17.2122C25.1516 17.2532 25.2013 17.2849 25.2559 17.3054C25.3106 17.3259 25.3689 17.3346 25.4272 17.3311H34.722C34.8646 17.3247 35.0009 17.2703 35.1088 17.1768C35.2167 17.0833 35.2899 16.9561 35.3165 16.8159L36.03 12.5351C36.0454 12.4659 36.0445 12.394 36.0273 12.3252C36.0101 12.2564 35.9771 12.1925 35.9308 12.1387Z" fill="white"/>
<path d="M34.8805 18.3617C34.8399 18.3181 34.7909 18.2834 34.7363 18.2595C34.6818 18.2356 34.6229 18.2232 34.5634 18.223H30.5997C29.9001 18.2649 29.2337 18.5361 28.7036 18.9946C28.1735 19.4531 27.8091 20.0734 27.6667 20.7597V21.2948L27.3693 23.019C27.3567 23.0883 27.3591 23.1595 27.3762 23.2279C27.3933 23.2962 27.4247 23.3601 27.4685 23.4154C27.5074 23.461 27.5562 23.4971 27.6111 23.5212C27.666 23.5452 27.7257 23.5564 27.7856 23.5541H33.8301C33.9756 23.5467 34.1141 23.4895 34.2224 23.3921C34.3307 23.2946 34.4021 23.1629 34.4247 23.019L34.9796 18.6788C34.9951 18.6096 34.9942 18.5377 34.977 18.4689C34.9598 18.4001 34.9267 18.3362 34.8805 18.2824" fill="white"/>
<path d="M33.8301 24.6243C33.7926 24.5822 33.7468 24.5482 33.6957 24.5244C33.6446 24.5005 33.5892 24.4873 33.5329 24.4856H29.4701C28.7705 24.5275 28.1041 24.7987 27.5739 25.2572C27.0438 25.7157 26.6794 26.336 26.537 27.0223V27.5574L26.2397 29.2816C26.2252 29.3523 26.2284 29.4256 26.2492 29.4948C26.2699 29.564 26.3075 29.6269 26.3586 29.678C26.3923 29.7245 26.4372 29.7617 26.4892 29.7859C26.5412 29.8102 26.5986 29.8208 26.6559 29.8167H32.6014C32.7469 29.8093 32.8854 29.7521 32.9937 29.6547C33.102 29.5572 33.1734 29.4255 33.1959 29.2816L33.9293 25.0206C33.9421 24.9499 33.938 24.8771 33.9173 24.8082C33.8967 24.7393 33.86 24.6763 33.8103 24.6243" fill="white"/>
<path d="M32.7797 30.8076C32.743 30.7646 32.6974 30.73 32.6461 30.706C32.5949 30.6821 32.5391 30.6694 32.4825 30.6689H28.4197C27.7215 30.7085 27.0562 30.9792 26.5287 31.4385C26.0013 31.8977 25.6417 32.5194 25.5064 33.2056L25.4073 33.7209L25.11 35.4649C25.0972 35.5357 25.1012 35.6085 25.1219 35.6774C25.1426 35.7463 25.1793 35.8093 25.229 35.8613C25.2665 35.9033 25.3122 35.9373 25.3633 35.9612C25.4144 35.985 25.4698 35.9982 25.5262 36H31.5906C31.735 35.9892 31.8717 35.9308 31.9793 35.8339C32.0869 35.7371 32.1593 35.6073 32.1852 35.4649L32.8986 31.204C32.9115 31.1332 32.9075 31.0604 32.8868 30.9915C32.8661 30.9226 32.8294 30.8596 32.7797 30.8076Z" fill="white"/>
<path d="M51.8648 12.5351C51.8796 12.4718 51.8801 12.406 51.8661 12.3426C51.8522 12.2791 51.8243 12.2195 51.7844 12.1682C51.7445 12.117 51.6936 12.0752 51.6355 12.0461C51.5774 12.017 51.5136 12.0013 51.4486 12H37.4767C37.3323 12.0108 37.1957 12.0692 37.0881 12.1661C36.9805 12.2629 36.9081 12.3927 36.8822 12.5351L36.1687 16.8159C36.1572 16.8777 36.1593 16.9414 36.1747 17.0024C36.1902 17.0634 36.2187 17.1203 36.2582 17.1693C36.2978 17.2182 36.3474 17.258 36.4038 17.286C36.4602 17.3139 36.522 17.3293 36.5849 17.3311H48.4759C49.1714 17.2926 49.8345 17.0247 50.3616 16.5693C50.8887 16.1139 51.2501 15.4967 51.3892 14.8142L51.4883 14.2791C51.4789 14.2467 51.4789 14.2124 51.4883 14.18L51.8648 12.5351Z" fill="white"/>
<path d="M49.8434 23.2172C49.4511 21.8371 48.6358 20.6148 47.5124 19.7224C46.3889 18.83 45.0138 18.3125 43.5808 18.2428H36.248L36.0894 18.3419H35.9903C35.9903 18.3419 35.9903 18.3419 35.9903 18.4608L35.7129 20.2048L35.6138 20.7399C35.5555 21.0463 35.5655 21.3617 35.6431 21.6638C35.7207 21.9659 35.8639 22.2471 36.0626 22.4875C36.2614 22.7278 36.5107 22.9214 36.7928 23.0544C37.0749 23.1874 37.3828 23.2565 37.6947 23.2568H49.7245C49.7677 23.2624 49.8116 23.2569 49.8522 23.2409C49.8928 23.2248 49.9286 23.1988 49.9563 23.1651C49.9841 23.1314 50.0028 23.0913 50.0108 23.0484C50.0187 23.0055 50.0157 22.9613 50.0019 22.9199" fill="white"/>
<path d="M48.4561 31.0256C47.6035 32.4044 46.445 33.5684 45.0703 34.4276C43.6956 35.2867 42.1417 35.818 40.5287 35.9802H33.2158C33.17 35.9893 33.1228 35.9893 33.077 35.9802C33.0678 35.9411 33.0678 35.9004 33.077 35.8613L33.3545 34.1371L33.4536 33.602C33.5888 32.9158 33.9485 32.2941 34.4759 31.8348C35.0034 31.3756 35.6686 31.1048 36.3669 31.0652H48.4561C48.6543 31.0652 48.7335 31.204 48.6146 31.422" fill="white"/>
</svg>
