<svg width="160" height="160" viewBox="0 0 160 160" fill="none" xmlns="http://www.w3.org/2000/svg">
<path d="M74.8216 110.162C74.8216 111.543 75.9552 112.661 77.3557 112.661H82.6644C84.0661 112.661 85.1997 111.543 85.1985 110.162C85.1985 108.78 84.0649 107.662 82.6644 107.662H77.3557C75.9552 107.662 74.8216 108.78 74.8216 110.162Z" fill="white"/>
<path fill-rule="evenodd" clip-rule="evenodd" d="M37.6668 9.16005V4.71725C37.6668 3.79484 38.1814 2.94716 39.006 2.51323C51.3317 -3.99927 65.0555 3.45342 77.1639 10.0322C78.1246 10.5553 79.0753 11.0715 80.0126 11.5733C80.8507 11.1241 81.6997 10.6631 82.558 10.1972L82.5587 10.1968L82.8667 10.0295C94.9721 3.4557 108.684 -3.9905 121.016 2.51544C121.841 2.94938 122.356 3.79709 122.356 4.71947V9.17087C125.779 9.93365 129.851 10.8742 132.815 12.1083C133.752 12.4984 134.362 13.4065 134.362 14.4095V14.4973H149.341C155.204 14.4973 159.974 19.2397 159.974 25.0717V97.8575C159.991 97.9744 160 98.0939 160 98.2154C160 98.3369 159.991 98.4564 159.974 98.5732V114.15C159.974 119.98 155.204 124.724 149.341 124.724L149.341 124.723H94.3578C95.5144 133.119 101.836 146.685 112.686 155.001H129.166C130.566 155.001 131.7 156.12 131.7 157.501C131.701 158.882 130.567 160 129.167 160H30.3133C28.9128 160 27.7792 158.882 27.7792 157.501C27.7792 156.12 28.9128 155.001 30.3133 155.001H47.2936C58.1448 146.686 64.467 133.119 65.6238 124.723H10.6355C4.77258 124.723 0 119.978 0 114.146L0.00120215 25.0705C0.00120215 19.2385 4.77255 14.4961 10.6367 14.4961H25.6442L25.6442 14.4092C25.6442 13.4014 26.2585 12.4932 27.1986 12.1043C30.1741 10.8733 34.2675 9.90637 37.6668 9.16005ZM82.5472 79.8196C84.2272 78.8074 85.959 77.704 87.7436 76.565C97.0373 70.6382 107.474 63.987 117.288 66.542V6.28845C107.615 2.29022 95.7995 8.70752 85.3164 14.401L85.3 14.4099C84.3729 14.9145 83.4552 15.412 82.5472 15.9V79.8196ZM77.4771 15.9056C76.7757 15.5286 76.0678 15.1445 75.3529 14.7566C75.1415 14.642 74.9296 14.527 74.717 14.4117C64.2283 8.71264 52.4027 2.29484 42.7357 6.29273V11.0038C42.7393 11.0582 42.7411 11.1129 42.7411 11.1679V66.5449C43.4359 66.3647 44.133 66.2305 44.8324 66.1388C45.6248 66.0341 46.4202 65.9841 47.2178 65.9834L47.2176 65.9829C47.433 65.9829 47.6484 65.9865 47.8641 65.9936C56.0961 66.2584 64.5295 71.6296 72.1939 76.5111L72.2214 76.5287C74.0276 77.6795 75.777 78.7939 77.4771 79.8171L77.4771 15.9056ZM37.6668 14.2841C35.3374 14.8114 32.8066 15.431 30.7129 16.1383V80.5097C41.1644 76.9186 52.9214 75.8763 64.1222 77.3787C64.0095 77.3105 63.8967 77.2425 63.784 77.1748C57.6081 73.4664 51.4724 70.5183 45.9439 71.0482C44.665 71.1714 43.419 71.4812 42.2132 72.0113C41.4549 72.3452 40.616 72.3816 39.8542 72.1275C39.5997 72.043 39.3538 71.9261 39.1227 71.7769C38.2114 71.1936 37.6668 70.2025 37.6668 69.1259V14.2841ZM78.7946 86.3461C63.4501 80.113 44.4582 80.1492 29.1533 86.4475C28.3791 86.7699 27.4799 86.6869 26.7718 86.221C26.0661 85.7575 25.643 84.9761 25.643 84.1415L25.6441 19.4947L10.6355 19.4958C7.56639 19.4958 5.06953 21.9974 5.06953 25.0704V95.7161H154.905V25.0704C154.905 21.9973 152.41 19.4958 149.341 19.4958H134.362V84.1388C134.362 84.9758 133.939 85.7571 133.231 86.2183C132.525 86.6843 131.632 86.7673 130.849 86.4448C115.565 80.1389 96.5752 80.1103 81.2211 86.3519L81.206 86.3598C80.8322 86.5566 80.421 86.6539 80.0099 86.6539L80.0113 86.6528C80.0073 86.6528 80.0033 86.6528 79.9993 86.6528C79.5922 86.6509 79.1855 86.5537 78.8165 86.3576C78.8092 86.3538 78.8019 86.3499 78.7946 86.3461ZM117.814 72.0115C117.447 71.8503 117.076 71.7094 116.701 71.5879C110.434 69.5636 103.196 72.98 95.9158 77.3776C99.2241 76.933 102.58 76.7101 105.933 76.7101C113.937 76.7101 121.934 77.9739 129.292 80.5088V16.1396C127.205 15.4365 124.639 14.8165 122.362 14.2996V69.1293C122.362 70.2059 121.817 71.197 120.906 71.7803C120.193 72.2364 119.343 72.3897 118.527 72.2326C118.285 72.1863 118.046 72.1127 117.814 72.0115ZM154.905 100.715V114.149C154.905 117.224 152.41 119.726 149.341 119.726H10.6355C7.56639 119.726 5.06953 117.224 5.06953 114.149V100.715H154.905ZM70.7149 124.743C69.7496 132.749 64.6273 145.459 54.9344 155H105.041C95.3521 145.458 90.2284 132.749 89.263 124.743H70.7149Z" fill="white"/>
</svg>
