<svg width="114" height="120" viewBox="0 0 114 120" fill="none" xmlns="http://www.w3.org/2000/svg">
<path d="M32.5835 13.8462C31.3047 13.8462 30.2679 12.8128 30.2679 11.5385V9.23077H27.9523C26.6736 9.23077 25.6367 8.19745 25.6367 6.92308C25.6367 5.6487 26.6736 4.61538 27.9523 4.61538H30.2679V2.30769C30.2679 1.03332 31.3047 0 32.5835 0C33.8622 0 34.899 1.03332 34.899 2.30769V4.61538H37.2146C38.4933 4.61538 39.5302 5.6487 39.5302 6.92308C39.5302 8.19745 38.4933 9.23077 37.2146 9.23077H34.899V11.5385C34.899 12.8128 33.8622 13.8462 32.5835 13.8462Z" fill="#096142"/>
<path d="M90.4729 113.077C90.4729 111.803 89.436 110.769 88.1573 110.769H85.8417V108.462C85.8417 107.187 84.8049 106.154 83.5261 106.154C82.2474 106.154 81.2106 107.187 81.2106 108.462V110.769H78.895C77.6163 110.769 76.5794 111.803 76.5794 113.077C76.5794 114.351 77.6163 115.385 78.895 115.385H81.2106V117.692C81.2106 118.967 82.2474 120 83.5261 120C84.8049 120 85.8417 118.967 85.8417 117.692V115.385H88.1573C89.436 115.385 90.4729 114.351 90.4729 113.077Z" fill="#096142"/>
<path fill-rule="evenodd" clip-rule="evenodd" d="M11.7433 32.3077C14.1994 32.3077 16.5554 31.3352 18.2931 29.6044C20.0297 27.8726 21.0056 25.5247 21.0056 23.0769C21.0056 20.6292 20.0297 18.2811 18.2931 16.5495C16.5553 14.8187 14.1994 13.8462 11.7433 13.8462C9.28718 13.8462 6.93111 14.8187 5.19351 16.5495C3.45682 18.2812 2.48097 20.6292 2.48097 23.0769C2.48097 25.5247 3.45682 27.8727 5.19351 29.6044C6.93122 31.3352 9.28718 32.3077 11.7433 32.3077ZM11.7433 18.4615C12.9714 18.4615 14.1498 18.9478 15.0182 19.8132C15.8865 20.6786 16.3744 21.853 16.3744 23.0769C16.3744 24.3008 15.8865 25.4753 15.0182 26.3407C14.1498 27.206 12.9714 27.6923 11.7433 27.6923C10.5152 27.6923 9.33672 27.206 8.46839 26.3407C7.60006 25.4753 7.11213 24.3008 7.11213 23.0769C7.11213 21.853 7.60006 20.6786 8.46839 19.8132C9.33672 18.9478 10.5152 18.4615 11.7433 18.4615Z" fill="#096142"/>
<path fill-rule="evenodd" clip-rule="evenodd" d="M104.366 83.0769C101.91 83.0769 99.5542 84.0494 97.8166 85.7802C96.0799 87.512 95.104 89.86 95.104 92.3077C95.104 94.7554 96.0799 97.1035 97.8166 98.8352C99.5543 100.566 101.91 101.538 104.366 101.538C106.822 101.538 109.178 100.566 110.916 98.8352C112.653 97.1034 113.629 94.7554 113.629 92.3077C113.629 89.86 112.653 87.5119 110.916 85.7802C109.178 84.0494 106.822 83.0769 104.366 83.0769ZM104.366 96.9231C103.138 96.9231 101.96 96.4368 101.091 95.5714C100.223 94.7061 99.7352 93.5316 99.7352 92.3077C99.7352 91.0838 100.223 89.9093 101.091 89.044C101.96 88.1786 103.138 87.6923 104.366 87.6923C105.594 87.6923 106.773 88.1786 107.641 89.044C108.51 89.9093 108.997 91.0838 108.997 92.3077C108.997 93.5316 108.51 94.7061 107.641 95.5714C106.773 96.4368 105.594 96.9231 104.366 96.9231Z" fill="#096142"/>
<path fill-rule="evenodd" clip-rule="evenodd" d="M77.273 39.4629C76.3798 39.773 75.4402 39.9285 74.4943 39.9244L74.4945 39.8316C71.7798 39.84 69.1975 38.6603 67.4318 36.605C65.6662 34.5508 64.894 31.8269 65.3199 29.1545C65.7449 26.482 67.3254 24.1311 69.643 22.7217C71.9607 21.3123 74.7817 20.9868 77.3609 21.8326C79.939 22.6776 82.0169 24.6082 83.0424 27.1126C84.0689 29.6181 83.9407 32.445 82.692 34.8475C81.5755 37.0449 79.6247 38.7067 77.273 39.4629ZM72.0826 26.7478C71.3549 27.1877 70.7636 27.8182 70.3728 28.5703C69.8198 29.655 69.7196 30.9129 70.0917 32.0709C70.4649 33.2289 71.2815 34.1932 72.3638 34.7547C73.4483 35.3223 74.7136 35.4387 75.8838 35.0782C77.0601 34.7166 78.0432 33.9027 78.6159 32.8168C79.1834 31.7279 79.292 30.4587 78.9188 29.2894C78.5445 28.1201 77.7196 27.1475 76.6249 26.5861C75.9654 26.2492 75.2345 26.0751 74.4944 26.0782C73.6436 26.0761 72.8094 26.3079 72.0826 26.7478Z" fill="#096142"/>
<path fill-rule="evenodd" clip-rule="evenodd" d="M29.1561 71.6303C28.2176 71.9538 27.2324 72.1258 26.2379 72.1371L26.0994 72.1369C23.2733 72.1264 20.6062 70.8294 18.8581 68.6155C17.11 66.4028 16.4712 63.5151 17.1245 60.7736C17.7779 58.0333 19.65 55.74 22.2106 54.546C24.7709 53.3519 27.7379 53.389 30.2675 54.6449C32.4631 55.7462 34.1285 57.6727 34.8986 59.999C35.6667 62.3006 35.4951 64.8111 34.42 66.988C33.3458 69.1649 31.4541 70.8319 29.1561 71.6303ZM26.2379 58.5218C25.7479 58.4332 25.2466 58.4332 24.7566 58.5218H24.7557C23.5425 58.9082 22.542 59.7745 21.9901 60.9189C21.4381 62.0624 21.3833 63.3821 21.8382 64.5679C22.3603 66.135 23.6803 67.3053 25.3023 67.6381C26.9232 67.9719 28.6009 67.4176 29.7019 66.1844C30.8018 64.9515 31.1595 63.2268 30.6374 61.6608C30.3273 60.7439 29.735 59.9476 28.9462 59.384C28.1566 58.8216 27.2097 58.5197 26.2379 58.5218Z" fill="#096142"/>
<path fill-rule="evenodd" clip-rule="evenodd" d="M82.4913 88.0751C79.5649 89.0013 76.3882 88.7304 73.6622 87.3231H73.4306L73.7994 88.4319C74.8218 91.3475 74.5871 94.5555 73.1513 97.2929C71.7858 100.042 69.3635 102.122 66.4361 103.062H66.4351L31.3309 114.693C30.1536 115.094 28.9172 115.297 27.6726 115.293C25.8749 115.291 24.1009 114.88 22.4862 114.094C19.7385 112.721 17.6545 110.312 16.6973 107.401L7.11027 78.7386L0.627447 59.2614C-0.394926 56.3458 -0.160271 53.1377 1.2756 50.4003C2.64113 47.6517 5.06335 45.5717 7.99077 44.6311L42.7721 33.0462C44.3312 32.5049 45.9727 32.3163 47.583 32.4724L52.3233 23.2429C52.348 23.1867 52.3751 23.1313 52.4045 23.0769L59.2592 9.73875C60.6713 7.02095 63.1088 4.97401 66.0363 4.04785C68.9626 3.12168 72.1393 3.39265 74.8654 4.79992V4.80095L107.747 21.785C110.474 23.1923 112.528 25.6216 113.457 28.5391C114.386 31.4555 114.115 34.6213 112.702 37.3381L89.2683 82.3842C87.8562 85.102 85.4187 87.149 82.4913 88.0751ZM56.3047 25.4899C56.37 25.3984 56.4289 25.3016 56.4805 25.2002L63.3341 12C64.1839 10.398 65.6259 9.18852 67.3553 8.62914C69.0847 8.0687 70.9642 8.2016 72.5964 9L105.478 25.9841C107.128 26.8371 108.365 28.3186 108.904 30.0926C109.464 31.8326 109.314 33.7221 108.488 35.3539L94.5944 61.708L89.4535 49.6151C89.0028 48.5087 87.7654 47.942 86.6293 48.3232L62.6405 55.9386L57.4078 40.3392L57.4068 40.3381C56.4888 37.5504 54.539 35.2229 51.9614 33.8248L56.3047 25.4899ZM11.4634 77.2614L4.9805 58.0148V58.0158C4.41917 56.2593 4.56907 54.3554 5.39709 52.7081C6.22615 51.067 7.67546 49.8215 9.42672 49.2466L44.5758 37.5702V37.5692C46.357 37.0211 48.2839 37.1983 49.9337 38.0637C51.5825 38.929 52.8209 40.4115 53.375 42.1845L62.6373 70.3384L50.3648 65.723C49.2515 65.3078 48.0017 65.7828 47.4477 66.8305L36.8881 87.6926L27.2559 83.0772C26.309 82.6259 25.177 82.8516 24.4772 83.6314L16.3727 92.3078L11.4634 77.2614ZM86.3513 53.3064L92.1402 67.1525L85.1935 80.4907C84.3437 82.0927 82.9017 83.3022 81.1723 83.8615C79.4428 84.422 77.5634 84.2891 75.9312 83.4907L71.3 81.183L64.3533 60.3673L86.3513 53.3064ZM69.031 95.2141C68.202 96.8552 66.7526 98.1007 65.0014 98.6756L29.8523 110.352V110.353C28.1187 110.935 26.227 110.822 24.5759 110.038C22.925 109.255 21.6443 107.861 21.0065 106.153L18.2278 97.3373L26.7954 87.6914L36.8908 92.7219C37.4552 92.9527 38.0868 92.9527 38.6513 92.7219C39.2395 92.5396 39.7263 92.1223 39.9941 91.5681L50.7841 70.1065L64.6776 75.5071L67.3178 83.3532L69.5403 89.9076V89.9066C70.0737 91.6744 69.8901 93.5792 69.031 95.2141Z" fill="#096142"/>
</svg>
