<svg width="83" height="32" viewBox="0 0 83 32" fill="none" xmlns="http://www.w3.org/2000/svg">
<path d="M42.9703 6.09637C43.4048 6.06504 43.8143 5.88129 44.1267 5.57753C44.439 5.27376 44.6341 4.86947 44.6777 4.43588C44.7442 4.24453 44.7626 4.03974 44.7313 3.83959C44.6999 3.63945 44.6197 3.45012 44.4978 3.28833C44.3759 3.12654 44.216 2.99727 44.0323 2.91195C43.8486 2.82662 43.6468 2.78788 43.4446 2.79912L42.9703 6.09637ZM41.2391 2.70423C40.7957 2.71836 40.3721 2.89143 40.0456 3.19189C39.7192 3.49234 39.5115 3.90017 39.4605 4.341C39.394 4.53234 39.3757 4.73714 39.4071 4.93729C39.4384 5.13743 39.5186 5.32676 39.6405 5.48855C39.7624 5.65034 39.9222 5.7796 40.1059 5.86493C40.2896 5.95025 40.4915 5.98901 40.6937 5.97777L41.2391 2.70423ZM47.0491 4.43588C46.8323 5.41824 46.2756 6.29247 45.4773 6.90438C44.679 7.5163 43.6904 7.8266 42.6857 7.78058L42.5197 8.8006H40.1483L40.3143 7.78058C38.1089 7.78058 36.7571 6.47592 37.0891 4.41217C37.3016 3.42753 37.8572 2.55054 38.6565 1.93784C39.4558 1.32514 40.4469 1.01665 41.4526 1.06747L41.6185 0.071167H43.99L43.824 1.06747C46.0532 1.06747 47.4048 2.34841 47.0491 4.43588Z" fill="white"/>
<path d="M51.792 5.64562C51.958 4.60188 51.792 4.03258 50.9146 4.03258C50.0372 4.03258 49.634 4.57816 49.468 5.6219C49.302 6.68936 49.468 7.25866 50.3692 7.25866C51.2703 7.25866 51.626 6.66563 51.792 5.64562ZM47.4049 5.64562C47.5416 4.73836 48.0002 3.91066 48.697 3.31391C49.3937 2.71716 50.2819 2.39125 51.1992 2.3958C51.6054 2.35929 52.0145 2.42128 52.3917 2.57651C52.7689 2.73174 53.1031 2.97563 53.366 3.28753C53.6289 3.59943 53.8128 3.97013 53.9021 4.36823C53.9914 4.76633 53.9835 5.1801 53.8789 5.57446C53.7518 6.47962 53.2984 7.30713 52.6039 7.90127C51.9095 8.49541 51.022 8.81522 50.1083 8.80055C49.7018 8.84731 49.2901 8.79314 48.9095 8.64284C48.5289 8.49254 48.1912 8.25074 47.9263 7.93883C47.6614 7.62692 47.4773 7.2545 47.3905 6.85453C47.3037 6.45455 47.3168 6.03934 47.4286 5.64562" fill="white"/>
<path d="M58.4557 6.26237H56.7008L56.274 8.70566H54.282L55.3254 2.5144H57.3174L56.938 4.83909H58.7166L59.096 2.5144H61.1117L60.0683 8.70566H58.0526L58.4557 6.26237Z" fill="white"/>
<path d="M63.4595 7.25866H65.0483L65.5937 3.9614H64.3606C64.3606 4.6256 64.1472 5.19491 64.0286 5.71678C63.9061 6.25314 63.7149 6.77139 63.4595 7.25866ZM62.3212 10.2001H60.5426L61.0406 7.25866H61.2777C61.6335 7.09261 61.9417 6.59447 62.2263 5.55073C62.4696 4.54941 62.6596 3.53587 62.7955 2.5144H67.7992L67.0166 7.25866H67.7992L67.3012 10.2001H65.5226L65.7598 8.70566H62.5346L62.3212 10.2001Z" fill="white"/>
<path d="M36.52 10.8406H38.844L38.2986 14.0904H40.9546L41.5 10.8406H43.8003L42.3775 19.3091H40.0534L40.6226 15.9881H37.9666L37.4212 19.3091H35.0972L36.52 10.8406Z" fill="white"/>
<path d="M47.4286 17.1505V16.771H47.0491C46.2191 16.771 45.8397 16.937 45.7449 17.4351C45.65 17.9333 45.8871 18.0282 46.3614 18.0282C46.6242 18.0397 46.8826 17.958 47.0909 17.7974C47.2992 17.6367 47.444 17.4076 47.4997 17.1505H47.4286ZM43.7292 17.6012C43.9663 16.1542 45.2469 15.5849 47.2152 15.5849H47.7605V15.4426C47.8791 14.8495 47.7605 14.4463 47.1677 14.4463C46.9508 14.4369 46.7379 14.5061 46.568 14.6412C46.3981 14.7763 46.2827 14.9682 46.2429 15.1816H44.3457C44.5143 14.4873 44.9298 13.8781 45.5145 13.4677C46.0993 13.0574 46.8134 12.874 47.5235 12.9518C49.1597 12.9518 50.0846 13.6635 49.8949 15.324L49.2309 19.3328H47.0491L47.1677 18.6212C46.9372 18.8984 46.6465 19.1194 46.3178 19.2674C45.989 19.4154 45.6309 19.4864 45.2706 19.4752C44.2034 19.4752 43.3735 18.9296 43.5869 17.6249" fill="white"/>
<path d="M51.2702 13.1179H53.2859L52.4797 17.8622H53.6417L54.4242 13.1179H56.4399L55.6337 17.8622H56.7957L57.602 13.1179H59.6177L58.5742 19.3092H50.2268L51.2702 13.1179Z" fill="white"/>
<path d="M64.3369 15.5137C64.3369 14.7783 64.1471 14.3513 63.4831 14.3513C63.1646 14.3714 62.8616 14.4963 62.6214 14.7065C62.3812 14.9167 62.2173 15.2005 62.1551 15.5137H64.3369ZM59.9735 16.2965C60.0768 15.388 60.5064 14.548 61.1825 13.9328C61.8587 13.3175 62.7353 12.9689 63.6491 12.9518C65.2617 12.9518 66.4948 13.9244 66.0206 16.1542V16.7235H61.8706C61.8706 17.53 62.1551 18.0044 62.8903 18.0044C63.1351 18.0282 63.3808 17.9685 63.5874 17.835C63.794 17.7015 63.9495 17.502 64.0286 17.2691H65.9257C65.7136 17.9679 65.2622 18.5696 64.6507 18.9687C64.0393 19.3677 63.3068 19.5387 62.582 19.4514C62.1735 19.5179 61.7548 19.4763 61.3674 19.3308C60.98 19.1853 60.6373 18.9409 60.3736 18.6219C60.1098 18.3029 59.9342 17.9205 59.864 17.5125C59.7938 17.1046 59.8315 16.6853 59.9735 16.2965Z" fill="white"/>
<path d="M36.5912 28.1571C37.3263 28.1571 37.7769 27.8724 37.8718 27.232C37.8718 26.6389 37.6346 26.3068 36.8758 26.3068H36.2118L35.9035 28.2045L36.5912 28.1571ZM36.3778 29.9836H33.3186L34.7415 21.5151H40.2906L39.9349 23.4128H36.6861L36.4726 24.6226H37.3263C39.342 24.6226 40.3144 25.5478 40.0298 27.232C39.9661 27.6541 39.8198 28.0596 39.5994 28.4252C39.379 28.7908 39.0887 29.1093 38.7452 29.3627C38.4016 29.616 38.0115 29.7991 37.5971 29.9016C37.1828 30.0041 36.7524 30.0239 36.3304 29.9599" fill="white"/>
<path d="M42.1166 29.2958L40.6938 23.745H42.8755L43.5395 27.0423L45.2232 23.745H47.1678L42.6146 32H40.67L42.1166 29.2958Z" fill="white"/>
<path d="M48.5905 28.4893H50.1794L50.7248 25.192H49.4206C49.302 25.8562 49.1834 26.4255 49.0649 26.9237C48.9421 27.4675 48.7508 27.9936 48.4957 28.4893H48.5905ZM47.3574 31.4307H45.5789L46.0768 28.4893H46.3614C46.7171 28.2995 47.0491 27.8013 47.31 26.7813C47.5503 25.7794 47.7403 24.766 47.8791 23.745H52.8828L52.1003 28.4893H52.8828L52.3848 31.4307H50.6063L50.8671 29.9363H47.6182L47.3574 31.4307Z" fill="white"/>
<path d="M55.2306 29.2958L53.8078 23.745H55.9895L56.6535 27.0423L58.3372 23.745H60.2581L55.7286 32H53.7841L55.2306 29.2958Z" fill="white"/>
<path d="M67.0878 31.4307L67.2538 29.9362H59.926L60.9695 23.745H62.9852L62.1789 28.4893H63.3409L64.1235 23.745H66.1392L65.3329 28.4893H66.4949L67.3012 23.745H69.2932L68.5106 28.4893H69.2932L68.7952 31.4307H67.0878Z" fill="white"/>
<path d="M74.3205 26.1408C74.3205 25.3818 74.1308 24.9785 73.4905 24.9785C73.1694 24.9902 72.8621 25.1122 72.6203 25.3238C72.3784 25.5355 72.2168 25.824 72.1625 26.1408H74.3205ZM69.9571 26.8999C70.0879 26.005 70.5358 25.1869 71.2193 24.5947C71.9027 24.0025 72.7761 23.6757 73.6803 23.6738C75.2929 23.6738 76.526 24.6464 76.0517 26.8525V27.4218H71.9017C71.9017 28.2283 72.21 28.7027 72.9214 28.7027C73.1694 28.7278 73.4186 28.669 73.6293 28.5357C73.8399 28.4024 73.9998 28.2023 74.0834 27.9674H75.9568C75.7452 28.668 75.2948 29.2724 74.6839 29.6754C74.0731 30.0784 73.3403 30.2547 72.6131 30.1735C72.1966 30.2571 71.7653 30.2273 71.3643 30.0872C70.9632 29.9471 70.6072 29.7018 70.3334 29.377C70.0595 29.0521 69.8779 28.6597 69.8075 28.2406C69.7372 27.8216 69.7806 27.3913 69.9334 26.9948" fill="white"/>
<path d="M81.0791 26.1408C81.0791 25.3818 80.8894 24.9785 80.2254 24.9785C79.9042 24.9902 79.597 25.1122 79.3551 25.3238C79.1133 25.5355 78.9516 25.824 78.8974 26.1408H81.0791ZM76.7157 26.8999C76.8517 26.003 77.3044 25.1845 77.9917 24.5927C78.6791 24.0009 79.5556 23.6749 80.4625 23.6738C82.0751 23.6738 83.3082 24.6464 82.834 26.8525V27.4218H78.6839C78.6839 28.2283 78.9685 28.7027 79.7036 28.7027C79.9492 28.731 80.1969 28.6731 80.4045 28.539C80.6121 28.4048 80.7667 28.2028 80.842 27.9674H82.7391C82.5267 28.6725 82.0728 29.2802 81.4569 29.6836C80.841 30.0871 80.1027 30.2605 79.3717 30.1734C78.9569 30.252 78.5287 30.2184 78.1313 30.0761C77.7338 29.9338 77.3815 29.688 77.1108 29.364C76.8401 29.04 76.6608 28.6496 76.5913 28.2331C76.5218 27.8166 76.5648 27.3892 76.7157 26.9948" fill="white"/>
<path d="M30.1408 19.2854C30.3338 18.4374 30.374 17.5618 30.2594 16.6997C30.2478 16.536 30.1759 16.3823 30.0576 16.2684C29.9394 16.1545 29.7831 16.0884 29.6191 16.083H21.2242C21.1509 16.0792 21.0778 16.0934 21.0112 16.1243C20.9446 16.1552 20.8866 16.2019 20.8422 16.2604C20.7978 16.3188 20.7683 16.3873 20.7564 16.4597C20.7444 16.5321 20.7504 16.6064 20.7737 16.676C20.8811 17.312 20.8811 17.9615 20.7737 18.5975C20.3867 19.8626 19.7037 21.0173 18.7816 21.9659C18.5445 22.2505 18.592 22.464 18.924 22.464H28.4097C28.5939 22.4462 28.7699 22.3797 28.92 22.2713C29.07 22.1629 29.1885 22.0166 29.2634 21.8473C29.6578 21.0418 29.9143 20.1758 30.0222 19.2854" fill="white"/>
<path d="M13.0903 1.35208C13.0417 1.29996 12.983 1.25834 12.9178 1.22979C12.8525 1.20123 12.7821 1.18634 12.7108 1.18604H3.96027C3.12475 1.23341 2.32875 1.55748 1.69761 2.1072C1.06648 2.65692 0.636087 3.40104 0.474266 4.22236L0.355724 4.86283L0.0237615 6.9503C0.00526239 7.03316 0.00628919 7.11919 0.0268734 7.20155C0.0474576 7.28391 0.0870023 7.36032 0.142304 7.42472C0.192043 7.47372 0.251495 7.51172 0.316861 7.53624C0.382228 7.56076 0.452057 7.57126 0.521741 7.56705H11.6437C11.8144 7.55937 11.9775 7.4943 12.1066 7.38237C12.2357 7.27045 12.3233 7.11821 12.3551 6.9503L13.2089 1.82651C13.2274 1.74366 13.2263 1.65762 13.2057 1.57526C13.1851 1.4929 13.1456 1.41648 13.0903 1.35208Z" fill="white"/>
<path d="M11.8335 8.80057C11.7849 8.74845 11.7262 8.70683 11.6609 8.67827C11.5957 8.64972 11.5253 8.63482 11.454 8.63452H6.71118C5.87399 8.68476 5.07666 9.00935 4.4423 9.55815C3.80794 10.1069 3.37191 10.8494 3.20151 11.6708V12.3113L2.84574 14.3751C2.83065 14.458 2.83347 14.5433 2.85392 14.6251C2.87436 14.7069 2.91201 14.7834 2.96435 14.8495C3.01093 14.9041 3.06928 14.9474 3.135 14.9761C3.20073 15.0049 3.27211 15.0184 3.34379 15.0155H10.5766C10.7507 15.0068 10.9165 14.9383 11.046 14.8216C11.1756 14.705 11.2611 14.5473 11.2881 14.3751L11.9521 9.18011C11.9706 9.09725 11.9695 9.01123 11.9489 8.92887C11.9283 8.8465 11.8888 8.77008 11.8335 8.70568" fill="white"/>
<path d="M10.5765 16.2965C10.5316 16.2462 10.4769 16.2055 10.4157 16.177C10.3546 16.1484 10.2883 16.1326 10.2208 16.1305H5.35943C4.52224 16.1807 3.72483 16.5053 3.09048 17.0541C2.45612 17.6029 2.02009 18.3454 1.84969 19.1668V19.8073L1.49399 21.871C1.47656 21.9557 1.48044 22.0434 1.50528 22.1262C1.53011 22.209 1.57512 22.2844 1.63627 22.3455C1.6765 22.4012 1.73026 22.4457 1.79252 22.4747C1.85477 22.5038 1.92345 22.5165 1.99197 22.5115H9.10625C9.28033 22.5027 9.44609 22.4343 9.57565 22.3176C9.70521 22.201 9.79064 22.0433 9.81765 21.871L10.6951 16.771C10.7105 16.6863 10.7056 16.5991 10.6809 16.5167C10.6562 16.4342 10.6122 16.3588 10.5528 16.2965" fill="white"/>
<path d="M9.31976 23.6975C9.27575 23.6461 9.22125 23.6046 9.15989 23.576C9.09853 23.5473 9.03176 23.5322 8.96406 23.5315H4.10266C3.26714 23.5789 2.47106 23.9029 1.83993 24.4527C1.2088 25.0024 0.778475 25.7465 0.616655 26.5678L0.49804 27.1846L0.14234 29.272C0.126957 29.3567 0.131795 29.4439 0.156525 29.5263C0.181254 29.6088 0.225167 29.6842 0.28462 29.7465C0.329572 29.7968 0.384278 29.8375 0.445427 29.866C0.506575 29.8946 0.572874 29.9104 0.64032 29.9125H7.89688C8.06961 29.8996 8.23319 29.8297 8.36194 29.7138C8.49068 29.5979 8.57735 29.4425 8.60836 29.272L9.46204 24.172C9.47742 24.0873 9.47258 24.0001 9.44785 23.9177C9.42312 23.8352 9.37921 23.7598 9.31976 23.6975Z" fill="white"/>
<path d="M32.1566 1.82651C32.1743 1.75077 32.1748 1.67203 32.1582 1.59606C32.1415 1.52009 32.1081 1.4488 32.0603 1.38741C32.0126 1.32602 31.9517 1.27608 31.8822 1.24123C31.8127 1.20639 31.7363 1.18753 31.6586 1.18604H14.94C14.7673 1.19899 14.6037 1.26889 14.475 1.3848C14.3463 1.5007 14.2596 1.65605 14.2286 1.82651L13.3748 6.9503C13.3611 7.02437 13.3636 7.10052 13.3821 7.17354C13.4006 7.24656 13.4347 7.31471 13.482 7.37331C13.5293 7.4319 13.5887 7.47957 13.6562 7.51301C13.7237 7.54646 13.7976 7.56489 13.8729 7.56705H28.1014C28.9337 7.52093 29.7272 7.20027 30.3579 6.65521C30.9886 6.11015 31.421 5.3714 31.5875 4.55445L31.706 3.91398C31.6948 3.87523 31.6948 3.83411 31.706 3.79537L32.1566 1.82651Z" fill="white"/>
<path d="M29.7377 14.6122C29.2684 12.9604 28.2929 11.4973 26.9485 10.4292C25.6042 9.3611 23.9588 8.74168 22.244 8.6582H13.6831H13.4697L13.28 8.77682H13.1614C13.1614 8.77682 13.1614 8.77681 13.1614 8.91914L12.8295 11.0066L12.7108 11.6471C12.6411 12.0138 12.6531 12.3914 12.7459 12.753C12.8388 13.1145 13.0102 13.4511 13.248 13.7388C13.4858 14.0265 13.7841 14.2582 14.1216 14.4174C14.4592 14.5766 14.8277 14.6593 15.2009 14.6597H29.5955C29.6472 14.6664 29.6998 14.6598 29.7483 14.6406C29.7968 14.6214 29.8398 14.5902 29.8729 14.5499C29.9061 14.5096 29.9285 14.4615 29.9381 14.4102C29.9476 14.3589 29.9439 14.306 29.9274 14.2564" fill="white"/>
<path d="M28.0777 23.9585C27.0575 25.6088 25.6713 27.0021 24.0264 28.0304C22.3815 29.0588 20.522 29.6947 18.592 29.8888H10.0549H9.84145C9.78665 29.8997 9.73024 29.8997 9.67544 29.8888C9.66434 29.842 9.66434 29.7933 9.67544 29.7465L10.0075 27.6827L10.126 27.0423C10.2878 26.2209 10.7182 25.4768 11.3494 24.9271C11.9805 24.3774 12.7765 24.0533 13.612 24.0059H28.0777C28.3149 24.0059 28.4097 24.172 28.2674 24.4329" fill="white"/>
</svg>
