<svg width="104" height="40" viewBox="0 0 104 40" fill="none" xmlns="http://www.w3.org/2000/svg">
<g clip-path="url(#clip0_614_136)">
<path d="M53.7285 7.6205C54.2718 7.58133 54.7839 7.35164 55.1745 6.97194C55.565 6.59223 55.809 6.08687 55.8635 5.54488C55.9466 5.3057 55.9697 5.0497 55.9304 4.79952C55.8912 4.54934 55.7909 4.31268 55.6385 4.11044C55.4861 3.90821 55.2862 3.74662 55.0565 3.63997C54.8268 3.53331 54.5745 3.48488 54.3216 3.49893L53.7285 7.6205ZM51.5639 3.38032C51.0095 3.39798 50.4799 3.61432 50.0717 3.98989C49.6635 4.36546 49.4038 4.87524 49.3401 5.42627C49.2569 5.66546 49.234 5.92146 49.2732 6.17164C49.3124 6.42182 49.4127 6.65848 49.5651 6.86071C49.7175 7.06295 49.9174 7.22454 50.1471 7.33119C50.3767 7.43785 50.6292 7.48629 50.882 7.47224L51.5639 3.38032ZM58.8286 5.54488C58.5575 6.77284 57.8614 7.86561 56.8633 8.63051C55.8651 9.3954 54.629 9.78328 53.3727 9.72576L53.1652 11.0008H50.2L50.4076 9.72576C47.65 9.72576 45.9598 8.09493 46.3749 5.51524C46.6406 4.28445 47.3353 3.1882 48.3347 2.42233C49.3342 1.65645 50.5734 1.27084 51.8309 1.33436L52.0384 0.0889893H55.0035L54.796 1.33436C57.5833 1.33436 59.2734 2.93554 58.8286 5.54488Z" fill="#096142"/>
<path d="M64.7592 7.05705C64.9667 5.75238 64.7592 5.04075 63.6621 5.04075C62.565 5.04075 62.0608 5.72273 61.8533 7.0274C61.6457 8.36173 61.8533 9.07336 62.98 9.07336C64.1068 9.07336 64.5516 8.33207 64.7592 7.05705ZM59.2736 7.05705C59.4445 5.92298 60.018 4.88835 60.8892 4.14242C61.7604 3.39648 62.871 2.9891 64.0179 2.99479C64.5258 2.94915 65.0373 3.02663 65.509 3.22067C65.9806 3.41471 66.3984 3.71957 66.7272 4.10945C67.056 4.49932 67.2859 4.96269 67.3976 5.46032C67.5092 5.95794 67.4993 6.47515 67.3685 6.9681C67.2096 8.09956 66.6426 9.13394 65.7744 9.87661C64.9061 10.6193 63.7963 11.0191 62.6539 11.0007C62.1457 11.0592 61.6308 10.9914 61.155 10.8036C60.6791 10.6157 60.2568 10.3135 59.9256 9.92356C59.5943 9.53367 59.3642 9.06816 59.2557 8.56819C59.1471 8.06822 59.1635 7.5492 59.3033 7.05705" fill="#096142"/>
<path d="M73.0913 7.82802H70.897L70.3633 10.8821H67.8726L69.1772 3.14307H71.668L71.1935 6.04892H73.4174L73.8918 3.14307H76.4122L75.1076 10.8821H72.5872L73.0913 7.82802Z" fill="#096142"/>
<path d="M79.3476 9.07338H81.3342L82.0162 4.95182H80.4743C80.4743 5.78206 80.2075 6.4937 80.0592 7.14604C79.9061 7.81648 79.6669 8.4643 79.3476 9.07338ZM77.9243 12.7502H75.7004L76.3231 9.07338H76.6196C77.0644 8.86582 77.4499 8.24315 77.8057 6.93848C78.1099 5.68682 78.3475 4.4199 78.5174 3.14307H84.7738L83.7953 9.07338H84.7738L84.1512 12.7502H81.9273L82.2238 10.8821H78.1912L77.9243 12.7502Z" fill="#096142"/>
<path d="M45.6634 13.5508H48.5692L47.8872 17.613H51.2082L51.8902 13.5508H54.7664L52.9873 24.1364H50.0815L50.7931 19.9852H47.4721L46.7901 24.1364H43.8843L45.6634 13.5508Z" fill="#096142"/>
<path d="M59.3032 21.4381V20.9636H58.8287C57.7909 20.9636 57.3165 21.1712 57.1979 21.7939C57.0793 22.4166 57.3758 22.5352 57.9688 22.5352C58.2973 22.5496 58.6205 22.4474 58.8809 22.2466C59.1414 22.0459 59.3225 21.7595 59.3921 21.4381H59.3032ZM54.6775 22.0014C54.974 20.1927 56.5752 19.481 59.0363 19.481H59.7182V19.3031C59.8665 18.5618 59.7182 18.0578 58.9769 18.0578C58.7058 18.046 58.4396 18.1325 58.2271 18.3014C58.0147 18.4703 57.8703 18.7102 57.8206 18.977H55.4484C55.6592 18.109 56.1787 17.3475 56.9099 16.8346C57.6411 16.3217 58.534 16.0925 59.4218 16.1897C61.4677 16.1897 62.6242 17.0793 62.3869 19.1549L61.5567 24.166H58.8287L58.9769 23.2765C58.6887 23.623 58.3253 23.8992 57.9142 24.0842C57.5032 24.2692 57.0554 24.358 56.6048 24.3439C55.2705 24.3439 54.2327 23.6619 54.4996 22.0311" fill="#096142"/>
<path d="M64.1067 16.3973H66.6271L65.6189 22.3277H67.0718L68.0503 16.3973H70.5707L69.5626 22.3277H71.0155L72.0236 16.3973H74.544L73.2394 24.1364H62.802L64.1067 16.3973Z" fill="#096142"/>
<path d="M80.4448 19.3922C80.4448 18.473 80.2076 17.9393 79.3773 17.9393C78.9791 17.9643 78.6002 18.1204 78.2999 18.3832C77.9995 18.646 77.7946 19.0007 77.7169 19.3922H80.4448ZM74.989 20.3707C75.1181 19.2351 75.6554 18.1851 76.5008 17.4161C77.3462 16.647 78.4422 16.2112 79.5849 16.1898C81.6012 16.1898 83.1431 17.4055 82.5501 20.1928V20.9044H77.3611C77.3611 21.9126 77.7169 22.5056 78.6361 22.5056C78.9422 22.5353 79.2494 22.4607 79.5077 22.2938C79.7661 22.1269 79.9605 21.8777 80.0594 21.5864H82.4315C82.1662 22.4599 81.6018 23.2121 80.8373 23.7109C80.0728 24.2098 79.1569 24.4234 78.2506 24.3144C77.7398 24.3975 77.2163 24.3455 76.7319 24.1636C76.2475 23.9817 75.8191 23.6762 75.4893 23.2775C75.1595 22.8788 74.9398 22.4007 74.8521 21.8907C74.7643 21.3808 74.8115 20.8567 74.989 20.3707Z" fill="#096142"/>
<path d="M45.7523 35.1965C46.6715 35.1965 47.2349 34.8407 47.3535 34.0401C47.3535 33.2988 47.057 32.8837 46.1081 32.8837H45.2779L44.8924 35.2558L45.7523 35.1965ZM45.4855 37.4797H41.6604L43.4395 26.894H50.378L49.9332 29.2662H45.871L45.6041 30.7784H46.6715C49.1919 30.7784 50.4077 31.9348 50.0519 34.0401C49.9722 34.5678 49.7893 35.0746 49.5137 35.5316C49.2381 35.9886 48.8751 36.3868 48.4456 36.7035C48.016 37.0201 47.5282 37.2491 47.0101 37.3772C46.4921 37.5052 45.9539 37.53 45.4262 37.45" fill="#096142"/>
<path d="M52.6613 36.6197L50.8822 29.6813H53.6101L54.4404 33.8028L56.5456 29.6813H58.9771L53.284 40H50.8525L52.6613 36.6197Z" fill="#096142"/>
<path d="M60.7562 35.6116H62.7429L63.4248 31.49H61.794C61.6458 32.3203 61.4975 33.0319 61.3493 33.6546C61.1957 34.3344 60.9566 34.992 60.6376 35.6116H60.7562ZM59.2143 39.2884H56.9905L57.6131 35.6116H57.9689C58.4137 35.3744 58.8288 34.7517 59.155 33.4767C59.4555 32.2242 59.693 30.9575 59.8667 29.6813H66.1231L65.1447 35.6116H66.1231L65.5005 39.2884H63.2766L63.6027 37.4203H59.5405L59.2143 39.2884Z" fill="#096142"/>
<path d="M69.0585 36.6197L67.2794 29.6813H70.0074L70.8376 33.8028L72.9429 29.6813H75.3446L69.6812 40H67.2498L69.0585 36.6197Z" fill="#096142"/>
<path d="M83.8845 39.2884L84.0921 37.4203H74.9297L76.2344 29.6813H78.7547L77.7466 35.6116H79.1995L80.178 29.6813H82.6984L81.6903 35.6116H83.1432L84.1514 29.6813H86.6421L85.6636 35.6116H86.6421L86.0194 39.2884H83.8845Z" fill="#096142"/>
<path d="M92.928 32.6761C92.928 31.7272 92.6908 31.2231 91.8902 31.2231C91.4887 31.2378 91.1045 31.3902 90.8021 31.6548C90.4997 31.9194 90.2976 32.28 90.2297 32.6761H92.928ZM87.4721 33.6249C87.6357 32.5062 88.1957 31.4836 89.0503 30.7434C89.9048 30.0031 90.9969 29.5946 92.1275 29.5923C94.1438 29.5923 95.6857 30.808 95.0926 33.5656V34.2772H89.9036C89.9036 35.2854 90.289 35.8784 91.1786 35.8784C91.4887 35.9097 91.8003 35.8362 92.0637 35.6696C92.3271 35.503 92.527 35.2528 92.6315 34.9592H94.974C94.7093 35.8351 94.1462 36.5905 93.3824 37.0943C92.6186 37.598 91.7024 37.8183 90.7931 37.7168C90.2723 37.8214 89.7331 37.7842 89.2316 37.609C88.7302 37.4339 88.285 37.1273 87.9426 36.7212C87.6002 36.3152 87.3731 35.8246 87.2851 35.3008C87.1971 34.777 87.2515 34.2391 87.4425 33.7435" fill="#096142"/>
<path d="M101.379 32.676C101.379 31.7272 101.142 31.2231 100.311 31.2231C99.9099 31.2378 99.5257 31.3902 99.2233 31.6548C98.9209 31.9194 98.7188 32.28 98.6509 32.676H101.379ZM95.923 33.6249C96.0931 32.5038 96.6591 31.4806 97.5185 30.7409C98.378 30.0011 99.474 29.5936 100.608 29.5923C102.624 29.5923 104.166 30.808 103.573 33.5656V34.2772H98.3841C98.3841 35.2854 98.7399 35.8784 99.6591 35.8784C99.966 35.9137 100.276 35.8413 100.535 35.6737C100.795 35.5061 100.988 35.2535 101.082 34.9592H103.454C103.189 35.8406 102.621 36.6002 101.851 37.1046C101.081 37.6089 100.158 37.8257 99.244 37.7168C98.7254 37.815 98.1899 37.773 97.693 37.5952C97.1961 37.4173 96.7556 37.11 96.4171 36.705C96.0786 36.3 95.8543 35.812 95.7675 35.2914C95.6806 34.7708 95.7343 34.2364 95.923 33.7435" fill="#096142"/>
<path d="M37.687 24.1067C37.9284 23.0468 37.9787 21.9523 37.8353 20.8747C37.8208 20.67 37.7309 20.4779 37.583 20.3355C37.4352 20.1932 37.2398 20.1106 37.0347 20.1038H26.538C26.4463 20.099 26.3549 20.1168 26.2717 20.1554C26.1884 20.1941 26.1159 20.2524 26.0604 20.3255C26.0049 20.3986 25.968 20.4841 25.9531 20.5747C25.9381 20.6652 25.9456 20.758 25.9747 20.8451C26.1091 21.64 26.1091 22.4519 25.9747 23.2468C25.4908 24.8283 24.6369 26.2717 23.4839 27.4574C23.1874 27.8132 23.2467 28.08 23.6619 28.08H35.5225C35.7528 28.0577 35.973 27.9746 36.1605 27.8391C36.3481 27.7036 36.4963 27.5207 36.5899 27.3091C37.0831 26.3022 37.4039 25.2198 37.5388 24.1067" fill="#FD495C"/>
<path d="M16.3676 1.6901C16.3069 1.62495 16.2334 1.57293 16.1519 1.53723C16.0703 1.50154 15.9822 1.48292 15.8931 1.48254H4.9517C3.90699 1.54177 2.91169 1.94685 2.12255 2.634C1.3334 3.32115 0.795247 4.25131 0.592912 5.27794L0.44469 6.07854L0.0296152 8.68788C0.00648446 8.79145 0.00776834 8.89899 0.0335062 9.00194C0.0592441 9.10489 0.108689 9.20041 0.177837 9.28091C0.240029 9.34216 0.314365 9.38965 0.396098 9.4203C0.47783 9.45095 0.565142 9.46407 0.652273 9.45882H14.5589C14.7723 9.44921 14.9762 9.36788 15.1376 9.22797C15.2991 9.08806 15.4086 8.89776 15.4484 8.68788L16.5159 2.28314C16.539 2.17957 16.5376 2.07202 16.5119 1.96907C16.4862 1.86612 16.4367 1.7706 16.3676 1.6901Z" fill="#096142"/>
<path d="M14.7961 11.0008C14.7354 10.9356 14.6619 10.8836 14.5803 10.8479C14.4988 10.8122 14.4107 10.7936 14.3216 10.7932H8.39132C7.34453 10.856 6.34756 11.2618 5.55438 11.9477C4.7612 12.6337 4.216 13.5618 4.00294 14.5886V15.3892L3.55809 17.9689C3.53922 18.0726 3.54275 18.1791 3.56832 18.2814C3.59388 18.3837 3.64095 18.4793 3.70641 18.5619C3.76464 18.6301 3.8376 18.6843 3.91978 18.7202C4.00196 18.7562 4.09121 18.773 4.18084 18.7695H13.2245C13.4422 18.7585 13.6495 18.6729 13.8115 18.5271C13.9735 18.3813 14.0804 18.1842 14.1141 17.9689L14.9444 11.4752C14.9675 11.3716 14.9661 11.2641 14.9404 11.1611C14.9147 11.0582 14.8652 10.9627 14.7961 10.8822" fill="#00953B"/>
<path d="M13.2247 20.3706C13.1684 20.3077 13.1 20.2569 13.0236 20.2212C12.9471 20.1855 12.8642 20.1657 12.7799 20.1631H6.70136C5.65456 20.2259 4.65751 20.6316 3.86433 21.3176C3.07115 22.0036 2.52595 22.9317 2.31289 23.9585V24.7591L1.86813 27.3388C1.84634 27.4446 1.85119 27.5542 1.88225 27.6577C1.9133 27.7613 1.96958 27.8554 2.04603 27.9318C2.09634 28.0014 2.16356 28.0571 2.2414 28.0934C2.31924 28.1297 2.40511 28.1455 2.49079 28.1394H11.3863C11.6039 28.1284 11.8112 28.0428 11.9732 27.897C12.1352 27.7512 12.242 27.5541 12.2758 27.3388L13.373 20.9637C13.3922 20.8578 13.3861 20.7489 13.3551 20.6458C13.3242 20.5427 13.2693 20.4484 13.195 20.3706" fill="#FD495C"/>
<path d="M11.6531 29.622C11.5981 29.5576 11.53 29.5058 11.4532 29.47C11.3765 29.4342 11.293 29.4153 11.2084 29.4144H5.12984C4.08513 29.4737 3.08975 29.8787 2.3006 30.5659C1.51145 31.253 0.973392 32.1832 0.771057 33.2098L0.622745 33.9808L0.177989 36.5901C0.158755 36.696 0.164804 36.8049 0.195725 36.908C0.226646 37.011 0.281554 37.1053 0.355892 37.1831C0.412098 37.2461 0.480501 37.2969 0.556959 37.3326C0.633417 37.3683 0.716316 37.388 0.800647 37.3907H9.87403C10.09 37.3745 10.2945 37.2871 10.4555 37.1423C10.6165 36.9974 10.7249 36.8032 10.7636 36.5901L11.831 30.215C11.8503 30.1091 11.8442 30.0002 11.8133 29.8971C11.7824 29.7941 11.7275 29.6998 11.6531 29.622Z" fill="#AED877"/>
<path d="M40.2074 2.28314C40.2295 2.18847 40.2302 2.09004 40.2094 1.99508C40.1886 1.90011 40.1468 1.811 40.0871 1.73426C40.0274 1.65752 39.9513 1.59509 39.8644 1.55154C39.7775 1.50799 39.682 1.48441 39.5848 1.48254H18.6803C18.4644 1.49873 18.2599 1.58611 18.0989 1.73099C17.938 1.87587 17.8296 2.07006 17.7908 2.28314L16.7233 8.68788C16.7062 8.78046 16.7093 8.87565 16.7324 8.96693C16.7555 9.0582 16.7982 9.14339 16.8573 9.21663C16.9165 9.28988 16.9908 9.34946 17.0751 9.39127C17.1595 9.43307 17.252 9.45611 17.3461 9.45882H35.137C36.1776 9.40116 37.1698 9.00034 37.9584 8.31901C38.747 7.63768 39.2877 6.71425 39.4958 5.69306L39.644 4.89247C39.63 4.84404 39.63 4.79264 39.644 4.74421L40.2074 2.28314Z" fill="#096142"/>
<path d="M37.1832 18.2654C36.5964 16.2006 35.3766 14.3718 33.6957 13.0366C32.0147 11.7015 29.9574 10.9272 27.8133 10.8229H17.109H16.8422L16.605 10.9711H16.4567C16.4567 10.9711 16.4567 10.9711 16.4567 11.149L16.0416 13.7584L15.8933 14.559C15.8061 15.0174 15.8211 15.4894 15.9372 15.9413C16.0533 16.3933 16.2676 16.814 16.5649 17.1737C16.8622 17.5333 17.2352 17.8229 17.6573 18.0219C18.0794 18.2208 18.5402 18.3242 19.0068 18.3247H37.0053C37.07 18.3331 37.1357 18.3249 37.1964 18.3009C37.2571 18.2769 37.3108 18.2379 37.3522 18.1875C37.3937 18.1371 37.4218 18.077 37.4337 18.0129C37.4456 17.9487 37.441 17.8826 37.4204 17.8207" fill="#00953B"/>
<path d="M35.1075 29.9481C33.8319 32.011 32.0985 33.7526 30.0418 35.038C27.985 36.3235 25.6601 37.1184 23.2468 37.361H12.5722H12.3054C12.2369 37.3746 12.1663 37.3746 12.0978 37.361C12.0839 37.3025 12.0839 37.2416 12.0978 37.1831L12.513 34.6034L12.6612 33.8028C12.8635 32.7762 13.4017 31.846 14.1908 31.1589C14.98 30.4717 15.9753 30.0666 17.02 30.0074H35.1075C35.404 30.0074 35.5226 30.215 35.3446 30.5411" fill="#AED877"/>
</g>
<defs>
<clipPath id="clip0_614_136">
<rect width="103.781" height="40" fill="white"/>
</clipPath>
</defs>
</svg>
