<svg width="64" height="64" viewBox="0 0 64 64" fill="none" xmlns="http://www.w3.org/2000/svg">
<path d="M10.6344 50.1959H8.55371C8.00093 50.1959 7.55264 49.7486 7.55264 49.1959C7.55264 48.6433 8.00093 48.196 8.55371 48.196H9.63882V42.9936C9.63882 42.441 10.0871 41.9937 10.6399 41.9937C11.1927 41.9937 11.641 42.441 11.641 42.9936V48.196H15.2126V38.9812C15.2126 38.4286 15.6609 37.9813 16.2137 37.9813C16.7664 37.9813 17.2147 38.4286 17.2147 38.9812V48.196H20.7868L20.7864 41.6559C20.7864 41.1033 21.2347 40.656 21.7874 40.656C22.3402 40.656 22.7885 41.1033 22.7885 41.6559V48.196H26.3611V37.643C26.3611 37.0904 26.8094 36.6431 27.3622 36.6431C27.9149 36.6431 28.3632 37.0904 28.3632 37.643V48.196H29.447C29.9998 48.196 30.4481 48.6433 30.4481 49.1959C30.4485 49.7486 30.0002 50.1959 29.447 50.1959H27.3677L27.3622 50.1959L27.3566 50.1959H16.2198L16.2137 50.1959L16.2075 50.1959H10.6454L10.6399 50.1959L10.6344 50.1959Z" fill="white"/>
<path fill-rule="evenodd" clip-rule="evenodd" d="M37.899 49.0587C39.033 49.5108 40.2046 49.7247 41.3586 49.7247L41.3582 49.7245C45.0818 49.7245 48.6207 47.4965 50.0972 43.8446C50.1969 43.5984 50.194 43.3233 50.09 43.0781C49.9856 42.8343 49.788 42.6407 49.5411 42.5421L42.696 39.8075L45.4475 32.9557C45.5458 32.7095 45.543 32.4344 45.4385 32.1901C45.334 31.9472 45.1369 31.7537 44.8905 31.6551C40.0793 29.7301 34.6014 32.0711 32.6762 36.8708C30.751 41.6535 33.0922 47.1201 37.899 49.0587ZM34.5344 37.6157C35.6893 34.736 38.4698 32.982 41.4037 32.982C41.9968 32.982 42.5969 33.0531 43.1906 33.2025L40.533 39.8203L35.6725 45.0133C34.0314 42.9983 33.5017 40.1818 34.5344 37.6157ZM37.1346 46.3791C37.595 46.7043 38.0998 46.9818 38.645 47.2015C42.0988 48.5804 46.001 47.1479 47.8013 44.0003L41.6579 41.5464L37.1346 46.3791Z" fill="white"/>
<path fill-rule="evenodd" clip-rule="evenodd" d="M55.3055 41.9241C55.182 41.9241 55.0561 41.9018 54.9341 41.8529L47.1587 38.7465C46.9123 38.6478 46.7147 38.4553 46.6102 38.2115C46.5058 37.9672 46.5029 37.6921 46.6012 37.4459L49.7255 29.6654C49.8247 29.4192 50.0175 29.2219 50.2616 29.1175C50.5062 29.0141 50.7816 29.0113 51.0281 29.1099C55.8222 31.0357 58.1581 36.5025 56.2348 41.2966C56.0785 41.6865 55.7029 41.9241 55.3055 41.9241ZM48.8332 37.2609L54.6863 39.5999C55.4893 36.4034 54.0499 33.0313 51.1859 31.4015L48.8332 37.2609Z" fill="white"/>
<path d="M28.3067 19.1341H41.5315L41.5395 19.1341L41.5475 19.1341H49.2C49.7528 19.1341 50.2011 18.6868 50.2011 18.1342C50.2011 17.5816 49.7528 17.1343 49.2 17.1343H48.1148V6.58123C48.1148 6.02862 47.6665 5.58133 47.1137 5.58133C46.561 5.58133 46.1127 6.02862 46.1127 6.58123V17.1343H42.5406V10.5942C42.5406 10.0416 42.0923 9.59426 41.5395 9.59426C40.9867 9.59426 40.5384 10.0416 40.5384 10.5942V17.1343H36.9663V7.91939C36.9663 7.36678 36.518 6.91948 35.9652 6.91948C35.4125 6.91948 34.9642 7.36678 34.9642 7.91939L34.9646 17.1343H31.3925V11.9318C31.3925 11.3792 30.9442 10.9319 30.3915 10.9319C29.8387 10.9319 29.3904 11.3792 29.3904 11.9318V17.1343H28.3067C27.7539 17.1343 27.3056 17.5816 27.3056 18.1342C27.3056 18.6868 27.7539 19.1341 28.3067 19.1341Z" fill="white"/>
<path d="M30.6142 59.5848H33.3847C33.9379 59.5848 34.3862 59.1375 34.3858 58.5849C34.3858 58.0323 33.9375 57.585 33.3847 57.585H30.6142C30.0614 57.585 29.6131 58.0323 29.6131 58.5849C29.6131 59.1375 30.0614 59.5848 30.6142 59.5848Z" fill="white"/>
<path fill-rule="evenodd" clip-rule="evenodd" d="M22.5411 4.22394V11.6908H8.86664C5.70821 11.6908 3.13807 14.2631 3.13807 17.425L3.13853 53.17H1.00107C0.448296 53.17 0 53.6173 0 54.1699C0 59.5897 4.41499 64 9.8411 64H54.1627C56.7893 64 59.2597 62.9773 61.1184 61.1213C62.9766 59.2647 64 56.7958 64 54.1699C64 53.6173 63.5517 53.17 62.9989 53.17H60.8751V17.425C60.8751 14.2631 58.2992 11.6908 55.1336 11.6908H54.9285V4.22345C54.9285 1.89455 53.0255 0 50.6862 0H26.7695C24.4378 0 22.5411 1.89491 22.5411 4.22394ZM29.673 31.4386C29.3724 31.4386 29.067 31.3788 28.7716 31.255C27.9154 30.8964 27.3621 30.0673 27.3621 29.1428V25.5976C27.3621 25.2793 27.0962 25.0194 26.7695 25.0194C25.6283 25.0194 24.5655 24.5749 23.7767 23.7686C22.9946 22.9873 22.5411 21.8963 22.5411 20.7821V13.6906H8.86664C6.81184 13.6906 5.14072 15.3654 5.14072 17.425V53.17H58.8729V17.425C58.8729 15.3654 57.1956 13.6906 55.1336 13.6906H54.9285V20.7816C54.9285 23.1187 53.0257 25.0189 50.6862 25.0189L37.858 25.0199C37.4335 25.0199 37.0398 25.1759 36.7477 25.4582L31.2571 30.7835C30.8187 31.2132 30.255 31.4385 29.6733 31.4385L29.673 31.4386ZM24.5433 4.22399V12.6304C24.5444 12.6503 24.545 12.6704 24.545 12.6907C24.545 12.7109 24.5444 12.731 24.5433 12.751V20.7822C24.5433 21.3689 24.7826 21.9452 25.201 22.3622C25.6184 22.7891 26.1726 23.0196 26.7695 23.0196C28.2004 23.0196 29.3643 24.1761 29.3643 25.5976V29.1427C29.3643 29.3097 29.4783 29.3818 29.5457 29.4103C29.6265 29.4444 29.7457 29.4601 29.8577 29.3529L35.3526 24.0237C36.0199 23.3762 36.9099 23.02 37.8581 23.02H50.6864C51.9215 23.02 52.9264 22.0163 52.9264 20.7825L52.926 4.22313C52.926 2.99644 51.9216 1.9995 50.6859 1.9995L26.7695 2.00036C25.5418 2.00036 24.5433 2.99741 24.5433 4.22399ZM59.874 55.1818H4.13961C4.08666 55.1818 4.03468 55.1777 3.98395 55.1697H2.06538C2.55879 59.0171 5.85732 61.9997 9.84074 61.9997H54.1621C56.254 61.9997 58.221 61.1853 59.7016 59.7067C60.9435 58.4663 61.7165 56.8825 61.9336 55.1697H60.0297C59.979 55.1777 59.927 55.1818 59.874 55.1818Z" fill="white"/>
</svg>
