<svg width="64" height="64" viewBox="0 0 64 64" fill="none" xmlns="http://www.w3.org/2000/svg">
<path d="M31.999 3.66612C31.4429 3.66612 30.992 3.21836 30.992 2.66624V0.999885C30.992 0.447765 31.4429 0 31.999 0C32.5551 0 33.0061 0.447765 33.0061 0.999885V2.66575C33.0061 3.21835 32.5551 3.66611 31.999 3.66612Z" fill="white"/>
<path fill-rule="evenodd" clip-rule="evenodd" d="M24.2137 46.3733L25.0103 48.5044C26.4027 48.5057 27.7261 49.3778 28.2472 50.7705L30.5035 56.5294C30.7051 57.044 30.4486 57.6236 29.9298 57.8238C29.4114 58.0244 28.8276 57.7688 28.6261 57.2541L26.3645 51.4811C26.0812 50.7221 25.2781 50.3247 24.5616 50.5832L10.7368 55.5807C10.4072 55.6997 10.143 55.9435 9.99298 56.2661C9.83055 56.6147 9.81813 57.0112 9.95715 57.3826L11.9273 62.651C12.1212 63.169 11.8551 63.7443 11.3335 63.9364C11.2178 63.9796 11.0994 64 10.9828 64L10.9819 64C10.5734 64 10.1889 63.7505 10.0379 63.3478L8.06777 58.0794C7.74052 57.2047 7.77445 56.2632 8.1638 55.4269C8.35355 55.0196 8.61699 54.6621 8.93842 54.3689L8.74736 53.8576C8.14159 52.2363 7.1116 50.7801 5.76961 49.6455L4.30299 48.4061C1.74093 46.2408 0.172076 43.1012 0 39.7942L0.258455 17.3968C0.201127 16.3334 0.631567 15.2159 1.4418 14.3948C2.28023 13.5448 3.43345 13.077 4.65547 13.117C6.88218 13.1862 8.64745 14.9356 8.67325 17.0985L9.5527 29.0421C9.6638 28.989 9.77833 28.9411 9.896 28.8986C11.7453 28.2294 13.7905 29.141 14.4579 30.9259L16.333 35.94C17.04 37.8306 18.285 39.4785 19.9328 40.7046C21.8915 42.1622 23.3719 44.1225 24.2137 46.3733ZM10.6357 53.1615L10.7435 53.45L23.0479 49.0021L22.3257 47.0701C21.6192 45.1795 20.3737 43.5321 18.7255 42.3055C16.7672 40.8484 15.2868 38.8879 14.445 36.6368L12.5699 31.6227C12.2866 30.8637 11.398 30.4829 10.5854 30.7784C10.1815 30.9246 9.86188 31.2117 9.68633 31.5868C9.66807 31.6563 9.64242 31.723 9.61021 31.786C9.52272 32.0774 9.53147 32.3845 9.63801 32.669L13.0423 41.7714C13.2363 42.2889 12.9702 42.8647 12.4485 43.0568C11.9273 43.2494 11.3478 42.9852 11.1538 42.4672L7.74952 33.3649C7.48466 32.656 7.46602 31.8947 7.69004 31.179L6.66151 17.1841C6.64575 16.0339 5.73805 15.1526 4.59196 15.1166C3.95848 15.0981 3.32591 15.3433 2.88074 15.7953C2.45748 16.2241 2.24153 16.7786 2.27163 17.3573L2.0127 39.7546C2.15554 42.4512 3.46647 45.0728 5.60904 46.8838L7.07517 48.1232C8.67888 49.4788 9.91056 51.2211 10.6357 53.1615Z" fill="white"/>
<path d="M14.549 59.0971C14.7286 59.4533 15.1314 59.6711 15.5288 59.6711C15.6741 59.6711 15.8179 59.6421 15.9507 59.58C16.1957 59.4652 16.4107 59.2276 16.4991 58.9733C16.5851 58.7257 16.5674 58.4136 16.4552 58.1774C16.34 57.935 16.1002 57.7206 15.846 57.6324C15.5914 57.5456 15.2728 57.5631 15.0301 57.6808C14.7893 57.7984 14.5934 58.0422 14.5079 58.2946C14.4214 58.5469 14.4291 58.859 14.549 59.0971Z" fill="white"/>
<path fill-rule="evenodd" clip-rule="evenodd" d="M55.0598 54.3683L55.2508 53.8571C55.8575 52.2355 56.8871 50.7788 58.2291 49.6447L59.6952 48.4053C62.2572 46.2395 63.8256 43.1009 64 39.7298L63.7377 17.46C63.7965 16.333 63.3656 15.215 62.5558 14.3944C61.7165 13.5445 60.5312 13.0863 59.3426 13.1166C57.1159 13.1858 55.3512 14.9348 55.3268 17.0374L54.4442 29.0423C54.3331 28.9892 54.2186 28.9412 54.101 28.8986C52.2583 28.2346 50.2075 29.1405 49.5396 30.9264L47.6645 35.9405C46.9574 37.8311 45.713 39.4789 44.0647 40.7051C42.106 42.1622 40.6255 44.1227 39.7838 46.3738L38.9873 48.5046C37.5968 48.507 36.2744 49.3751 35.7578 50.7563L33.4962 56.5293C33.2946 57.0439 33.5512 57.6236 34.07 57.8237C34.5873 58.0248 35.1726 57.7697 35.3737 57.2541L37.641 51.4668C37.9195 50.7207 38.7274 50.3242 39.4392 50.5831L53.2627 55.5811C53.5919 55.7002 53.856 55.944 54.0065 56.2665C54.169 56.6151 54.1814 57.0117 54.0424 57.3831L52.0727 62.6515C51.8792 63.1694 52.1453 63.7443 52.6665 63.9369C52.7822 63.9796 52.9006 64 53.0172 64C53.4257 64 53.8106 63.7505 53.9611 63.3474L55.9308 58.079C56.2575 57.2043 56.2236 56.2623 55.8347 55.4265C55.6449 55.019 55.3814 54.6615 55.0598 54.3683ZM40.9503 49.0012L41.6718 47.0711C42.3784 45.1805 43.6234 43.5332 45.272 42.3065C47.2303 40.8499 48.7107 38.8894 49.5525 36.6378L51.4276 31.6236C51.7115 30.8652 52.6014 30.4886 53.4117 30.7789C53.8161 30.9257 54.1362 31.2128 54.3113 31.588C54.3295 31.6567 54.3549 31.7228 54.3868 31.7852C54.4748 32.0771 54.4662 32.3849 54.3595 32.67L50.9557 41.7724C50.7622 42.2903 51.0283 42.8652 51.5495 43.0578C52.0697 43.2499 52.6507 42.9857 52.8441 42.4682L56.248 33.3659C56.513 32.6563 56.5315 31.8945 56.3071 31.1787L57.3385 17.1231C57.3519 16.0336 58.26 15.1518 59.4061 15.1162C60.0486 15.0949 60.6716 15.3434 61.1169 15.795C61.5401 16.2238 61.7561 16.7783 61.7245 17.4205L61.9868 39.6904C61.8425 42.4504 60.5307 45.0721 58.3885 46.8831L56.9229 48.122C55.3197 49.4771 54.088 51.2198 53.3619 53.1612L53.2542 53.4493L40.9503 49.0012Z" fill="white"/>
<path d="M48.0343 59.5737C48.1748 59.642 48.3415 59.6771 48.5068 59.6771C48.6243 59.6771 48.7409 59.6591 48.847 59.6231C49.0982 59.5367 49.3357 59.328 49.4527 59.0909C49.5707 58.8532 49.5765 58.5425 49.49 58.2916C49.4035 58.0407 49.2086 57.7983 48.9688 57.6812C48.727 57.5635 48.4079 57.5465 48.1528 57.6328C47.9053 57.7191 47.6703 57.9254 47.5533 58.1579C47.4324 58.3983 47.4114 58.7195 47.4997 58.9737C47.5867 59.2227 47.7959 59.4575 48.0343 59.5737Z" fill="white"/>
<path d="M40.0783 5.81535C40.2369 5.90595 40.4104 5.94912 40.5809 5.94912C40.9292 5.94912 41.2674 5.77029 41.4542 5.44917L42.2931 4.00625C42.5712 3.52765 42.4063 2.91671 41.9243 2.64019C41.4408 2.36412 40.8269 2.52777 40.5484 3.00636L39.7095 4.44929C39.4315 4.92789 39.5963 5.53882 40.0783 5.81535Z" fill="white"/>
<path d="M46.8644 12.1867C46.5161 12.1867 46.1779 12.0074 45.9916 11.6868C45.713 11.2086 45.8779 10.5968 46.3599 10.3212L47.8132 9.48779C48.2923 9.21031 48.911 9.3749 49.1886 9.8535C49.4671 10.3316 49.3023 10.9435 48.8202 11.2191L47.3669 12.0525C47.2088 12.1435 47.0354 12.1867 46.8644 12.1867Z" fill="white"/>
<path d="M49.1625 20.7073H50.8404C51.3964 20.7073 51.8474 20.2595 51.8474 19.7074C51.8474 19.1553 51.3964 18.7075 50.8404 18.7075H49.1625C48.6064 18.7075 48.1555 19.1553 48.1555 19.7074C48.1555 20.2595 48.6064 20.7073 49.1625 20.7073Z" fill="white"/>
<path d="M23.4184 5.94911C23.0701 5.94911 22.7318 5.76981 22.5451 5.44917L21.7062 4.00624C21.4281 3.52765 21.5929 2.91623 22.075 2.64018C22.5565 2.36413 23.1723 2.52776 23.4508 3.00636L24.2897 4.44928C24.5678 4.92788 24.403 5.53929 23.9209 5.81535C23.7618 5.90642 23.5889 5.94911 23.4184 5.94911Z" fill="white"/>
<path d="M16.632 12.0525C16.7902 12.1435 16.9636 12.1867 17.1346 12.1867C17.4829 12.1867 17.8211 12.0074 18.0074 11.6868C18.2859 11.2087 18.1211 10.5972 17.6391 10.3212L16.1858 9.48779C15.7052 9.21031 15.088 9.3749 14.8104 9.8535C14.5319 10.3316 14.6967 10.943 15.1788 11.2191L16.632 12.0525Z" fill="white"/>
<path d="M14.8355 20.7073H13.1577C12.6016 20.7073 12.1507 20.2595 12.1507 19.7074C12.1507 19.1553 12.6016 18.7075 13.1577 18.7075H14.8355C15.3916 18.7075 15.8426 19.1553 15.8426 19.7074C15.8431 20.2595 15.3921 20.7073 14.8355 20.7073Z" fill="white"/>
<path fill-rule="evenodd" clip-rule="evenodd" d="M26.1454 36.9713C26.1375 36.9209 26.1334 36.8692 26.1334 36.8166V36.5273C26.1334 33.8217 24.9682 31.1849 22.9368 29.2929C19.7661 26.3402 18.288 22.1714 18.8809 17.855C19.6844 12.0085 24.5683 7.29171 30.4941 6.63952C34.2605 6.22591 38.0365 7.4141 40.8379 9.90484C43.6384 12.3946 45.245 15.9653 45.245 19.7016C45.245 23.3061 43.8052 26.6686 41.1905 29.1692C39.047 31.2198 37.8659 33.8343 37.8659 36.5308V36.8163C37.8658 36.8691 37.8617 36.9209 37.8537 36.9714C38.3071 37.5178 38.5797 38.2174 38.5797 38.9792C38.5797 39.7968 38.2654 40.5431 37.7504 41.1049C37.9099 41.3827 38.0011 41.7039 38.0011 42.0461C38.0011 45.3321 35.3086 48.0055 31.9989 48.0055C28.6893 48.0054 25.9968 45.3321 25.9968 42.0461C25.9968 41.7037 26.0881 41.3822 26.2479 41.1042C25.7333 40.5425 25.4192 39.7965 25.4192 38.9792C25.4192 38.2174 25.6919 37.5177 26.1454 36.9713ZM28.6033 42.1405C28.5939 42.1405 28.5844 42.1405 28.575 42.1404H28.0118C28.0629 44.2801 29.832 46.0052 31.9985 46.0052C34.1655 46.0052 35.9341 44.2801 35.9852 42.1404H35.4234C35.414 42.1405 35.4046 42.1405 35.3952 42.1405H28.6033ZM36.5656 38.9792C36.5656 39.6153 36.0483 40.1331 35.4095 40.1407H28.589C27.9501 40.1331 27.4333 39.6153 27.4333 38.9792C27.4333 38.3384 27.9579 37.8171 28.6033 37.8171H35.3952C36.0406 37.8171 36.5656 38.3384 36.5656 38.9792ZM30.992 35.8162H28.1251V35.8163C27.9378 32.8144 26.5725 29.9371 24.3147 27.8334C21.6261 25.33 20.373 21.7909 20.8765 18.1249C21.5567 13.1738 25.6944 9.17909 30.7149 8.62744C33.9744 8.27068 37.085 9.25255 39.4932 11.3942C41.868 13.505 43.2296 16.5325 43.2296 19.7011C43.2296 22.7575 42.0085 25.6078 39.7913 27.7285C37.4376 29.9802 36.0627 32.8289 35.873 35.8162H33.0061V27.007H34.7861C36.878 27.007 38.5798 25.3169 38.5803 23.2399C38.5803 21.1627 36.8781 19.4732 34.7862 19.4732C33.6855 19.4732 32.6928 19.9409 31.9992 20.6867C31.3056 19.9409 30.313 19.4732 29.2123 19.4732C27.1204 19.4732 25.4182 21.1629 25.4182 23.2399C25.4182 25.317 27.1204 27.007 29.2123 27.007H30.992V35.8162ZM34.7856 25.0067H33.0065V23.2398C33.0065 22.266 33.8043 21.4734 34.7856 21.4734C35.7669 21.4734 36.5652 22.2655 36.5652 23.2398C36.5652 24.2141 35.7673 25.0067 34.7856 25.0067ZM27.4328 23.2395C27.4328 22.2656 28.2306 21.473 29.2123 21.473C30.1936 21.473 30.9919 22.2657 30.9919 23.2399L30.9914 25.0063H29.2123C28.2311 25.0063 27.4328 24.2142 27.4328 23.2395Z" fill="white"/>
</svg>
