<svg width="64" height="64" viewBox="0 0 64 64" fill="none" xmlns="http://www.w3.org/2000/svg">
<path d="M28.5702 5.43016C28.3145 5.43015 28.0584 5.33244 27.863 5.13702C27.4721 4.74617 27.4721 4.11342 27.863 3.723L31.2938 0.293139C31.6847 -0.0977131 32.3174 -0.0977131 32.7078 0.293139L36.1377 3.723C36.5286 4.11385 36.5286 4.7466 36.1377 5.13702C35.7469 5.52788 35.1141 5.52788 34.7237 5.13702L32.001 2.41437L29.2774 5.13702C29.082 5.33245 28.8263 5.43016 28.5702 5.43016Z" fill="white"/>
<path fill-rule="evenodd" clip-rule="evenodd" d="M45.772 47.185C42.2407 50.4043 37.7731 52.2624 33.0004 52.4912V59.5698C33.0004 60.1224 32.5532 60.5697 32.0006 60.5697C31.448 60.5697 31.0007 60.1224 31.0007 59.5698V52.4917C26.223 52.2647 21.7569 50.4066 18.2306 47.1826L13.212 52.2004C13.017 52.3963 12.7609 52.4935 12.5053 52.4935C12.2496 52.4935 11.9934 52.3958 11.798 52.2004C11.4071 51.8095 11.4071 51.1768 11.798 50.7863L16.8215 45.7636C16.6417 45.565 16.4616 45.3573 16.291 45.1453C16.2793 45.1317 16.2679 45.1177 16.2569 45.1034C13.4258 41.7119 11.7759 37.4414 11.5699 32.9994H4.42975C3.87716 32.9994 3.42987 32.5521 3.42987 31.9995C3.42987 31.447 3.87716 30.9997 4.42975 30.9997H11.5748C11.8236 26.1206 13.7907 21.6872 16.8815 18.2944L11.7989 13.2119C11.4081 12.821 11.4081 12.1883 11.7989 11.7979C12.1898 11.407 12.8225 11.407 13.2129 11.7979L18.2982 16.8831C21.6963 13.8114 26.1275 11.8623 31.0007 11.6272V4.43017C31.0007 3.87757 31.448 3.43028 32.0006 3.43028C32.5532 3.43028 33.0004 3.87757 33.0004 4.43017V11.6274C37.874 11.8636 42.3054 13.8116 45.7043 16.8812L50.7868 11.7979C51.1777 11.407 51.8104 11.407 52.2008 11.7979C52.5917 12.1887 52.5917 12.8215 52.2008 13.2119L47.1217 18.2919C50.2157 21.6849 52.1849 26.1192 52.4339 30.9997H59.5694C60.122 30.9997 60.5693 31.447 60.5693 31.9995C60.5693 32.5521 60.122 32.9994 59.5694 32.9994H52.4387C52.2322 37.439 50.578 41.7207 47.7275 45.1465C47.5461 45.3639 47.3653 45.5726 47.186 45.771L52.2013 50.7863C52.5922 51.1772 52.5922 51.8099 52.2013 52.2004C52.0063 52.3963 51.7507 52.4935 51.4946 52.4935C51.2389 52.4935 50.9827 52.3958 50.7873 52.2004L45.772 47.185ZM45.0639 44.9483C44.8832 44.9253 44.7008 44.9136 44.5181 44.9136H39.0866C37.8158 44.9136 36.66 44.1177 36.2107 42.9332C36.0689 42.5699 35.9968 42.1899 35.9968 41.811V40.7827C34.8854 41.4621 33.6321 41.8234 32.3286 41.8234L32.3284 41.8236C30.7323 41.8236 29.2152 41.2841 27.9413 40.2967V41.8114C27.9413 42.1638 27.8768 42.5253 27.7497 42.8858C27.2957 44.1053 26.1228 44.914 24.8249 44.914H19.4746C19.2933 44.914 19.1134 44.9251 18.9353 44.9473C18.9561 44.965 18.9764 44.9837 18.996 45.0033C19.1063 45.1137 19.1855 45.2433 19.2336 45.3813C22.5647 48.5861 26.8947 50.3945 31.5259 50.5096C31.6671 50.4334 31.8287 50.3901 32.0006 50.3901C32.1723 50.3901 32.3338 50.4333 32.475 50.5095C37.093 50.3931 41.4192 48.5902 44.7635 45.3902C44.8112 45.2488 44.8915 45.116 45.0043 45.0033C45.0082 44.9994 45.0121 44.9955 45.0161 44.9917C45.0317 44.9766 45.0476 44.9621 45.0639 44.9483ZM19.106 18.867C22.4109 15.6352 26.9218 13.6318 31.8921 13.604C31.9277 13.6078 31.9639 13.6098 32.0006 13.6098C32.0393 13.6098 32.0776 13.6076 32.1152 13.6033C37.0775 13.6344 41.5816 15.6317 44.8851 18.853C44.9195 18.9033 44.9591 18.9512 45.0038 18.9959C45.0497 19.0418 45.0989 19.0823 45.1507 19.1174C48.3431 22.3583 50.3487 26.7697 50.4561 31.6404C50.4133 31.7518 50.3898 31.8729 50.3898 31.9995C50.3898 32.128 50.414 32.2508 50.458 32.3636C50.3912 36.3148 49.0513 40.1548 46.6543 43.2852C45.9724 43.0408 45.2469 42.9133 44.518 42.9133H39.0865C38.6345 42.9133 38.2389 42.6429 38.0777 42.217C38.0231 42.0766 37.9965 41.9438 37.9965 41.811V39.0222C39.1791 37.5798 39.8905 35.7739 40.0426 33.8381C40.8295 32.8597 43.6666 28.8696 41.5493 24.4958L41.0797 22.9742C40.3278 20.5347 38.2309 18.7379 35.7359 18.396C31.2473 17.7761 27.9048 18.4691 25.516 20.5063C24.9597 20.9801 24.4839 21.2903 24.0201 21.4829C23.1482 21.8433 21.1893 23.0425 21.8092 26.3893C22.4494 29.8912 24.1469 33.0003 24.5744 33.7448C24.682 35.3045 25.1508 36.7793 25.9415 38.051V41.8114C25.9415 41.9347 25.9145 42.0761 25.8694 42.2041C25.7091 42.6358 25.2993 42.9142 24.8254 42.9142H19.4751C18.7487 42.9142 18.0393 43.0361 17.3573 43.2772C14.9539 40.1538 13.6122 36.3068 13.5506 32.3383C13.5887 32.2325 13.6094 32.1185 13.6094 31.9995C13.6094 31.8825 13.5893 31.7701 13.5524 31.6657C13.6533 26.7802 15.663 22.3551 18.8644 19.1076C18.911 19.0748 18.9553 19.0376 18.9969 18.9959C19.0375 18.9553 19.0738 18.9122 19.106 18.867ZM26.554 33.3203L26.554 33.3208C26.6038 34.7846 27.0463 36.1567 27.8342 37.2904C28.9427 38.9017 30.5791 39.8237 32.3285 39.8237C33.7971 39.8237 35.1906 39.1706 36.2512 37.9847C37.4271 36.6769 38.0736 34.9253 38.0736 33.0502C38.0736 33.0233 38.0747 32.9965 38.0768 32.9701C38.0684 32.9183 38.064 32.8643 38.064 32.8108C38.064 32.6822 38.0566 32.5545 38.0497 32.4327L38.0496 32.4326V32.4324L38.0496 32.4322L38.0493 32.4261C38.0403 32.3644 38.0355 32.3051 38.0355 32.2582C38.0256 32.0277 38.0256 31.8284 38.0256 31.6292C38.0099 30.8869 38.0227 30.0569 38.0626 29.1812C38.0839 28.7283 37.9278 28.2985 37.6252 27.9712C37.251 27.5681 36.7212 27.3257 36.1733 27.3432C33.7818 27.3646 30.5142 27.3831 28.1804 27.3949C27.7222 27.3968 27.3015 27.5851 26.9941 27.9252C26.6877 28.2639 26.5431 28.7026 26.5857 29.1584C26.79 31.2899 26.7482 31.7135 26.7324 31.873L26.7323 31.8744L26.5741 33.1673L26.5738 33.1704C26.5688 33.2175 26.5618 33.2699 26.554 33.3203ZM36.189 25.3435C37.2876 25.3435 38.3444 25.8045 39.0924 26.6118C39.7631 27.3366 40.107 28.2819 40.0609 29.2727C40.0553 29.3918 40.05 29.509 40.0462 29.6252C40.4115 28.3734 40.4907 26.8594 39.7209 25.3107C39.6967 25.2619 39.6767 25.212 39.6611 25.1603L39.1678 23.5628C38.6441 21.8648 37.1903 20.6135 35.4637 20.3763C31.5671 19.8441 28.7429 20.383 26.8125 22.0275C26.0929 22.6418 25.4484 23.0559 24.7843 23.3301C23.8408 23.7195 23.5117 24.6026 23.7754 26.0261C23.9627 27.0507 24.2559 28.0477 24.5779 28.9508C24.5917 28.08 24.9209 27.2342 25.5095 26.5825C26.1883 25.8326 27.1578 25.3991 28.1695 25.3938C30.5013 25.382 33.7652 25.3635 36.1558 25.3421C36.1677 25.3436 36.1786 25.3435 36.189 25.3435Z" fill="white"/>
<path d="M32.0006 64C31.7349 64 31.4812 63.8947 31.2933 63.7069L27.8625 60.276C27.4717 59.8852 27.4717 59.2524 27.8625 58.862C28.2534 58.4711 28.8861 58.4711 29.2765 58.862L32.0007 61.5856L34.7233 58.862C35.1142 58.4711 35.7469 58.4711 36.1374 58.862C36.5282 59.2529 36.5282 59.8856 36.1374 60.276L32.7075 63.7069C32.5201 63.8942 32.2664 64 32.0007 64H32.0006Z" fill="white"/>
<path d="M53.9207 15.9303C53.3681 15.9303 52.9208 15.483 52.9208 14.9304V11.0798H49.0702C48.5176 11.0798 48.0703 10.6325 48.0703 10.0799C48.0703 9.5273 48.5176 9.08001 49.0702 9.08001H53.9206C54.4732 9.08001 54.9205 9.5273 54.9205 10.0799V14.9303C54.921 15.4829 54.4738 15.9303 53.9207 15.9303Z" fill="white"/>
<path d="M14.9299 54.9196H10.0795C9.52688 54.9196 9.07959 54.4723 9.07959 53.9197V49.0693C9.07959 48.5167 9.52688 48.0694 10.0795 48.0694C10.6321 48.0694 11.0794 48.5167 11.0794 49.0693V52.9199H14.93C15.4826 52.9199 15.9299 53.3672 15.9299 53.9198C15.9299 54.4724 15.4825 54.9196 14.9299 54.9196Z" fill="white"/>
<path d="M59.5695 36.4298C59.3138 36.4298 59.0577 36.3321 58.8622 36.1366C58.4714 35.7458 58.4714 35.113 58.8622 34.7226L61.5859 31.9999L58.8622 29.2763C58.4714 28.8855 58.4714 28.2527 58.8622 27.8623C59.2531 27.4714 59.8858 27.4714 60.2763 27.8623L63.7071 31.2931C63.8945 31.4805 64.0002 31.7342 64.0002 31.9999C64.0002 32.2655 63.8949 32.5192 63.7071 32.7071L60.2763 36.1369C60.0808 36.3319 59.8252 36.4296 59.5695 36.4296L59.5695 36.4298Z" fill="white"/>
<path d="M4.43022 36.4298C4.17455 36.4298 3.91842 36.3321 3.723 36.1366L0.293139 32.7068C-0.0977131 32.3159 -0.0977131 31.6832 0.293139 31.2928L3.723 27.8619C4.11385 27.4711 4.7466 27.4711 5.13702 27.8619C5.52788 28.2528 5.52788 28.8855 5.13702 29.276L2.41485 32.0001L5.13751 34.7227C5.52836 35.1136 5.52836 35.7463 5.13751 36.1368C4.94208 36.3322 4.68643 36.4299 4.43029 36.4299L4.43022 36.4298Z" fill="white"/>
<path d="M53.9206 54.9196H49.0702C48.5176 54.9196 48.0703 54.4723 48.0703 53.9197C48.0703 53.3671 48.5176 52.9198 49.0702 52.9198H52.9208V49.0692C52.9208 48.5166 53.3681 48.0693 53.9207 48.0693C54.4733 48.0693 54.9206 48.5166 54.9206 49.0692V53.9197C54.9211 54.4723 54.4737 54.9196 53.9206 54.9196Z" fill="white"/>
<path d="M10.0804 15.9303C9.52783 15.9303 9.08054 15.483 9.08054 14.9304V10.08C9.08054 9.52736 9.52783 9.08006 10.0804 9.08006H14.9309C15.4835 9.08006 15.9308 9.52736 15.9308 10.08C15.9308 10.6325 15.4835 11.0798 14.9309 11.0798H11.0803V14.9304C11.0803 15.483 10.633 15.9303 10.0804 15.9303Z" fill="white"/>
</svg>
