<svg width="64" height="64" viewBox="0 0 64 64" fill="none" xmlns="http://www.w3.org/2000/svg">
<path d="M41.6134 46.8267H30.603C30.0504 46.8267 29.6031 46.3753 29.6031 45.8177C29.6031 45.2601 30.0504 44.8087 30.603 44.8087H31.0788V35.8785C31.0788 35.3209 31.5261 34.8695 32.0787 34.8695C32.6313 34.8695 33.0786 35.3209 33.0786 35.8785V44.8087H35.8482V38.5934C35.8482 38.0358 36.2955 37.5844 36.8481 37.5844C37.4007 37.5844 37.848 38.0358 37.848 38.5934V44.8087H40.6166V41.3093C40.6166 40.7516 41.0639 40.3003 41.6165 40.3003C42.1691 40.3003 42.6164 40.7516 42.6164 41.3093V44.8087H43.7416C44.2943 44.8087 44.7415 45.2601 44.7415 45.8177C44.742 46.3753 44.2947 46.8267 43.7421 46.8267H41.6197C41.6186 46.8267 41.6176 46.8267 41.6165 46.8267C41.6155 46.8267 41.6144 46.8267 41.6134 46.8267Z" fill="white"/>
<path fill-rule="evenodd" clip-rule="evenodd" d="M30.1889 53.897C30.2425 53.897 30.2951 53.8928 30.3464 53.8846C30.8859 54.1402 31.4576 54.3683 32.0572 54.567C32.6582 54.757 33.2207 54.8968 33.7762 54.9915C34.3639 55.094 34.8814 55.1562 35.3259 55.1787C35.5697 55.2002 35.8064 55.2093 36.0454 55.2093C36.3139 55.2093 36.5857 55.1989 36.876 55.1826C37.2617 55.1687 37.662 55.1242 38.0078 55.0711L38.0198 55.0699C38.1611 55.0563 38.3295 55.0401 38.5158 54.9931C38.8417 54.9567 39.1405 54.8858 39.4033 54.8188C39.8728 54.7111 40.3376 54.5647 40.8883 54.3517C42.3854 53.8128 43.7557 53.0045 44.9735 51.9434L47.3353 53.7423C46.8557 54.5943 47.065 55.6987 47.86 56.3048L57.0555 63.3074C57.6673 63.7746 58.3893 64 59.1051 64C60.1325 64 61.1499 63.5347 61.8206 62.6488L63.3119 60.6432C63.8578 59.921 64.0902 59.024 63.9683 58.1184C63.8446 57.2047 63.3778 56.3986 62.6032 55.8113L55.3679 50.292V25.1467C55.3685 25.1068 55.3689 25.0668 55.3689 25.0268V17.1668C55.3689 17.1488 55.3684 17.131 55.3675 17.1133C55.3382 15.2948 53.8579 13.8235 52.041 13.8235H43.7853C43.2478 10.4248 41.6711 7.29169 39.2126 4.80999C36.1256 1.70875 32.0312 0 27.6844 0C19.6118 0 12.8381 5.88132 11.5749 13.8225H3.31417C1.48749 13.8225 0.000766939 15.3228 2.96627e-07 17.1659L0 50.5398C0 52.3911 1.48702 53.897 3.31417 53.897L30.1889 53.897ZM38.982 17.0711L38.9811 16.4565C38.9811 13.4074 37.8076 10.5437 35.6736 8.38926C33.5339 6.24012 30.6959 5.05545 27.6834 5.05545C22.1314 5.05545 17.4402 9.06027 16.5286 14.5768C16.4266 15.1938 16.3749 15.8261 16.3749 16.456V17.0711H13.3662V16.456C13.3662 15.9486 13.3928 15.4359 13.4454 14.9324C14.2153 7.57036 20.3353 2.01842 27.6842 2.01842C31.4984 2.01842 35.0914 3.5185 37.8004 6.23914C40.1324 8.59363 41.5604 11.6192 41.9077 14.8852C41.9095 14.9207 41.9131 14.9557 41.9185 14.9901C41.9664 15.4739 41.9907 15.9628 41.9907 16.4555V17.0711H38.982ZM18.3757 16.456V17.3629C19.1922 17.7937 19.7506 18.6571 19.7506 19.6492V23.0452C19.7506 24.4664 18.6047 25.6232 17.1959 25.6232H12.5432C11.1411 25.6232 10.0004 24.4663 10.0004 23.0452V19.6492C10.0004 18.6579 10.5554 17.7952 11.3669 17.364V16.456C11.3669 16.2514 11.3707 16.046 11.3783 15.8405H3.31417C2.57753 15.8405 2.0003 16.423 2.0003 17.1668V25.1026C2.04066 28.1048 4.4729 30.5346 7.45743 30.5346H27.9181C29.413 29.3642 31.124 28.5406 33.0021 28.0908L33.0098 28.0889C33.438 27.9851 33.8702 27.8804 34.3516 27.8485C37.9316 27.3474 41.5171 28.2979 44.4326 30.5346H47.8981C50.8826 30.5346 53.3166 28.1168 53.3682 25.1239V17.1678C53.3682 16.424 52.7853 15.8415 52.041 15.8415H43.98C43.9874 16.0454 43.9911 16.25 43.9911 16.4551V17.3468C44.8206 17.7719 45.3907 18.6445 45.3907 19.6492V23.0452C45.3907 24.4664 44.2499 25.6232 42.8478 25.6232H38.1956C36.7873 25.6232 35.6409 24.4663 35.6409 23.0452V19.6492C35.6409 18.6708 36.1842 17.8177 36.9823 17.3811V16.456C36.9823 16.2479 36.9756 16.0409 36.9624 15.8351H18.3959C18.3824 16.0416 18.3757 16.2489 18.3757 16.456ZM28.9266 32.3041C28.9077 32.3207 28.8882 32.3366 28.8681 32.3518C25.881 34.7817 24.2827 38.519 24.5833 42.3663C24.5971 42.6157 24.6203 42.8383 24.6554 43.0632C24.7451 43.8023 24.9044 44.4882 25.1331 45.133C25.513 46.2918 26.0443 47.3396 26.7211 48.2696C27.3264 49.124 28.026 49.8751 28.8039 50.5135C29.3233 50.9539 29.9034 51.355 30.5922 51.7504C31.2154 52.0931 31.9194 52.398 32.6692 52.6459C33.1701 52.8044 33.6468 52.9231 34.1136 53.0025C34.6245 53.092 35.0656 53.1456 35.465 53.1662C35.8981 53.2036 36.2998 53.1916 36.7841 53.1667C37.1161 53.1538 37.4425 53.1155 37.7683 53.0671L37.8275 53.0609C37.9339 53.0497 38.0075 53.0419 38.0406 53.0317C38.1061 53.0121 38.1744 52.9982 38.2427 52.9925C38.4623 52.9728 38.6871 52.9188 38.9371 52.8565C39.3317 52.7651 39.7126 52.6435 40.1941 52.4583C41.7585 51.8954 43.1445 50.9989 44.3337 49.7856C44.3735 49.7454 44.4157 49.7075 44.4617 49.675C44.4764 49.6573 44.493 49.6386 44.5016 49.6295C44.9076 49.2078 45.2819 48.7536 45.6158 48.2802C45.8288 47.9853 45.9986 47.7163 46.1423 47.4483L46.2419 47.2826C46.6285 46.591 46.9031 45.9827 47.1128 45.3718C47.1156 45.3661 47.1175 45.3599 47.1194 45.3532C47.7465 43.6324 47.9429 41.7255 47.6858 39.8386C47.4847 38.3878 47.0127 36.9859 46.2846 35.6749C45.5475 34.3634 44.5988 33.238 43.4681 32.3343C41.3654 30.6366 38.8291 29.7405 36.1903 29.7405L36.1901 29.7404C35.6479 29.7404 35.101 29.7787 34.5532 29.8548C34.1685 29.8835 33.8337 29.9644 33.4789 30.0511C31.7776 30.4582 30.2518 31.2152 28.9266 32.3041ZM7.45745 32.5526H25.8025C23.4831 35.288 22.3036 38.859 22.5876 42.4992C22.6033 42.7907 22.6341 43.0826 22.6754 43.3406C22.7788 44.1951 22.9723 45.027 23.2427 45.7885C23.6801 47.1259 24.3071 48.3617 25.1012 49.4535C25.7461 50.3618 26.4898 51.1792 27.3053 51.879L3.31417 51.8786C2.58943 51.8786 2.0003 51.2773 2.0003 50.5392V30.1509C3.3627 31.6276 5.30496 32.5526 7.45745 32.5526ZM49.647 50.6181L49.0385 51.4332L48.5235 52.1186L46.4179 50.5142C46.822 50.0423 47.1982 49.5435 47.5439 49.0238L49.647 50.6181ZM49.4636 54.2114C49.4846 54.188 49.5046 54.1636 49.5234 54.1381L51.8495 51.035C51.9078 50.9582 51.9536 50.8736 51.9867 50.7845L52.2419 50.4378L61.4484 57.4573C61.7439 57.6832 61.9355 58.0154 61.9872 58.3916C62.037 58.763 61.9422 59.1287 61.7207 59.4212C61.7201 59.4229 61.7192 59.4242 61.7182 59.4254C61.7175 59.4263 61.7167 59.4271 61.7159 59.4279L60.2265 61.4306C59.7607 62.0476 58.8798 62.1677 58.2617 61.6977L49.072 54.7433L49.4636 54.2114ZM50.8643 49.0161L48.5183 47.2373C48.7034 46.8379 48.863 46.4418 49.0004 46.0422C49.7375 44.0151 49.969 41.7759 49.6683 39.5627C49.4311 37.8586 48.8799 36.2192 48.0275 34.6847C47.5963 33.9181 47.1037 33.2057 46.554 32.5526H47.8981C50.0558 32.5526 52.0031 31.626 53.3682 30.1471V48.7695C52.9642 48.4912 52.4766 48.3794 51.9919 48.4449C51.5581 48.5062 51.166 48.7065 50.8643 49.0161ZM17.2779 19.0958H12.4628C12.2015 19.136 12.0001 19.3691 12.0001 19.6492V23.0453C12.0001 23.3535 12.2439 23.6048 12.5432 23.6048H17.1959C17.5014 23.6048 17.7504 23.3535 17.7504 23.0453V19.6492C17.7504 19.3691 17.5447 19.136 17.2779 19.0958ZM38.1136 19.0958H42.9283C43.19 19.136 43.391 19.3691 43.391 19.6492V23.0453C43.391 23.3535 43.1476 23.6048 42.8478 23.6048H38.1956C37.8902 23.6048 37.6411 23.3535 37.6411 23.0453V19.6492C37.6411 19.3691 37.8468 19.136 38.1136 19.0958ZM34.2625 9.818C35.3832 10.9492 36.182 12.32 36.6129 13.8171H18.7487C19.8914 9.85013 23.4894 7.07346 27.6844 7.07346C30.1647 7.07346 32.5008 8.04884 34.2625 9.818Z" fill="white"/>
</svg>
