<svg width="64" height="54" viewBox="0 0 64 54" fill="none" xmlns="http://www.w3.org/2000/svg">
<path fill-rule="evenodd" clip-rule="evenodd" d="M29.5297 38.356C28.4004 38.356 27.3047 37.752 26.7237 36.6841C26.7237 36.6831 26.7232 36.6831 26.7232 36.6831L24.1898 32.0272C24.0727 32.0489 23.954 32.0597 23.8348 32.0597C23.6484 32.0597 23.4606 32.0329 23.2766 31.9796C22.7653 31.8296 22.3427 31.4874 22.0865 31.0157L21.8327 30.5494L20.629 31.2179C20.0831 31.5233 19.4817 31.6781 18.8736 31.6781C18.5311 31.6781 18.1877 31.6287 17.8495 31.529C16.9113 31.2548 16.1363 30.6269 15.6658 29.7626C15.1953 28.8969 15.0857 27.8994 15.358 26.9518C15.6302 26.0032 16.2516 25.22 17.1072 24.7449L18.3098 24.0763L18.0558 23.6095C17.5269 22.6374 17.8789 21.4117 18.8413 20.8767L23.3383 18.3779C24.039 17.9882 24.8729 18.0709 25.4789 18.5203C28.857 16.0672 30.8281 13.3475 31.9489 9.61436C31.2597 8.26851 31.919 6.50628 33.4417 5.65905C34.156 5.26215 34.9595 5.11931 35.7099 5.25257C36.5262 5.39972 37.2069 5.87523 37.5778 6.55735L39.3473 9.80894C40.5084 9.39723 41.7662 9.36011 42.9739 9.71665C44.5059 10.1658 45.7719 11.1892 46.538 12.5984C47.9536 15.2146 47.2501 18.4365 45.0156 20.2252L46.7891 23.4841C47.5247 24.8373 46.8673 26.6353 45.3235 27.4928C44.7737 27.7987 44.1851 27.9434 43.6216 27.9434V27.944C42.6257 27.944 41.708 27.4901 41.2236 26.6588C37.5034 25.6155 34.1745 25.8401 30.3163 27.4088C30.3321 27.6417 30.3073 27.8782 30.241 28.1095C30.1533 28.4143 29.9994 28.688 29.792 28.9143L32.3259 33.5702C33.1745 35.1305 32.6086 37.0981 31.0646 37.9566C30.5775 38.2274 30.0501 38.356 29.5297 38.356ZM19.2738 25.8474L18.0715 26.5156C17.684 26.7308 17.4027 27.086 17.279 27.5154C17.1561 27.9449 17.2054 28.397 17.4179 28.7876L17.4184 28.7886C17.6314 29.1792 17.9824 29.4635 18.4074 29.589C18.8328 29.7122 19.2796 29.6638 19.6667 29.4481L20.8691 28.7799L19.2738 25.8474ZM24.2912 20.1438L24.3938 20.3319C24.3998 20.3442 24.4061 20.3564 24.4127 20.3685L28.1998 27.3281C28.2207 27.3664 28.2437 27.4029 28.2686 27.4374L28.3248 27.5405L28.0459 27.6961C28.0306 27.7036 28.0155 27.7115 28.0005 27.7198L24.1514 29.8596C24.1138 29.8805 24.0781 29.9035 24.0442 29.9283L23.8401 30.0422L19.8131 22.6426L24.2912 20.1438ZM28.088 29.9784L30.5728 34.5433C30.8911 35.1277 30.6791 35.8649 30.1013 36.1866C29.5226 36.5068 28.7936 36.2935 28.4758 35.7091L28.4763 35.7096L25.9914 31.1436L28.088 29.9784ZM19.8051 22.6469L19.3236 21.7616L19.8055 22.6469H19.8051ZM29.5178 25.5554L26.6005 20.1939C29.7888 17.8849 31.907 15.2755 33.2374 11.9863L39.932 24.2881C36.4709 23.6615 33.1549 24.07 29.5178 25.5554ZM34.406 7.42966C34.6469 7.2964 34.9106 7.22545 35.1554 7.22545L35.1554 7.22573C35.2252 7.22573 35.2939 7.23196 35.3594 7.24347C35.4875 7.266 35.718 7.33405 35.8247 7.53059L45.0359 24.4574C45.2114 24.78 44.9771 25.3792 44.36 25.7224C43.7429 26.0656 43.1163 25.9443 42.9413 25.6227L33.7301 8.69469C33.555 8.37204 33.7898 7.77287 34.406 7.42966ZM44.0359 18.4108L40.3386 11.6162C41.014 11.4436 41.7274 11.4551 42.4161 11.6564C43.4355 11.9556 44.2764 12.6353 44.784 13.569C45.6672 15.2017 45.3104 17.19 44.0359 18.4108Z" fill="white"/>
<path fill-rule="evenodd" clip-rule="evenodd" d="M58.5299 3.18852V5.46004H60.3055C62.3427 5.46004 64 7.13481 64 9.19365V44.8216C64 46.8803 62.3428 48.5552 60.3055 48.5552L39.8161 48.5547C39.0031 48.5547 38.266 49.0345 38.0231 49.7214C37.1186 52.2811 34.6996 54 32.0026 54L32.0021 53.9993C29.3004 53.9993 26.8814 52.2803 25.9769 49.7202C25.734 49.0333 24.9969 48.5535 24.1839 48.5535L3.6945 48.554C1.65734 48.554 0 46.8792 0 44.8204V9.19365C0 7.13493 1.65722 5.46004 3.6945 5.46004H5.47557L5.47555 3.18852C5.47555 1.42983 6.89089 0 8.63067 0H55.3748C57.1145 0 58.5299 1.42983 58.5299 3.18852ZM30.9985 47.5154C30.9985 47.5575 31.0011 47.5991 31.006 47.6398C31.0624 48.1433 31.4858 48.5288 31.9995 48.5288C32.1493 48.5288 32.2914 48.495 32.419 48.4346C32.7469 48.2829 32.9796 47.9573 33.0013 47.5742C33.0025 47.5545 33.0031 47.5346 33.0031 47.5146C33.0031 47.4049 33.007 47.296 33.0146 47.1882C33.1805 44.8574 35.1042 43.0125 37.4455 43.0125L57.5172 43.013C57.8256 43.013 58.1015 42.8719 58.2849 42.6501C58.4375 42.4727 58.5299 42.241 58.5299 41.9873V7.48146H60.3056C61.2396 7.48146 61.9999 8.24935 61.9999 9.19365V44.8204C61.9999 45.7651 61.2396 46.5326 60.3047 46.5326H39.8153C38.1466 46.5326 36.6692 47.5406 36.1389 49.0414C35.5185 50.7982 33.8561 51.9783 31.9976 51.9783C30.1446 51.9783 28.4816 50.7981 27.8612 49.0414C27.3314 47.5401 25.8539 46.5326 24.1847 46.5326L3.69535 46.533C2.76143 46.533 2.0011 45.7651 2.0011 44.8208V9.1929C2.0011 8.24814 2.76142 7.48072 3.69535 7.48072L5.4756 7.48098L5.47602 41.9873C5.47602 42.1749 5.52653 42.3504 5.61453 42.5009C5.78649 42.8065 6.11164 43.0125 6.48435 43.0125H26.556C29.0059 43.0125 30.9985 45.0325 30.9985 47.5154ZM56.5312 3.18752L56.5312 6.30011C56.5219 6.35549 56.5171 6.41242 56.5171 6.4705V40.9764H37.4593C35.1669 40.9764 33.1491 42.1934 32.0037 44.0221C30.8576 42.1934 28.8399 40.9764 26.5475 40.9764H7.48291V6.4705C7.48291 6.43047 7.48061 6.39099 7.47614 6.35219L7.47623 3.18752C7.47623 2.54376 7.99466 2.01985 8.63167 2.01985H55.3757C56.0132 2.01985 56.5312 2.54424 56.5312 3.18752Z" fill="white"/>
</svg>
