<svg width="64" height="64" viewBox="0 0 64 64" fill="none" xmlns="http://www.w3.org/2000/svg">
<path d="M36.0696 7.04711H32.7648C32.2122 7.04711 31.7649 6.5823 31.7649 6.00807C31.7649 5.43383 32.2122 4.96902 32.7648 4.96902H36.0696C36.6222 4.96902 37.0695 5.43383 37.0695 6.00807C37.0695 6.5823 36.6222 7.04711 36.0696 7.04711Z" fill="white"/>
<path d="M33.3535 58.0132C33.3535 58.5874 33.8653 59.1192 34.4179 59.1192C34.9705 59.1192 35.4832 58.5874 35.4832 58.0132C35.4832 57.4389 34.9705 56.9071 34.4179 56.9071C33.8648 56.9071 33.353 57.4389 33.3535 58.0132Z" fill="white"/>
<path fill-rule="evenodd" clip-rule="evenodd" d="M9.89087 36.798C10.1797 36.9769 10.5004 37.0662 10.8206 37.0662C11.1175 37.0662 11.4155 36.9887 11.6896 36.8344L18.9123 32.7591C19.4981 32.4274 19.8633 31.791 19.8633 31.097C19.8633 30.404 19.5 29.7667 18.9132 29.4359L11.6914 25.3523C11.1223 25.0294 10.4496 25.0417 9.89182 25.3868C9.334 25.7309 9.00102 26.3386 9.00102 27.0124V35.1724C9.00102 35.8462 9.334 36.454 9.89087 36.798ZM11.0013 34.858V27.3278L17.6676 31.0971L11.0013 34.858Z" fill="white"/>
<path fill-rule="evenodd" clip-rule="evenodd" d="M53.935 13.5126V19.7341L58.8667 34.4301C59.5208 36.3816 58.5256 38.5228 56.6478 39.2039C56.256 39.3459 55.8566 39.4129 55.4629 39.4129L55.4628 39.4131C54.9299 39.4131 54.4088 39.2894 53.9355 39.0598V59.4333C53.9355 61.951 51.9647 64 49.5422 64H19.295C16.8721 64 14.9003 61.951 14.9003 59.4333V43.206L12.6624 43.2061C12.3579 43.2061 12.0609 43.3373 11.8498 43.5655L7.72874 48.0173C7.3711 48.4028 6.88964 48.6078 6.39775 48.6078L6.39791 48.6081C6.16453 48.6081 5.92926 48.5623 5.70252 48.4672C4.9986 48.1729 4.54324 47.4715 4.54324 46.6833V43.5721C4.54324 43.37 4.38623 43.2069 4.19176 43.2069C1.88034 43.2069 0.000474337 41.2536 0.000474337 38.8516L0 24.3531C0 21.9512 1.87974 19.9977 4.19129 19.9977H14.9146C14.9049 19.9396 14.8999 19.8799 14.8999 19.8189L14.8994 4.56582C14.8994 2.04808 16.8712 0 19.2941 0H49.5411C51.964 0 53.935 2.04796 53.935 4.56582V13.4299C53.9353 13.4472 53.9354 13.4646 53.9354 13.482C53.9354 13.4868 53.9354 13.4917 53.9353 13.4965L53.9352 13.5025C53.9352 13.5058 53.9351 13.5092 53.935 13.5126ZM51.9347 13.482V16.3901C51.8428 16.3329 51.7481 16.2797 51.6507 16.2309C50.7855 15.7863 49.8013 15.7266 48.8791 16.0574C47.9689 16.3881 47.2374 17.0673 46.8186 17.9713C46.4066 18.8606 46.3472 19.8617 46.6499 20.7942C43.8093 23.9693 41.0039 25.7604 37.8597 26.4151C37.7383 26.4403 37.623 26.4881 37.5187 26.5571C36.7077 27.093 36.2894 28.0491 36.4028 29.0079L34.5417 29.6823C33.48 30.0668 32.64 30.8515 32.1918 31.86C31.6966 32.8827 31.6273 34.0539 31.9973 35.156C32.5542 36.8152 33.9956 37.8949 35.5822 38.0256L40.6245 47.1882C41.306 48.4273 42.5611 49.147 43.8727 49.147L43.8726 49.1471C44.2829 49.1471 44.6979 49.0771 45.103 48.9297C46.0465 48.5876 46.8054 47.8843 47.2399 46.9497C47.6744 46.0142 47.7332 44.9599 47.4041 43.9795L45.0302 36.9051C47.2184 36.3186 49.5058 36.3061 51.943 36.8623C51.9382 36.9039 51.9357 36.9462 51.9357 36.9891L51.9354 50.4966C51.9353 50.5034 51.9352 50.5102 51.9352 50.5171C51.9352 51.1505 50.912 51.8588 49.5417 51.8588H19.2946C17.9247 51.8588 16.9002 51.1504 16.9002 50.5171V43.2059L23.5048 43.2056C25.8163 43.2056 27.6961 41.2522 27.6961 38.8503V24.3531C27.6961 21.9511 25.8162 19.9977 23.5048 19.9977H16.8849C16.8946 19.9396 16.8997 19.8799 16.8997 19.8189V13.482C16.8997 12.8486 17.9238 12.1403 19.2942 12.1403H49.5412C50.9111 12.1403 51.9347 12.8486 51.9347 13.482ZM43.134 37.5673C42.6968 37.7563 42.263 37.9695 41.8324 38.2069C41.719 38.27 41.5961 38.3094 41.4681 38.3227C41.3808 38.3321 41.294 38.336 41.2072 38.336L41.2071 38.3355C40.3514 38.3355 39.5685 37.8733 39.1274 37.1252L37.6791 37.6502L42.3605 46.1571C42.7755 46.9142 43.6516 47.2533 44.4447 46.967C44.8844 46.8077 45.2368 46.4809 45.4389 46.0457C45.641 45.6105 45.6685 45.12 45.5153 44.6636L43.134 37.5673ZM36.1215 35.9497C36.2841 35.9323 36.4473 35.8952 36.6082 35.8367L38.4151 35.1815L37.0083 30.9892L35.1999 31.6446C34.6549 31.8423 34.2261 32.2391 33.9928 32.763C33.729 33.3101 33.6958 33.9056 33.8865 34.4719C34.2085 35.4325 35.1061 36.0183 36.0392 35.9568C36.0666 35.9532 36.094 35.9509 36.1215 35.9497ZM47.3872 22.9934L51.287 34.614C47.6652 34.0015 44.3236 34.5393 41.1216 36.2471C40.9703 36.2136 40.8403 36.0977 40.7877 35.9405L40.6463 35.5191C40.6423 35.5057 40.6381 35.4922 40.6336 35.4788L38.5683 29.324C38.5634 29.3091 38.5581 29.2945 38.5526 29.2801L38.4118 28.8605C38.3582 28.6998 38.3933 28.5243 38.4938 28.3996C41.6961 27.6795 44.5582 25.944 47.3872 22.9934ZM53.9425 36.2136L53.7671 35.6908C53.7646 35.683 53.7621 35.6752 53.7596 35.6674L48.5508 20.1454C48.4089 19.7264 48.4345 19.2735 48.621 18.8718C48.8074 18.4691 49.1328 18.1669 49.5379 18.0195C49.7119 17.9569 49.8903 17.9254 50.0682 17.9254L50.0682 17.9257C50.3096 17.9257 50.5487 17.9839 50.7726 18.0983C51.1554 18.291 51.4443 18.6281 51.5861 19.0471L56.9778 35.114C57.2696 35.9835 56.826 36.9372 55.9884 37.2408C55.1583 37.545 54.2357 37.0831 53.9425 36.2136ZM51.9347 10.5978V4.56582C51.9347 3.19509 50.8604 2.07862 49.5412 2.07862H19.2942C17.9736 2.07862 16.8997 3.19505 16.8997 4.56582V10.5985C17.5845 10.258 18.4048 10.0621 19.2946 10.0621H49.5416C50.4307 10.0621 51.2503 10.2577 51.9347 10.5978ZM16.9002 59.4333V53.4004C17.5851 53.741 18.4053 53.9369 19.295 53.9369H49.5421C50.4313 53.9369 51.2509 53.7412 51.9353 53.401L51.9352 59.4333C51.9352 60.8051 50.8608 61.9215 49.5417 61.9215H19.2946C17.9745 61.9215 16.9002 60.8055 16.9002 59.4333ZM2.00031 24.3528C2.00031 23.0974 2.98363 22.0756 4.19176 22.0756L23.5053 22.0755C24.7134 22.0755 25.6967 23.0973 25.6967 24.3528L25.6972 38.85C25.6972 40.1054 24.7139 41.1272 23.5057 41.1272H12.6629C11.8172 41.1272 10.9956 41.4905 10.4089 42.1238L6.5435 46.2997V43.571C6.5435 42.2235 5.48864 41.1272 4.19176 41.1272C2.98361 41.1272 2.00031 40.1054 2.00031 38.85V24.3528Z" fill="white"/>
<path d="M61.0596 24.6081C60.6688 24.6081 60.2969 24.3675 60.1366 23.9688C59.9236 23.4389 60.165 22.8311 60.6745 22.6098L62.4225 21.8517C62.9262 21.6304 63.5172 21.8803 63.7303 22.4106C63.9432 22.9405 63.7018 23.5483 63.1924 23.7696L61.4444 24.5277C61.3196 24.5824 61.1887 24.6081 61.0596 24.6081Z" fill="white"/>
<path d="M60.0597 28.9956C60.0663 29.5649 60.5127 30.0213 61.0596 30.0213H61.0724L63.0128 29.9947C63.5654 29.9878 64.0066 29.5156 63.9999 28.9424C63.9933 28.3731 63.5469 27.9166 63 27.9166H62.9872L61.0468 27.9433C60.4942 27.9502 60.053 28.4224 60.0597 28.9956Z" fill="white"/>
<path d="M58.0689 19.9683C57.7478 19.9683 57.4324 19.8081 57.2388 19.5104C56.9301 19.0342 57.0515 18.388 57.5083 18.0671L59.1167 16.9398C59.5769 16.6189 60.1959 16.7451 60.5057 17.2198C60.8145 17.6959 60.693 18.3421 60.2362 18.6631L58.6278 19.7904C58.4556 19.9101 58.2615 19.9683 58.0689 19.9683Z" fill="white"/>
</svg>
