<svg width="320" height="687" viewBox="0 0 320 687" fill="none" xmlns="http://www.w3.org/2000/svg">
<path d="M-77.367 185.99H-83.3143L-88.0721 190.743L-86.8827 195.495L-80.9354 196.683H-79.7459L-78.5564 195.495H-77.367L-76.1775 194.307V195.495L-77.367 196.683H-76.1775L-74.9881 195.495V190.743L-77.367 185.99ZM-22.652 213.317L-20.273 214.505V215.693V216.881V218.069L-16.7047 220.446L-14.3258 216.881L-15.5152 213.317L-16.7047 209.753V207.376L-17.8941 205H-20.273V207.376H-21.4625H-22.652V213.317ZM-55.9568 212.129L-59.5252 210.941L-64.283 209.753L-70.2303 210.941L-69.0408 212.129V214.505H-71.4197L-72.6092 213.317V212.129L-71.4197 210.941L-74.9881 209.753H-78.5564H-79.7459L-80.9354 208.564L-88.0721 209.753L-95.2089 208.564L-96.3983 207.376V206.188V207.376V208.564H-97.5878V209.753V212.129L-98.7772 209.753L-101.156 208.564L-102.346 207.376L-107.103 210.941L-111.861 215.693L-117.809 213.317L-122.566 209.753L-121.377 206.188L-120.187 203.812L-121.377 201.436L-122.566 199.059L-117.809 196.683L-114.24 195.495L-108.293 199.059L-107.103 197.871L-105.914 196.683V195.495H-104.724V191.931V188.366L-108.293 183.614L-113.051 180.05L-114.24 176.485L-115.43 175.297V178.861V184.802L-122.566 190.743L-128.514 195.495V199.059V202.624L-133.271 206.188L-135.65 208.564V209.753V212.129L-130.893 219.258L-127.324 226.386L-126.135 228.762L-124.945 229.951V231.139H-122.566V229.951L-120.187 228.762H-117.809L-115.43 229.951L-113.051 232.327H-104.724L-95.2089 233.515L-92.8299 232.327L-91.6405 231.139L-90.451 232.327V233.515L-88.0721 232.327H-85.6932L-79.7459 237.079L-72.6092 243.02L-36.9255 264.406L-35.736 265.594L-34.5466 266.782L-27.4098 265.594L-19.0836 263.218V262.03L-17.8941 259.654L-16.7047 260.842H-15.5152L-13.1363 259.654L-10.7574 258.465L-8.37852 257.277L-5.99957 256.089L-4.81012 254.901H-3.62067H-2.43121L-0.0523071 256.089L2.3266 252.525V250.149L1.13715 248.96L-1.24176 245.396L-0.0523071 244.208L1.13715 243.02L3.51605 240.644V238.267L-0.0523071 232.327L-4.81012 227.574L-10.7574 222.822L-11.9469 221.634L-13.1363 220.446L-14.3258 221.634L-15.5152 222.822L-16.7047 221.634H-17.8941L-19.0836 222.822V229.951L-20.273 237.079L-21.4625 235.891H-22.652L-25.0309 237.079L-27.4098 235.891H-28.5993L-29.7887 238.267L-33.3571 239.456L-34.5466 237.079L-33.3571 234.703L-30.9782 233.515H-29.7887V231.139L-30.9782 228.762H-29.7887L-38.1149 227.574L-45.2517 228.762L-47.6306 225.198L-54.7673 222.822L-59.5252 224.01V225.198L-60.7146 226.386L-61.9041 224.01H-64.283L-65.4724 225.198H-66.6619L-65.4724 224.01V222.822V221.634L-67.8513 220.446H-70.2303L-69.0408 219.258V218.069H-67.8513H-66.6619L-64.283 219.258L-63.0935 216.881L-61.9041 214.505H-60.7146L-59.5252 213.317V212.129H-60.7146H-58.3357H-55.9568Z" fill="#E0EAE7" stroke="#F2F6F5"/>
<path d="M-38.1131 401.04L-42.8709 402.228L-44.0604 403.416V404.604H-46.4393L-48.8182 403.416H-51.1971H-54.7655L-55.955 402.228H-57.1444L-59.5234 403.416L-60.7128 405.792H-64.2812L-67.8495 404.604V406.98L-69.039 408.168V410.545V412.921L-71.4179 414.109H-73.7968H-76.1757V412.921H-79.7441L-82.123 414.109L-84.502 418.861L-85.6914 424.802V425.99H-84.502L-85.6914 427.178H-86.8809H-88.0703L-89.2598 430.743V434.307L-86.8809 435.495L-84.502 436.683V439.059V441.436H-83.3125H-80.9336V442.624L-79.7441 443.812L-78.5546 442.624L-77.3652 443.812L-74.9863 447.376L-73.7968 450.941L-72.6074 452.129L-70.2285 453.317H-69.039L-67.8495 456.881L-65.4706 461.634H-64.2812V460.446L-63.0917 461.634V462.822H-61.9023L-59.5234 464.01L-57.1444 466.386L-55.955 468.762H-53.5761L-52.3866 467.574V465.198H-51.1971L-48.8182 464.01L-50.0077 462.822V461.634H-48.8182H-47.6288V460.446L-48.8182 459.257L-47.6288 458.069L-45.2499 456.881V455.693L-44.0604 454.505H-42.8709V453.317V452.129L-41.6815 450.941H-40.492V449.752V448.564V447.376L-38.1131 448.564L-34.5448 447.376L-35.7342 439.059V437.871H-36.9237H-39.3026L-40.492 436.683L-39.3026 435.495L-36.9237 434.307V430.743V427.178L-33.3553 424.802L-29.7869 422.426L-28.5975 423.614L-27.408 425.99L-28.5975 427.178V429.554H-26.2185L-23.8396 430.743L-21.4607 431.931L-17.8923 434.307L-16.7029 433.119H-14.324L-5.99776 435.495L3.51786 431.931L1.13895 429.554H-2.42941L-3.61886 428.366L-4.80831 427.178L-8.37671 424.802L-10.7556 423.614V421.238L-9.56612 417.673H-11.9451L-14.324 415.297L-13.1345 414.109V412.921L-14.324 411.733H-15.5134L-16.7029 406.98L-19.0818 403.416L-20.2712 402.228H-21.4607L-22.6502 401.04L-26.2185 399.851H-27.408H-29.7869L-30.9764 398.663L-32.1658 396.287H-34.5448L-35.7342 397.475L-38.1131 401.04Z" fill="#E0EAE7" stroke="#F2F6F5"/>
<path d="M3.51871 431.931L-5.99692 435.495L-14.3231 433.119H-16.702L-17.8915 434.307L-21.4599 431.931L-23.8388 430.743L-26.2177 429.555H-28.5966V427.178L-27.4072 425.99L-28.5966 423.614L-29.7861 422.426L-33.3545 424.802L-36.9228 427.178V431.931V434.307L-39.3017 435.495L-40.4912 436.683L-39.3017 437.871H-36.9228H-35.7334V439.059L-34.5439 448.564H-38.1123L-40.4912 447.376V448.564V449.753V450.941H-41.6806L-42.8701 452.129V453.317V454.505H-44.0596L-45.249 455.693V456.881L-47.6279 458.069L-48.8174 459.257L-47.6279 460.446L-48.8174 461.634H-50.0068V462.822L-48.8174 464.01L-51.1963 465.198H-52.3857V467.574L-50.0068 471.139L-51.1963 477.079V479.455H-50.0068L-53.5752 484.208L-52.3857 486.584L-51.1963 487.772L-50.0068 488.96H-48.8174L-47.6279 487.772H-46.4385V488.96H-45.249V487.772L-44.0596 486.584V490.149V494.901L-41.6806 493.713V492.525L-39.3017 493.713L-36.9228 496.089L-35.7334 497.277H-33.3545V498.465L-34.5439 499.653L-36.9228 498.465L-39.3017 502.03L-38.1123 504.406L-35.7334 503.218L-29.7861 506.782H-28.5966L-23.8388 504.406H-20.2704L-17.8915 502.03H-15.5126L-14.3231 498.465L-13.1337 496.089L-11.9442 494.901V493.713L-13.1337 490.149L-14.3231 487.772L-13.1337 481.832L-10.7548 479.455L-11.9442 478.267V475.891H-10.7548H-9.56528L-7.18641 473.515L-4.80746 472.327H-1.23911H-0.0496521V469.951L-1.23911 467.574L-0.0496521 465.198L2.32925 464.01V462.822V461.634L3.51871 459.257L4.70819 458.069V455.693L3.51871 454.505L2.32925 452.129L3.51871 450.941V449.753V448.564L2.32925 446.188V445V443.812V441.436L1.1398 440.248V439.059H2.32925V437.871V435.495H3.51871V433.119V431.931Z" fill="#E0EAE7" stroke="#F2F6F5"/>
<path d="M90.3468 556.683H89.1574L87.9679 555.495L86.7784 554.307L85.589 555.495H84.3995L83.2101 554.307L80.8312 551.931L77.2628 553.119L76.0733 555.495L77.2628 557.871L74.8839 560.248L73.6944 559.059H71.3155H70.1261L68.9366 557.871L67.7471 556.683L66.5577 559.059L65.3682 561.436H64.1788H62.9893L61.7998 562.624L60.6104 563.812H57.042H52.2842L49.9053 565L48.7158 566.188L46.3369 565L43.958 566.188L46.3369 568.564L48.7158 570.941V572.129V574.505V575.693H45.1475L47.5264 581.634L51.0947 586.386L52.2842 589.95L53.4737 593.515L54.6631 594.703H55.8526L58.2315 595.891L59.4209 597.079L64.1788 595.891L67.7471 594.703V595.891L66.5577 597.079L72.505 605.396H74.8839H77.2628L79.6417 604.208L80.8312 601.832L86.7784 603.02H87.9679H89.1574H90.3468L91.5363 601.832H92.7257L93.9152 603.02L96.2941 599.455L97.4836 597.079L96.2941 594.703V593.515H93.9152V592.327L97.4836 589.95H99.8625V587.574L97.4836 586.386V584.01V581.634H96.2941L95.1046 580.446V576.881L93.9152 572.129L92.7257 573.317L90.3468 574.505L86.7784 573.317L84.3995 569.752L85.589 568.564L86.7784 567.376V566.188V563.812L89.1574 562.624L91.5363 560.248V557.871V556.683H90.3468Z" fill="#E0EAE7" stroke="#F2F6F5"/>
<path d="M-72.6071 243.02L-79.7438 237.079L-85.6911 232.327H-88.07H-90.4489L-91.6384 231.139L-92.8278 232.327L-95.2068 233.515L-104.722 232.327H-113.049L-116.617 237.079L-120.185 241.832L-121.375 245.396H-118.996L-117.806 246.584L-118.996 250.149L-120.185 253.713L-118.996 256.089V257.277L-120.185 258.465L-121.375 259.654L-122.564 258.465L-124.943 256.089H-126.133L-127.322 257.277L-128.512 256.089V254.901H-129.701H-132.08L-133.269 253.713L-135.648 254.901L-136.838 253.713V251.337L-145.164 245.396L-153.49 241.832V247.772L-151.111 252.525V258.465L-153.49 262.03V264.406L-152.301 266.782L-155.869 267.97H-158.248L-161.816 272.723L-163.006 277.475L-161.816 278.663H-160.627L-159.437 277.475L-158.248 278.663L-155.869 279.852V278.663L-154.68 276.287L-151.111 275.099L-149.922 276.287L-148.732 275.099H-147.543L-146.353 277.475L-145.164 279.852L-149.922 284.604L-155.869 289.357L-157.059 292.921L-158.248 295.297L-165.385 297.673H-167.764L-170.143 298.861L-173.711 304.802V307.178V308.366L-178.469 309.555L-180.848 313.119L-178.469 315.495L-177.279 317.871V320.248L-176.09 323.812L-177.279 325V327.376L-173.711 325L-171.332 322.624H-170.143H-168.953V321.436L-164.195 323.812L-160.627 325L-155.869 323.812H-152.301V325L-149.922 323.812L-151.111 320.248L-148.732 314.307L-141.596 316.683H-140.406H-139.217L-136.838 319.059L-138.027 321.436L-134.459 323.812L-132.08 322.624L-129.701 326.188L-127.322 327.376H-124.943L-121.375 326.188L-120.185 327.376V328.564L-118.996 327.376H-116.617H-115.428L-114.238 328.564L-111.859 327.376L-108.291 326.188L-101.154 333.317L-89.2595 334.505V333.317L-86.8805 332.129L-85.6911 329.753L-84.5016 326.188H-82.1227L-80.9333 323.812L-82.1227 322.624V321.436L-79.7438 316.683L-77.3649 311.931L-72.6071 307.178L-67.8492 302.426L-66.6598 295.297L-65.4703 294.109L-63.0914 292.921L-61.902 291.733H-60.7125L-58.3336 290.545H-55.9547V291.733L-54.7652 294.109L-52.3863 292.921L-50.0074 291.733L-47.6285 290.545V289.357L-44.0601 288.168L-41.6812 286.98H-38.1128L-35.7339 288.168L-32.1655 284.604L-28.5972 283.416V282.228L-26.2182 279.852H-22.6499L-17.892 278.663H-16.7026H-15.5131H-14.3237H-13.1342L-11.9448 277.475L-10.7553 275.099L-4.80801 272.723L-0.0502014 269.158L-1.23965 265.594L-3.61856 262.03L-2.42911 257.277H-1.23965L-0.0502014 256.089L-2.42911 254.901H-3.61856H-4.80801L-5.99747 256.089L-8.3764 257.277L-10.7553 258.465L-13.1342 259.654L-15.5131 260.842H-16.7026L-17.892 259.654L-19.0815 262.03V263.218L-27.4077 265.594L-34.5444 266.782L-35.7339 265.594L-36.9234 264.406L-72.6071 243.02Z" fill="#E0EAE7" stroke="#F2F6F5"/>
<path d="M-40.4925 172.921V170.545H-42.8714V172.921L-41.682 174.109L-42.8714 178.861L-39.3031 175.297V174.109L-40.4925 172.921ZM-13.135 146.782L-16.7034 145.594H-20.2718V146.782V147.97H-21.4613V149.158V150.347L-23.8402 149.158H-27.4085V150.347V151.535L-26.2191 152.723H-27.4085V153.911H-26.2191H-27.4085L-28.598 155.099L-32.1663 157.475L-34.5453 159.852L-35.7347 158.663V157.475L-36.9242 156.287L-39.3031 157.475L-41.682 159.852L-42.8714 163.416V166.98H-41.682H-40.4925V168.168L-39.3031 166.98L-38.1136 165.792V166.98L-39.3031 169.356L-36.9242 171.733L-35.7347 170.545L-36.9242 171.733L-38.1136 176.485L-36.9242 177.673L-35.7347 180.05H-36.9242H-38.1136L-39.3031 178.861V180.05L-40.4925 181.238H-41.682V183.614L-40.4925 185.99H-38.1136L-36.9242 188.366V190.743H-35.7347H-34.5453V189.554H-33.3558L-32.1663 191.931L-30.9769 194.307L-29.7874 195.495V194.307V193.119L-28.598 191.931V194.307L-26.2191 197.871V196.683V195.495L-25.0296 196.683H-22.6507L-23.8402 193.119L-25.0296 189.554V183.614L-23.8402 177.673L-22.6507 172.921L-20.2718 168.168H-19.0823L-17.8929 165.792L-16.7034 163.416L-15.5139 161.04L-14.3245 162.228L-11.9456 161.04V159.852L-13.135 158.663H-11.9456L-9.56665 159.852L-8.37723 158.663V157.475H-9.56665L-10.7561 156.287L-7.18777 157.475V155.099H-5.99829H-4.80884L-5.99829 151.535L-8.37723 149.158V147.97L-9.56665 146.782H-11.9456H-13.135ZM14.2225 120.644L11.8436 123.02V124.208H13.033V125.396L14.2225 126.584H11.8436L9.46465 127.772H10.6541L11.8436 128.96V130.149L13.033 131.337L10.6541 130.149L7.08574 128.96L5.89629 130.149L7.08574 132.525H5.89629H4.70683H2.32788L3.51733 133.713V134.901H2.32788L1.13843 133.713V136.089L2.32788 138.465L1.13843 137.277L-1.24048 134.901L-3.61938 136.089V138.465V137.277L-5.99829 136.089L-8.37723 137.277L-9.56665 138.465L-10.7561 137.277L-8.37723 140.842L-3.61938 142.03V143.218H-7.18777H-10.7561L-13.135 144.406V145.594H-11.9456H-9.56665L-7.18777 147.97L-5.99829 150.347L-4.80884 149.158V152.723L-2.42993 153.911L-1.24048 152.723V153.911L-0.0510254 152.723L2.32788 151.535L1.13843 149.158V147.97V146.782L2.32788 150.347H4.70683L5.89629 149.158L4.70683 146.782L3.51733 145.594V144.406L5.89629 145.594L7.08574 147.97V149.158L8.27519 146.782L9.46465 144.406L8.27519 143.218V142.03H9.46465V140.842H10.6541V142.03V144.406V146.782L11.8436 145.594L13.033 144.406L15.4119 143.218L17.7908 139.653L16.6014 138.465V137.277H17.7908V139.653L20.1698 140.842L21.3592 139.653L22.5487 137.277V136.089V137.277L23.7381 140.842L24.9276 139.653V137.277H26.117V138.465V139.653L28.4959 138.465V137.277L29.6854 138.465L30.8749 137.277V136.089L29.6854 134.901H30.8749H32.0643L33.2538 133.713L32.0643 134.901L34.4432 133.713L38.0116 132.525V133.713L39.201 132.525H40.3905L43.9589 131.337H47.5273H49.9062H51.0956H64.1797L76.0742 130.149L79.6426 127.772L82.0215 124.208L84.4004 121.832L83.211 118.267L77.2637 115.891L70.127 118.267V119.455L68.9375 120.644H67.748V119.455H52.2851L48.7167 115.891L46.3378 114.703L45.1483 117.079L41.58 118.267H42.7694V117.079H40.3905L38.0116 118.267L35.6327 117.079H32.0643L29.6854 118.267H28.4959H27.3065V119.455H23.7381V121.832L22.5487 123.02L21.3592 121.832L20.1698 120.644L18.9803 121.832L17.7908 123.02L15.4119 124.208V123.02L14.2225 120.644ZM73.6953 33.7921V30.8218L71.3164 30.2277L70.127 32.7228V36.2871L73.6953 33.7921ZM60.6113 23.2178L59.4218 26.1881L62.9902 26.7822L64.1797 23.2178H60.6113ZM73.6953 23.6931L77.2637 25.7129L78.4532 24.5248L76.0742 21.9109L73.6953 23.6931ZM67.748 29.0396V29.9901L70.127 28.4455H68.9375L67.748 29.0396ZM66.5586 19.5347V18.5842L65.3691 18.4654V19.7723V21.3168L66.5586 19.5347V19.5347ZM67.748 20.8416L66.5586 21.7921V22.7426V24.2871L68.9375 21.9109V21.198L67.748 20.8416ZM74.8848 20.9604L76.0742 20.0099L72.5059 16.0891L71.3164 18.1089L72.5059 20.1287L74.8848 20.9604ZM49.9062 26.0693V26.901L51.0956 27.6139L52.2851 25.9505V24.0495L49.9062 23.9307V26.0693V26.0693ZM51.0956 18.9406L48.7167 20.4852L49.9062 21.9109L51.0956 20.604V18.9406ZM41.58 1.71287V3.25743L42.7694 3.49505V4.08911V5.03961V5.9901L46.3378 5.87129L48.7167 5.15842L49.9062 4.92079V5.0396L51.0956 5.27723L52.2851 8.24752L53.4746 7.29703V4.68317L52.2851 2.18812H49.9062L47.5273 2.42574L46.3378 2.30693L45.1483 2.06931L42.7694 1L41.58 1.71287ZM60.6113 6.82178V6.10891L59.4218 6.46535L57.0429 6.94059L55.8535 7.41584V8.72277V10.1485L51.0956 10.2673L47.5273 9.31683V10.1485L48.7167 11.2178H47.5273L46.3378 10.6238V11.3366V12.2871V12.5248H45.1483V10.505L42.7694 10.1485L41.58 11.8119V13.5941L43.9589 13.4752V15.0198L42.7694 15.7327L41.58 16.4455L42.7694 16.802L43.9589 16.6832L45.1483 17.6337L46.3378 16.5644V17.2772L47.5273 17.396L48.7167 15.6139L47.5273 14.3069V14.1881L51.0956 14.5446L52.2851 15.7327L53.4746 14.901L55.8535 14.1881L62.9902 13.8317L61.8008 11.3366L59.4218 10.505V10.2673L60.6113 9.43565L61.8008 9.31684L62.9902 8.12872V7.65347H60.6113V6.82179V6.82178ZM64.1797 3.61386L62.9902 4.68317L64.1797 5.03961L66.5586 4.56436V3.37624L65.3691 2.78218L64.1797 3.61386ZM107 16.2079L109.379 18.3465L110.569 16.4455L108.19 14.1881L107 16.2079ZM97.4844 34.505L99.8634 36.7624L104.621 37L108.19 33.9109V33.6733L109.379 29.6337L107 28.4455L105.811 30.2277L104.621 31.7723L103.432 31.5347L99.8634 32.0099L97.4844 34.505ZM80.8321 42.1089L79.6426 40.6832L77.2637 42.703L79.6426 44.4852L80.8321 42.1089ZM80.8321 32.604L74.8848 31.8911V35.5743V38.1881H76.0742V37.4753L77.2637 37.5941L78.4532 37.1188L77.2637 36.2871V35.6931V35.5743L80.8321 36.0495L82.0215 34.0297L80.8321 32.604ZM85.5899 31.4158L84.4004 32.604V34.0297V35.4555L85.5899 35.6931V35.5743L86.7793 35.4555V36.6436L87.9688 38.3069L91.5372 37.1188L95.1055 34.3862L96.295 32.604V30.703L95.1055 29.9901H92.7266L90.3477 28.4455L87.9688 27.8515L85.5899 31.4158ZM83.211 25L84.4004 26.7822L86.7793 26.0693L85.5899 24.2871L83.211 25ZM80.8321 28.0891L79.6426 27.4951L78.4532 28.802L79.6426 29.1584L80.8321 28.0891ZM80.8321 17.9901L79.6426 16.5644L78.4532 15.3762L77.2637 14.1881V13L76.0742 13.3564L74.8848 14.1881L76.0742 16.6832L77.2637 19.6535L78.4532 23.2178L82.0215 25.1188L80.8321 17.9901ZM83.211 17.1584L82.0215 15.7327L80.8321 15.8515L82.0215 18.3465V21.0792L83.211 23.2178L84.4004 23.4554V18.5842L83.211 17.1584V17.1584ZM86.7793 17.396L87.9688 15.9703L85.5899 15.8515L84.4004 17.1584L86.7793 17.396V17.396ZM95.1055 27.6139L97.4844 25.3564L95.1055 24.2871L91.5372 26.1881L95.1055 27.6139ZM93.9161 13.8317L92.7266 14.5446V16.4455L93.9161 15.7327V13.8317ZM98.6739 5.03961L96.295 4.56436V4.20792L95.1055 4.32673V5.39604L93.9161 6.58416L96.295 7.65347L99.8634 6.10891L98.6739 5.0396V5.03961ZM89.1583 8.84159V12.2871L92.7266 12.8812L91.5372 8.84159H89.1583ZM83.211 11.4554V10.0297L82.0215 10.505V13.3564L84.4004 14.5446H87.9688L89.1583 14.7822V14.5446L87.9688 11.3366L84.4004 12.4059L83.211 11.4554ZM-145.165 197.871H-146.354L-147.544 199.059H-151.112L-154.68 200.248L-157.059 199.059L-158.249 197.871L-161.817 199.059H-166.575L-171.333 202.624L-172.522 207.376L-173.712 212.129H-174.901L-176.091 213.317L-174.901 212.129L-176.091 210.941L-177.28 209.753V210.941H-178.47L-180.848 209.753L-182.038 206.188L-184.417 202.624L-186.796 201.436L-187.985 202.624V201.436L-186.796 200.248H-184.417L-185.606 194.307L-189.175 189.554L-191.554 190.743L-193.932 191.931L-195.122 201.436H-193.932L-191.554 202.624L-193.932 206.188L-197.501 209.753L-198.69 208.564H-199.88V209.753L-202.259 206.188L-204.638 201.436L-207.017 203.812L-209.395 205L-210.585 203.812L-211.774 202.624L-212.964 206.188L-214.153 209.753L-215.343 212.129L-217.722 214.505L-216.532 219.257L-214.153 222.822L-216.532 225.198L-218.911 227.574V228.762L-220.101 232.327L-222.479 235.891L-223.669 234.703L-224.858 235.891L-226.048 237.079L-227.237 240.644L-228.427 244.208L-229.616 246.584V251.337H-228.427L-227.237 252.525V253.713V254.901L-224.858 256.089H-223.669L-222.479 258.465V259.654H-221.29L-220.101 260.842L-218.911 262.03L-217.722 263.218L-216.532 264.406V266.782H-212.964L-210.585 265.594V266.782H-209.395L-208.206 267.97L-207.017 269.158V270.347L-205.827 272.723H-204.638L-202.259 273.911V275.099V276.287H-198.69L-196.311 275.099L-193.932 278.663L-190.364 284.604L-187.985 283.416H-183.227V284.604V288.168H-180.848L-179.659 292.921L-173.712 294.109L-172.522 296.485L-170.143 298.861L-167.764 297.673H-165.386L-158.249 295.297L-157.059 292.921L-155.87 289.357L-149.923 284.604L-145.165 279.852L-146.354 277.475L-147.544 275.099H-148.733L-149.923 276.287H-151.112H-154.68L-155.87 278.663V279.852H-158.249L-159.438 278.663H-160.628H-161.817L-163.007 277.475L-161.817 272.723L-158.249 267.97H-155.87L-152.302 266.782L-153.491 264.406V262.03L-151.112 258.465V252.525L-153.491 247.772V243.02L-145.165 245.396L-136.839 251.337V254.901L-135.649 256.089L-133.27 253.713L-132.081 256.089L-129.702 254.901H-128.512V256.089L-127.323 257.277L-126.133 256.089H-124.944L-122.565 258.465L-121.376 259.654L-120.186 258.465L-118.997 257.277V256.089L-120.186 254.901L-118.997 250.149L-117.807 246.584L-118.997 245.396H-121.376L-120.186 241.832L-116.618 237.079L-113.049 232.327L-115.428 229.951L-117.807 228.762H-120.186L-122.565 229.951V231.139H-124.944V229.951L-126.133 228.762L-127.323 226.386L-130.891 219.257L-135.649 212.129V209.753V208.564L-141.596 213.317L-140.407 210.941L-141.596 209.753L-142.786 208.564L-143.975 209.753L-142.786 208.564L-140.407 207.376L-145.165 197.871Z" fill="#E0EAE7" stroke="#F2F6F5"/>
<path d="M68.9389 185.99V184.802H67.7494H66.56L60.6127 187.178V190.743L65.3705 191.931L68.9389 190.743V189.554V187.178V185.99ZM84.4018 215.693V210.941L85.5913 207.376V205L84.4018 203.812L83.2124 207.376L82.0229 213.317L78.4545 216.881L72.5072 218.069L71.3178 219.257H70.1283L68.9389 221.634L67.7494 222.822L66.56 224.01L65.3705 225.198V226.386L66.56 227.574V228.762L65.3705 231.139L66.56 235.891V240.644L62.9916 244.208L60.6127 246.584L59.4232 250.149L58.2338 252.525L57.0443 254.901V257.277V259.653L55.8549 262.03L54.6654 265.594H57.0443H58.2338L59.4232 266.782L60.6127 267.97L62.9916 266.782H65.3705L72.5072 271.535L76.0756 278.663V279.852L74.8861 281.04L76.0756 284.604V288.168H74.8861H73.6967L70.1283 290.545L68.9389 294.109L73.6967 298.861L77.2651 301.238H74.8861L72.5072 300.05L70.1283 301.238H68.9389V300.05V297.673L67.7494 295.297V294.109L68.9389 291.733V289.356L70.1283 288.168L71.3178 286.98H70.1283V285.792L71.3178 284.604V283.416V279.852L70.1283 277.475V275.099V272.723H64.1811H57.0443L54.6654 276.287L53.4759 278.663V282.228L51.097 290.545L48.7181 292.921L45.1497 294.109L43.9603 297.673L41.5814 300.05L38.013 301.238L34.4446 303.614L32.0657 302.426L30.8763 303.614L28.4973 307.178H24.9289V305.99L23.7395 304.802L18.9817 303.614L15.4133 301.238L13.0344 300.05L11.8449 297.673L10.6555 294.109V290.545L15.4133 292.921L21.3606 295.297L20.1711 296.485H17.7922V297.673L21.3606 300.05H26.1184V297.673L27.3079 295.297H28.4973L30.8763 294.109L32.0657 292.921H33.2552V291.733V290.545L38.013 288.168L42.7708 285.792L43.9603 282.228V279.852L47.5286 277.475L49.9075 273.911L47.5286 269.158L46.3392 262.03L49.9075 256.089L52.2865 250.149L54.6654 243.02L55.8549 241.832L57.0443 240.644L60.6127 233.515L59.4232 227.574V221.634L64.1811 216.881L71.3178 205V202.624V201.436L68.9389 197.871L62.9916 195.495L60.6127 194.307L58.2338 193.119H57.0443L58.2338 191.931H57.0443V190.743L51.097 197.871L45.1497 206.188L35.6341 213.317L28.4973 216.881H29.6868L28.4973 219.257H27.3079L26.1184 221.634H28.4973L29.6868 222.822L27.3079 226.386L24.9289 231.139V233.515L23.7395 235.891L22.55 234.703H21.3606L18.9817 237.079L17.7922 240.644V241.832L18.9817 240.644H20.1711L21.3606 243.02L22.55 245.396H23.7395V247.772L22.55 248.96V254.901L24.9289 257.277V258.465L17.7922 266.782H15.4133L16.6028 265.594V264.406L15.4133 263.218L14.2238 262.03L13.0344 253.713L10.6555 250.149L7.08711 245.396H8.27657L10.6555 247.772V248.96V250.149V248.96L8.27657 244.208L3.51871 240.644L1.13981 241.832L-0.0496445 244.208H-1.2391L1.13981 247.772L2.32926 250.149V252.525L-0.0496445 254.901L-2.42855 257.277L-3.618 262.03L-1.2391 265.594L-0.0496445 269.158L-4.80746 271.535L-10.7548 275.099L-11.9442 276.287L-13.1337 278.663H-14.3231H-15.5126H-16.702H-17.8915L-22.6493 279.852H-26.2177L-28.5966 282.228V283.416L-32.165 284.604L-35.7334 286.98V288.168L-38.1123 286.98H-41.6806L-40.4912 290.545V292.921L-39.3017 295.297V296.485L-41.6806 298.861L-42.8701 303.614H-45.249L-46.4385 305.99L-45.249 308.366L-41.6806 309.554L-42.8701 311.931L-41.6806 314.307H-40.4912H-39.3017H-38.1123L-36.9228 315.495L-34.5439 314.307H-32.165V315.495L-30.9755 316.683L-29.7861 315.495H-28.5966L-25.0282 316.683L-21.4599 319.059L-20.2704 320.248L-17.8915 321.436L-19.0809 322.624L-21.4599 323.812L-19.0809 327.376L-15.5126 330.941L-13.1337 329.752L-10.7548 328.564L-7.1864 329.752H-5.99691L-4.80746 328.564H-2.42855V329.752L-1.2391 330.941H-0.0496445L2.32926 333.317L1.13981 334.505L-0.0496445 336.881V340.446L1.13981 342.822L3.51871 345.198V349.951V353.515L9.46602 354.703L15.4133 353.515L17.7922 357.079L18.9817 360.644L21.3606 363.02L23.7395 364.208L29.6868 365.396L34.4446 368.96L40.3919 372.525L41.5814 376.089L43.9603 379.653H47.5286H52.2865L54.6654 380.842L57.0443 382.03L64.1811 379.653L68.9389 377.277H70.1283V378.465V380.842L73.6967 384.406H76.0756H78.4545L80.8335 387.97L83.2124 391.535H85.5913H87.9702L90.3491 393.911L92.728 397.475L98.6753 393.911L102.244 389.158L103.433 386.782V385.594L104.623 384.406L105.812 382.03L103.433 380.842L102.244 379.653V377.277L103.433 376.089H105.812L110.57 368.96L111.759 361.832L110.57 358.267L108.191 359.455L105.812 358.267L104.623 355.891H102.244L101.054 352.327H102.244L103.433 349.951V347.574V346.386V344.01V342.822V341.634L99.8648 340.446L98.6753 336.881V328.564L99.8648 323.812L98.6753 317.871L97.4858 314.307L96.2964 313.119V311.931L98.6753 309.554V308.366L97.4858 307.178V304.802V303.614V302.426L102.244 300.05L104.623 294.109L105.812 285.792L107.001 279.852L105.812 278.663L104.623 277.475V276.287L103.433 275.099L101.054 277.475H98.6753H97.4858L95.1069 275.099L91.5386 272.723L90.3491 269.158L89.1597 266.782V264.406V263.218L91.5386 262.03V260.842L92.728 259.653L97.4858 257.277L99.8648 254.901L102.244 256.089H104.623L105.812 250.149V243.02L103.433 241.832L101.054 239.455V237.079V234.703H103.433H104.623L107.001 232.327V228.762L104.623 226.386L102.244 224.01L101.054 221.634L99.8648 219.257H96.2964L92.728 221.634H93.9175H95.1069L96.2964 224.01V226.386L91.5386 225.198L90.3491 221.634L85.5913 222.822L84.4018 227.574L85.5913 232.327L87.9702 235.891H90.3491L92.728 238.267L91.5386 244.208L90.3491 241.832L89.1597 239.455L82.0229 235.891L76.0756 231.139L77.2651 229.951L79.644 225.198L78.4545 222.822L82.0229 219.257L84.4018 215.693ZM97.4858 218.069L98.6753 216.881V214.505L97.4858 213.317L91.5386 215.693L96.2964 218.069H97.4858ZM85.5913 200.248L80.8335 199.059L82.0229 202.624H83.2124L84.4018 200.248H85.5913ZM91.5386 194.307L92.728 195.495L93.9175 194.307L91.5386 193.119L90.3491 194.307H91.5386Z" fill="#E0EAE7" stroke="#F2F6F5"/>
<path d="M173.61 548.366H171.231L165.283 550.743L161.715 549.554L160.526 550.743H159.336H158.147V549.554H156.957L155.768 550.743H153.389H152.199L151.01 553.119L149.821 556.683L147.442 557.871L145.063 559.059L139.115 567.376L130.789 572.129L122.463 570.941L115.326 568.564L114.137 566.188L111.758 565L108.189 566.188L104.621 567.376V570.941V573.317H99.8633L95.1055 572.129V576.881V580.446L96.2949 581.634H97.4844V584.01V586.386L99.8633 587.574V589.951H97.4844L93.916 592.327L95.1055 593.515H96.2949V594.703L97.4844 597.079L102.242 595.891H107V593.515L108.189 591.139L114.137 592.327L116.516 591.139L118.895 589.951H121.274H123.652V588.762L124.842 587.574H126.031V588.762H127.221V589.951H128.41L130.789 588.762V591.139L131.979 593.515H136.736L142.684 594.703L143.873 598.267L145.063 603.02L149.821 604.208L154.578 605.396H155.768L156.957 604.208L162.905 606.584H164.094H165.283L168.852 607.772L170.041 608.96L171.231 610.149L179.557 605.396L180.746 601.832L181.936 598.267H180.746L179.557 595.891V594.703V593.515V592.327L178.367 591.139L180.746 585.198L184.315 580.446H185.504L186.694 579.257L189.073 576.881L190.262 574.505V573.317V572.129L189.073 570.941V569.752V568.564L190.262 567.376V563.812V561.436H191.451V559.059L190.262 557.871H187.883H185.504L179.557 553.119L173.61 547.178V548.366Z" fill="#E0EAE7" stroke="#F2F6F5"/>
<path d="M318.724 502.03H316.345L313.966 499.654V497.277L312.777 498.465H309.208H308.019H305.64L304.451 497.277L303.261 496.089L302.072 498.465L298.503 500.842H296.124H292.556L291.367 499.654H290.177V498.465H288.988L286.609 499.654L285.419 502.03H284.23L283.04 500.842L280.661 503.218L277.093 505.594L278.283 511.535H280.661V512.723V513.911L283.04 515.099L284.23 517.475H283.04H281.851V519.852L279.472 529.357L280.661 538.862L284.23 525.792L286.609 521.04L290.177 519.852L288.988 535.297L286.609 551.931L285.419 553.119L284.23 554.307V553.119V550.743L283.04 549.555L281.851 551.931L280.661 554.307H281.851H284.23V556.683L283.04 559.06H281.851H280.661L278.283 562.624L274.714 567.376L260.441 573.317L259.251 576.881L258.062 580.446L249.736 585.198L244.978 586.386L243.788 587.574L240.22 591.139H235.462L234.273 592.327H233.083V589.951V587.574L231.894 585.198L229.515 584.01V581.634L228.325 579.258L219.999 572.129L218.81 573.317H217.62L216.431 570.941L215.241 567.376L209.294 563.812L204.536 560.248L203.347 556.683V554.307L197.399 559.06L192.642 562.624L191.452 561.436H190.263V563.812V567.376L189.073 568.564V569.753V570.941L190.263 572.129V573.317V574.505L191.452 575.693L193.831 576.881L202.157 581.634L209.294 585.198H210.483L211.673 586.386L216.431 587.574L219.999 588.763V595.891L227.136 604.208L237.841 606.584L247.357 604.208L249.736 603.02H250.925L255.683 604.208L260.441 605.396H262.82H264.009L267.577 607.772L269.956 610.149H272.335L274.714 611.337V606.584L277.093 603.02H279.472L281.851 600.644L279.472 599.456L277.093 597.079L278.283 594.703L280.661 592.327L279.472 588.763L280.661 586.386H285.419L288.988 587.574L291.367 585.198L294.935 582.822H298.503L300.882 584.01L302.072 582.822L304.451 580.446L306.829 578.069L309.208 576.881L311.587 575.693L312.777 572.129L313.966 570.941H315.156L317.535 572.129L318.724 569.753L321.103 568.564L327.05 567.376L332.998 562.624L330.619 555.495L328.24 550.743L330.619 549.555V548.366L337.755 542.426L343.703 536.485L346.082 535.297L348.461 534.109H350.839L353.218 532.921V524.604L347.271 519.852L343.703 517.475V513.911V512.723L342.513 510.347V509.159L341.324 506.782V505.594V503.218L340.134 502.03L338.945 500.842H337.755L340.134 499.654L338.945 497.277L341.324 494.901H342.513L343.703 493.713L337.755 492.525L331.808 499.654L325.861 502.03L321.103 500.842L318.724 502.03Z" fill="#E0EAE7" stroke="#F2F6F5"/>
<path d="M117.706 521.04L115.327 518.663L112.948 519.852H109.38L105.812 516.287L102.243 512.723L101.054 513.911V516.287V518.663V519.852L99.8643 523.416L98.6748 528.168H102.243L104.622 530.545L103.433 531.733L102.243 532.921L103.433 535.297L102.243 537.673H101.054L98.6748 540.05V542.426L99.8643 545.99L98.6748 548.366L99.8643 550.743L101.054 554.307L96.2959 557.871L91.5381 560.248L89.1592 562.624L86.7803 563.812V566.188V567.376L85.5908 568.564V569.753L86.7803 573.317L90.3487 574.505L92.7276 573.317L95.1065 572.129L99.8643 573.317H104.622V570.941V567.376L108.191 566.188L111.759 565L112.948 561.436L115.327 559.06L116.517 557.871H118.896L121.275 553.119V551.931L123.653 550.743L126.032 548.366V547.178L124.843 545.99L123.653 544.802V543.614L122.464 542.426L124.843 536.485L122.464 529.357L121.275 522.228L117.706 521.04Z" fill="#E0EAE7" stroke="#F2F6F5"/>
<path d="M92.7276 490.149H89.1593H85.5909H84.4014L83.212 491.337L82.0225 490.149H80.833L78.4541 492.525L77.2647 493.713H76.0752L74.8857 492.525L72.5068 493.713H70.1279L68.9385 496.089V497.277L70.1279 500.842V503.218V504.406L71.3174 505.594L70.1279 507.97L68.9385 510.347L70.1279 512.723V515.099L68.9385 516.287L67.749 518.663L70.1279 521.04L71.3174 523.416L72.5068 524.604H73.6963V526.98L74.8857 528.168L76.0752 529.357L77.2647 530.545V534.109L78.4541 536.485L80.833 537.673L82.0225 538.861L80.833 540.05L79.6436 542.426V543.614H80.833V544.802L79.6436 545.99L80.833 548.366V551.931L83.212 554.307L84.4014 555.495H85.5909L86.7803 554.307L87.9698 555.495L89.1593 556.683H90.3487L91.5382 555.495V557.871V560.248L96.296 557.871L101.054 554.307L99.8644 550.743L98.6749 548.366L99.8644 545.99L98.6749 542.426L99.8644 540.05L101.054 537.673L103.433 536.485V535.297L102.243 532.921L103.433 531.733L104.622 530.545L102.243 528.168H98.6749L99.8644 523.416L102.243 519.852L101.054 518.663V516.287V513.911L102.243 512.723L105.812 509.158L109.38 507.97V506.782L108.191 496.089L107.001 494.901L105.812 493.713L107.001 491.337H108.191L107.001 490.149V488.96H102.243L98.6749 491.337L96.296 490.149L93.9171 488.96L92.7276 490.149Z" fill="#E0EAE7" stroke="#F2F6F5"/>
<path d="M9.46395 459.257L7.08504 458.069L4.70613 455.693L3.51664 458.069V459.257L2.32719 461.634V462.822V464.01L-0.0517187 465.198L-1.24117 467.574L-0.0517187 469.951V472.327H-1.24117H-4.80953L-7.18848 473.515L-9.56735 475.891H-10.7568H-11.9463V478.267L-10.7568 479.455L-13.1357 481.832L-14.3252 487.772L-13.1357 490.149L-11.9463 493.713V494.901L-13.1357 496.089L-14.3252 498.465L-15.5146 502.03H-13.1357H-10.7568L-9.56735 500.842L-8.37793 499.653L-7.18848 500.842H-5.99899H-4.80953H-3.62008L-5.99899 503.218L-8.37793 504.406L-4.80953 511.535L-0.0517187 519.852L1.13774 517.475L3.51664 516.287L4.70613 517.475V518.663L7.08504 517.475H9.46395L13.0323 518.663H16.6007L17.7902 517.475L26.1163 513.911L33.2531 511.535V512.723L34.4425 516.287L35.632 517.475V518.663V519.852H36.8214L38.0109 521.04L36.8214 522.228H35.632L41.5793 529.356L45.1477 525.792L51.0949 522.228V524.604H53.4739V522.228H55.8528H58.2317H60.6106H62.9895L64.179 521.04L67.7473 518.663L68.9368 516.287L70.1263 515.099V512.723L68.9368 510.347L70.1263 507.97L71.3157 505.594L70.1263 504.406V503.218V500.842L68.9368 497.277V496.089L70.1263 493.713H67.7473H65.3684H64.179L62.9895 492.525L61.8 496.089L59.4211 497.277H58.2317V496.089L57.0422 494.901L58.2317 493.713L59.4211 492.525V487.772V486.584V484.208H58.2317H55.8528L54.6633 485.396V486.584L53.4739 485.396H52.2844H46.3371L45.2949 480.644L36.8214 479.455L30.9445 470.002L22.5955 465.309L23.7066 464.08L9.46395 459.257Z" fill="#E0EAE7" stroke="#F2F6F5"/>
<path d="M58.2326 522.228H57.0432H53.4748V524.604H52.2854L51.0959 522.228L45.1486 525.792L41.5802 529.356L36.8224 522.228L38.0118 521.04L36.8224 519.852H35.6329V518.663V517.475L34.4435 516.287L33.254 512.723V511.535L26.1173 513.911L17.7911 517.475L16.6016 518.663H13.0332L9.46488 517.475H7.08598L5.89652 518.663L4.70707 516.287H3.51758L2.32813 517.475L-0.0507812 519.852L8.27543 562.624L13.0332 561.436V560.248V559.059H14.2227H15.4122V557.871L16.6016 556.683L18.9805 562.624L21.3595 567.376L26.1173 568.564L28.4962 569.752H32.0646H33.254V568.564H34.4435H35.6329H36.8224L38.0118 567.376L42.7697 570.941L45.1486 575.693H48.717V574.505V572.129V570.941L46.338 568.564L43.9591 566.188L46.338 565L48.717 566.188V565H49.9064L52.2854 563.812H57.0432H60.6115L61.801 562.624L62.9905 561.436H64.1799H65.3694L66.5588 559.059L67.7483 556.683L68.9377 557.871L70.1272 559.059H71.3166H73.6955L74.885 560.248L77.2639 557.871L76.0745 555.495L77.2639 553.119L80.8323 551.931V548.366L79.6429 545.99L80.8323 544.802V543.614L79.6429 542.426L80.8323 540.05L82.0218 537.673H80.8323L78.4534 536.485L77.2639 534.109V530.545L76.0745 529.356L74.885 528.168L73.6955 526.98V524.604H72.5061L70.1272 523.416V521.04L67.7483 518.663L64.1799 521.04L62.9905 522.228H60.6115L58.2326 521.04V522.228Z" fill="#E0EAE7" stroke="#F2F6F5"/>
<path d="M357.976 469.951L354.408 468.762L352.029 471.139L354.408 473.515L353.218 474.703H352.029V477.079V478.267H350.839V479.456L352.029 487.772H353.218H354.408V491.337V494.901H353.218L352.029 493.713L349.65 496.089L348.46 497.277L346.081 496.089H344.892H342.513H341.323L338.945 497.277V499.654L337.755 500.842H338.945L340.134 502.03L341.323 503.218V505.594L340.134 506.782H341.323L342.513 509.158V510.347L343.702 512.723L342.513 513.911L343.702 517.475L347.271 519.852L353.218 524.604V534.109H350.839L347.271 535.297H346.081L343.702 536.485L337.755 542.426L330.618 548.366L329.429 549.555L328.239 550.743L330.618 555.495L332.997 562.624L327.05 567.376L319.913 568.564L318.724 569.753L316.345 572.129L315.155 570.941H313.966L312.777 573.317L311.587 575.693L309.208 576.881L305.64 578.069L304.45 580.446L302.071 582.822L300.882 584.01L298.503 582.822H294.935L291.366 585.198L288.987 587.574H287.798L285.419 586.386H280.661L279.472 588.762L280.661 592.327V593.515L278.282 594.703L275.903 597.079L279.472 599.456L281.851 601.832L279.472 603.02H277.093L274.714 606.584V611.337L277.093 613.713L281.851 618.465L290.177 619.654L298.503 620.842H299.693L300.882 619.654L302.071 620.842H304.45L306.829 619.654L310.398 617.277L318.724 614.901L327.05 612.525L329.429 607.772L337.755 600.644L343.702 601.832L348.46 604.208H353.218L360.355 603.02L366.302 606.584L374.628 607.772L377.007 604.208L380.576 600.644L384.144 598.267L386.523 595.891V594.703V593.515H385.333V592.327L387.712 582.822L390.091 572.129L393.66 567.376L396.039 562.624L394.849 561.436L393.66 560.248V557.871L392.47 556.683L388.902 557.871L387.712 554.307L388.902 551.931L392.47 548.366V547.178L393.66 545.99L398.417 543.614L404.365 540.05L401.986 536.485L398.417 532.921L399.607 530.545V529.357V528.168V526.98L400.796 525.792L401.986 524.604L398.417 522.228H397.228L396.039 521.04L398.417 515.099L396.039 509.158L393.66 510.347H392.47L391.281 506.782L388.902 503.218L385.333 504.406L382.954 505.594V506.782H381.765L379.386 504.406V502.03H380.576L381.765 500.842L379.386 499.654L377.007 498.465L375.818 497.277V494.901H374.628H373.439L374.628 490.149L371.06 485.396L369.87 480.644H368.681L367.492 481.832L365.113 477.079V474.703V469.951L360.355 471.139L357.976 469.951Z" fill="#E0EAE7" stroke="#F2F6F5"/>
<path d="M285.418 199.059H284.229H283.039V200.247V202.624H281.85L283.039 205L286.608 207.376L288.986 206.188L290.176 203.812L285.418 199.059ZM409.122 183.614L406.743 180.049L403.174 178.861L405.553 181.238L409.122 183.614ZM397.227 156.287V151.535L396.038 150.346L393.659 151.535L396.038 155.099V157.475L397.227 156.287ZM426.963 168.168L428.153 172.921L429.342 174.109H431.721V169.356L426.963 168.168ZM447.184 182.426L449.563 177.673V176.485L448.374 175.297L442.426 171.733H436.479L434.1 175.297V180.049L432.911 182.426L431.721 183.614L430.532 184.802H432.911L435.29 183.614L437.669 182.426H441.237L447.184 181.238V182.426ZM438.858 137.277L440.047 136.089L434.1 134.901L429.342 133.713L428.153 134.901L425.774 136.089L421.016 133.713L417.448 132.525V133.713L418.637 134.901H417.448L416.258 136.089V137.277L417.448 139.653V140.842L418.637 142.03L415.069 140.842L411.5 139.653L409.122 138.465H407.932L406.743 137.277V136.089L405.553 137.277L404.364 139.653L403.174 142.03L401.985 143.218L400.795 144.406L401.985 145.594V146.782V149.158L400.795 151.535H401.985L403.174 152.723V155.099L404.364 157.475L406.743 159.851L410.311 161.04L411.5 163.416L412.69 164.604H417.448H418.637V161.04V157.475L419.827 158.663L421.016 159.851L422.206 158.663L423.395 157.475L428.153 153.911H429.342H431.721H432.911L434.1 152.723L435.29 151.535L436.479 150.346L434.1 149.158H431.721L426.963 145.594L424.585 140.842L428.153 137.277V138.465L435.29 147.97L438.858 143.218L437.669 138.465L438.858 137.277ZM467.405 130.148L466.216 131.337L462.647 130.148L459.079 131.337V132.525L457.889 133.713L455.51 132.525V131.337H451.942L449.563 132.525V134.901L448.374 136.089L445.995 133.713V132.525L444.805 134.901L445.995 139.653L450.753 140.842L456.7 142.03L463.837 139.653L468.594 134.901V132.525L467.405 130.148ZM545.909 172.921L526.878 184.802L520.931 191.931L516.173 194.307L511.415 191.931L506.657 189.554H504.278H503.089H500.71L495.952 188.366V189.554L494.762 190.742H492.384L491.194 189.554L492.384 187.178L494.762 185.99L492.384 183.614L488.815 181.238L484.057 182.426L480.489 183.614L475.731 193.119L470.973 201.436H469.784V199.059L468.594 197.871L470.973 196.683L472.163 195.495L470.973 194.307V191.931L473.352 190.742L474.542 188.366L472.163 189.554L466.216 193.119L465.026 194.307L463.837 195.495L462.647 193.119L466.216 189.554H467.405L470.973 187.178L474.542 185.99L461.458 187.178L448.374 191.931H442.426L440.047 193.119L441.237 194.307L443.616 195.495L442.426 199.059L438.858 200.247L436.479 206.188L437.669 207.376L440.047 206.188V207.376V208.564L441.237 209.752L442.426 212.129V214.505L444.805 215.693V218.069H442.426V219.257V220.445L441.237 219.257L440.047 218.069H438.858L437.669 219.257H436.479H435.29V222.822V226.386L430.532 224.01L422.206 222.822L418.637 227.574L413.879 231.139L409.122 229.95L405.553 227.574L404.364 225.198L406.743 224.01L404.364 222.822L403.174 233.515L401.985 246.584L400.795 247.772L399.606 246.584L398.416 245.396V246.584H397.227H396.038L394.848 245.396V244.208H393.659H391.28L388.901 240.643L386.522 237.079H385.332L384.143 235.891L385.332 234.703L386.522 233.515L385.332 231.139L382.954 229.95L384.143 231.139V232.327L382.954 233.515L380.575 231.139L379.385 228.762L373.438 225.198L371.059 224.01H372.248H374.627L377.006 226.386L379.385 228.762H382.954L385.332 226.386L384.143 222.822L381.764 220.445V218.069V215.693L380.575 213.317V212.129L378.196 209.752H377.006H375.817L368.68 203.812L366.301 205L363.922 206.188H362.733H360.354H357.975L354.407 203.812L349.649 202.624V203.812L348.459 205L346.08 210.941L347.27 215.693V220.445L344.891 219.257H341.323V220.445H340.133H338.944L336.565 221.634L335.375 222.822L331.807 221.634L329.428 220.445H325.86H322.291L319.912 219.257V216.881L322.291 214.505L321.102 213.317H319.912H317.533H315.154H311.586L309.207 212.129L308.018 213.317H306.828L304.449 212.129H302.07L300.881 213.317L299.692 214.505L297.313 215.693L293.744 216.881V219.257V220.445L291.365 218.069L292.555 215.693L291.365 212.129L288.986 209.752V210.941V213.317L287.797 214.505H284.229L280.66 212.129L279.471 213.317L278.281 216.881L275.902 219.257L277.092 220.445H278.281V221.634V222.822V224.01L279.471 225.198L278.281 229.95L279.471 234.703L280.66 235.891V237.079V239.455L281.85 240.643L284.229 241.832L286.608 244.208L287.797 248.96V253.713L290.176 258.465L291.365 262.03V263.218L286.608 266.782L281.85 270.346L280.66 273.911V276.287L279.471 277.475L277.092 278.663V283.416L274.713 286.98H272.334L268.766 285.792L265.197 286.98L262.818 289.356H260.439L258.061 288.168V289.356H256.871L255.682 291.733V292.921L256.871 297.673L259.25 301.238V309.554V317.871L258.061 330.94L254.492 333.317L252.113 335.693L253.303 336.881L254.492 338.069V342.822V346.386L255.682 348.762V351.139V354.703L256.871 357.079L259.25 359.455L261.629 361.832L260.439 364.208L259.25 365.396L256.871 368.96V372.525L254.492 376.089L256.871 380.841H258.061H259.25L260.439 382.03L261.629 383.218L266.387 384.406H271.145H274.713L275.902 386.782L277.092 390.346L275.902 391.535L273.524 395.099L277.092 397.475L281.85 399.851L283.039 408.168V414.109L285.418 416.485L286.608 420.049L285.418 423.614L283.039 424.802L284.229 430.742L287.797 434.307L285.418 440.247L283.039 447.376V449.752V450.94V452.129L281.85 453.317L280.66 459.257L281.85 464.01H283.039H284.229L290.176 462.822L291.365 460.445L294.934 461.634H296.123V460.445H297.313L298.502 461.634L299.692 460.445H300.881H303.26L304.449 459.257L306.828 456.881V458.069L309.207 460.445L310.397 461.634L309.207 465.198L315.154 459.257L319.912 452.129H321.102H322.291L323.481 449.752L324.67 446.188L327.049 445H329.428L332.996 441.436H337.754L341.323 442.624L343.701 445L346.08 446.188V448.564L347.27 449.752V450.94V452.129H353.217L359.164 453.317L360.354 454.505V456.881L361.543 459.257V460.445V462.822L362.733 465.198L363.922 466.386V467.574L365.112 469.95V474.703V477.079L367.491 481.832L368.68 480.643H369.869L371.059 485.396L374.627 490.148L379.385 487.772L384.143 486.584L386.522 487.772L388.901 488.96L391.28 490.148H394.848H396.038L398.416 491.337L399.606 492.525H406.743L412.69 493.713L415.069 496.089L417.448 498.465L423.395 499.653L426.963 498.465H430.532L432.911 499.653H435.29L438.858 497.277L441.237 496.089H443.616L444.805 497.277L445.995 496.089V493.713H447.184H449.563H450.753L451.942 492.525L454.321 493.713L457.889 494.901L459.079 493.713V492.525L461.458 490.148L463.837 488.96V487.772L465.026 486.584H468.594L470.973 484.208L472.163 478.267V473.515L474.542 472.327L475.731 471.139V468.762L474.542 466.386L472.163 465.198L470.973 464.01H469.784H468.594L469.784 461.634L472.163 460.445V458.069V456.881L473.352 455.693L474.542 454.505L470.973 452.129L468.594 448.564H469.784H472.163L470.973 443.812L472.163 440.247L473.352 433.119L474.542 430.742L476.921 428.366H478.11H479.3L485.247 425.99L491.194 423.614L492.384 422.426V421.238V420.049L493.573 417.673H494.762L495.952 418.861H497.141L499.52 417.673L505.468 414.109L506.657 409.356V408.168L507.846 406.98L510.225 409.356L511.415 408.168L510.225 404.604L509.036 402.228L506.657 397.475L505.468 391.535L503.089 387.97L504.278 383.218V382.03L505.468 380.841V379.653L506.657 378.465V377.277V376.089L509.036 374.901L510.225 373.713V366.584L511.415 359.455H516.173L522.12 361.832H524.499L525.688 360.643L526.878 361.832L528.067 363.02L530.446 359.455L532.825 357.079H535.204V358.267L536.393 357.079L537.583 355.891L538.772 357.079L541.151 359.455L542.341 355.891V352.327V347.574L543.53 345.198V342.822L542.341 341.634L543.53 339.257V338.069L541.151 335.693L537.583 333.317L536.393 322.624L537.583 317.871L538.772 314.307H541.151L543.53 313.119L544.72 311.931L545.909 310.742L547.099 311.931L548.288 310.742L549.478 307.178L547.099 303.614L549.478 302.426H551.856L554.235 300.049L555.425 297.673L560.183 300.049L563.751 301.238L564.94 298.861V297.673L567.319 296.485L568.509 295.297L569.698 292.921L572.077 289.356H573.267V288.168V286.98H572.077V285.792L573.267 283.416L572.077 282.228L568.509 279.851V273.911L570.888 270.346L568.509 269.158V265.594L569.698 263.218L570.888 260.841L569.698 258.465V256.089H570.888H572.077H573.267V254.901V253.713L578.024 252.525L581.593 251.337L582.782 250.148L583.972 248.96L586.351 250.148H587.54L588.73 247.772L589.919 244.208L592.298 243.02V240.643L589.919 237.079L587.54 232.327L588.73 231.139V229.95L581.593 227.574L574.456 222.822V220.445L575.646 218.069L574.456 216.881L573.267 215.693L579.214 207.376L587.54 197.871L588.73 196.683L591.109 195.495L589.919 193.119L587.54 189.554V188.366V187.178L585.161 185.99H583.972L582.782 183.614L581.593 182.426H580.403L579.214 181.238L578.024 178.861L576.835 181.238V182.426V183.614H575.646V182.426H574.456V185.99V188.366L573.267 185.99L570.888 183.614L567.319 184.802H562.561L561.372 181.238L558.993 176.485L545.909 172.921ZM429.342 222.822L431.721 224.01L434.1 222.822V221.634L432.911 220.445L430.532 221.634L429.342 222.822Z" fill="#E0EAE7" stroke="#F2F6F5"/>
<path d="M103.433 210.941L104.622 213.317H108.191V209.753V206.188L103.433 210.941ZM131.98 170.545H133.169V171.733L134.359 172.921L135.548 168.168L134.359 166.98V168.168L131.98 170.545ZM139.116 81.0793V80.01L137.927 79.1783L134.359 77.6338L136.737 79.5348V80.1288V81.1981L139.116 81.0793ZM159.337 53.8714L155.769 52.9209L153.39 53.9902L154.579 55.1783H155.769L158.148 55.8912L159.337 53.8714ZM280.662 158.663L281.851 159.852V161.04L284.23 162.228L283.041 158.663L281.851 157.475L280.662 158.663ZM203.347 149.159H205.726H206.915L209.294 145.594H206.915L205.726 146.782L204.537 147.97L203.347 149.159ZM202.158 89.6338L203.347 86.1882L200.968 83.812L197.4 82.6239L196.21 82.0298L193.831 83.4555V86.5447L196.21 87.4952L197.4 88.4457V89.8714V90.8219L202.158 89.6338ZM228.326 91.416L224.757 85.1189L221.189 87.7328L218.81 91.6536L217.621 93.0793L216.431 93.7922L217.621 92.2476L218.81 90.9407V90.7031V90.3466L217.621 90.9407L215.242 91.8912L214.052 91.6536L218.81 88.9209L219.999 84.406L216.431 83.0991L211.673 83.5744L210.484 83.812V84.406H209.294L208.105 84.8813L205.726 87.0199L206.915 88.4457V89.8714L205.726 90.109L204.537 90.2278L203.347 91.6536L202.158 93.4357L200.968 93.911V94.5051V95.6932L202.158 96.0496V95.0991V94.1486L203.347 93.7922V95.4555V96.7625L204.537 96.6437L205.726 97.1189L204.537 99.3763V101.753L205.726 102.465V103.178V104.129V105.079L206.915 106.386H208.105L209.294 105.198V106.386V107.574H210.484H212.863L215.242 109.951L217.621 112.327L222.378 113.515L227.136 109.951L225.947 107.574V105.198L224.757 102.941V102.822L225.947 102.703L227.136 97.1189L228.326 91.416ZM254.494 124.208H253.304V125.396L252.115 126.584H253.304L254.494 124.208ZM255.683 128.961H258.062L259.252 127.772L258.062 126.584H256.873H255.683L254.494 127.772V128.961H255.683ZM235.462 104.604V103.416V101.753L234.273 102.228L233.084 103.416L231.894 106.386V108.762L233.084 109.951H231.894L230.705 111.139V112.327V113.515V114.703H229.515V113.515L228.326 115.891L227.136 118.267V121.832L224.757 125.396L223.568 128.961L225.947 131.337L229.515 128.961L231.894 126.584H236.652L243.789 124.208L247.357 123.02L248.546 119.456V115.891L247.357 113.515H246.167V114.703H244.978V112.327V111.139L243.789 109.951L242.599 108.762V107.574V106.386L240.22 108.762L237.841 112.327V113.515H236.652V112.327L240.22 102.465L237.841 101.159L236.652 101.04V103.178L235.462 104.604ZM285.42 166.98V168.168L284.23 165.792V163.416L283.041 162.228H280.662L278.283 158.663L275.904 155.099L274.714 156.287L273.525 155.099H272.336V156.287H271.146H269.957H268.767H266.388L264.009 157.475L262.82 156.287H261.63L260.441 157.475L258.062 162.228H254.494L256.873 156.287V151.535H253.304H249.736L250.925 150.347V149.159L247.357 150.347L244.978 149.159L247.357 147.97L249.736 145.594L250.925 144.406H252.115L253.304 143.218L250.925 140.842L247.357 139.654L246.167 138.465V137.277H243.789L241.41 138.465H240.22L233.084 146.782L228.326 155.099L229.515 156.287V159.852L222.378 162.228L221.189 161.04H218.81V162.228L221.189 165.792L222.378 168.168H219.999L218.81 165.792L216.431 166.98H215.242V168.168L214.052 169.357H212.863V170.545H210.484H209.294L208.105 171.733H205.726H206.915V170.545L205.726 169.357L203.347 170.545L202.158 171.733L203.347 169.357L204.537 168.168L197.4 165.792L190.263 166.98L189.074 168.168L191.452 169.357H193.831V170.545L191.452 171.733H189.074L184.316 172.921L180.747 174.109H178.369H174.8H173.611L171.232 175.297L166.474 177.673L164.095 180.05H160.527H156.958L158.148 181.238L160.527 182.426L159.337 183.614L156.958 184.802L155.769 187.178V189.555L153.39 187.178L149.822 185.99V187.178L153.39 190.743L155.769 193.119L154.579 194.307L153.39 193.119L152.2 191.931L151.011 193.119H149.822H148.632L151.011 195.495L154.579 199.06L153.39 200.248V205V207.376H152.2L149.822 208.564H148.632L149.822 207.376L151.011 206.188L152.2 205V203.812L147.443 202.624L143.874 203.812H137.927L130.79 202.624L123.653 201.436H122.464H121.275H120.085L117.706 200.248V201.436L116.517 203.812L115.327 205L116.517 206.188V207.376H115.327V209.753L116.517 210.941L115.327 214.505L114.138 216.881V218.069V219.258L112.948 220.446L116.517 224.01L120.085 226.386V229.951V233.515L123.653 235.891L124.843 240.644L122.464 244.208L120.085 247.772L121.275 250.149L120.085 260.842L117.706 262.03L115.327 263.218L118.896 271.535L120.085 276.287H118.896V275.099L116.517 273.911L115.327 272.723V270.347V267.97L114.138 265.594L112.948 264.406L117.706 252.525L116.517 250.149L114.138 248.961L115.327 247.772V246.584V245.396L118.896 243.02L122.464 238.267L118.896 235.891L112.948 234.703L111.759 231.139L110.569 227.574L107.001 222.822L103.433 219.258H101.054H99.8643L101.054 221.634L102.243 224.01L104.622 226.386L107.001 228.763V232.327L104.622 234.703L103.433 235.891V234.703H101.054V237.079V239.456L103.433 241.832L105.812 244.208V250.149L104.622 256.089H102.243L99.8643 254.901L97.4854 257.277L92.7276 260.842H91.5381V262.03L89.1592 263.218V264.406V266.782L90.3487 269.159L91.5381 272.723L95.1065 275.099L97.4854 277.475V278.663H98.6748L101.054 277.475L103.433 275.099L104.622 276.287V277.475L105.812 278.663L107.001 279.852L105.812 286.98L104.622 294.109L102.243 300.05L97.4854 302.426V303.614V304.802V307.178L98.6748 309.555V308.366V309.555L96.2959 311.931V313.119L97.4854 315.495L98.6748 317.871L99.8643 323.812L98.6748 328.564V336.881L99.8643 340.446L103.433 341.634V342.822V344.01V346.386V348.763V349.951L102.243 352.327H101.054L102.243 355.891H104.622L105.812 358.267L108.191 359.456L110.569 358.267L111.759 361.832L110.569 368.961L105.812 376.089H103.433L102.243 377.277V379.654L103.433 380.842L105.812 382.03L104.622 384.406L103.433 385.594V386.782L102.243 389.159L98.6748 393.911L92.7276 398.664L93.917 406.98L98.6748 409.357L101.054 411.733L92.7276 416.485L83.2119 418.862V428.366V434.307L89.1592 436.683L92.7276 435.495L97.4854 436.683L101.054 437.871L103.433 439.06V440.248L104.622 441.436H105.812L108.191 443.812V447.376L109.38 449.753L112.948 450.941L115.327 454.505L112.948 455.693L110.569 458.069L108.191 461.634V465.198L112.948 469.951L116.517 475.891L115.327 477.079H114.138V479.456L112.948 480.644H111.759H110.569L108.191 485.396L107.001 487.772V488.961V490.149L108.191 491.337H107.001L105.812 493.713L107.001 494.901L108.191 496.089L109.38 506.782V507.97L105.812 509.159L102.243 512.723L105.812 516.287L109.38 519.852H112.948L115.327 518.664L117.706 521.04L121.275 522.228L122.464 529.357L124.843 536.485L122.464 542.426L123.653 543.614V544.802L124.843 545.99L126.032 547.178V548.366L123.653 550.743L121.275 551.931V553.119L118.896 557.871H116.517L115.327 559.06L112.948 561.436L111.759 565L114.138 566.188L115.327 568.565L122.464 570.941L130.79 572.129L139.116 567.376L145.064 559.06L147.443 557.871L149.822 556.683L151.011 553.119L152.2 550.743H154.579H155.769L156.958 549.555H158.148V550.743H159.337H160.527L161.716 549.555L165.284 550.743L171.232 548.366L168.853 544.802L166.474 541.238L164.095 540.05L162.906 538.862V537.673V536.485L166.474 534.109L170.042 532.921H171.232L172.421 529.357V525.792V523.416L173.611 522.228L174.8 521.04V518.664V515.099L179.558 510.347L183.126 507.97H184.316L185.505 506.782L184.316 505.594V502.03V499.654L183.126 497.277L180.747 496.089L183.126 490.149L186.695 484.208L190.263 485.396H193.831L196.21 486.584H200.968L202.158 481.832L203.347 480.644H204.537H205.726V481.832L208.105 490.149L212.863 492.525V490.149V488.961V487.772V486.584H211.673L216.431 477.079L225.947 471.139V469.951L227.136 467.574L230.705 465.198H233.084L234.273 466.386V467.574V469.951L236.652 471.139H239.031L237.841 472.327V473.515H240.22L241.41 474.703L242.599 475.891H243.789L246.167 472.327V471.139L248.546 468.763L249.736 465.198L247.357 461.634L244.978 459.258L246.167 458.069L247.357 456.881V455.693H248.546H249.736H250.925V454.505V453.317V452.129V450.941L248.546 448.564L244.978 447.376L242.599 437.871L243.789 431.931V430.743L246.167 429.555L247.357 428.366L253.304 423.614L258.062 417.673V415.297L256.873 414.109L258.062 411.733L259.252 410.545L258.062 406.98L256.873 403.416L258.062 398.664L261.63 392.723L260.441 391.535L262.82 390.347L264.009 391.535L265.199 392.723L266.388 391.535L267.578 390.347L269.957 389.159H271.146V384.406H266.388L261.63 383.218L260.441 382.03L259.252 380.842H258.062H256.873L254.494 376.089L256.873 372.525V368.961L259.252 365.396L260.441 364.208L261.63 361.832L259.252 359.456L256.873 357.079L255.683 354.703V351.139V348.763L254.494 346.386V341.634V338.069L253.304 336.881L252.115 335.693L254.494 333.317L258.062 330.941L259.252 317.871V309.555V301.238L256.873 297.673L255.683 292.921V291.733L256.873 289.357H258.062V288.168L260.441 289.357H262.82L265.199 286.98L268.767 285.792L272.336 286.98H274.714L277.093 283.416V278.663L279.472 277.475L280.662 276.287V273.911L281.851 270.347L286.609 266.782L291.367 263.218V262.03L290.177 258.465L287.799 253.713V248.961L286.609 244.208L284.23 241.832L281.851 240.644L280.662 239.456V237.079V235.891L279.472 234.703L278.283 229.951L279.472 225.198L278.283 224.01V222.822V221.634V220.446H277.093L275.904 219.258L278.283 216.881L279.472 213.317L280.662 212.129V209.753L281.851 208.564L279.472 209.753L278.283 210.941L275.904 209.753L272.336 212.129V213.317V215.693H274.714L278.283 214.505V215.693L277.093 216.881H275.904L273.525 220.446L271.146 221.634L269.957 220.446L268.767 222.822L266.388 224.01V226.386V227.574L264.009 226.386L262.82 225.198V226.386H261.63H258.062H254.494L253.304 229.951L249.736 233.515H248.546L249.736 231.139L252.115 228.763V226.386L253.304 224.01L256.873 222.822L258.062 219.258L256.873 218.069L254.494 216.881H253.304L260.441 218.069L265.199 213.317H266.388L267.578 210.941L268.767 208.564L271.146 206.188L273.525 203.812L274.714 200.248L281.851 195.495V194.307L283.041 193.119L285.42 189.555L288.988 185.99L290.177 180.05L287.799 178.862L286.609 176.485V177.673L285.42 178.862V175.297H286.609L288.988 176.485V177.673V178.862L290.177 176.485V170.545H288.988H287.799V166.98L285.42 164.604V166.98ZM198.589 76.5645L197.4 76.8021L196.21 77.515L197.4 77.9902L198.589 78.3466L199.779 79.4159L200.968 80.6041L199.779 80.7229L198.589 80.6041V80.9605V81.4358L199.779 81.6734L200.968 81.7922L202.158 83.0991L203.347 83.812L205.726 82.9803L206.915 81.911L216.431 80.7229L217.621 80.1288V77.1585V73.713L219.999 72.2872L221.189 70.8615V69.5546L219.999 68.2476V68.01L218.81 67.4159L216.431 61.8318L215.242 57.4357L212.863 57.3169V58.9803L206.915 62.307L202.158 66.109V68.1288L203.347 68.6041V69.6734L202.158 70.8615V72.1684L200.968 73.4753L199.779 74.0694L198.589 74.6635V75.614L199.779 76.4456V76.8021H198.589V76.5645ZM196.21 56.6041L195.021 58.1486V59.2179H196.21L198.589 60.2872L200.968 57.3169L196.21 56.6041ZM205.726 164.604L203.347 163.416L204.537 165.792L206.915 166.98V165.792V164.604H205.726Z" fill="#E0EAE7" stroke="#F2F6F5"/>
<path d="M17.7914 357.079L15.4125 354.703H9.46516L3.51785 353.515V349.951V345.198L1.13895 344.01L-0.0505066 340.446V336.881L1.13895 335.693L2.3284 333.317L-0.0505066 330.941H-1.23996L-2.42941 329.753V328.564H-4.80832L-5.99777 329.753H-7.18726H-10.7556H-13.1345L-15.5134 330.941L-19.0818 327.376L-21.4607 323.812L-19.0818 322.624L-17.8923 321.436L-20.2713 320.248L-21.4607 319.059L-25.0291 316.683L-28.5975 315.495H-29.7869L-30.9764 316.683L-32.1658 315.495V314.307H-34.5448L-36.9237 315.495L-38.1131 314.307H-39.3026H-40.492H-41.6815L-42.8709 311.931L-41.6815 309.555L-45.2499 308.366L-46.4393 305.99L-45.2499 303.614H-42.8709L-41.6815 300.05L-39.3026 296.485V295.297L-40.492 294.109V290.545L-41.6815 286.98L-44.0604 288.168L-47.6288 289.356V290.545V291.733H-50.0077L-52.3866 292.921L-54.7655 294.109L-55.955 291.733V290.545H-58.3339L-60.7128 291.733H-61.9023L-63.0917 292.921L-65.4706 294.109L-66.6601 295.297L-67.8495 302.426L-72.6074 307.178L-77.3652 311.931L-79.7441 316.683L-82.123 322.624V323.812H-80.9336L-82.123 326.188H-84.502L-85.6914 329.753L-86.8809 332.129V333.317L-85.6914 334.505V335.693V338.069L-82.123 340.446L-78.5546 342.822L-74.9863 351.139L-73.7968 353.515L-71.4179 357.079L-73.7968 361.832L-74.9863 366.584L-76.1757 368.96V372.525L-73.7968 373.713V376.089L-74.9863 380.842L-76.1757 385.594L-72.6074 387.97L-69.039 390.347V395.099V401.04V403.416L-67.8495 404.604L-64.2812 405.792H-60.7128L-59.5234 403.416L-57.1444 402.228H-55.955V403.416H-52.3866H-48.8182L-46.4393 404.604H-45.2499L-44.0604 403.416L-42.8709 402.228L-38.1131 401.04L-35.7342 397.475L-34.5448 396.287H-32.1658L-30.9764 398.663V399.852H-27.408H-26.2186L-22.6502 401.04L-21.4607 402.228L-20.2713 403.416H-19.0818L-16.7029 406.98L-15.5134 411.733H-14.324L-13.1345 412.921L-14.324 414.109V415.297L-11.9451 417.673H-10.7556V421.238L-11.9451 423.614L-8.37672 425.99L-4.80832 427.178L-3.61887 428.366L-2.42941 429.555H1.13895L3.51785 431.931L8.2757 427.178L13.0335 422.426H16.6019H20.1703L23.7386 416.485L24.9281 411.733L26.1175 410.545H27.307L28.4964 408.168L27.307 405.792V404.604H28.4964L29.6859 405.792L34.4437 406.98L39.2016 408.168L40.391 409.356L41.5805 410.545L43.9594 409.356H45.1489H46.3383V411.733L48.7172 414.109H53.4751L58.2329 412.921V415.297L59.4223 417.673H61.8013H64.1802L65.3696 418.861L67.7486 420.05L68.938 418.861H70.1275L73.6958 416.485L76.0747 415.297L79.6431 417.673L82.022 418.861L92.7271 416.485L99.8639 411.733L98.6744 409.356L93.9166 406.98L92.7271 398.663L90.3482 393.911L87.9693 391.535H85.5904H83.2115L80.8326 387.97L78.4537 384.406H76.0747H73.6958L70.1275 380.842V379.653L68.938 377.277L62.9907 379.653L57.0434 382.03L54.6645 380.842L52.2856 379.653H47.5278H43.9594L41.5805 377.277L40.391 372.525L34.4437 368.96L29.6859 365.396L23.7386 364.208L21.3597 363.02L18.9808 360.644L16.6019 357.079H17.7914Z" fill="#E0EAE7" stroke="#F2F6F5"/>
<path d="M66.5579 418.861L64.1789 417.673H61.8H60.6105L59.4211 415.297L58.2316 412.921L53.4738 414.109H48.716L46.3371 411.732V409.356H45.1476H43.9582L41.5793 410.544L40.3898 409.356L39.2003 408.168L34.4425 406.98L29.6847 405.792L28.4952 404.604V405.792V408.168L27.3058 410.544H26.1163L24.9268 411.732L23.7374 416.485L20.169 422.426H17.7901H13.0323L8.27445 427.178L3.5166 431.931V433.119V435.495H2.32715V437.871V439.059H1.1377V440.247L2.32715 441.435V443.812V445V446.188L3.5166 448.564V449.752V450.94L2.32715 452.129L3.5166 454.505L4.70609 455.693L7.085 458.069L9.46391 459.257L23.7374 464.01L22.5479 465.198L30.8741 469.95L36.8214 479.455L45.1476 480.643L46.3371 485.396H53.4738L54.6633 486.584V485.396L55.8527 484.208H58.2316H59.4211L60.6105 486.584L59.4211 487.772V492.525L58.2316 493.713L57.0422 494.901H58.2316V496.089L59.4211 497.277L61.8 496.089L62.9895 492.525L64.1789 493.713H65.3684H67.7473H70.1262H72.5051L74.884 492.525L76.0735 493.713H77.263L78.4524 492.525L80.8313 490.148H82.0208L83.2102 491.336L84.3997 490.148H85.5891H89.1575H92.7259L93.9154 488.96L96.2943 490.148L98.6732 491.336L102.242 488.96H106.999L108.189 485.396L110.568 480.643H111.757H112.947L114.136 479.455V477.079H115.326V475.891L112.947 469.95L108.189 465.198V461.633L109.378 458.069L112.947 455.693L115.326 454.505L112.947 450.94L109.378 449.752L108.189 447.376V443.812L105.81 441.435H104.62L103.431 440.247V439.059L101.052 437.871L96.2943 436.683L92.7259 435.495L87.9681 436.683L83.2102 434.307V428.366V418.861L79.6419 417.673L76.0735 415.297L73.6946 416.485L70.1262 418.861H68.9368L67.7473 420.049L65.3684 418.861H66.5579Z" fill="#E0EAE7" stroke="#F2F6F5"/>
<path d="M274.712 384.406H271.144V389.158H269.954L267.576 390.347L266.386 391.535L265.197 392.723L264.007 391.535H262.818H260.439V392.723L258.06 398.663L256.87 404.604L258.06 406.98L259.249 410.545L258.06 411.733L256.87 414.109L258.06 415.297V417.673L253.302 423.614L247.355 429.555H244.976L243.786 430.743V431.931L242.597 437.871L244.976 447.376L248.544 448.564L250.923 450.941V452.129V453.317V454.505V455.693H249.734H248.544H247.355V456.881L246.165 458.069L244.976 459.257L247.355 461.634L249.734 465.198L248.544 468.762L246.165 471.139V472.327L243.786 475.891H242.597L241.407 474.703L240.218 473.515H237.839V472.327V471.139H236.65L234.271 469.951V467.574V466.386L233.081 465.198L229.513 466.386L227.134 467.574L225.945 469.951V471.139L216.429 477.079L211.671 486.584L212.861 487.772L211.671 488.96L212.861 490.149V492.525L208.103 490.149L205.724 483.02V480.644H204.534H203.345L202.155 481.832L200.966 486.584H196.208L193.829 485.396H190.261L186.692 484.208L183.124 490.149L180.745 496.089L181.935 497.277L184.314 499.654V502.03V505.594L185.503 506.782L184.314 507.97H183.124L179.556 510.347L174.798 515.099L173.608 518.663L174.798 521.04L173.608 522.228L172.419 523.416V525.792L171.229 529.357V532.921H170.04L166.472 534.109L162.903 536.485V537.673V538.861L164.093 540.05L166.472 541.238L168.851 544.802L171.229 548.366H173.608L179.556 553.119L185.503 557.871H187.882H190.261L191.45 559.059V561.436L192.64 562.624L197.398 559.059L202.155 554.307L203.345 556.683L204.534 560.248L209.292 563.812L215.239 567.376L216.429 570.941L217.618 573.317H218.808L219.997 572.129L228.323 579.257V581.634L229.513 584.01L230.702 585.198L233.081 587.574V589.951L231.892 592.327H234.271L235.46 591.139H240.218L243.786 587.574V586.386L235.46 584.01L239.029 582.822L244.976 580.446L243.786 579.257L241.407 578.069V576.881L240.218 575.693V574.505L243.786 578.069L248.544 580.446L262.818 565L280.66 538.861L279.47 529.357L280.66 519.852L281.849 517.475H283.038H284.228L283.038 515.099L280.66 513.911V512.723L279.47 511.535H278.281L277.091 505.594L279.47 503.218L283.038 500.842L284.228 502.03H285.417L286.607 499.654L288.986 497.277L290.175 498.465V499.654H291.365L292.554 500.842H296.122H298.501L302.07 498.465L303.259 496.089L304.449 497.277L305.638 498.465H306.828H309.207H311.585L313.964 497.277V499.654L316.343 502.03H318.722L321.101 500.842L325.859 502.03L331.806 499.654L337.753 492.525L342.511 493.713V494.901H341.322L342.511 496.089H344.89H346.08L348.459 497.277L349.648 496.089L352.027 493.713L353.216 494.901H354.406V491.337V487.772H353.216H352.027L350.838 479.456V478.267H352.027V477.079V474.703H353.216L354.406 473.515L352.027 471.139L354.406 468.762L357.974 469.951L360.353 471.139L365.111 469.951L363.922 467.574V466.386L362.732 465.198L361.543 462.822V460.446V459.257L360.353 456.881V454.505L359.164 452.129H353.216H347.269V450.941V449.753L346.08 448.564V446.188L343.701 445L341.322 442.624L337.753 441.436H332.996L329.427 443.812L327.048 445L324.669 446.188L323.48 449.753L322.291 452.129H321.101H319.912L315.154 459.257L309.207 465.198L310.396 461.634L308.017 460.446L306.828 458.069V456.881L304.449 459.257L302.07 460.446H300.88H299.691H298.501H297.312H296.122V461.634H294.933L291.365 460.446L290.175 462.822L284.228 464.01H283.038H281.849L280.66 459.257V453.317L281.849 452.129L283.038 450.941V448.564V447.376L285.417 440.248L287.796 434.307L284.228 430.743L283.038 424.802L285.417 422.426L286.607 420.05L284.228 416.485L281.849 414.109V408.168L280.66 399.852L277.091 396.287L272.333 395.099L275.902 391.535L277.091 390.347L275.902 386.782L274.712 384.406Z" fill="#E0EAE7" stroke="#F2F6F5"/>
</svg>
