<svg width="80" height="80" viewBox="0 0 80 80" fill="none" xmlns="http://www.w3.org/2000/svg">
<rect width="80" height="80" rx="40" fill="#096142"/>
<path d="M51.7488 16.98C51.4782 16.5239 51.0376 16.1939 50.5237 16.0626C50.0099 15.9314 49.465 16.0096 49.0088 16.28L43.1088 19.82C42.7617 20.0021 42.4006 20.1559 42.0288 20.28V14C42.0288 13.4696 41.8181 12.9609 41.443 12.5858C41.0679 12.2107 40.5592 12 40.0288 12C39.4984 12 38.9897 12.2107 38.6146 12.5858C38.2395 12.9609 38.0288 13.4696 38.0288 14V20.28C37.657 20.1559 37.2959 20.0021 36.9488 19.82L30.9488 16.28C30.4976 16.0761 29.9868 16.0468 29.5153 16.1978C29.0438 16.3487 28.645 16.6692 28.3961 17.0973C28.1473 17.5253 28.066 18.0304 28.1681 18.5149C28.2702 18.9994 28.5484 19.4288 28.9488 19.72L34.8288 23.24C36.3781 24.1812 38.156 24.6789 39.9688 24.6789C41.7816 24.6789 43.5595 24.1812 45.1088 23.24L50.9888 19.72C51.2196 19.591 51.4226 19.4175 51.586 19.2096C51.7494 19.0017 51.8699 18.7634 51.9405 18.5086C52.0112 18.2538 52.0307 17.9875 51.9978 17.7251C51.9648 17.4627 51.8802 17.2095 51.7488 16.98Z" fill="#00953B"/>
<path d="M44.1489 23.54C43.8018 23.54 43.4607 23.4496 43.1591 23.2778C42.8575 23.1059 42.6059 22.8586 42.4289 22.56C42.1567 22.1063 42.0754 21.5631 42.2029 21.0496C42.3303 20.536 42.6561 20.0939 43.1089 19.82L49.0089 16.28C49.46 16.0761 49.9708 16.0468 50.4424 16.1978C50.9139 16.3488 51.3127 16.6693 51.5615 17.0973C51.8104 17.5253 51.8916 18.0305 51.7895 18.5149C51.6875 18.9994 51.4093 19.4288 51.0089 19.72L45.1689 23.24C44.8622 23.4302 44.5097 23.5339 44.1489 23.54ZM35.9089 23.54C35.548 23.5339 35.1956 23.4302 34.8889 23.24L29.0089 19.72C28.6084 19.4288 28.3303 18.9994 28.2282 18.5149C28.1261 18.0305 28.2073 17.5253 28.4562 17.0973C28.705 16.6693 29.1038 16.3488 29.5754 16.1978C30.0469 16.0468 30.5577 16.0761 31.0089 16.28L37.0089 19.82C37.4616 20.0939 37.7874 20.536 37.9148 21.0496C38.0423 21.5631 37.961 22.1063 37.6889 22.56C37.5068 22.8675 37.2456 23.1206 36.9326 23.2929C36.6195 23.4653 36.266 23.5506 35.9089 23.54Z" fill="#4FB15C"/>
<path d="M48.6889 20.8C48.2507 20.7999 47.8247 20.6559 47.4763 20.3901C47.1279 20.1243 46.8765 19.7515 46.7606 19.3289C46.6448 18.9063 46.6709 18.4574 46.835 18.0511C46.9991 17.6448 47.292 17.3036 47.6689 17.08L49.0089 16.28C49.46 16.0761 49.9708 16.0468 50.4424 16.1978C50.9139 16.3488 51.3127 16.6693 51.5615 17.0973C51.8104 17.5253 51.8916 18.0305 51.7895 18.5149C51.6875 18.9994 51.4093 19.4288 51.0089 19.72L49.6889 20.52C49.3836 20.694 49.0401 20.7902 48.6889 20.8ZM31.2889 20.76C30.9307 20.7544 30.5797 20.658 30.2689 20.48L29.0089 19.72C28.6084 19.4288 28.3303 18.9994 28.2282 18.5149C28.1261 18.0305 28.2073 17.5253 28.4562 17.0973C28.705 16.6693 29.1038 16.3488 29.5754 16.1978C30.0469 16.0468 30.5577 16.0761 31.0089 16.28L32.2889 17.04C32.7416 17.3139 33.0674 17.756 33.1948 18.2696C33.3223 18.7831 33.241 19.3263 32.9689 19.78C32.7954 20.0728 32.55 20.3165 32.256 20.488C31.962 20.6595 31.6291 20.7531 31.2889 20.76Z" fill="#9ADC8E"/>
<path d="M62.0289 42C61.9677 42.1718 61.8942 42.3389 61.8089 42.5C60.5089 45.22 59.2089 47.72 57.9489 50C57.9489 50.18 57.7489 50.38 57.6289 50.56C56.5489 52.46 55.4889 54.22 54.4489 55.82C49.2289 64 44.3689 68 40.0289 68C36.9689 68 33.6889 66 30.1489 62C28.4772 60.0515 26.9467 57.9863 25.5689 55.82L24.4089 54C23.7289 52.92 23.0489 51.76 22.4089 50.54L22.0289 50C20.7489 47.72 19.4489 45.22 18.1489 42.5C18.101 42.3353 18.061 42.1685 18.0289 42C17.4639 40.7293 17.0931 39.3809 16.9289 38C16.6352 35.244 17.1567 32.4624 18.4289 30C19.2507 28.3851 20.3782 26.9452 21.7489 25.76C23.1805 24.5827 24.9111 23.8265 26.7476 23.5758C28.584 23.325 30.4541 23.5896 32.1489 24.34L36.0289 26C37.2926 26.5425 38.6536 26.8223 40.0289 26.8223C41.4042 26.8223 42.7651 26.5425 44.0289 26L47.8689 24.3C49.5637 23.5496 51.4337 23.285 53.2702 23.5358C55.1066 23.7865 56.8373 24.5427 58.2689 25.72C60.5623 27.669 62.1665 30.3051 62.8438 33.2376C63.5211 36.1701 63.2353 39.2427 62.0289 42Z" fill="#00953B"/>
<path d="M44.0288 34C44.0288 35.0609 43.6074 36.0783 42.8572 36.8284C42.1071 37.5786 41.0897 38 40.0288 38H16.8688C16.5751 35.244 17.0966 32.4624 18.3688 30H40.0288C41.0897 30 42.1071 30.4214 42.8572 31.1716C43.6074 31.9217 44.0288 32.9391 44.0288 34Z" fill="#008535"/>
<path d="M52.0288 46C52.0288 47.0609 51.6074 48.0783 50.8572 48.8284C50.1071 49.5786 49.0897 50 48.0288 50H22.0288C20.7488 47.72 19.4488 45.22 18.1488 42.5C18.1009 42.3353 18.0609 42.1685 18.0288 42H48.0288C49.0897 42 50.1071 42.4214 50.8572 43.1716C51.6074 43.9217 52.0288 44.9391 52.0288 46Z" fill="#008535"/>
<path d="M44.8572 60.8284C45.6074 60.0783 46.0288 59.0609 46.0288 58C46.0288 56.9391 45.6074 55.9217 44.8572 55.1716C44.1071 54.4214 43.0897 54 42.0288 54H24.4088C26.1035 56.8169 28.0231 59.4923 30.1488 62H42.0288C43.0897 62 44.1071 61.5786 44.8572 60.8284Z" fill="#008535"/>
<path d="M27.0288 48C27.5811 48 28.0288 47.5523 28.0288 47C28.0288 46.4477 27.5811 46 27.0288 46C26.4765 46 26.0288 46.4477 26.0288 47C26.0288 47.5523 26.4765 48 27.0288 48Z" fill="#307E45"/>
<path d="M37.0288 46C37.5811 46 38.0288 45.5523 38.0288 45C38.0288 44.4477 37.5811 44 37.0288 44C36.4765 44 36.0288 44.4477 36.0288 45C36.0288 45.5523 36.4765 46 37.0288 46Z" fill="#307E45"/>
<path d="M27.0288 30C27.5811 30 28.0288 29.5523 28.0288 29C28.0288 28.4477 27.5811 28 27.0288 28C26.4765 28 26.0288 28.4477 26.0288 29C26.0288 29.5523 26.4765 30 27.0288 30Z" fill="#005C24"/>
<path d="M53.0288 30C53.5811 30 54.0288 29.5523 54.0288 29C54.0288 28.4477 53.5811 28 53.0288 28C52.4765 28 52.0288 28.4477 52.0288 29C52.0288 29.5523 52.4765 30 53.0288 30Z" fill="#005C24"/>
<path d="M48.0288 31C48.0288 31.5523 47.5811 32 47.0288 32C46.4765 32 46.0288 31.5523 46.0288 31C46.0288 30.4477 46.4765 30 47.0288 30C47.5811 30 48.0288 30.4477 48.0288 31Z" fill="#005C24"/>
<path d="M57.0288 36C57.5811 36 58.0288 35.5523 58.0288 35C58.0288 34.4477 57.5811 34 57.0288 34C56.4765 34 56.0288 34.4477 56.0288 35C56.0288 35.5523 56.4765 36 57.0288 36Z" fill="#005C24"/>
<path d="M56.0288 41C56.0288 41.5523 55.5811 42 55.0288 42C54.4765 42 54.0288 41.5523 54.0288 41C54.0288 40.4477 54.4765 40 55.0288 40C55.5811 40 56.0288 40.4477 56.0288 41Z" fill="#005C24"/>
<path d="M39.0288 34C39.5811 34 40.0288 33.5523 40.0288 33C40.0288 32.4477 39.5811 32 39.0288 32C38.4765 32 38.0288 32.4477 38.0288 33C38.0288 33.5523 38.4765 34 39.0288 34Z" fill="#005C24"/>
<path d="M24.0288 35C24.0288 35.5523 23.5811 36 23.0288 36C22.4765 36 22.0288 35.5523 22.0288 35C22.0288 34.4477 22.4765 34 23.0288 34C23.5811 34 24.0288 34.4477 24.0288 35Z" fill="#005C24"/>
<path d="M47.0288 46C47.5811 46 48.0288 45.5523 48.0288 45C48.0288 44.4477 47.5811 44 47.0288 44C46.4765 44 46.0288 44.4477 46.0288 45C46.0288 45.5523 46.4765 46 47.0288 46Z" fill="#005C24"/>
<path d="M44.0288 59C44.0288 59.5523 43.5811 60 43.0288 60C42.4765 60 42.0288 59.5523 42.0288 59C42.0288 58.4477 42.4765 58 43.0288 58C43.5811 58 44.0288 58.4477 44.0288 59Z" fill="#005C24"/>
<path d="M40.0288 67.9998C33.7288 67.9998 26.3688 59.4198 18.1888 42.4998C16.8472 39.7087 16.4688 36.5516 17.113 33.5225C17.7572 30.4934 19.3875 27.7635 21.7488 25.7598C21.9497 25.5904 22.182 25.4622 22.4325 25.3826C22.6829 25.303 22.9466 25.2735 23.2085 25.2958C23.4703 25.3181 23.7252 25.3917 23.9586 25.5125C24.192 25.6333 24.3994 25.7989 24.5688 25.9998C24.7382 26.2007 24.8664 26.4331 24.946 26.6835C25.0256 26.934 25.0551 27.1977 25.0328 27.4595C25.0105 27.7214 24.9369 27.9763 24.8161 28.2097C24.6953 28.4431 24.5297 28.6504 24.3288 28.8198C22.6329 30.254 21.4628 32.2118 21.0029 34.3847C20.543 36.5575 20.8195 38.8216 21.7888 40.8198C32.0288 61.7398 38.0288 63.9998 40.0288 63.9998C40.5592 63.9998 41.0679 64.2105 41.443 64.5856C41.8181 64.9607 42.0288 65.4694 42.0288 65.9998C42.0288 66.5303 41.8181 67.039 41.443 67.414C41.0679 67.7891 40.5592 67.9998 40.0288 67.9998Z" fill="#007830"/>
<path d="M60.0288 43.62C59.7308 43.6182 59.4369 43.5499 59.1688 43.42C58.6923 43.1909 58.326 42.7824 58.1498 42.284C57.9737 41.7855 58.0021 41.2376 58.2288 40.76C59.1981 38.7617 59.4746 36.4976 59.0147 34.3248C58.5547 32.152 57.3846 30.1941 55.6888 28.76C54.8306 28.0665 53.7979 27.623 52.704 27.4783C51.6102 27.3337 50.4977 27.4934 49.4888 27.94L45.6288 29.64C45.3885 29.7465 45.1295 29.8047 44.8668 29.8111C44.604 29.8175 44.3425 29.772 44.0973 29.6772C43.8521 29.5825 43.628 29.4404 43.4378 29.259C43.2476 29.0776 43.095 28.8604 42.9888 28.62C42.7811 28.1345 42.7739 27.5865 42.9687 27.0956C43.1636 26.6048 43.5446 26.2109 44.0288 26L47.8688 24.3C49.5636 23.5496 51.4336 23.285 53.27 23.5358C55.1065 23.7865 56.8371 24.5427 58.2688 25.72C60.63 27.7236 62.2603 30.4536 62.9045 33.4827C63.5487 36.5117 63.1704 39.6689 61.8288 42.46C61.6695 42.8041 61.4158 43.0958 61.0971 43.3012C60.7784 43.5066 60.4079 43.6171 60.0288 43.62Z" fill="#1FB55A"/>
<path opacity="0.5" d="M57.0088 29.28C56.5415 29.281 56.0886 29.1182 55.7288 28.82C54.8706 28.1265 53.8379 27.683 52.7441 27.5384C51.6502 27.3937 50.5377 27.5534 49.5288 28C49.2885 28.1064 49.0295 28.1644 48.7668 28.1707C48.5041 28.177 48.2427 28.1315 47.9975 28.0368C47.7524 27.9421 47.5283 27.8 47.3381 27.6187C47.1478 27.4374 46.9951 27.2204 46.8888 26.98C46.7824 26.7397 46.7244 26.4808 46.7181 26.2181C46.7118 25.9553 46.7573 25.6939 46.852 25.4488C46.9467 25.2036 47.0888 24.9796 47.2701 24.7893C47.4514 24.5991 47.6685 24.4464 47.9088 24.34C49.6036 23.5897 51.4736 23.3251 53.3101 23.5758C55.1465 23.8266 56.8772 24.5828 58.3088 25.76C58.6195 26.0258 58.8413 26.3803 58.9444 26.776C59.0474 27.1717 59.0267 27.5894 58.8851 27.9729C58.7434 28.3565 58.4876 28.6874 58.1522 28.9211C57.8167 29.1548 57.4176 29.2801 57.0088 29.28ZM60.8688 35.4C60.4172 35.4155 59.9738 35.2776 59.6106 35.0089C59.2475 34.7402 58.986 34.3564 58.8688 33.92C58.8688 33.6 58.6888 33.28 58.5888 32.98C58.4076 32.484 58.43 31.9364 58.6511 31.4568C58.8722 30.9772 59.274 30.6045 59.7688 30.42C60.2648 30.2389 60.8124 30.2613 61.292 30.4824C61.7716 30.7034 62.1443 31.1052 62.3288 31.6C62.4888 32.02 62.6288 32.44 62.7488 32.88C62.8182 33.1348 62.8365 33.4008 62.8026 33.6627C62.7688 33.9246 62.6833 34.1772 62.5513 34.4059C62.4193 34.6346 62.2433 34.8349 62.0335 34.9952C61.8236 35.1556 61.5841 35.2728 61.3288 35.34L60.8688 35.4Z" fill="#D1FFC5"/>
<path d="M19.9235 45.3212C20.2377 45.5153 20.5995 45.6187 20.9688 45.6198C21.2772 45.6367 21.5852 45.5819 21.8688 45.4598C22.1046 45.3411 22.3146 45.1769 22.4867 44.9767C22.6587 44.7764 22.7894 44.5441 22.8712 44.2931C22.953 44.0421 22.9843 43.7774 22.9633 43.5142C22.9423 43.2511 22.8694 42.9947 22.7488 42.7598L21.7888 40.7598C21.5554 40.2824 21.142 39.9173 20.6394 39.7448C20.1368 39.5722 19.5862 39.6064 19.1088 39.8398C18.6314 40.0732 18.2663 40.4867 18.0938 40.9893C17.9212 41.4919 17.9554 42.0424 18.1888 42.5198L19.1888 44.5198C19.355 44.8497 19.6093 45.127 19.9235 45.3212Z" fill="#005C24"/>
<path d="M28.8743 60.1487C29.152 60.2875 29.4583 60.3598 29.7688 60.3598C30.1969 60.3498 30.6105 60.2026 30.9488 59.9398C31.37 59.6186 31.6466 59.1434 31.7179 58.6184C31.7891 58.0935 31.6492 57.5617 31.3288 57.1398C29.1867 54.2308 27.2487 51.1768 25.5288 47.9998C25.2635 47.5357 24.8248 47.1959 24.3091 47.0553C23.7934 46.9146 23.2429 46.9846 22.7788 47.2498C22.3146 47.515 21.9749 47.9538 21.8342 48.4695C21.6936 48.9852 21.7635 49.5357 22.0288 49.9998C23.8499 53.3258 25.9015 56.5203 28.1688 59.5598C28.355 59.8082 28.5966 60.0098 28.8743 60.1487Z" fill="#005C24"/>
<path d="M48.7435 44.9982C47.9138 44.9993 47.0977 44.7767 46.3734 44.3515C45.6491 43.9263 45.0408 43.3128 44.6068 42.5699C44.0479 41.6166 43.8723 40.4692 44.1185 39.3799C44.3648 38.2906 45.0128 37.3487 45.9201 36.7613C46.294 36.5194 46.7098 36.3574 47.1435 36.2848C47.5772 36.2121 48.0203 36.2301 48.4474 36.3378C48.8744 36.4455 49.277 36.6407 49.6321 36.9122C49.9871 37.1838 50.2877 37.5264 50.5164 37.9202C50.7101 38.2485 50.84 38.6138 50.8986 38.995C50.9572 39.3763 50.9433 39.766 50.8578 40.1416C50.7667 40.5241 50.6035 40.8835 50.3779 41.1987C50.1524 41.5139 49.869 41.7784 49.5446 41.9766C49.0061 42.322 48.3598 42.431 47.7455 42.2801C47.4401 42.2062 47.1523 42.0677 46.8994 41.8732C46.6466 41.6787 46.434 41.4323 46.2746 41.1488C46.2291 41.0729 46.1984 40.9882 46.1843 40.8998C46.1702 40.8113 46.1731 40.7207 46.1926 40.6334C46.2122 40.5461 46.2481 40.4637 46.2982 40.3912C46.3484 40.3186 46.4118 40.2572 46.4848 40.2106C46.558 40.1624 46.6396 40.1299 46.7248 40.1149C46.8101 40.1 46.8973 40.1028 46.9814 40.1233C47.0656 40.1438 47.1451 40.1816 47.2154 40.2344C47.2857 40.2873 47.3453 40.3542 47.3909 40.4313C47.4624 40.5574 47.557 40.6673 47.6694 40.7545C47.7818 40.8417 47.9096 40.9045 48.0453 40.9392C48.181 40.9738 48.322 40.9797 48.4599 40.9565C48.5978 40.9333 48.73 40.8814 48.8486 40.8038C49.1879 40.582 49.4326 40.2311 49.5315 39.8243C49.6221 39.4188 49.556 38.992 49.3476 38.6377C49.0628 38.1579 48.6097 37.8151 48.0863 37.6834C47.5629 37.5518 47.0112 37.6418 46.5504 37.934C46.2461 38.1293 45.9815 38.3859 45.7719 38.689C45.5623 38.992 45.4118 39.3357 45.3291 39.7001C45.1663 40.435 45.2841 41.2077 45.6574 41.8524C45.9025 42.2695 46.2236 42.6317 46.6022 42.9182C46.9808 43.2046 47.4095 43.4098 47.8637 43.5219C48.7621 43.7387 49.7056 43.5752 50.4901 43.0666C50.9862 42.7564 51.4167 42.3431 51.7554 41.852C52.0942 41.3609 52.3339 40.8024 52.46 40.2106C52.689 38.983 52.4635 37.7098 51.8296 36.6509C51.5062 36.1048 51.0814 35.6328 50.5805 35.263C50.0796 34.8932 49.5129 34.6332 48.9142 34.4986C48.1007 34.3414 47.2651 34.3607 46.4588 34.5552C45.6526 34.7498 44.8927 35.1155 44.226 35.6299C44.1554 35.6829 44.0756 35.7206 43.991 35.7409C43.9065 35.7613 43.819 35.7638 43.7335 35.7484C43.648 35.733 43.5663 35.7 43.4931 35.6512C43.4198 35.6025 43.3565 35.539 43.3067 35.4644C43.2567 35.3913 43.221 35.3085 43.2018 35.2208C43.1826 35.1331 43.1803 35.0422 43.195 34.9535C43.2097 34.8649 43.2411 34.7802 43.2873 34.7044C43.3335 34.6287 43.3937 34.5634 43.4643 34.5124C44.2721 33.8813 45.1956 33.433 46.1765 33.1955C47.1575 32.9581 48.1746 32.9367 49.1638 33.1326C49.9682 33.2759 50.7348 33.5957 51.4136 34.0711C52.0925 34.5466 52.6683 35.1671 53.1035 35.8921C53.5184 36.5535 53.802 37.296 53.9375 38.0752C54.073 38.8544 54.0575 39.6544 53.892 40.4272C53.7265 41.2 53.4144 41.9298 52.9743 42.5729C52.5342 43.2161 51.9752 43.7594 51.3306 44.1703C50.5634 44.7051 49.6642 44.9928 48.7435 44.9982ZM27.4744 34.6503C27.2017 34.9359 26.9636 35.2556 26.7653 35.6023C26.4249 36.1716 26.1961 36.8065 26.0924 37.4699C25.9887 38.1333 26.012 38.8118 26.1612 39.4655C26.4134 40.5522 27.0645 41.4899 27.9723 42.074C28.8802 42.6582 29.9711 42.8414 31.007 42.5837C31.4352 42.4784 31.8393 42.285 32.1958 42.0144C32.5523 41.7439 32.8541 41.4017 33.0837 41.0077C33.3134 40.6137 33.4663 40.1757 33.5336 39.7191C33.601 39.2626 33.5813 38.7965 33.4759 38.348C33.3014 37.59 32.8486 36.9353 32.2162 36.5269C31.5839 36.1185 30.8235 35.9895 30.1009 36.168C29.488 36.3219 28.9584 36.7252 28.6284 37.2892C28.2984 37.8532 28.1951 38.5318 28.3412 39.1758C28.3812 39.3587 28.4888 39.5175 28.6403 39.6171C28.7153 39.6664 28.7988 39.6998 28.886 39.7152C28.9733 39.7306 29.0626 39.7278 29.1488 39.707C29.235 39.6861 29.3165 39.6477 29.3886 39.5937C29.4607 39.5398 29.5219 39.4715 29.5689 39.3927C29.6158 39.3139 29.6475 39.2262 29.6622 39.1345C29.6769 39.0429 29.6742 38.949 29.6544 38.8585C29.6172 38.7134 29.6082 38.562 29.628 38.4133C29.6477 38.2645 29.6958 38.1215 29.7694 37.9927C29.8429 37.8639 29.9404 37.752 30.056 37.6637C30.1717 37.5754 30.3031 37.5125 30.4423 37.4787C30.8214 37.3953 31.2165 37.4694 31.5446 37.6855C31.8728 37.9016 32.1084 38.2429 32.2021 38.6377C32.2666 38.9104 32.279 39.1939 32.2385 39.4717C32.198 39.7495 32.1054 40.0161 31.9662 40.2561C31.827 40.496 31.6438 40.7046 31.4273 40.8697C31.2108 41.0347 30.9653 41.1531 30.705 41.2178C30.3591 41.3094 29.9991 41.3261 29.6469 41.2668C29.2947 41.2075 28.9576 41.0735 28.6563 40.8728C28.0622 40.4769 27.6382 39.8533 27.4744 39.1344C27.2573 38.1739 27.412 37.1621 27.9045 36.3214C28.3969 35.4806 29.1869 34.8796 30.1009 34.6503C30.6643 34.5011 31.2507 34.4743 31.8243 34.5716C32.3978 34.6689 32.9465 34.8882 33.4365 35.216C33.9452 35.566 34.383 36.0182 34.7246 36.5467C35.0663 37.0752 35.305 37.6695 35.4271 38.2953C35.5491 38.9212 35.5521 39.5662 35.4359 40.1933C35.3196 40.8203 35.0865 41.417 34.7498 41.949C34.2809 42.6633 33.6778 43.2693 32.9777 43.7296C32.2776 44.1899 31.4952 44.4948 30.6787 44.6256C30.5052 44.6562 30.35 44.7572 30.2468 44.907C30.1436 45.0567 30.1006 45.2431 30.1272 45.4259C30.1592 45.6057 30.2567 45.7653 30.3989 45.8709C30.5411 45.9765 30.7168 46.0198 30.8888 45.9916C31.8598 45.8223 32.7887 45.4506 33.6209 44.8985C34.4531 44.3465 35.1718 43.6251 35.7347 42.7768C36.1901 42.0791 36.5034 41.2899 36.6548 40.4589C36.8062 39.6279 36.7925 38.773 36.6146 37.9478C36.4647 37.1668 36.166 36.4257 35.7364 35.7691C35.3068 35.1126 34.7551 34.5541 34.1146 34.1275C33.4742 33.7008 32.7582 33.4147 32.0097 33.2864C31.2612 33.1581 30.4958 33.1903 29.7595 33.381C28.9036 33.5822 28.1146 34.0205 27.4744 34.6503Z" fill="#D1FFC5"/>
<path d="M40.0288 58C38.9679 58 37.9505 57.5786 37.2004 56.8284C36.4502 56.0783 36.0288 55.0609 36.0288 54V52C36.0288 50.9391 36.4502 49.9217 37.2004 49.1716C37.9505 48.4214 38.9679 48 40.0288 48C41.0897 48 42.1071 48.4214 42.8572 49.1716C43.6074 49.9217 44.0288 50.9391 44.0288 52V54C44.0288 55.0609 43.6074 56.0783 42.8572 56.8284C42.1071 57.5786 41.0897 58 40.0288 58Z" fill="#511D21"/>
<path d="M40.0288 48C38.9679 48 37.9505 48.4214 37.2004 49.1716C36.4502 49.9217 36.0288 50.9391 36.0288 52H44.0288C44.0288 50.9391 43.6074 49.9217 42.8572 49.1716C42.1071 48.4214 41.0897 48 40.0288 48Z" fill="white"/>
<path d="M40.0288 54C38.9679 54 37.9505 54.4214 37.2004 55.1716C36.4502 55.9217 36.0288 56.9391 36.0288 58H44.0288C44.0288 56.9391 43.6074 55.9217 42.8572 55.1716C42.1071 54.4214 41.0897 54 40.0288 54Z" fill="#FD495C"/>
<path d="M40.0288 60C38.4375 60 36.9114 59.3679 35.7862 58.2426C34.6609 57.1174 34.0288 55.5913 34.0288 54V52C34.0288 50.4087 34.6609 48.8826 35.7862 47.7574C36.9114 46.6321 38.4375 46 40.0288 46C41.6201 46 43.1462 46.6321 44.2715 47.7574C45.3967 48.8826 46.0288 50.4087 46.0288 52V54C46.0288 55.5913 45.3967 57.1174 44.2715 58.2426C43.1462 59.3679 41.6201 60 40.0288 60ZM40.0288 50C39.4984 50 38.9897 50.2107 38.6146 50.5858C38.2395 50.9609 38.0288 51.4696 38.0288 52V54C38.0288 54.5304 38.2395 55.0391 38.6146 55.4142C38.9897 55.7893 39.4984 56 40.0288 56C40.5592 56 41.068 55.7893 41.443 55.4142C41.8181 55.0391 42.0288 54.5304 42.0288 54V52C42.0288 51.4696 41.8181 50.9609 41.443 50.5858C41.068 50.2107 40.5592 50 40.0288 50Z" fill="#98E285"/>
</svg>
