<svg width="88" height="80" viewBox="0 0 88 80" fill="none" xmlns="http://www.w3.org/2000/svg">
<path d="M39.8024 10.7754C35.5552 17.0682 28.4868 21.5192 21.0027 21.9535C20.7074 21.9806 19.2657 22 18.8927 22H4.95992C4.82679 21.9976 4.69517 21.9713 4.57134 21.9225C4.45278 21.8721 4.3457 21.7982 4.25659 21.7053C4.20254 21.653 4.15669 21.5929 4.12058 21.527C4.08584 21.4653 4.05721 21.4004 4.03509 21.3331C4.03279 21.3242 4.03279 21.3149 4.03509 21.306C4.01712 21.244 4.00541 21.1803 4.00012 21.116C4.00199 21.1005 4.00199 21.0849 4.00012 21.0695C3.99901 20.9851 4.00551 20.9007 4.01955 20.8174L4.71123 16.8937L4.92106 15.7034C5.5972 12.5357 8.64758 10 11.8495 10H39.4799C39.9578 10 40.1677 10.3102 39.8451 10.7754" fill="#00953B"/>
<path d="M87.2596 60.517C84.451 64.7121 79.7769 67.6795 74.8279 67.969C74.6326 67.9871 73.6793 68 73.4326 68H63.6348C63.5467 67.9984 63.4597 67.9809 63.3778 67.9483C63.2994 67.9147 63.2286 67.8655 63.1697 67.8036C63.1339 67.7687 63.1036 67.7286 63.0797 67.6847C63.0568 67.6435 63.0378 67.6002 63.0232 67.5554C63.0217 67.5495 63.0217 67.5433 63.0232 67.5373C63.0113 67.496 63.0036 67.4536 63.0001 67.4107C63.0013 67.4004 63.0013 67.3899 63.0001 67.3796C62.9993 67.3234 63.0036 67.2671 63.0129 67.2116L63.4703 64.5958L63.6091 63.8023C64.0562 61.6905 66.0733 60 68.1906 60H87.0463C87.3623 60 87.5011 60.2068 87.2878 60.517" fill="#AED877"/>
<path fill-rule="evenodd" clip-rule="evenodd" d="M29.4847 34.9432C25.322 31.2287 22.5088 25.2525 22.5088 18.7962C22.5088 8.43168 29.8887 0 38.9608 0C48.0323 0 55.4128 8.43198 55.4128 18.7962C55.4128 24.915 52.8861 30.6026 49.0785 34.3425C49.1148 34.459 49.1343 34.5828 49.1343 34.7113V40.1092C49.1343 40.4096 49.1872 40.6923 49.2901 40.9515C49.368 41.1514 49.4693 41.3357 49.5899 41.5017C50.0243 42.0966 50.7129 42.4582 51.4698 42.4582H52.4126C52.4543 42.4582 52.4958 42.4603 52.5369 42.4644H57.4318C60.6791 42.4644 63.6137 44.0706 65.5049 46.775C66.4146 45.9297 67.7503 45.568 69.0427 45.9327L69.1375 34.8406C69.0223 32.7024 70.6974 30.7975 72.9509 30.5811C74.1682 30.4588 75.3819 30.8621 76.2865 31.6737C77.1617 32.459 77.6718 33.5722 77.6865 34.7296L79.2994 55.9062C79.3429 59.2241 78.021 62.3851 75.6752 64.6573L74.3645 65.928C73.2002 67.0559 72.3421 68.4641 71.8819 69.9989L71.7858 70.3191C72.0729 70.5787 72.3172 70.8887 72.5078 71.2404C72.9633 72.0803 73.0621 73.0531 72.784 73.9787L71.2442 79.1158C71.0826 79.6542 70.59 79.9998 70.0575 79.9998C69.9394 79.9998 69.8194 79.9829 69.7013 79.9476C69.0453 79.7501 68.6733 79.0607 68.8702 78.4047L70.4101 73.2676C70.4971 72.9785 70.4683 72.6781 70.3296 72.423C70.2044 72.192 69.9998 72.0251 69.7541 71.9534L56.3756 68.0366C55.8378 67.8732 55.2553 68.2171 55.0825 68.7954L53.2917 74.4502C53.0848 75.1015 52.3865 75.4653 51.7364 75.2572C51.0834 75.0515 50.7225 74.3544 50.9294 73.702L52.7144 68.0654C53.131 66.6743 54.3307 65.7176 55.6822 65.5481L56.251 63.6495C56.9246 61.4025 58.2335 59.3995 60.0385 57.8554C61.4809 56.6211 62.5271 55.0224 63.0632 53.2316L64.1993 49.44C62.8584 46.6543 60.3001 44.9424 57.4317 44.9424H54.0452C54.0105 45.0187 53.9676 45.0923 53.9166 45.1619L47.0051 54.5778C46.7912 54.8693 46.4609 55.0521 46.1006 55.0797C46.0682 55.0815 46.0371 55.0827 46.0053 55.0827C45.678 55.0827 45.3625 54.9534 45.1291 54.7194L39.3553 48.9456L33.5809 54.72C33.3476 54.9533 33.032 55.0826 32.7046 55.0826C32.6728 55.0826 32.6416 55.0815 32.6093 55.0792C32.2484 55.0515 31.9181 54.8676 31.7047 54.576L24.8103 45.1602C24.76 45.0915 24.7176 45.0188 24.6831 44.9435H21.3014C18.1148 44.9435 15.873 45.956 14.6362 47.9551C14.6901 48.0798 14.7373 48.2088 14.7771 48.3418L16.2418 53.232C16.7785 55.024 17.8247 56.6227 19.2665 57.8558C21.0709 59.3987 22.3804 61.4023 23.054 63.65L23.6232 65.5487C24.9722 65.7203 26.1738 66.6812 26.5948 68.0843L28.3733 73.7027C28.5796 74.3551 28.2175 75.0522 27.5657 75.2579C26.9162 75.4672 26.2168 75.1016 26.0099 74.451L24.2261 68.8143C24.0486 68.2189 23.4667 67.881 22.9289 68.0373L9.54856 71.9541C9.30347 72.0252 9.09951 72.1927 8.97432 72.4237C8.83561 72.6788 8.80681 72.9791 8.8938 73.2683L10.4331 78.4054C10.6294 79.0613 10.2567 79.752 9.60198 79.9483C9.48326 79.9835 9.36336 80 9.24521 80C8.71211 80 8.2196 79.6537 8.05856 79.1165L6.51929 73.9794C6.24127 73.0537 6.33944 72.081 6.79553 71.2411C6.98653 70.889 7.23106 70.5788 7.51834 70.319L7.42248 69.9988C6.96344 68.4642 6.10414 67.057 4.93858 65.9269L3.62847 64.6585C1.2827 62.3845 -0.0391407 59.2229 0.000883276 55.9844L1.62186 34.6498C1.63302 33.5719 2.14319 32.4581 3.01897 31.6728C3.92294 30.8612 5.13317 30.465 6.3533 30.5802C8.60728 30.7971 10.2812 32.7015 10.1655 34.915L10.2612 45.9332C11.1622 45.6792 12.0836 45.7775 12.8673 46.146C14.6124 43.7346 17.5112 42.4649 21.3019 42.4649H26.1632C26.2075 42.4601 26.2523 42.4576 26.2974 42.4576H27.1267C28.1065 42.4576 28.9922 41.8417 29.3303 40.9259C29.3421 40.8938 29.3552 40.8623 29.3695 40.8316C29.4466 40.5939 29.4847 40.3533 29.4847 40.1103V34.9432ZM31.9627 36.7847C34.1118 38.0889 36.4937 38.8308 38.9608 38.8308C41.6981 38.8308 44.3304 37.9176 46.6563 36.3364V40.1092C46.6563 40.3635 46.6753 40.6137 46.7129 40.858L39.3544 45.7092L31.9118 40.8066C31.9457 40.5766 31.9627 40.3442 31.9627 40.1103V36.7847ZM24.988 18.7962C24.988 9.79806 31.2559 2.47818 38.9608 2.47818C46.6651 2.47818 52.9335 9.79821 52.9335 18.7962C52.9335 28.1492 46.4041 36.3526 38.9608 36.3526C31.5175 36.3526 24.988 28.1492 24.988 18.7962ZM30.9123 43.1156C30.128 44.0999 28.9725 44.7572 27.6986 44.9095L32.8501 51.9447L37.4035 47.3913L30.9123 43.1156ZM47.7313 43.1541C48.5361 44.1555 49.7109 44.7991 51.0175 44.9212L45.8609 51.9459L41.3058 47.3913L47.7313 43.1541ZM58.1438 65.9711L58.6262 64.3609C59.1623 62.5711 60.2085 60.9724 61.6502 59.7381C63.4552 58.1952 64.7648 56.1898 65.4384 53.9428L66.9037 49.0526C67.0806 48.4607 67.74 48.1328 68.3742 48.3191C68.6831 48.4088 68.9361 48.6038 69.0896 48.8703C69.1144 48.9416 69.1456 49.01 69.1824 49.0748C69.2515 49.2805 69.2565 49.4998 69.1942 49.7068L66.5339 58.5843C66.3376 59.2403 66.7096 59.9309 67.365 60.1272C68.0186 60.3211 68.7116 59.952 68.9079 59.2961L71.5681 50.4186C71.7881 49.6836 71.7628 48.913 71.502 48.2008L71.6143 34.786C71.568 33.8996 72.2597 33.1361 73.189 33.0467C73.7197 32.9997 74.2422 33.169 74.6319 33.5175C74.9987 33.8466 75.2032 34.2869 75.2126 34.8388L76.8255 56.0154C76.8577 58.614 75.8374 61.0508 73.9513 62.877L72.64 64.1477C71.1725 65.5707 70.0892 67.3486 69.5085 69.287L69.5054 69.2974L58.1438 65.9711ZM20.679 64.3613L21.1616 65.9712L9.79943 69.2973L9.79643 69.2873C9.21578 67.3489 8.13253 65.5721 6.66372 64.1468L5.35303 62.8784C3.49512 61.0763 2.44715 58.5754 2.47536 56.0945L4.09633 34.7599C4.1022 34.2867 4.30675 33.8465 4.67351 33.5174C5.06319 33.1677 5.58159 32.9943 6.11586 33.0466C7.0451 33.1358 7.7363 33.9005 7.68869 34.8615L7.80219 48.2038C7.54245 48.915 7.5179 49.685 7.73763 50.419L10.3973 59.2965C10.5948 59.9519 11.2866 60.3222 11.9401 60.1276C12.5949 59.9313 12.9675 59.2407 12.7712 58.5847L10.1116 49.7072C10.0484 49.4965 10.054 49.2745 10.1258 49.0665C10.1594 49.0065 10.1882 48.9434 10.2116 48.8777C10.3647 48.6083 10.6193 48.4106 10.9292 48.3195C11.5663 48.1355 12.2258 48.4623 12.4021 49.053L13.8668 53.9432C14.541 56.1921 15.8505 58.1957 17.6549 59.7386C19.0967 60.9718 20.1424 62.5705 20.679 64.3613Z" fill="#096142"/>
<path d="M65.5198 76.1585C65.3435 76.1585 65.1683 76.1244 65.012 76.058C64.399 75.7953 64.0769 75.0282 64.3173 74.4063C64.5624 73.7686 65.3435 73.4224 65.9801 73.6657C65.9959 73.6716 66.0118 73.6781 66.0271 73.6851C66.6466 73.9502 66.9675 74.7296 66.7136 75.355C66.5884 75.6648 66.3151 75.9392 66.0065 76.0668C65.8561 76.1279 65.6879 76.1585 65.5198 76.1585Z" fill="#096142"/>
<path d="M13.785 76.1585C13.6122 76.1585 13.4394 76.1256 13.2854 76.0615C12.9757 75.931 12.7041 75.6501 12.5831 75.3368C12.3421 74.715 12.6642 73.9473 13.2772 73.6851C13.2931 73.6781 13.3089 73.6716 13.3242 73.6657C13.9461 73.4271 14.7078 73.7539 14.9694 74.3652C15.2392 74.9935 14.9212 75.7881 14.2923 76.0579C14.136 76.1243 13.9608 76.1585 13.785 76.1585Z" fill="#096142"/>
</svg>
