<svg width="101" height="80" viewBox="0 0 101 80" fill="none" xmlns="http://www.w3.org/2000/svg">
<path d="M35.8024 58.7754C31.5552 65.0682 24.4868 69.5192 17.0027 69.9535C16.7074 69.9806 15.2657 70 14.8927 70H0.959924C0.826786 69.9976 0.695166 69.9713 0.57134 69.9225C0.452777 69.8721 0.345697 69.7982 0.256588 69.7053C0.202538 69.653 0.156687 69.5929 0.120582 69.527C0.0858434 69.4653 0.0572115 69.4004 0.035093 69.3331C0.0327896 69.3242 0.0327896 69.3149 0.035093 69.306C0.0171248 69.244 0.00541053 69.1803 0.000121854 69.116C0.00199382 69.1005 0.00199382 69.0849 0.000121854 69.0695C-0.000990383 68.9851 0.00551341 68.9007 0.0195522 68.8174L0.711231 64.8937L0.921063 63.7034C1.5972 60.5357 4.64758 58 7.84951 58H35.4799C35.9578 58 36.1677 58.3102 35.8451 58.7754" fill="#FD495C"/>
<path d="M100.26 20.517C97.451 24.7121 92.7769 27.6795 87.8279 27.969C87.6326 27.9871 86.6793 28 86.4326 28H76.6348C76.5467 27.9984 76.4597 27.9809 76.3778 27.9483C76.2994 27.9147 76.2286 27.8655 76.1697 27.8036C76.1339 27.7687 76.1036 27.7286 76.0797 27.6847C76.0568 27.6435 76.0378 27.6002 76.0232 27.5554C76.0217 27.5495 76.0217 27.5433 76.0232 27.5373C76.0113 27.496 76.0036 27.4536 76.0001 27.4107C76.0013 27.4004 76.0013 27.3899 76.0001 27.3796C75.9993 27.3234 76.0036 27.2671 76.0129 27.2116L76.4703 24.5958L76.6091 23.8023C77.0562 21.6905 79.0733 20 81.1906 20H100.046C100.362 20 100.501 20.2068 100.288 20.517" fill="#00953B"/>
<path fill-rule="evenodd" clip-rule="evenodd" d="M31.6758 73.3276H78.307C80.8435 73.3276 82.9076 71.2645 82.9076 68.7275C82.9076 66.191 80.8435 64.1269 78.307 64.1269H31.6758C29.1392 64.1269 27.0751 66.191 27.0751 68.7275C27.0757 71.2647 29.1392 73.3276 31.6758 73.3276ZM78.307 66.626C79.4662 66.626 80.4086 67.5683 80.4086 68.7275C80.4086 69.8861 79.4663 70.8285 78.307 70.8285H31.6758C30.5166 70.8285 29.5742 69.8862 29.5742 68.7275C29.5742 67.5683 30.5165 66.626 31.6758 66.626H78.307Z" fill="#096142"/>
<path fill-rule="evenodd" clip-rule="evenodd" d="M64.1382 17.8669C64.1382 22.2223 62.1973 26.0297 59.1304 28.4582V32.0556C59.1304 32.2571 59.1666 32.4568 59.2401 32.6536C59.4854 33.3173 60.1272 33.7636 60.8372 33.7636H68.356C73.1545 33.7636 77.0577 37.6668 77.0577 42.4642V50.6417H82.9835V33.2481C82.9835 31.3703 82.283 29.603 81.0303 28.2533C80.0486 29.1417 78.7476 29.6836 77.3226 29.6836C74.2734 29.6836 71.7921 27.2035 71.7921 24.1537C71.7921 21.1045 74.2734 18.6232 77.3226 18.6232C80.3718 18.6232 82.8531 21.1045 82.8531 24.1537C82.8531 24.8609 82.7196 25.5376 82.4765 26.1598C84.3978 28.011 85.4826 30.5441 85.4826 33.2482V50.6417H92.017C93.6421 50.6417 94.9648 51.9645 94.9648 53.5895V56.9872C94.9648 58.6129 93.642 59.9356 92.0164 59.9356H89.5795V72.8012C89.5795 76.7707 86.3503 80 82.3808 80H27.6017C23.6328 80 20.4036 76.7707 20.4036 72.8012V59.9356H17.9495C16.3233 59.9356 15.0005 58.6128 15.0005 56.9878V53.5901C15.0005 51.9645 16.3233 50.6423 17.9495 50.6417H24.4841V42.4642C24.4841 37.6668 28.3877 33.7636 33.1857 33.7636H40.8119C41.5118 33.7636 42.1311 33.3351 42.3943 32.6619C42.4677 32.4781 42.5051 32.2749 42.5051 32.0562V28.7191C42.5051 28.5398 42.5429 28.3693 42.6109 28.2152C39.7164 25.7796 37.9004 22.0794 37.9004 17.8669V13.3824C37.9004 13.2139 37.9028 13.0464 37.9078 12.88C37.9004 12.8132 37.8984 12.745 37.9021 12.6757C37.9052 12.6169 37.9124 12.5592 37.9233 12.5029C38.104 9.07331 39.3493 6.11829 41.5515 3.91608C44.1497 1.31803 47.2456 0 50.7534 0C58.1342 0 64.1382 6.00277 64.1382 13.3824V17.8669ZM51.0196 31.2493C53.0393 31.2493 54.9388 30.8062 56.6319 30.0081V32.0556C56.6319 32.3895 56.6717 32.7206 56.7507 33.0443L50.7293 37.3347L44.8897 33.2391C44.8749 33.2287 44.8599 33.2187 44.8447 33.209C44.9497 32.8433 45.0037 32.4555 45.0037 32.0562V29.8091C46.7963 30.7322 48.8379 31.2493 51.0196 31.2493ZM40.5217 11.5501C40.8433 9.21255 41.7943 7.20832 43.3187 5.68341C45.4303 3.57002 47.9324 2.49921 50.7534 2.49921C55.7294 2.49921 59.9368 5.85469 61.2301 10.4216C60.0506 10.2537 58.1174 9.54129 55.9289 7.00352C55.5923 6.61475 55.0518 6.47192 54.5676 6.64142C54.0829 6.8121 53.7522 7.26251 53.7338 7.77692C53.7338 7.77692 53.7336 7.77766 53.7333 7.77911C53.7122 7.88692 52.9176 11.9403 40.5217 11.5501ZM40.3994 14.0461C40.9977 14.0653 41.5801 14.0749 42.1461 14.0749L42.146 14.0751C48.089 14.0757 52.2558 13.0131 54.5576 10.905C54.8872 10.6033 55.1521 10.3041 55.3642 10.0166C57.9026 12.3651 60.209 12.897 61.6311 12.9512C61.6367 13.0944 61.6396 13.2384 61.6396 13.383V17.8675C61.6396 23.9706 56.9749 28.7513 51.0195 28.7513C45.0641 28.7513 40.3994 23.971 40.3994 17.8675V14.0461ZM75.8559 53.1409C75.8402 53.1415 75.8244 53.1418 75.8086 53.1418C75.7926 53.1418 75.7768 53.1415 75.761 53.1409L25.7905 53.1405C25.7716 53.1414 25.7525 53.1418 25.7334 53.1418L25.7271 53.1418L25.7223 53.1418C25.7169 53.1417 25.7115 53.1416 25.7061 53.1415C25.6961 53.1413 25.6861 53.141 25.6762 53.1405L17.9495 53.1405C17.706 53.1405 17.4997 53.3461 17.4997 53.5897V56.9873C17.4997 57.2309 17.706 57.4366 17.9489 57.4371H92.0164C92.2689 57.4371 92.4656 57.2398 92.4656 56.9879V53.5903C92.4656 53.3384 92.2689 53.1411 92.0164 53.1411L75.8559 53.1409ZM74.5593 50.6417V42.4642C74.5593 39.0441 71.7768 36.2622 68.3567 36.2622H63.8321C63.792 36.385 63.7321 36.5037 63.6515 36.6136L57.3529 45.2151C57.1378 45.5091 56.8047 45.6946 56.4408 45.7224C56.4082 45.7248 56.3768 45.726 56.3448 45.726C56.0147 45.726 55.6959 45.595 55.4624 45.3603L50.7341 40.6319L46.0063 45.3597C45.771 45.5956 45.4528 45.726 45.1227 45.726L45.1226 45.7261C45.0906 45.7261 45.0592 45.7243 45.0289 45.7219C44.6657 45.6947 44.332 45.5092 44.1169 45.2158L37.5446 36.2622H33.1852C29.7651 36.2622 26.9826 39.0441 26.9826 42.4642V50.6417H74.5593ZM60.8123 36.2621L56.1984 42.563L52.6621 39.0256L58.0403 35.1934C58.789 35.8595 59.7701 36.2557 60.8123 36.2621ZM48.7994 39.0334L43.4805 35.3035C42.7475 35.9121 41.8135 36.2622 40.8113 36.2622H40.6443L45.2695 42.5638L48.7994 39.0334ZM80.3539 24.1536C80.3539 22.4824 78.9945 21.1223 77.3226 21.1223C75.6508 21.1223 74.2913 22.4823 74.2913 24.1536C74.2913 25.8243 75.6507 27.1844 77.3226 27.1844C78.9938 27.1844 80.3539 25.8249 80.3539 24.1536ZM87.0794 59.9523V72.8008C87.0794 75.3924 84.9709 77.5009 82.3793 77.5009H27.5994C25.0084 77.5009 22.8997 75.3924 22.8997 72.8008L22.9003 59.9523H87.0794Z" fill="#096142"/>
</svg>
