<svg width="111" height="80" viewBox="0 0 111 80" fill="none" xmlns="http://www.w3.org/2000/svg">
<path d="M73.8609 38.4491C65.3678 25.8637 51.2334 16.9615 36.2676 16.0931C35.677 16.0388 32.7942 16 32.0482 16H2.41954C2.15331 16.0048 1.89011 16.0574 1.6425 16.1551C1.40541 16.2558 1.19128 16.4036 1.0131 16.5893C0.905011 16.6939 0.813324 16.8142 0.741125 16.946C0.671659 17.0694 0.614405 17.1993 0.570175 17.3338C0.565569 17.3516 0.565569 17.3702 0.570175 17.388C0.534244 17.5121 0.510819 17.6393 0.500244 17.768C0.503987 17.7989 0.503987 17.8302 0.500244 17.8611C0.49802 18.0299 0.511025 18.1986 0.539098 18.3651L1.92223 26.2126L2.34183 28.5932C3.69389 34.9286 9.79368 40 16.1965 40H73.216C74.1717 40 74.5914 39.3796 73.9464 38.4491" fill="#AED877"/>
<path d="M106.76 59.517C103.951 63.7121 99.2769 66.6795 94.3279 66.969C94.1326 66.9871 93.1793 67 92.9326 67H83.1348C83.0467 66.9984 82.9597 66.9809 82.8778 66.9483C82.7994 66.9147 82.7286 66.8655 82.6697 66.8036C82.6339 66.7687 82.6036 66.7286 82.5797 66.6847C82.5568 66.6435 82.5378 66.6002 82.5232 66.5554C82.5217 66.5495 82.5217 66.5433 82.5232 66.5373C82.5113 66.496 82.5036 66.4536 82.5001 66.4107C82.5013 66.4004 82.5013 66.3899 82.5001 66.3796C82.4993 66.3234 82.5036 66.2671 82.5129 66.2116L82.9703 63.5958L83.1091 62.8023C83.5562 60.6905 85.5733 59 87.6906 59H106.546C106.862 59 107.001 59.2068 106.788 59.517" fill="#FD495C"/>
<path d="M48.5943 5.47435C47.9042 5.47435 47.3445 4.90986 47.3445 4.21247V1.26188C47.3445 0.564494 47.9042 0 48.5943 0C49.2845 0 49.8442 0.564494 49.8442 1.26188V4.21247C49.8448 4.90986 49.2851 5.47435 48.5943 5.47435Z" fill="#096142"/>
<path fill-rule="evenodd" clip-rule="evenodd" d="M78.838 20.1225V16.3655C78.8309 16.3113 78.8273 16.256 78.8273 16.1998L78.8267 5.25776C78.8267 5.20002 78.8305 5.14319 78.838 5.08752V1.89126C78.838 1.19387 79.3977 0.629378 80.0878 0.629378C80.778 0.629378 81.3377 1.19387 81.3377 1.89126V3.99587H95.9835C96.6737 3.99587 97.2334 4.56037 97.2334 5.25776V16.1992C97.2334 16.8972 96.6737 17.4616 95.9835 17.4616L95.9841 17.4617H81.3377V20.2599L89.1262 37.3429C89.1491 37.3862 89.1692 37.4305 89.1866 37.4754L96.4261 53.3541L99.7085 48.8086C100.725 47.4013 102.294 46.5178 104.013 46.3818C105.733 46.2525 107.418 46.8751 108.638 48.1058L110.134 49.6167C110.622 50.11 110.622 50.9086 110.134 51.4013C109.645 51.8946 108.854 51.8946 108.366 51.4013L106.87 49.8904C106.168 49.1816 105.202 48.8123 104.207 48.8985C103.217 48.9763 102.314 49.4851 101.729 50.295L80.6935 79.4235C80.6098 79.554 80.5007 79.6709 80.3673 79.7663C80.185 79.8971 79.9801 79.9713 79.7725 79.9927C79.729 79.9973 79.6852 79.9996 79.6414 79.9996L79.6418 79.9995C79.4936 79.9995 79.3444 79.9729 79.2019 79.9183C78.9769 79.8328 78.774 79.6811 78.6243 79.4686L64.7457 59.7192L61.7262 61.1847C61.3153 61.3847 60.8267 61.3398 60.4562 61.0728L56.2139 57.9978L52.2445 62.9507C52.0061 63.2476 51.6492 63.42 51.2715 63.42L51.2632 63.4199C50.8825 63.4175 50.5238 63.2397 50.289 62.9381L47.3924 59.2181L32.7601 79.4805C32.3528 80.0438 31.5725 80.1695 31.0133 79.7565C30.456 79.3458 30.3333 78.5574 30.74 77.9941L46.3048 56.4405C46.3293 56.4022 46.3561 56.3651 46.3851 56.3293L51.2096 49.6484C52.332 48.0932 54.0656 47.203 55.9694 47.203H56.0092C57.9285 47.2156 59.6669 48.1285 60.7779 49.7112L63.0411 52.9315L78.838 20.1225ZM81.3377 6.5201V14.9373H94.7343V6.5201H81.3377ZM94.7409 55.688L87.5546 39.9267L84.2835 42.5618C84.0559 42.7456 83.7802 42.8378 83.5044 42.8378L83.5046 42.8376C83.2324 42.8376 82.9597 42.7478 82.7332 42.5688L78.8733 39.5111L75.9201 41.6355C75.3894 42.0174 74.6584 41.9229 74.2392 41.4212L72.4164 39.2363L64.6913 55.2796L66.1414 57.343C66.1647 57.3731 66.1868 57.4045 66.2076 57.4372L79.6576 76.5756L94.7409 55.688ZM83.498 39.9663L86.4783 37.5661L80.0302 23.424L73.6126 36.7519L75.4084 38.9048L78.1844 36.9085C78.635 36.5846 79.2451 36.5978 79.6809 36.9432L83.498 39.9663ZM62.2154 56.1186C62.2212 56.1271 62.2271 56.1355 62.2331 56.1439L63.2784 57.6313L61.3117 58.5862L56.7125 55.2525C56.176 54.864 55.4289 54.964 55.0121 55.4842L51.2856 60.1343L48.9227 57.099L53.2297 51.1347C53.876 50.2386 54.8739 49.7274 55.9702 49.7274H55.9927C57.098 49.7346 58.0987 50.2613 58.7391 51.1718L62.2154 56.1186Z" fill="#096142"/>
<path fill-rule="evenodd" clip-rule="evenodd" d="M40.8622 17.4103C40.8622 21.7168 44.3326 25.2205 48.5985 25.2205C52.8634 25.2205 56.3336 21.7168 56.3342 17.4103C56.3342 13.1026 52.864 9.59895 48.5985 9.59895C44.3325 9.59895 40.8622 13.1028 40.8622 17.4103ZM43.3626 17.4103C43.3626 14.4945 45.7116 12.1234 48.5985 12.1234C51.4853 12.1234 53.8339 14.4945 53.8339 17.4103C53.8339 20.3249 51.4855 22.6961 48.5985 22.6961C45.7118 22.6961 43.3626 20.3251 43.3626 17.4103Z" fill="#096142"/>
<path d="M47.3445 33.5441C47.3445 34.2415 47.9042 34.806 48.5943 34.806C49.2851 34.806 49.8448 34.2415 49.8442 33.5441V30.5935C49.8442 29.8961 49.2845 29.3316 48.5943 29.3316C47.9042 29.3316 47.3445 29.8961 47.3445 30.5935V33.5441Z" fill="#096142"/>
<path d="M57.8336 9.33782C57.514 9.33782 57.1939 9.2145 56.9496 8.96787C56.461 8.4746 56.461 7.67606 56.9496 7.18333L59.0158 5.09659C59.5044 4.60332 60.2953 4.60332 60.7834 5.09659C61.2719 5.58985 61.2719 6.3884 60.7834 6.88113L58.7171 8.96787C58.4728 9.2145 58.1532 9.33782 57.8336 9.33782Z" fill="#096142"/>
<path d="M36.4065 29.7084C36.6508 29.955 36.971 30.0784 37.2906 30.0784C37.6102 30.0784 37.9298 29.955 38.1741 29.7084L40.2403 27.6217C40.7289 27.1289 40.7289 26.3304 40.2403 25.8371C39.7523 25.3439 38.9613 25.3439 38.4728 25.8371L36.4065 27.9239C35.918 28.4166 35.918 29.2151 36.4065 29.7084Z" fill="#096142"/>
<path d="M64.5815 18.6646H61.6597C60.9695 18.6646 60.4098 18.1001 60.4098 17.4028C60.4098 16.7054 60.9695 16.1409 61.6597 16.1409H64.5815C65.2717 16.1409 65.8314 16.7054 65.8314 17.4028C65.8314 18.1001 65.2717 18.6646 64.5815 18.6646Z" fill="#096142"/>
<path d="M32.6084 18.6646H35.5302C36.2204 18.6646 36.7801 18.1001 36.7801 17.4028C36.7801 16.7054 36.2204 16.1409 35.5302 16.1409H32.6084C31.9182 16.1409 31.3585 16.7054 31.3585 17.4028C31.3585 18.1001 31.9182 18.6646 32.6084 18.6646Z" fill="#096142"/>
<path d="M59.8993 30.0784C59.5797 30.0784 59.2595 29.955 59.0152 29.7084L56.949 27.6217C56.4604 27.1284 56.4604 26.3298 56.949 25.8371C57.4376 25.3439 58.2285 25.3439 58.7165 25.8371L60.7828 27.9239C61.2713 28.4171 61.2713 29.2157 60.7828 29.7084C60.5391 29.955 60.2194 30.0784 59.8993 30.0784Z" fill="#096142"/>
<path d="M38.4728 8.96787C38.7171 9.2145 39.0372 9.33782 39.3568 9.33782C39.677 9.33782 39.9966 9.21452 40.2409 8.96848C40.7295 8.47575 40.7295 7.67721 40.2409 7.18394L38.1747 5.0972C37.6866 4.60393 36.8957 4.60393 36.4071 5.0972C35.9186 5.58993 35.9186 6.38848 36.4071 6.88174L38.4728 8.96787Z" fill="#096142"/>
</svg>
