<svg width="83" height="80" viewBox="0 0 83 80" fill="none" xmlns="http://www.w3.org/2000/svg">
<path d="M27.7596 60.517C24.951 64.7121 20.2769 67.6795 15.3279 67.969C15.1326 67.9871 14.1793 68 13.9326 68H4.13477C4.04673 67.9984 3.95969 67.9809 3.87781 67.9483C3.79941 67.9147 3.7286 67.8655 3.66967 67.8036C3.63393 67.7687 3.60361 67.7286 3.57974 67.6847C3.55677 67.6435 3.53783 67.6002 3.52321 67.5554C3.52168 67.5495 3.52168 67.5433 3.52321 67.5373C3.51132 67.496 3.50358 67.4536 3.50008 67.4107C3.50132 67.4004 3.50132 67.3899 3.50008 67.3796C3.49935 67.3234 3.50365 67.2671 3.51293 67.2116L3.97032 64.5958L4.10907 63.8023C4.55618 61.6905 6.57331 60 8.69065 60H27.5463C27.8623 60 28.0011 60.2068 27.7878 60.517" fill="#FD495C"/>
<path d="M82.3024 12.7754C78.0552 19.0682 70.9868 23.5192 63.5027 23.9535C63.2074 23.9806 61.7657 24 61.3927 24H47.4599C47.3268 23.9976 47.1952 23.9713 47.0713 23.9225C46.9528 23.8721 46.8457 23.7982 46.7566 23.7053C46.7025 23.653 46.6567 23.5929 46.6206 23.527C46.5858 23.4653 46.5572 23.4004 46.5351 23.3331C46.5328 23.3242 46.5328 23.3149 46.5351 23.306C46.5171 23.244 46.5054 23.1803 46.5001 23.116C46.502 23.1005 46.502 23.0849 46.5001 23.0695C46.499 22.9851 46.5055 22.9007 46.5196 22.8174L47.2112 18.8937L47.4211 17.7034C48.0972 14.5357 51.1476 12 54.3495 12H81.9799C82.4578 12 82.6677 12.3102 82.3451 12.7754" fill="#AED877"/>
<path fill-rule="evenodd" clip-rule="evenodd" d="M31.3419 68.7064C31.8275 69.0603 32.3961 69.24 32.97 69.24C33.4106 69.24 33.8542 69.1339 34.2633 68.918L40.2718 65.7602C40.3501 65.7187 40.4473 65.7187 40.5256 65.7602L46.5311 68.918C47.4726 69.4149 48.5944 69.3343 49.4536 68.707C50.3139 68.0821 50.7366 67.0421 50.5558 65.9932L49.4032 59.2998C49.3883 59.2103 49.418 59.119 49.4826 59.0567L54.351 54.3182C55.1128 53.5758 55.3826 52.4849 55.053 51.4728C54.7245 50.4607 53.8653 49.7379 52.8117 49.5867L46.0965 48.6161C46.0063 48.6031 45.9292 48.5468 45.8889 48.4661L42.8847 42.3799C42.4144 41.4253 41.4611 40.833 40.398 40.833C39.3337 40.833 38.3803 41.4254 37.9107 42.3794L34.9064 48.4645C34.8661 48.5463 34.789 48.602 34.7001 48.6157L27.9848 49.5862C26.9313 49.7374 26.0722 50.4614 25.7425 51.4735C25.4128 52.4856 25.6826 53.5754 26.4457 54.3189L31.3128 59.0562C31.3774 59.1197 31.4071 59.2104 31.3923 59.2982L30.2396 65.9926C30.0588 67.0414 30.4815 68.0814 31.3419 68.7064ZM40.1514 43.4858C40.2018 43.3844 40.2848 43.3334 40.3981 43.3334L40.3979 43.3333C40.5099 43.3333 40.5929 43.3842 40.6421 43.4856L43.6464 49.573C44.052 50.3918 44.8328 50.9586 45.7375 51.089L52.454 52.0596C52.5655 52.0768 52.6396 52.1391 52.6752 52.2464C52.7096 52.3543 52.6864 52.4492 52.6058 52.5274L47.7387 57.2648C47.0841 57.9017 46.7853 58.82 46.9388 59.7206V59.723L48.0915 66.4175C48.111 66.5284 48.0743 66.6191 47.983 66.6849C47.8911 66.7519 47.7938 66.7584 47.6948 66.7056L41.6881 63.5467C40.8776 63.1204 39.9112 63.1245 39.1078 63.5479L33.0992 66.7058C33.0014 66.7585 32.9036 66.752 32.8111 66.685C32.7198 66.6192 32.683 66.5285 32.7026 66.4176L33.8552 59.7231C34.0111 58.8226 33.7123 57.9036 33.0554 57.265L28.1888 52.5289C28.107 52.4494 28.0839 52.3539 28.1195 52.2466C28.1538 52.1393 28.2286 52.0771 28.3406 52.0599L35.0571 51.0893C35.9607 50.9588 36.7416 50.3926 37.1472 49.572L40.1514 43.4858Z" fill="#096142"/>
<path fill-rule="evenodd" clip-rule="evenodd" d="M30.8314 0.411473L40.3879 10.9706L49.9471 0.4122C50.1842 0.150129 50.521 0.00072724 50.8738 0.00072724H76.0473C76.5417 0.00072724 76.9894 0.292442 77.1898 0.744229C77.3902 1.19603 77.306 1.72312 76.974 2.08954L54.7639 26.6276C56.0873 27.6263 56.9443 29.2119 56.9443 30.9943V38.4951C58.2228 39.7192 59.3464 41.0426 60.2941 42.4399C63.0126 46.4657 64.448 51.1396 64.448 55.9588C64.448 69.2156 53.6629 79.9999 40.4068 79.9999L40.4059 80C27.1397 80 16.3466 69.2149 16.3466 55.9588C16.3466 51.1101 17.7832 46.435 20.5004 42.4382C21.4356 41.0629 22.5611 39.7446 23.8516 38.513V30.9943C23.8516 29.2161 24.7046 27.6336 26.0228 26.6345L3.82332 2.08881C3.49129 1.72239 3.4071 1.1953 3.6075 0.743502C3.80731 0.292292 4.25495 0 4.74943 0H29.9047C30.2575 0 30.5943 0.14882 30.8314 0.411473ZM30.5932 25.5155L41.3146 13.6718C41.318 13.6681 41.3213 13.6643 41.3246 13.6606L51.4271 2.50044H73.2295L52.397 25.5155H30.5932ZM25.9274 39.9933C25.9239 39.9964 25.9203 39.9995 25.9167 40.0026C24.6133 41.2002 23.4859 42.4931 22.5688 43.8422C20.1337 47.4228 18.8471 51.6118 18.8471 55.9577C18.8459 67.8361 28.518 77.499 40.4066 77.499C52.2849 77.499 61.9478 67.8357 61.9478 55.9577C61.9478 51.639 60.66 47.4483 58.2238 43.8398C57.2966 42.4733 56.1773 41.1808 54.8968 40.0014C54.8832 39.9902 54.8698 39.9786 54.8566 39.9668C51.1961 36.6661 46.4634 34.7082 41.5304 34.4527C40.8029 34.4172 40.0167 34.4172 39.2767 34.4527C38.9352 34.4711 38.6044 34.5055 38.2735 34.5405C33.7057 34.9834 29.3295 36.9156 25.9398 39.9823C25.9357 39.986 25.9316 39.9896 25.9274 39.9933ZM29.3505 2.50059L38.7014 12.8333L27.8001 24.8733L7.56565 2.50029L29.3505 2.50059ZM26.3512 30.9937C26.3512 29.3579 27.6818 28.0262 29.3176 28.0262L51.4781 28.0262C53.1139 28.0262 54.4444 29.3579 54.4444 30.9937V36.4294C50.7202 33.7632 46.267 32.1937 41.6541 31.9542C40.8372 31.9151 39.9852 31.9139 39.1527 31.9542C38.7573 31.9749 38.3819 32.0141 38.0197 32.0532C33.8266 32.46 29.7682 33.998 26.3512 36.4455V30.9937Z" fill="#096142"/>
</svg>
