<svg width="145" height="28" viewBox="0 0 145 28" fill="none" xmlns="http://www.w3.org/2000/svg">
<path d="M14.7695 0C7.0276 0 0.769531 6.25806 0.769531 14C0.769531 21.7419 7.0276 28 14.7695 28C22.5115 28 28.7695 21.7419 28.7695 14C28.7695 6.25806 22.5115 0 14.7695 0ZM12.834 19.9355L11.8018 22.9677C7.93082 21.6774 5.35018 18 5.35018 13.871C5.35018 9.74193 7.93082 6.12903 11.8663 4.77419L12.8986 7.80645C10.3179 8.64516 8.6405 11.0968 8.6405 13.8065C8.51147 16.6452 10.2534 19.0968 12.834 19.9355ZM17.6082 23.0323L16.6405 19.9355C19.2857 19.0968 21.0276 16.6452 21.0276 13.871C21.0276 11.0968 19.2857 8.70968 16.705 7.87097L17.7373 4.77419C21.6728 6.06452 24.3179 9.74193 24.3179 13.871C24.3179 18.129 21.6082 21.8065 17.6082 23.0323Z" fill="#00BEF0"/>
<path d="M142.966 16.5159L144.514 18.3869C142.902 20.0643 140.902 20.5159 139.289 20.5159C137.74 20.5159 136.644 20.2578 135.676 19.8062C133.611 18.774 132.579 16.7094 132.579 14.1933C132.579 10.3869 135.16 7.54816 138.966 7.54816C143.224 7.54816 145.289 10.7094 144.966 14.8385H135.289C135.353 15.8707 135.934 16.8385 136.773 17.3546C137.482 17.8062 138.321 17.9998 139.418 17.9998C140.644 17.9998 141.869 17.6127 142.966 16.5159ZM135.353 12.5804H142.192C141.998 11.0965 140.773 9.80622 138.837 9.80622C136.837 9.80622 135.611 11.2256 135.353 12.5804ZM70.3855 20.1288H73.8693L68.3855 13.7417L73.8048 7.74171H70.3855L66.2564 12.5159H65.0306V7.74171H62.3855V20.0643H65.0306V15.1611H66.2564L70.3855 20.1288ZM81.7403 9.99977C79.4822 9.99977 77.9984 11.7417 77.9984 13.9353C77.9984 16.1288 79.4822 17.8707 81.7403 17.8707C83.9984 17.8707 85.4177 16.1933 85.4177 13.9353C85.4822 11.8062 84.0629 9.99977 81.7403 9.99977ZM82.1919 7.48364C85.6758 7.48364 88.2564 10.1933 88.2564 13.9353C88.2564 17.6127 85.7403 20.4514 82.1919 20.4514C80.5145 20.4514 79.1597 19.8707 78.1919 18.8385V25.2901H75.4822V7.80622H78.1274V9.29009C79.1597 8.06429 80.5145 7.48364 82.1919 7.48364ZM117.353 7.80622H106.321V10.2578H110.514V20.1288H113.224V10.2578H117.418V7.80622H117.353ZM60.5145 7.80622H49.4177V10.2578H53.6113V20.1288H56.3209V10.2578H60.5145V7.80622ZM46.1919 13.9998C46.1919 11.6772 44.579 9.99977 42.3209 9.99977C40.1274 9.99977 38.45 11.6772 38.45 13.9998C38.45 16.3224 40.0629 17.9998 42.3209 17.9998C44.5145 17.9998 46.1919 16.3224 46.1919 13.9998ZM35.6758 13.9998C35.6758 10.3224 38.5145 7.54816 42.3209 7.54816C46.0629 7.54816 48.9661 10.3224 48.9661 13.9998C48.9661 17.6772 46.1274 20.5159 42.3209 20.5159C38.579 20.4514 35.6758 17.6772 35.6758 13.9998ZM130.45 7.80622V20.1288H127.805V12.1933L121.353 20.1288H119.224V7.80622H121.869V15.7417L128.321 7.80622H130.45ZM104.45 20.1288H101.805V7.80622H104.45V20.1288ZM97.6113 15.9353C97.6113 14.8385 96.8371 14.0643 95.8048 14.0643H93.0951V17.8707H95.8048C96.8371 17.8707 97.6113 17.032 97.6113 15.9353ZM100.256 15.9353C100.256 18.3869 98.45 20.1288 95.8693 20.1288H90.45V7.80622H93.0951V11.8062H96.1274C98.708 11.8062 100.256 13.4836 100.256 15.9353Z" fill="black"/>
</svg>
