<svg width="93" height="24" viewBox="0 0 93 24" fill="none" xmlns="http://www.w3.org/2000/svg">
<g clip-path="url(#clip0_610_23096)">
<path fill-rule="evenodd" clip-rule="evenodd" d="M8.70741 4.68918C8.63356 6.43841 8.55048 8.03071 8.45818 9.46795C8.37899 10.7657 8.25461 12.0604 8.08525 13.3495C7.92833 14.4996 7.72064 15.5178 7.4631 16.4012C7.20464 17.2855 6.87325 18.0498 6.46802 18.6941C6.02729 19.4405 5.37255 20.0374 4.58864 20.4073C4.23787 20.5735 3.89264 20.6879 3.55202 20.7526C3.21048 20.8172 2.89294 20.8495 2.59848 20.8495C2.24126 20.8557 1.8844 20.8232 1.53418 20.7526C1.24367 20.686 0.961138 20.5885 0.691406 20.4618L1.10587 17.2033C1.31983 17.2752 1.54386 17.3126 1.76956 17.3141C2.06402 17.3141 2.35479 17.2403 2.6391 17.0916C2.92525 16.9449 3.16894 16.6966 3.37294 16.3458C3.64894 15.9415 3.88802 15.3489 4.0911 14.5643C4.29418 13.7824 4.47325 12.7827 4.63018 11.567C4.78618 10.3513 4.91079 8.9021 5.0031 7.21656C5.09541 5.53195 5.1591 3.56672 5.19695 1.31995H16.6126V20.6556H12.8253V4.68918H8.70741ZM27.9591 12.3969H27.8769L26.688 14.4119L21.768 20.6556H19.5019V6.84364H23.0954V13.4178L22.9293 15.2963H23.04L24.1736 13.3347L29.1489 6.84364H31.4151V20.6556H27.8225V14.3566L27.96 12.3959L27.9591 12.3969ZM41.1702 10.0209V20.6547H37.4659V10.0209H33.5142V6.84364H45.012V10.0209H41.1693H41.1702Z" fill="#3B393F"/>
<path fill-rule="evenodd" clip-rule="evenodd" d="M53.0092 4.30247C52.6409 4.30247 52.2902 4.31632 51.9597 4.34401C51.6274 4.37171 51.3597 4.40401 51.1576 4.44094V10.7114C51.2314 10.7299 51.3412 10.7483 51.4899 10.7668C51.8064 10.8031 52.1248 10.8216 52.4434 10.8222H52.7877C53.2862 10.8222 53.7791 10.776 54.2665 10.6837C54.7334 10.6007 55.1796 10.4273 55.58 10.1732C55.9748 9.91558 56.2943 9.5579 56.5059 9.13663C56.7357 8.69447 56.852 8.11478 56.852 7.39755C56.852 6.78832 56.7412 6.28709 56.5197 5.89109C56.3104 5.50818 56.0118 5.18141 55.6492 4.93847C55.2763 4.69308 54.8584 4.52398 54.4197 4.44094C53.9553 4.34813 53.4828 4.30174 53.0092 4.30247ZM49.928 1.16771C50.8512 1.08492 51.7777 1.04334 52.7046 1.04309C53.6628 1.04309 54.6265 1.12155 55.5939 1.27848C56.5173 1.41883 57.4046 1.73769 58.2062 2.21724C58.9797 2.68709 59.6102 3.34063 60.0985 4.17786C60.5859 5.01694 60.8305 6.10709 60.8305 7.45109C60.8305 8.66678 60.62 9.69417 60.1954 10.5323C59.798 11.3381 59.221 12.042 58.5089 12.5899C57.7965 13.1302 56.9843 13.5245 56.1191 13.7502C55.213 13.9914 54.2792 14.1121 53.3416 14.1092H52.8985C52.4693 14.1081 52.0403 14.0896 51.6126 14.0539C51.4003 14.0354 51.248 14.0169 51.1566 13.9985V20.6557H47.3711V1.51386C48.1446 1.36617 48.9976 1.25078 49.928 1.16863V1.16771ZM68.0388 9.27324C66.9163 9.30647 66.3911 9.58894 65.9222 10.14C65.456 10.6883 65.1874 11.4369 65.0969 12.3757L70.2569 12.4237C70.3308 11.4296 70.2413 10.6616 69.8665 10.128C69.4908 9.59355 68.8456 9.24924 68.0388 9.27324ZM70.9059 20.5865C69.9579 20.8911 68.9489 21.0425 67.88 21.0425C65.6499 21.0425 64.0197 20.3936 62.9877 19.0948C61.9557 17.796 61.4397 16.0145 61.4397 13.7502C61.4397 11.3197 62.0212 9.49478 63.1806 8.28001C64.3419 7.06432 65.9729 6.45694 68.0729 6.45694C68.7736 6.45694 69.4557 6.54924 70.1185 6.73386C70.7658 6.90928 71.3688 7.21943 71.888 7.64401C72.4049 8.06863 72.8185 8.63909 73.1314 9.35724C73.4452 10.0754 73.6022 10.9699 73.6022 12.0379C73.6022 12.4237 73.5791 12.8382 73.5329 13.2803C73.4868 13.7216 73.4176 14.1822 73.3252 14.6612H64.9945C65.0499 15.8216 65.4136 16.6957 65.9563 17.2856C66.4973 17.8754 67.3751 18.1689 68.5871 18.1689C69.3385 18.1689 70.0031 18.0222 70.6114 17.8237C71.3683 17.5772 72.0819 17.2394 72.0819 17.2394L73.1591 19.4677C72.6062 19.9099 71.8548 20.2828 70.9068 20.5865H70.9059Z" fill="#FF4C00"/>
<path fill-rule="evenodd" clip-rule="evenodd" d="M85.2819 9.51324C85.2819 9.51324 84.1825 9.28985 83.3158 9.28985C80.8493 9.28985 79.2478 10.7012 79.2478 13.8157C79.2478 16.7382 80.469 18.1819 83.0453 18.1819C83.8853 18.1819 85.5035 17.9575 85.5035 17.9575L85.9992 20.4535C85.3225 20.6686 83.9933 20.9954 82.3936 20.9954C77.3795 20.9954 75.5352 17.3382 75.5352 13.6265C75.5352 9.88801 77.7044 6.52893 82.6927 6.52893C83.6139 6.52893 84.7512 6.63693 85.809 6.90832L85.2828 9.51324H85.2819ZM90.9588 10.7815C90.6876 10.7873 90.4179 10.7389 90.1657 10.6391C89.9134 10.5393 89.6836 10.3901 89.4897 10.2003C89.2958 10.0105 89.1418 9.78393 89.0366 9.53383C88.9315 9.28373 88.8773 9.01516 88.8773 8.74385C88.8773 8.47255 88.9315 8.20398 89.0366 7.95388C89.1418 7.70378 89.2958 7.4772 89.4897 7.28741C89.6836 7.09762 89.9134 6.94845 90.1657 6.84864C90.4179 6.74883 90.6876 6.70039 90.9588 6.70616C91.2317 6.69795 91.5034 6.74459 91.7578 6.84332C92.0123 6.94206 92.2443 7.09087 92.4402 7.28094C92.6361 7.47101 92.7918 7.69847 92.8981 7.94984C93.0045 8.20121 93.0593 8.47138 93.0593 8.74431C93.0593 9.01725 93.0045 9.28742 92.8981 9.53879C92.7918 9.79016 92.6361 10.0176 92.4402 10.2077C92.2443 10.3978 92.0123 10.5466 91.7578 10.6453C91.5034 10.744 91.2317 10.7907 90.9588 10.7825V10.7815ZM92.9979 18.8225C92.9977 19.3633 92.7826 19.8818 92.4 20.264C92.0175 20.6463 91.4987 20.8609 90.9579 20.8606C90.4171 20.8604 89.8986 20.6453 89.5164 20.2627C89.1341 19.8802 88.9195 19.3614 88.9198 18.8206C88.9199 18.5528 88.9728 18.2877 89.0753 18.0404C89.1779 17.793 89.3282 17.5683 89.5177 17.379C89.7071 17.1898 89.9319 17.0397 90.1794 16.9373C90.4268 16.835 90.692 16.7823 90.9598 16.7825C91.2275 16.7826 91.4927 16.8355 91.74 16.938C91.9874 17.0406 92.2121 17.1909 92.4013 17.3804C92.5906 17.5698 92.7407 17.7946 92.8431 18.0421C92.9454 18.2895 92.998 18.5547 92.9979 18.8225Z" fill="#FF5C33"/>
</g>
<defs>
<clipPath id="clip0_610_23096">
<rect width="92.3077" height="24" fill="white" transform="translate(0.691406)"/>
</clipPath>
</defs>
</svg>
