<svg width="96" height="40" viewBox="0 0 96 40" fill="none" xmlns="http://www.w3.org/2000/svg">
<path fill-rule="evenodd" clip-rule="evenodd" d="M0.00390625 22.5334C0.00390625 27.2468 2.63818 32 8.53715 32C14.4308 32 17.0703 27.2468 17.0703 22.5334C17.0703 19.3139 15.9879 15.6064 14.1812 12.6118C12.4242 9.72004 10.3132 8 8.53715 8C6.75604 8 4.64406 9.72004 2.90234 12.6118C1.08712 15.6064 0.00390625 19.3139 0.00390625 22.5334Z" fill="#E30611"/>
<path fill-rule="evenodd" clip-rule="evenodd" d="M60.5884 15.0717H54.6152V9.28613H72.9616V15.0717H66.9884V30.7146H60.5884V15.0717Z" fill="#E30611"/>
<path fill-rule="evenodd" clip-rule="evenodd" d="M86.6143 15.0719H96.0014V9.28613H86.6151C77.9902 9.28613 73.3857 13.5933 73.3857 20.0005C73.3857 26.4077 77.9902 30.7148 86.6151 30.7148H96.0014V24.929H86.6143C82.6236 24.929 79.9989 23.496 79.9989 20.0005C79.9989 16.505 82.6236 15.0719 86.6143 15.0719Z" fill="#E30611"/>
<path fill-rule="evenodd" clip-rule="evenodd" d="M38.188 22.0766L41.5999 9.28613H52.9093V30.7148H46.5091V13.2738L41.8569 30.7148H34.5189L29.8697 13.2849L29.8694 30.7148H23.4697V9.28613H34.7759L38.188 22.0766Z" fill="#E30611"/>
</svg>
