<svg width="120" height="58" viewBox="0 0 120 58" fill="none" xmlns="http://www.w3.org/2000/svg">
<path d="M119.381 30.7888C119.169 30.5732 118.916 30.4029 118.636 30.2883C118.357 30.1736 118.056 30.117 117.754 30.1219L17.5532 30.1219C10.3859 30.1219 3.57473 35.8002 2.06742 42.8971L1.59611 45.569L0.0453607 54.3668C-0.0269732 54.7221 -0.012628 55.0897 0.0871816 55.4383C0.186991 55.787 0.369326 56.1064 0.618747 56.3696C0.83028 56.5856 1.08366 56.7562 1.36337 56.8708C1.64309 56.9855 1.94326 57.0419 2.24551 57.0365H113.009C114.479 57.0365 115.893 55.8352 116.151 54.3668L119.954 32.7938C120.027 32.4381 120.013 32.0702 119.913 31.7211C119.813 31.3721 119.631 31.0523 119.381 30.7888Z" fill="#00953B"/>
<path d="M23.4012 45.4649C23.4012 46.6268 23.0139 47.5374 22.2394 48.1968C21.4648 48.8563 20.4181 49.186 19.0992 49.186H13.9023L15.6765 37.9601H23.5739L23.1657 40.4564H18.4084L18.1101 42.3405H19.1934C21.9986 42.3405 23.4012 43.382 23.4012 45.4649ZM18.6282 47.035C19.7377 47.035 20.2925 46.564 20.2925 45.6219C20.2925 45.1928 20.1773 44.8945 19.9471 44.727C19.7168 44.5491 19.3295 44.4601 18.7852 44.4601H17.7804L17.3722 47.035H18.6282Z" fill="white"/>
<path d="M24.062 49.186L25.3651 40.9746H28.1598L27.4376 45.6062L30.7504 40.9746H33.498L32.2106 49.186H29.4002L30.1381 44.5543L26.8253 49.186H24.062Z" fill="white"/>
<path d="M38.2703 49.3901C37.1084 49.3901 36.1507 49.0394 35.397 48.3381C34.6539 47.6264 34.2823 46.5692 34.2823 45.1666C34.2823 44.5072 34.3242 43.8739 34.4079 43.2669C34.5231 42.419 34.6853 41.6811 34.8946 41.0531C35.1144 40.425 35.4337 39.8284 35.8524 39.2632C36.271 38.698 36.8415 38.2636 37.5637 37.9601C38.286 37.646 39.1495 37.4733 40.1543 37.4419C41.5255 37.4001 42.4361 37.2954 42.8862 37.1279L42.5565 39.3103C42.3158 39.4568 41.4889 39.5877 40.0758 39.7028C38.9035 39.7866 38.0661 40.0378 37.5637 40.4564C37.0718 40.8647 36.7159 41.5607 36.4961 42.5446H36.5432C37.2654 41.5607 38.265 41.0688 39.542 41.0688C40.5259 41.0688 41.3423 41.3933 41.9913 42.0422C42.6403 42.6807 42.9647 43.5861 42.9647 44.7584C42.9647 46.1401 42.5303 47.26 41.6616 48.1183C40.8033 48.9662 39.6728 49.3901 38.2703 49.3901ZM38.3174 47.3019C38.914 47.3019 39.3641 47.0664 39.6676 46.5954C39.9816 46.1244 40.1386 45.5173 40.1386 44.7741C40.1386 44.3031 40.0183 43.921 39.7775 43.628C39.5472 43.3244 39.2018 43.1726 38.7413 43.1726C38.1656 43.1726 37.7155 43.4029 37.391 43.8635C37.0665 44.324 36.9043 44.8997 36.9043 45.5905C36.9043 46.7314 37.3753 47.3019 38.3174 47.3019Z" fill="white"/>
<path d="M47.304 44.8526C47.2202 45.2713 47.147 45.6167 47.0842 45.8888C47.0214 46.1505 46.9272 46.4802 46.8016 46.878C46.6864 47.2653 46.5504 47.5845 46.3933 47.8357C46.2468 48.0869 46.0636 48.3381 45.8438 48.5893C45.624 48.8406 45.3571 49.029 45.0431 49.1546C44.7395 49.2697 44.3994 49.3273 44.0226 49.3273C43.6353 49.3273 43.3631 49.3063 43.2061 49.2645C43.1119 49.254 43.0387 49.2278 42.9863 49.186L43.3317 46.9408C43.3422 46.9513 43.3527 46.9565 43.3631 46.9565C43.3841 46.967 43.3998 46.9722 43.4102 46.9722C43.4312 46.9827 43.5097 46.9879 43.6457 46.9879C43.8865 46.9879 44.0906 46.8623 44.2581 46.6111C44.436 46.3494 44.5668 46.0668 44.6506 45.7632C44.7343 45.4492 44.8285 45.0253 44.9332 44.4915C44.9646 44.3345 45.085 43.5756 45.2943 42.2149L45.4827 40.9746H52.2183L50.9308 49.186H48.1204L49.1252 42.89H47.618C47.5761 43.0994 47.5238 43.4291 47.461 43.8792C47.3982 44.3188 47.3458 44.6433 47.304 44.8526Z" fill="white"/>
<path d="M52.6266 49.186L53.9297 40.9746H56.7244L56.0022 45.6062L59.315 40.9746H62.0626L60.7752 49.186H57.9648L58.7027 44.5543L55.3899 49.186H52.6266Z" fill="white"/>
<path d="M66.9134 49.3744C65.7201 49.3744 64.7519 49.0656 64.0088 48.448C63.161 47.7572 62.737 46.8152 62.737 45.6219C62.737 44.2194 63.1767 43.0627 64.0559 42.1521C64.9456 41.231 66.0865 40.7705 67.4786 40.7705C68.6823 40.7705 69.661 41.0792 70.4146 41.6968C71.2415 42.3876 71.655 43.3401 71.655 44.5543C71.655 45.9883 71.2153 47.1449 70.3361 48.0241C69.4674 48.9243 68.3264 49.3744 66.9134 49.3744ZM66.9605 47.2862C67.5571 47.2862 68.0281 47.0141 68.3735 46.4698C68.6771 45.9569 68.8289 45.2818 68.8289 44.4444C68.8289 43.9734 68.7085 43.5913 68.4677 43.2983C68.2375 43.0052 67.8921 42.8586 67.4315 42.8586C66.8349 42.8586 66.3691 43.1255 66.0342 43.6594C65.7097 44.1827 65.5474 44.8474 65.5474 45.6533C65.5474 46.1453 65.6521 46.5221 65.8615 46.7838C66.0813 47.1187 66.4476 47.2862 66.9605 47.2862Z" fill="white"/>
<path d="M77.1123 42.89L76.1231 49.186H73.3127L74.3176 42.89H72.1038L72.4178 40.9746H79.6244L79.3103 42.89H77.1123Z" fill="white"/>
<path d="M82.1665 45.7946C82.1665 46.8937 82.6794 47.4432 83.7052 47.4432C84.4797 47.4432 84.9664 47.1187 85.1653 46.4698H87.8187C87.6094 47.4118 87.1384 48.134 86.4057 48.6364C85.673 49.1284 84.7466 49.3744 83.6267 49.3744C82.3706 49.3744 81.371 49.0708 80.6278 48.4637C79.8114 47.8043 79.4032 46.8675 79.4032 45.6533C79.4032 44.2089 79.8481 43.0261 80.7378 42.105C81.5856 41.2048 82.7003 40.7548 84.082 40.7548C85.4322 40.7548 86.4685 41.1577 87.1907 41.9637C87.9234 42.8115 88.1746 43.9367 87.9443 45.3393L87.8815 45.7318H82.1665V45.7946ZM84.082 42.6074C83.2341 42.6074 82.6585 43.1203 82.3549 44.1461H85.3066C85.3904 43.1203 84.9821 42.6074 84.082 42.6074Z" fill="white"/>
<path d="M91.8966 45.4021L91.2999 49.186H88.4895L89.7927 40.9746H92.5874L92.0693 44.256L94.8169 40.9746H97.8628L94.4715 44.7741L96.6695 49.186H93.6393L91.8966 45.4021Z" fill="white"/>
<path d="M99.9121 49.3744C99.1375 49.3744 98.52 49.1755 98.0594 48.7778C97.557 48.3695 97.3058 47.8095 97.3058 47.0978C97.3058 46.072 97.6931 45.3236 98.4676 44.8526C99.1899 44.4339 100.242 44.2246 101.623 44.2246H102.832L102.864 44.0048C102.927 43.5861 102.89 43.2721 102.754 43.0627C102.618 42.8429 102.34 42.733 101.922 42.733C101.273 42.733 100.875 43.0575 100.729 43.7065H98.0908C98.499 41.7387 99.8179 40.7548 102.047 40.7548C103.387 40.7548 104.361 41.0531 104.968 41.6497C105.575 42.2463 105.784 43.1465 105.596 44.3502L105.235 46.6268C105.057 47.7363 105.015 48.5893 105.109 49.186H102.393C102.34 48.8929 102.325 48.5527 102.346 48.1654C101.749 48.9714 100.938 49.3744 99.9121 49.3744ZM101.027 47.4903C101.414 47.4903 101.744 47.3856 102.016 47.1763C102.288 46.967 102.45 46.6791 102.503 46.3128L102.581 45.8103H101.702C101.126 45.8103 100.713 45.8784 100.462 46.0145C100.221 46.1505 100.1 46.386 100.1 46.721C100.1 46.9408 100.179 47.124 100.336 47.2705C100.503 47.417 100.734 47.4903 101.027 47.4903Z" fill="white"/>
<path d="M100.877 1.63007C100.665 1.41448 100.412 1.2442 100.132 1.12956C99.8523 1.01492 99.5523 0.958316 99.2501 0.963179L34.936 0.963179C27.7687 0.963179 20.9575 6.64154 19.4502 13.7384L18.9789 16.4103L17.4282 25.2081C17.3558 25.5634 17.3702 25.931 17.47 26.2796C17.5698 26.6283 17.7521 26.9477 18.0016 27.2109C18.2131 27.4269 18.4665 27.5975 18.7462 27.7121C19.0259 27.8268 19.3261 27.8832 19.6283 27.8778H94.5045C95.9748 27.8778 97.3888 26.6765 97.6472 25.2081L101.45 3.63509C101.523 3.2794 101.509 2.91147 101.409 2.56245C101.309 2.21344 101.126 1.89361 100.877 1.63007Z" fill="#096142"/>
<path d="M40.784 16.3066C40.784 17.4685 40.3967 18.3791 39.6222 19.0385C38.8476 19.698 37.8009 20.0277 36.482 20.0277H31.2852L33.0593 8.80176H40.9567L40.5485 11.2981H35.7912L35.4929 13.1822H36.5763C39.3814 13.1822 40.784 14.2237 40.784 16.3066ZM36.011 17.8767C37.1205 17.8767 37.6753 17.4057 37.6753 16.4636C37.6753 16.0345 37.5602 15.7362 37.3299 15.5687C37.0996 15.3908 36.7123 15.3018 36.168 15.3018H35.1632L34.755 17.8767H36.011Z" fill="white"/>
<path d="M41.4448 20.0277L42.7479 11.8163H45.5426L44.8204 16.4479L48.1332 11.8163H50.8808L49.5934 20.0277H46.783L47.5209 15.396L44.2081 20.0277H41.4448Z" fill="white"/>
<path d="M54.8089 20.2004C53.7413 20.2004 52.8725 19.9544 52.2026 19.4625C51.5327 18.9705 51.1664 18.2535 51.1036 17.3115H53.6942C53.7779 17.8139 54.1024 18.0651 54.6676 18.0651C54.9293 18.0651 55.1282 18.0023 55.2642 17.8767C55.4003 17.7406 55.4683 17.5731 55.4683 17.3743C55.4788 17.1545 55.416 16.9818 55.2799 16.8562C55.1543 16.7201 54.9659 16.652 54.7147 16.652H53.8669L54.1652 14.9093H55.0601C55.6358 14.9093 55.9341 14.6895 55.9551 14.2499C55.9551 14.0719 55.8923 13.9201 55.7666 13.7945C55.641 13.6689 55.4474 13.6061 55.1857 13.6061C54.5263 13.6061 54.1338 13.9044 54.0082 14.5011H51.5275C51.9671 12.5751 53.3226 11.6122 55.5939 11.6122C56.7139 11.6122 57.5251 11.8372 58.0275 12.2873C58.5299 12.7269 58.7655 13.2817 58.7341 13.9515C58.7131 14.4121 58.5456 14.8046 58.2316 15.1291C57.9176 15.4431 57.5146 15.6629 57.0227 15.7885C57.4309 15.8827 57.7554 16.0764 57.9961 16.3694C58.2369 16.6625 58.352 17.0446 58.3415 17.5156C58.3206 18.2797 57.9752 18.9182 57.3053 19.431C56.6459 19.9439 55.8137 20.2004 54.8089 20.2004Z" fill="white"/>
<path d="M64.8069 16.8719H62.4361L61.9337 20.0277H59.1233L60.4264 11.8163H63.2211L62.7344 14.9564H65.1052L65.6076 11.8163H68.4023L67.1148 20.0277H64.3044L64.8069 16.8719Z" fill="white"/>
<path d="M71.828 16.6363C71.828 17.7354 72.3409 18.2849 73.3666 18.2849C74.1412 18.2849 74.6279 17.9604 74.8268 17.3115H77.4802C77.2708 18.2535 76.7998 18.9757 76.0671 19.4782C75.3344 19.9701 74.4081 20.2161 73.2881 20.2161C72.0321 20.2161 71.0325 19.9125 70.2893 19.3054C69.4729 18.646 69.0647 17.7092 69.0647 16.495C69.0647 15.0506 69.5095 13.8678 70.3992 12.9467C71.247 12.0465 72.3618 11.5965 73.7434 11.5965C75.0937 11.5965 76.1299 11.9994 76.8521 12.8054C77.5848 13.6532 77.8361 14.7784 77.6058 16.181L77.543 16.5735H71.828V16.6363ZM73.7434 13.4491C72.8956 13.4491 72.3199 13.962 72.0164 14.9878H74.9681C75.0518 13.962 74.6436 13.4491 73.7434 13.4491Z" fill="white"/>
<path d="M82.5943 20.2004C81.3592 20.2004 80.3648 19.8811 79.6112 19.2426C78.8157 18.5832 78.4179 17.6464 78.4179 16.4322C78.4179 14.9773 78.8471 13.8102 79.7054 12.931C80.5637 12.0518 81.6732 11.6122 83.0339 11.6122C84.1643 11.6122 85.0645 11.8791 85.7344 12.4129C86.4566 12.999 86.8387 13.8573 86.8805 14.9878H84.2428C84.1905 14.5586 84.0597 14.2551 83.8503 14.0772C83.6514 13.8887 83.3584 13.7945 82.9711 13.7945C82.4163 13.7945 81.9767 14.0562 81.6522 14.5796C81.3696 15.0506 81.2283 15.6786 81.2283 16.4636C81.2283 17.5941 81.715 18.1593 82.6885 18.1593C83.5154 18.1593 84.0178 17.7092 84.1957 16.8091H86.7235C86.577 17.9081 86.1478 18.7507 85.4361 19.3368C84.7243 19.9125 83.777 20.2004 82.5943 20.2004Z" fill="white"/>
</svg>
