<svg width="117" height="34" viewBox="0 0 117 34" fill="none" xmlns="http://www.w3.org/2000/svg">
<g clip-path="url(#clip0_610_24176)">
<path d="M14.5425 4.18582H12.3041C8.19738 4.18582 6.04068 6.24528 6.04068 9.29453C6.04068 12.7553 7.53405 14.3616 10.6024 16.4228L13.1324 18.1123L5.83925 28.948H0.402344L6.9558 19.2654C3.1807 16.5877 1.06568 13.9917 1.06568 9.58278C1.06568 4.06252 4.92239 0.313477 12.2642 0.313477H19.5574V28.948H14.539L14.5425 4.18582Z" fill="#FC3F1D"/>
<path d="M60.249 8.22314H45.8571V9.99435C45.8571 15.0631 45.5254 21.6131 43.7837 25.0739H42.2539V33.6851H46.8174V28.948H57.8822V33.6851H62.4456V25.0739H60.249V8.22314ZM55.3139 25.0669H48.3455C49.7138 21.9413 50.0819 16.2925 50.0819 12.7067V12.0903H55.3087L55.3139 25.0669Z" fill="black"/>
<path d="M35.2411 16.4228H28.6477V8.22314H23.7109V28.948H28.6477V20.2969H35.2411V28.948H40.1762V8.22314H35.2411V16.4228Z" fill="black"/>
<path d="M111.634 11.6837C113.544 11.6837 115.409 12.3436 116.404 12.9617V8.79421C115.362 8.2177 113.542 7.80615 111.096 7.80615C104.792 7.80615 101.516 12.2967 101.516 18.6001C101.516 25.5217 104.709 29.3541 111.302 29.3541C113.584 29.3541 115.201 28.9425 116.404 28.0778V24.0839C115.161 24.9521 113.667 25.4852 111.594 25.4852C108.067 25.4852 106.617 22.7659 106.617 18.4803C106.617 13.9915 108.399 11.6837 111.634 11.6837Z" fill="black"/>
<path d="M100.849 8.22314H95.8723L88.9038 17.7824V8.22314H83.9688V28.948H88.9038V18.7722L96.204 28.948H101.802L93.8806 17.7824L100.849 8.22314Z" fill="black"/>
<path d="M72.5236 7.81152C66.5101 7.81152 63.6484 12.3854 63.6484 18.6471C63.6484 25.857 67.2152 29.3594 73.5203 29.3594C76.672 29.3594 78.9937 28.5346 80.4453 27.5466V23.5527C78.9103 24.5824 76.3403 25.4888 73.9336 25.4888C70.3252 25.4888 68.9568 23.7993 68.7502 20.3385H80.652V17.7337C80.652 10.5308 77.4586 7.81152 72.5236 7.81152ZM75.6353 16.711H68.7502C68.8752 13.4117 70.0769 11.6839 72.4419 11.6839C74.8886 11.6839 75.6353 13.7034 75.6353 16.2994V16.711Z" fill="black"/>
</g>
<defs>
<clipPath id="clip0_610_24176">
<rect width="116" height="33.3733" fill="white" transform="translate(0.402344 0.313477)"/>
</clipPath>
</defs>
</svg>
