<svg width="117" height="26" viewBox="0 0 117 26" fill="none" xmlns="http://www.w3.org/2000/svg">
<path fill-rule="evenodd" clip-rule="evenodd" d="M16.3985 18.4958C16.3985 22.5521 13.1682 25.4937 8.03712 25.4937C5.06188 25.4113 2.24234 24.1458 0.203125 21.9778L1.91916 20.0799C3.52531 21.6092 5.41514 23.0955 8.00316 23.0955C10.8778 23.0955 13.9772 21.4833 13.9772 18.5887C13.9772 16.1845 12.0664 14.6162 8.0511 13.3796C3.47537 11.9812 1.15103 10.0834 1.15103 6.51552C1.15103 2.98458 4.1396 0.0869141 8.3977 0.0869141C11.578 0.0869141 13.5678 1.44235 15.5045 3.17437L13.8175 5.04721C12.1194 3.54293 10.5013 2.52311 8.51556 2.52311C6.0524 2.52311 3.62119 4.11129 3.62119 6.39766C3.62119 8.46927 4.81182 9.78876 9.01499 11.0753C12.8646 12.2609 16.3985 14.0989 16.3985 18.4958ZM37.1676 2.42637C37.1676 3.53882 38.0692 4.44066 39.1814 4.44066C39.7155 4.44091 40.2278 4.22879 40.6055 3.85097C40.9832 3.47317 41.1953 2.96067 41.195 2.42637C41.195 1.31391 40.2934 0.412085 39.1814 0.412085C38.0692 0.412085 37.1676 1.31391 37.1676 2.42637ZM56.6543 0.824929H54.227V25.0958H56.6543V0.824929ZM62.3191 24.2879C62.3191 24.2879 63.8134 25.5015 68.7916 25.5015L68.7886 25.5006C73.703 25.5006 77.6914 21.9066 77.6914 16.9963C77.6914 12.0859 73.7059 8.50609 68.7916 8.50609C67.3976 8.46876 66.0136 8.7517 64.7463 9.33314V0.824929H62.3191V24.2879ZM80.5252 17.0176C80.5249 21.9301 84.5071 25.9128 89.4199 25.9133C94.333 25.9133 98.3162 21.931 98.3166 17.0183C98.3166 12.1058 94.3341 8.12343 89.4212 8.12324C84.5085 8.12307 80.5256 12.1052 80.5252 17.0176ZM113.035 25.1033H116.203L109.198 16.7599L115.731 8.93491H112.58L107.619 14.8781L102.633 8.93491H99.4645L106.044 16.7708L99.0879 25.1033H102.237L107.622 18.6528L113.035 25.1033ZM89.4352 10.5248C86.8151 10.5244 84.4527 12.1025 83.4499 14.523C82.4471 16.9436 83.0011 19.7299 84.8538 21.5826C86.7065 23.4353 89.493 23.9895 91.9135 22.9866C94.3341 21.9838 95.9122 19.6215 95.9117 17.0014C95.9111 13.4247 93.0119 10.5254 89.4352 10.5248ZM68.7913 10.9384C67.3418 10.9587 65.9321 11.4155 64.7459 12.249V22.2667C66.0031 22.8777 67.3959 23.1563 68.7913 23.0759C72.3652 23.0759 75.2638 20.5785 75.2638 17.0071C75.2638 13.4358 72.3622 10.9374 68.7883 10.9374L68.7913 10.9384ZM46.1375 0.825202H48.5647V25.0961H46.1375V0.825202ZM31.1676 25.0979L22.6773 16.6077L30.3635 8.91656H33.7955L26.1094 16.6077L34.5997 25.0979H31.1676ZM20.2425 0.824929V25.0958H22.6697V0.824929H20.2425ZM38.053 25.0979H40.4802V8.91656H38.053V25.0979Z" fill="black"/>
</svg>
