<svg width="145" height="28" viewBox="0 0 145 28" fill="none" xmlns="http://www.w3.org/2000/svg">
<path d="M14.5796 0.0219727C6.84981 0.0219727 0.601562 6.27022 0.601562 14C0.601562 21.7298 6.84981 27.978 14.5796 27.978C22.3094 27.978 28.5576 21.7298 28.5576 14C28.5576 6.27022 22.3094 0.0219727 14.5796 0.0219727ZM12.6471 19.9262L11.6165 22.9537C7.75162 21.6654 5.17502 17.9937 5.17502 13.8712C5.17502 9.74862 7.75162 6.14139 11.6809 4.78867L12.7116 7.81617C10.135 8.65357 8.46018 11.1013 8.46018 13.8068C8.33135 16.641 10.0706 19.0888 12.6471 19.9262ZM17.4139 23.0181L16.4476 19.9262C19.0886 19.0888 20.8278 16.641 20.8278 13.8712C20.8278 11.1013 19.0886 8.71798 16.512 7.88059L17.5427 4.78867C21.472 6.07697 24.113 9.74862 24.113 13.8712C24.113 18.1226 21.4076 21.7942 17.4139 23.0181Z" fill="#00BEF0"/>
<path d="M142.571 16.5122L144.117 18.3803C142.507 20.055 140.51 20.5059 138.9 20.5059C137.354 20.5059 136.259 20.2483 135.292 19.7974C133.231 18.7667 132.2 16.7055 132.2 14.1933C132.2 10.3928 134.777 7.55856 138.577 7.55856C142.829 7.55856 144.89 10.7149 144.568 14.8374H134.906C134.97 15.8681 135.55 16.8343 136.387 17.3496C137.096 17.8005 137.933 17.9938 139.028 17.9938C140.252 17.9938 141.476 17.6073 142.571 16.5122ZM134.97 12.5829H141.798C141.605 11.1014 140.381 9.81308 138.449 9.81308C136.452 9.81308 135.228 11.2302 134.97 12.5829ZM70.1044 20.1195H73.5828L68.1076 13.7424L73.5184 7.7518H70.1044L65.9819 12.5185H64.758V7.7518H62.117V20.055H64.758V15.1595H65.9819L70.1044 20.1195ZM81.4415 10.0063C79.1869 10.0063 77.7054 11.7455 77.7054 13.9356C77.7054 16.1257 79.1869 17.8649 81.4415 17.8649C83.696 17.8649 85.1131 16.1902 85.1131 13.9356C85.1775 11.8099 83.7604 10.0063 81.4415 10.0063ZM81.8924 7.49414C85.3708 7.49414 87.9474 10.1996 87.9474 13.9356C87.9474 17.6073 85.4352 20.4415 81.8924 20.4415C80.2176 20.4415 78.8649 19.8618 77.8986 18.8312V25.2727H75.1932V7.81622H77.8342V9.29776C78.8649 8.07387 80.2176 7.49414 81.8924 7.49414ZM116.998 7.81622H105.984V10.264H110.171V20.1195H112.876V10.264H117.063V7.81622H116.998ZM60.249 7.81622H49.1696V10.264H53.3566V20.1195H56.062V10.264H60.249V7.81622ZM45.9488 14C45.9488 11.6811 44.3385 10.0063 42.084 10.0063C39.8938 10.0063 38.2191 11.6811 38.2191 14C38.2191 16.319 39.8294 17.9938 42.084 17.9938C44.2741 17.9938 45.9488 16.319 45.9488 14ZM35.4492 14C35.4492 10.3284 38.2835 7.55856 42.084 7.55856C45.82 7.55856 48.7187 10.3284 48.7187 14C48.7187 17.6717 45.8844 20.5059 42.084 20.5059C38.3479 20.4415 35.4492 17.6717 35.4492 14ZM130.075 7.81622V20.1195H127.434V12.1964L120.992 20.1195H118.867V7.81622H121.508V15.7392L127.949 7.81622H130.075ZM104.115 20.1195H101.474V7.81622H104.115V20.1195ZM97.2875 15.9325C97.2875 14.8374 96.5145 14.0645 95.4839 14.0645H92.7785V17.8649H95.4839C96.5145 17.8649 97.2875 17.0275 97.2875 15.9325ZM99.9285 15.9325C99.9285 18.3803 98.1249 20.1195 95.5483 20.1195H90.1375V7.81622H92.7785V11.8099H95.806C98.3826 11.8099 99.9285 13.4847 99.9285 15.9325Z" fill="black"/>
</svg>
