<svg width="145" height="32" viewBox="0 0 145 32" fill="none" xmlns="http://www.w3.org/2000/svg">
<g clip-path="url(#clip0_610_24124)">
<path d="M85.8803 19.8882H89.2011V5.94189H79.4636V7.62508C79.4636 13.6966 78.7319 15.9809 76.4805 16.8225V19.8281C77.3248 19.7079 82.5031 18.8062 82.5594 9.78917V8.88747H85.9928V19.8882H85.8803Z" fill="#EB5F0A"/>
<path d="M67.3047 19.8882H70.6256V9.00769H76.6482V5.94189H67.3047V19.8882Z" fill="#EB5F0A"/>
<path d="M99.2751 5.82178H96.0105L90.5508 19.8884H94.0405L95.0537 17.3035H100.176L101.189 19.8884H104.735L99.2751 5.82178ZM96.0105 14.5984L97.6428 10.2101L99.2751 14.5984H96.0105Z" fill="#EB5F0A"/>
<path d="M122.016 5.94189H118.695V19.8882H121.847L127.645 11.7729V19.8882H130.909V5.94189H127.757L122.016 14.2376V5.94189Z" fill="#EB5F0A"/>
<path d="M144.024 14.2977V11.5926H137.214V9.24814H144.644V5.94189H133.949V19.8882H144.756V16.8826H137.214V14.2977H144.024Z" fill="#EB5F0A"/>
<path d="M58.6954 5.70187C56.3877 5.70187 54.3614 6.90413 53.0668 8.76765C51.6034 10.8716 49.6896 16.6425 45.7496 16.6425C43.273 16.6425 41.9221 14.6588 42.091 12.6149C42.2599 10.511 43.9484 8.948 45.8622 9.12834C46.9316 9.18845 47.8322 9.78959 48.4513 10.6913L50.4213 7.80584C49.2956 6.60357 47.8322 5.82209 46.1436 5.70187C42.3724 5.4013 39.1641 8.40698 38.8827 12.4346C38.6012 16.4622 41.4156 19.8887 45.1867 20.1892C45.4119 20.1892 45.6933 20.1892 45.9184 20.1892H45.9747C47.5508 20.1892 49.3519 19.4679 50.5339 18.5061C51.4345 17.7847 52.1099 17.0032 52.6728 16.2217C53.7985 18.5662 56.1625 20.1892 58.808 20.1892C62.5792 20.1892 65.6186 16.9431 65.6186 12.9155C65.506 8.948 62.4666 5.70187 58.6954 5.70187ZM59.7086 16.5223C59.3709 16.6425 59.0331 16.7027 58.6391 16.7027C57.1757 16.7027 55.9374 15.7408 55.3745 14.4183C55.2057 13.9374 55.0931 13.4565 55.0931 12.9756C55.0931 12.4346 55.2057 11.9537 55.3745 11.5329C55.9374 10.1503 57.1757 9.24856 58.6391 9.24856C58.9769 9.24856 59.3709 9.30868 59.7086 9.42891C61.172 9.90982 62.1852 11.2924 62.1852 13.0357C62.2414 14.6588 61.172 16.0414 59.7086 16.5223Z" fill="#EB5F0A"/>
<path d="M114.416 15.5602L114.135 15.8608C113.459 16.5221 112.615 16.8226 111.715 16.8226C109.688 16.8226 108.056 15.0793 108.056 12.9152C108.056 10.7512 109.688 9.00786 111.715 9.00786C112.728 9.00786 113.741 9.48877 114.416 10.3304L114.529 10.2101L116.161 7.80559C114.923 6.48309 113.234 5.76172 111.546 5.76172C107.831 5.76172 104.848 9.00786 104.848 12.9152C104.848 16.8827 107.887 20.0688 111.546 20.0688C113.403 20.0688 115.204 19.2272 116.499 17.6642L114.416 15.5602Z" fill="#EB5F0A"/>
<path d="M88.0742 30.0477C87.0611 30.0477 86.3294 29.146 86.3294 28.064C86.3294 26.982 87.0611 26.0802 88.018 26.0802C88.6371 26.0802 89.0874 26.3808 89.4814 26.8016L89.9317 26.2606C89.4814 25.7797 88.9185 25.3589 88.018 25.3589C86.6108 25.3589 85.5977 26.5612 85.5977 28.0039C85.5977 29.4466 86.6671 30.6489 88.018 30.6489C88.9185 30.6489 89.4814 30.2281 89.988 29.6871L89.5377 29.2062C89.1437 29.6871 88.6934 30.0477 88.0742 30.0477Z" fill="#EB5F0A"/>
<path d="M94.7183 25.479H90.6094V26.2004H92.298V30.5887H93.0297V26.2004H94.7183V25.479Z" fill="#EB5F0A"/>
<path d="M98.318 25.4189C97.4175 25.4189 96.8546 25.96 96.5169 26.5611V25.5392H95.7852V32.2118H96.5169V29.687C96.9109 30.228 97.4737 30.769 98.318 30.769C99.4438 30.769 100.569 29.8072 100.569 28.1241C100.569 26.3808 99.4438 25.4189 98.318 25.4189ZM98.1492 29.9876C97.2486 29.9876 96.4043 29.2061 96.4043 28.0038C96.4043 26.8016 97.2486 26.0201 98.1492 26.0201C99.0498 26.0201 99.8378 26.8016 99.8378 28.0038C99.8378 29.2662 99.1061 29.9876 98.1492 29.9876Z" fill="#EB5F0A"/>
<path d="M103.834 25.4189C103.159 25.4189 102.652 25.5993 102.089 25.8397L102.314 26.4409C102.765 26.2004 103.215 26.0802 103.778 26.0802C104.678 26.0802 105.185 26.5611 105.185 27.4628V27.6431C104.735 27.5229 104.341 27.4027 103.722 27.4027C102.54 27.4027 101.695 27.9437 101.695 29.0859C101.695 30.1679 102.596 30.7089 103.496 30.7089C104.341 30.7089 104.904 30.2881 105.185 29.8673V30.6488H105.86V27.4628C105.86 26.8016 105.692 26.3206 105.354 25.96C105.016 25.5993 104.51 25.4189 103.834 25.4189ZM105.185 28.7252C105.185 29.5067 104.453 30.1078 103.609 30.1078C102.99 30.1078 102.427 29.7471 102.427 29.0859C102.427 28.4847 102.934 28.0639 103.834 28.0639C104.397 28.0639 104.847 28.1842 105.241 28.3044V28.7252H105.185Z" fill="#EB5F0A"/>
<path d="M109.237 27.4628L107.83 25.479H107.042L108.843 28.0038L106.93 30.5887H107.774L109.237 28.4847L110.701 30.5887H111.545L109.631 28.0038L111.433 25.479H110.645L109.237 27.4628Z" fill="#EB5F0A"/>
<path d="M114.531 25.4189C113.068 25.4189 112.055 26.6212 112.055 28.0639C112.055 29.5067 113.068 30.7089 114.531 30.7089C115.995 30.7089 117.008 29.5067 117.008 28.0639C117.008 26.6212 115.938 25.4189 114.531 25.4189ZM114.531 30.0477C113.518 30.0477 112.786 29.146 112.786 28.0639C112.786 26.9819 113.518 26.0802 114.531 26.0802C115.544 26.0802 116.276 26.9819 116.276 28.0639C116.276 29.146 115.544 30.0477 114.531 30.0477Z" fill="#EB5F0A"/>
<path d="M121.342 27.9436C121.736 27.7633 122.13 27.4627 122.13 26.8014C122.13 26.02 121.511 25.5391 120.554 25.5391H118.246V30.6487H120.61C121.68 30.6487 122.355 30.1077 122.355 29.2661C122.355 28.4846 121.905 28.1239 121.342 27.9436ZM118.978 26.1402H120.441C121.06 26.1402 121.398 26.4408 121.398 26.8616C121.398 27.4026 121.004 27.7031 120.441 27.7031H118.978V26.1402ZM120.554 29.9274H118.978V28.3043H120.498C121.286 28.3043 121.68 28.6049 121.68 29.0858C121.623 29.6268 121.229 29.9274 120.554 29.9274Z" fill="#EB5F0A"/>
<path d="M125.447 25.4189C124.772 25.4189 124.265 25.5993 123.703 25.8397L123.928 26.4409C124.378 26.2004 124.828 26.0802 125.391 26.0802C126.292 26.0802 126.798 26.5611 126.798 27.4628V27.6431C126.348 27.5229 125.954 27.4027 125.335 27.4027C124.153 27.4027 123.309 27.9437 123.309 29.0859C123.309 30.1679 124.209 30.7089 125.11 30.7089C125.954 30.7089 126.517 30.2881 126.798 29.8673V30.6488H127.474V27.4628C127.474 26.8016 127.305 26.3206 126.967 25.96C126.629 25.5993 126.123 25.4189 125.447 25.4189ZM126.798 28.7252C126.798 29.5067 126.067 30.1078 125.222 30.1078C124.603 30.1078 124.04 29.7471 124.04 29.0859C124.04 28.4847 124.547 28.0639 125.447 28.0639C126.01 28.0639 126.461 28.1842 126.855 28.3044V28.7252H126.798Z" fill="#EB5F0A"/>
<path d="M129.672 25.479H128.996V30.5887H129.672V28.3645H132.43V30.5887H133.161V25.479H132.43V27.7032H129.672V25.479Z" fill="#EB5F0A"/>
<path d="M135.41 30.5887L138.224 26.5611V30.5887H138.956V25.479H138.28L135.41 29.5066V25.479H134.734V30.5887H135.41Z" fill="#EB5F0A"/>
<path d="M142.503 25.4189C141.208 25.4189 140.195 26.6212 140.195 28.0639C140.195 29.6269 141.265 30.7089 142.559 30.7089C143.46 30.7089 144.023 30.3483 144.529 29.7471L144.079 29.3263C143.685 29.7471 143.235 30.0477 142.559 30.0477C141.715 30.0477 140.983 29.4466 140.871 28.3645H144.642C144.642 28.2443 144.642 28.1842 144.642 28.1241C144.754 26.6212 143.91 25.4189 142.503 25.4189ZM140.983 27.7634C141.096 26.8016 141.715 26.0802 142.503 26.0802C143.46 26.0802 143.966 26.8617 144.023 27.7634H140.983Z" fill="#EB5F0A"/>
<path d="M23.965 0.41168C21.9386 0.41168 19.9123 0.9527 18.1675 2.03475C16.4226 0.9527 14.3963 0.351562 12.37 0.351562C5.95337 0.351562 0.71875 5.94213 0.71875 12.7951C0.71875 19.648 5.95337 25.2386 12.37 25.2386C14.3963 25.2386 16.4226 24.6375 18.1675 23.5554C19.9123 24.6375 21.9386 25.1785 23.965 25.1785C30.3816 25.1785 35.6162 19.5879 35.6162 12.735C35.6162 5.94213 30.3816 0.41168 23.965 0.41168ZM8.71139 12.7951C8.54253 13.3361 8.48624 13.8771 8.48624 14.4181C8.48624 17.3637 10.7377 19.7683 13.4957 19.7683C15.2969 19.7683 16.9292 18.7463 17.8298 17.1233L17.886 17.0631C17.9423 16.9429 17.9986 16.8227 18.0549 16.7025L21.0944 10.3905L21.1506 10.2703C21.4884 9.60906 22.1075 9.18827 22.8392 9.18827C23.8524 9.18827 24.6967 10.09 24.6967 11.172V11.2321V11.2922C24.6967 12.1338 24.3027 13.9372 21.7698 16.6424C18.5615 20.1289 15.5783 21.211 15.5783 21.2711C14.5652 21.752 13.4394 21.9324 12.3137 21.9324C7.58566 21.9324 3.7582 17.8446 3.7582 12.7951C3.7582 7.74554 7.58566 3.65781 12.3137 3.65781C13.2143 3.65781 14.0586 3.77804 14.9029 4.07861C11.6946 6.84384 9.61197 9.7894 8.71139 12.7951ZM27.5673 12.8552C27.7361 12.3142 27.7924 11.7731 27.7924 11.172C27.7924 8.22644 25.541 5.8219 22.7829 5.8219C21.0381 5.8219 19.3495 6.84383 18.4489 8.4669L18.3926 8.64724C18.3363 8.70735 18.28 8.82759 18.28 8.8877L15.128 15.4401C14.7903 16.1013 14.1712 16.462 13.4957 16.462C12.4826 16.462 11.6383 15.5603 11.6383 14.4783V14.4181C11.6383 13.5766 12.0886 11.7732 14.5652 9.00793C17.7735 5.52134 20.7004 4.49941 20.7566 4.49941C21.8261 4.0185 22.8955 3.77804 24.0775 3.77804C28.8056 3.77804 32.633 7.86577 32.633 12.9153C32.633 17.9649 28.8056 22.0526 24.0775 22.0526C23.177 22.0526 22.2764 21.9324 21.4321 21.6318C24.6404 18.8064 26.723 15.921 27.5673 12.8552Z" fill="#EB5F0A"/>
</g>
<defs>
<clipPath id="clip0_610_24124">
<rect width="144" height="31.2727" fill="white" transform="translate(0.800781 0.36377)"/>
</clipPath>
</defs>
</svg>
