<svg width="221" height="144" viewBox="0 0 221 144" fill="none" xmlns="http://www.w3.org/2000/svg">
<path d="M217.687 3.5695C216.552 2.41608 215.196 1.50506 213.699 0.891718C212.202 0.278381 210.595 -0.0244756 208.978 0.00154522H93.9828C55.6124 0.00154522 19.1373 30.3815 11.0679 68.3505L8.5448 82.6456L0.242833 129.715C-0.144407 131.616 -0.0675944 133.582 0.466737 135.448C1.00107 137.313 1.9772 139.022 3.31248 140.43C4.44493 141.586 5.80136 142.498 7.29882 143.112C8.79628 143.725 10.4033 144.027 12.0214 143.998H183.572C191.444 143.998 199.013 137.571 200.397 129.715L220.756 14.2966C221.144 12.3936 221.068 10.4251 220.534 8.55785C219.999 6.69057 219.023 4.97949 217.687 3.5695Z" fill="#A3D365"/>
</svg>
