<svg width="160" height="160" viewBox="0 0 160 160" fill="none" xmlns="http://www.w3.org/2000/svg">
<path d="M87.9527 63.1356C87.7487 63.1356 87.5044 63.1129 87.3052 63.0615C87.2436 63.0471 87.1546 63.022 87.0942 63.0005C86.0731 62.6587 85.2656 61.5341 85.2656 60.4489C85.2656 59.0566 86.5534 57.7599 87.9337 57.7599C89.3141 57.7599 90.6019 59.0566 90.6019 60.4489C90.6019 61.3154 90.0931 62.2153 89.3674 62.7077C89.3271 62.7352 89.2856 62.7615 89.2441 62.7866C89.1433 62.8452 89.0389 62.8977 88.9311 62.942L88.9299 62.9396C88.6216 63.0663 88.2824 63.1356 87.9527 63.1356Z" fill="white"/>
<path fill-rule="evenodd" clip-rule="evenodd" d="M133.794 52.1213C132.737 52.1213 131.755 51.4401 131.414 50.3716L130.582 47.757L106.624 55.5048C107.038 57.0876 107.258 58.7485 107.258 60.4604C107.258 67.8575 103.188 74.4884 96.7686 77.7597L125.215 154.961H157.5C158.881 154.961 160 156.088 160 157.481C160 158.873 158.881 160 157.499 160H2.49973C1.11942 160 0 158.873 0 157.481C0 156.088 1.11942 154.961 2.49973 154.961H50.996L79.3859 77.9158C74.9247 75.7379 71.5569 71.9573 69.8502 67.3978L56.9683 71.5634C56.7146 71.6447 56.4572 71.6842 56.2047 71.6842C55.1469 71.6842 54.1651 71.0026 53.8247 69.9342L52.5953 66.073L27.5183 74.183L28.8536 78.3759C29.0564 79.0129 29.0006 79.7073 28.6947 80.3001C28.3911 80.8952 27.8634 81.3434 27.2314 81.5478L19.8176 83.9249C18.8108 84.2535 17.7732 84.4161 16.7402 84.4161L16.7404 84.4176C15.1882 84.4176 13.6419 84.0483 12.2187 83.3133C9.83759 82.0883 8.07196 79.9897 7.24655 77.4057L1.31507 58.831C-0.355759 53.5019 2.55188 47.818 7.79328 46.1471L15.1928 43.7402C15.8225 43.531 16.5115 43.5872 17.102 43.8955C17.6926 44.2003 18.1385 44.7297 18.3412 45.3667L19.679 49.5676L44.757 41.4572L43.5282 37.5981C43.3254 36.9611 43.3812 36.2691 43.6859 35.6764C43.9883 35.0812 44.5136 34.633 45.1445 34.4286L118.763 10.6178L117.936 8.02172C117.734 7.38473 117.789 6.69273 118.094 6.09997C118.397 5.50481 118.923 5.05662 119.554 4.85227L133.435 0.36946C137.401 -0.922484 141.65 1.28493 142.914 5.25858L153.293 37.9312C154.581 41.8752 152.419 46.1788 148.469 47.5054C148.46 47.5101 148.451 47.5125 148.441 47.5149L134.557 51.9977C134.303 52.0802 134.047 52.1196 133.795 52.1196L133.794 52.1213ZM56.3298 154.961H86.1016V79.854C85.4277 79.7909 84.7643 79.6928 84.1129 79.5597L56.3298 154.961ZM91.1011 154.961H119.882L92.0723 79.487C91.7519 79.5568 91.4278 79.618 91.1011 79.6704V154.961ZM68.7045 62.4757C68.6377 61.8121 68.6036 61.1396 68.6036 60.4604C68.6036 49.7199 77.2742 40.9822 87.9314 40.9822C95.1137 40.9822 101.393 44.9509 104.725 50.8267L129.056 42.96L120.29 15.4174L49.0518 38.4572L50.25 42.2203C50.2614 42.2519 50.2723 42.2838 50.2826 42.3162L56.5924 62.1336C56.6024 62.1653 56.6119 62.197 56.6207 62.2289L57.8199 65.9954L68.7045 62.4757ZM73.9912 63.8256C73.9745 63.7179 73.9506 63.6101 73.9194 63.5027C73.7122 62.5182 73.6043 61.4993 73.6043 60.4588C73.6043 52.497 80.0315 46.0206 87.9314 46.0206C93.8179 46.0206 98.8875 49.618 101.089 54.7463C101.119 54.8312 101.154 54.9135 101.192 54.993C101.879 56.6798 102.258 58.5256 102.259 60.459C102.259 66.3269 98.8088 71.5413 93.3861 73.775C91.9156 74.4443 90.2414 74.8159 88.5433 74.853L88.5258 74.8536C88.3729 74.8585 88.0671 74.8685 87.9314 74.8972C86.0708 74.8972 84.3193 74.5554 82.6674 73.861C78.2265 72.1146 75.0521 68.3528 73.9912 63.8256ZM25.99 69.384L21.207 54.3654L46.285 46.2557L51.0673 61.2745L25.99 69.384ZM15.4466 52.7648L14.3463 49.3096L9.31609 50.9457C6.6895 51.7823 5.24277 54.6291 6.08002 57.2967L12.0066 75.8594C12.4217 77.1609 13.3051 78.2138 14.4957 78.8269C15.6756 79.4376 17.0239 79.5452 18.2891 79.1269L23.3266 77.5099L22.2295 74.0649C22.0799 73.8557 21.9598 73.6197 21.8774 73.3609L15.5664 53.5443C15.4855 53.29 15.4457 53.0269 15.4466 52.7648ZM134.594 43.8129C134.623 43.903 134.646 43.9942 134.665 44.086L135.412 46.4336L146.898 42.7252C148.236 42.2675 148.972 40.8202 148.539 39.4901L138.153 6.79907C137.737 5.49281 136.277 4.74705 134.961 5.17012L123.461 8.88414L124.214 11.2484C124.245 11.3219 124.273 11.3971 124.298 11.4737L134.594 43.8129Z" fill="white"/>
</svg>
