<svg width="211" height="101" viewBox="0 0 211 101" fill="none" xmlns="http://www.w3.org/2000/svg">
<path d="M61.2308 38.6754C61.3394 38.9776 61.2049 39.2483 60.8272 39.4875C59.7183 40.0884 58.4675 41.2931 57.0748 43.1019C55.6753 44.8849 54.6021 46.6494 53.8552 48.3955C52.3119 52.0115 51.1783 55.7662 50.4547 59.6595C51.2895 59.6843 52.4259 59.7525 53.8638 59.8641C54.4411 59.9579 54.7196 60.1731 54.6994 60.5098C54.6893 60.6782 54.5916 60.8286 54.4062 60.9611C54.1882 61.0747 53.9495 61.1111 53.69 61.0702C53.4495 60.9966 52.3122 60.8734 50.2781 60.7007C49.8459 62.6938 49.1705 65.9944 48.2519 70.6025C47.7365 73.4185 47.1159 75.1722 46.3901 75.8636C45.9132 76.3503 45.1168 76.8812 44.0009 77.4563C42.9108 78.0244 42.0275 78.3853 41.3509 78.539C40.9645 78.6426 40.7506 78.6171 40.7092 78.4625C40.6747 78.3337 40.8076 78.1601 41.1079 77.9415C42.3917 76.9626 43.4462 75.4377 44.2717 73.3668C45.6228 69.8576 47.0006 65.6234 48.4049 60.6642C45.5328 60.6608 42.6798 60.8317 39.8459 61.1769C38.627 66.0036 36.6458 70.5099 33.9024 74.6959C31.7334 78.0378 29.1576 80.84 26.1748 83.1024C23.4478 85.1858 20.7191 86.5934 17.9888 87.325C14.2281 88.3326 11.4397 87.9203 9.62357 86.0879C8.8995 85.3432 8.40978 84.4944 8.15442 83.5414C7.55396 81.3004 8.21379 78.6113 10.1339 75.4741C11.6581 73.0228 13.4824 70.9189 15.6069 69.1626C15.0718 68.5053 14.6767 67.7002 14.4213 66.7471C13.9382 64.9441 13.9881 62.9153 14.5712 60.6609C15.197 58.2571 16.3615 55.9573 18.0646 53.7617C19.7042 51.6383 21.6782 49.7842 23.9867 48.1994C26.1991 46.668 28.4386 45.5986 30.7053 44.9912C33.3584 44.2803 35.5683 44.3369 37.3352 45.161C38.7823 45.8224 39.7958 47.2349 40.3755 49.3985C41.1485 52.2834 41.0472 55.8719 40.0715 60.164C42.9895 59.8239 45.8683 59.6461 48.7077 59.6307C49.8674 55.5101 51.0828 52.0096 52.3539 49.1291C53.5377 46.4377 54.928 44.105 56.5248 42.1311C57.9897 40.3859 59.3985 39.1526 60.7512 38.4312C60.995 38.3107 61.1549 38.3921 61.2308 38.6754ZM35.9781 45.8146C34.8989 45.4963 33.5995 45.5408 32.0798 45.9481C30.3025 46.4243 28.445 47.3223 26.5072 48.6421C24.5883 49.9293 22.9882 51.3243 21.7068 52.8272C19.9503 54.9267 18.7061 57.2892 17.974 59.9148C17.2351 62.5146 17.114 64.7419 17.611 66.5964C17.6938 66.9055 17.8024 67.2077 17.9367 67.503C21.9686 64.9319 26.7253 62.9533 32.2067 61.5674C32.7443 60.0706 32.9813 58.5853 32.9177 57.1116C32.9172 56.6976 33.0423 56.4432 33.2929 56.3484C33.396 56.3208 33.5034 56.3611 33.6152 56.4692C33.7081 56.6099 33.7702 56.8417 33.8015 57.1646C33.9525 58.4493 33.8236 59.8228 33.4148 61.2851C34.9741 60.9225 36.7378 60.6018 38.7061 60.3229C39.8552 55.9567 40.0743 52.447 39.3634 49.794C38.8043 47.7076 37.6759 46.3811 35.9781 45.8146ZM31.6928 62.7404C26.5292 64.1792 22.1435 66.0997 18.5357 68.502C19.666 69.9384 21.4031 70.3426 23.7471 69.7145C26.2971 69.0313 28.4108 67.5953 30.0882 65.4066C30.7141 64.5486 31.249 63.6599 31.6928 62.7404ZM38.4032 61.3564C36.5707 61.6266 34.7718 61.9706 33.0064 62.3884C32.5544 63.5862 31.9108 64.7387 31.0755 65.846C29.1393 68.4077 26.5999 70.1096 23.4574 70.9517C20.7013 71.6902 18.3674 71.3769 16.4556 70.0118C15.7279 70.5933 15.0493 71.2031 14.4197 71.8411C12.6834 73.6039 11.3397 75.4409 10.3887 77.3522C9.32447 79.4594 8.97872 81.2085 9.35142 82.5995C9.52397 83.2434 9.86302 83.7875 10.3686 84.2318C11.5963 85.3108 13.5368 85.4949 16.1898 84.784C19.255 83.9627 22.563 82.1929 26.1138 79.4746C29.6903 76.7494 32.4138 73.88 34.2843 70.8666C35.9781 68.1213 37.3511 64.9512 38.4032 61.3564ZM61.1283 70.5066C61.1753 70.9909 61.0891 71.4419 60.8697 71.8596C60.6434 72.2515 60.3371 72.4992 59.9507 72.6028C59.5901 72.6994 59.2525 72.6242 58.9378 72.3772C58.642 72.0976 58.4707 71.7156 58.4237 71.2312C58.3768 70.7469 58.4664 70.3088 58.6927 69.9168C58.9378 69.4923 59.2407 69.2317 59.6013 69.135C59.9877 69.0315 60.3287 69.1196 60.6245 69.3992C60.9134 69.6531 61.0813 70.0222 61.1283 70.5066ZM101.299 32.5359C101.768 34.2874 101.606 36.4151 100.814 38.9188C99.9243 41.7799 98.3234 44.6659 96.0113 47.5769C97.056 47.7663 97.8621 48.199 98.4298 48.8752C98.9045 49.4105 99.2489 50.0775 99.4628 50.876C100.049 53.0654 99.7542 56.0847 98.577 59.9339C97.6067 63.0098 96.3613 65.8834 94.8409 68.5546C95.9954 68.7422 96.834 68.9868 97.3566 69.2885C97.7158 69.4959 97.7977 69.75 97.6022 70.0509C97.3502 70.4497 96.9921 70.5042 96.528 70.2145C96.0896 69.9178 95.3198 69.7238 94.2186 69.6324C91.4518 74.3492 87.8671 78.1257 83.4645 80.9618C82.1651 81.7793 80.6139 82.4296 78.8108 82.9127C75.1789 83.8859 73.1746 83.3601 72.7977 81.3353C72.3518 79.0529 73.9626 76.5645 77.6302 73.8702C80.6714 71.6197 83.6602 70.1011 86.5966 69.3143C88.9148 68.6931 91.1286 68.4036 93.2381 68.4457C94.3469 66.2989 95.2262 63.9651 95.8759 61.4444C96.6709 58.3326 96.82 55.8494 96.3231 53.9949C95.8813 52.3463 94.8502 51.2285 93.2297 50.6412C89.8257 54.0104 86.6941 56.078 83.835 56.8441C82.7789 57.1271 82.0892 57.0772 81.7658 56.6946C81.5353 56.4526 81.3821 56.19 81.3062 55.9067C80.899 54.3869 82.1534 52.629 85.0695 50.6329C86.7257 49.499 88.7388 48.6145 91.1085 47.9795C92.4737 47.6137 93.6836 47.4414 94.7383 47.4624C96.7726 44.9572 98.2905 42.3281 99.2921 39.5751C100.294 36.822 100.57 34.6084 100.122 32.9341C99.4659 30.4871 97.1676 29.7916 93.2266 30.8476C91.6038 31.2824 90.0011 31.9465 88.4184 32.8399C85.3491 34.5733 82.9133 36.6616 81.1109 39.1047C79.3907 41.4429 78.7516 43.4363 79.1933 45.0848C79.3106 45.5227 79.5275 45.9201 79.844 46.277C80.7006 47.207 82.0175 47.4339 83.7948 46.9576C85.0312 46.6263 86.3531 45.9961 87.7605 45.0668C89.0461 44.1978 90.1109 43.2775 90.9548 42.306C91.5003 41.6629 91.8685 41.44 92.0594 41.6373C92.3225 41.8981 92.2062 42.2882 91.7104 42.8075C90.7583 43.8908 89.5434 44.9204 88.0656 45.8961C86.4024 47.0043 84.8238 47.7586 83.3299 48.1589C81.1662 48.7386 79.467 48.4761 78.2323 47.3714C77.5101 46.7367 77.0248 45.9557 76.7763 45.0284C76.2587 43.0965 76.7946 40.9238 78.3841 38.5102C79.9924 36.0639 82.2162 34.0601 85.0555 32.4987C87.2853 31.2386 89.4435 30.329 91.5299 29.77C93.6935 29.1902 95.5794 29.0162 97.1875 29.2479C99.4244 29.5596 100.795 30.6556 101.299 32.5359ZM91.9539 50.3619C90.9557 50.2428 89.8385 50.349 88.6021 50.6803C87.7263 50.9149 86.8876 51.2363 86.0859 51.6443C84.9631 52.1937 84.0621 52.8492 83.3828 53.611C82.7223 54.3401 82.528 54.9029 82.7999 55.2994C82.9788 55.5551 83.3774 55.6001 83.9956 55.4345C86.1335 54.8616 88.7863 53.1708 91.9539 50.3619ZM92.76 69.4434C90.8516 69.4303 88.8928 69.6928 86.8837 70.2312C85.1064 70.7074 83.3972 71.3863 81.7561 72.2677C79.6085 73.4229 77.8778 74.7425 76.5637 76.2265C75.2566 77.7362 74.6569 79.0012 74.7646 80.0214C74.8498 80.8544 75.3761 81.376 76.3434 81.5861C77.1939 81.7723 78.276 81.6895 79.5897 81.3375C80.8003 81.0131 81.9661 80.5213 83.087 79.862C86.9303 77.6175 90.1547 74.1446 92.76 69.4434ZM121.955 48.866C121.865 49.2492 121.585 49.7519 121.117 50.3743C120.649 50.9967 120.013 51.816 119.208 52.8321C117.98 54.4311 116.748 55.3963 115.512 55.7275C115.074 55.8449 114.593 55.9047 114.069 55.9071C112.687 57.9614 111.21 59.1991 109.639 59.6201C108.737 59.8617 107.85 59.7958 106.977 59.4223C106.013 59.0181 105.331 58.069 104.93 56.575C104.413 54.6432 104.4 51.9687 104.892 48.5515C105.344 45.3937 106.128 42.1883 107.244 38.9352C108.656 34.8298 110.22 31.2911 111.936 28.3191C113.671 25.3144 115.156 23.6464 116.393 23.3151C117.011 23.1494 117.396 23.35 117.548 23.9166C117.817 24.9212 117.423 27.056 116.365 30.321C115.468 33.1563 114.324 36.0993 112.933 39.15C110.55 44.3714 108.334 48.361 106.284 51.1187C106.198 52.5497 106.283 53.7417 106.539 54.6947C106.987 56.369 107.92 57.0164 109.336 56.6368C110.006 56.4573 110.717 56.0184 111.468 55.3201C110.372 54.7305 109.672 53.8691 109.368 52.7357C108.899 50.9842 109.206 48.8864 110.291 46.4425C111.368 43.9728 112.718 42.5205 114.341 42.0857C114.753 41.9753 115.164 41.9619 115.573 42.0456C116.423 42.2318 116.997 42.8787 117.293 43.9863C117.666 45.3772 117.602 47.1474 117.101 49.297C116.601 51.4465 115.804 53.3163 114.712 54.9066C114.925 54.8771 115.147 54.8313 115.379 54.7692C116.409 54.4931 117.424 53.6966 118.424 52.3796C120.21 50.0791 121.056 48.8585 120.963 48.7177C121.069 48.496 121.2 48.3645 121.354 48.323C121.509 48.2816 121.662 48.3373 121.813 48.49C121.958 48.6169 122.005 48.7423 121.955 48.866ZM115.937 25.632C115.216 25.8253 114.243 27.0383 113.019 29.2711C111.607 31.8306 110.224 35.1689 108.87 39.2863C107.668 42.8383 106.879 46.0729 106.501 48.9901C108.279 46.2499 110.088 42.8526 111.928 38.7982C115.245 31.3942 116.741 27.0868 116.416 25.8762C116.354 25.6444 116.194 25.563 115.937 25.632ZM114.481 42.9178C113.786 43.1041 113.074 43.695 112.347 44.6905C111.639 45.6533 111.083 46.8237 110.679 48.2018C110.202 49.8205 110.115 51.1966 110.419 52.3299C110.681 53.3087 111.275 54.0329 112.202 54.5025C112.811 53.7871 113.366 52.9757 113.868 52.0681C114.465 50.9972 114.985 49.5881 115.427 47.8406C115.913 45.9436 116.038 44.5572 115.804 43.6815C115.617 42.986 115.177 42.7314 114.481 42.9178ZM136.801 43.9356C137.114 44.0726 137.139 44.4247 136.877 44.9919C136.768 45.4077 135.739 46.9257 133.791 49.5459C131.16 52.708 128.543 54.6376 125.942 55.3347C124.963 55.597 124.083 55.6117 123.303 55.3791C122.068 54.9923 121.263 54.1035 120.891 52.7126C120.277 50.4201 120.855 47.6839 122.625 44.5039C123.712 42.5839 125.039 40.8895 126.605 39.4206C128.172 37.9518 129.573 37.0517 130.81 36.7204C131.969 36.4099 132.642 36.6023 132.828 37.2978C133.014 37.9932 132.691 39.1565 131.858 40.7877C131.106 42.204 130.26 43.4796 129.322 44.6144C127.718 46.5626 125.871 48.0652 123.78 49.1224C123.736 49.99 123.797 50.7328 123.963 51.351C124.225 52.3298 124.741 52.9648 125.509 53.2559C126.179 53.4904 126.9 53.5041 127.673 53.2971C129.373 52.8416 131.171 51.4626 133.066 49.1603C134.653 46.9408 135.614 45.4271 135.949 44.6194C136.263 44.0384 136.547 43.8105 136.801 43.9356ZM131.192 37.529C130.497 37.7154 129.596 38.3709 128.489 39.4957C127.319 40.6926 126.304 42.0552 125.443 43.5833C124.715 44.8828 124.212 46.3563 123.936 48.004C125.563 47.071 127.1 45.7482 128.546 44.0356C129.465 42.9334 130.289 41.7326 131.018 40.4331C131.772 39.1267 132.087 38.2417 131.963 37.7781C131.887 37.4947 131.63 37.4117 131.192 37.529ZM154.186 40.5197C154.299 40.7377 153.342 42.0573 151.312 44.4783C149.937 46.1444 148.975 47.2441 148.428 47.7772C147.009 49.1789 145.569 50.0893 144.108 50.5085C142.197 51.1034 140.655 51.1714 139.483 50.7124C138.311 50.2535 137.373 49.2763 136.668 47.781C136.502 48.2948 136.346 48.7923 136.199 49.2734C136.07 49.7219 135.948 50.1412 135.832 50.5313C135.207 52.6311 134.568 54.6245 133.914 56.5114C133.26 58.3982 132.582 60.195 131.88 61.9015C129.843 66.9748 128.194 69.6805 126.932 70.0187C126.34 70.1774 125.95 69.909 125.764 69.2136C125.212 67.1529 127.319 61.1082 132.086 51.0794C132.61 49.9451 133.298 48.546 134.15 46.8822C134.995 45.1926 136.013 43.222 137.204 40.9703C137.684 39.1575 138.062 37.7863 138.338 36.8567C138.606 35.9013 138.756 35.3781 138.787 35.287C138.893 35.0653 139.259 34.8845 139.884 34.7446C140.542 34.6236 140.865 34.6472 140.855 34.8156C140.818 34.8809 140.661 35.3784 140.385 36.308C141.703 34.6299 143.005 33.6183 144.293 33.2732C144.757 33.149 145.19 33.1158 145.592 33.1737C146.611 33.3701 147.31 34.1766 147.689 35.5933C148.007 36.7781 148.096 38.245 147.957 39.9938C147.879 40.7325 147.778 41.4361 147.653 42.1044C147.555 42.7659 147.416 43.3827 147.238 43.955C146.6 46.0033 145.674 47.7007 144.462 49.0471C145.183 48.8539 145.981 48.4329 146.856 47.7843C148.236 46.752 149.524 45.4269 150.719 43.8091C152.736 41.0325 153.58 39.854 153.25 40.2735C153.401 40.0122 153.554 39.8609 153.708 39.8195C153.992 39.7435 154.168 39.8344 154.237 40.0919C154.278 40.2465 154.261 40.3891 154.186 40.5197ZM144.204 34.3323C143.122 34.6222 141.502 36.3539 139.343 39.5275L137.166 46.2396C137.31 47.0846 137.623 47.8426 138.107 48.5136C138.697 49.377 139.379 49.7051 140.151 49.498C141.697 49.0839 143.173 47.0732 144.581 43.466C145.864 40.1131 146.239 37.445 145.708 35.4616C145.452 34.5086 144.951 34.1321 144.204 34.3323ZM136.173 44.8494C135.05 46.9447 134.038 49.0931 133.137 51.2946C132.372 53.0734 131.625 54.8195 130.897 56.533C130.176 58.2722 129.432 60.0312 128.667 61.81C127.394 64.9945 126.837 66.883 126.996 67.4755C127.065 67.733 127.177 67.8411 127.331 67.7997C127.975 67.6272 129.22 65.2646 131.064 60.7121C131.871 58.6739 132.564 56.8316 133.145 55.1853C133.732 53.5648 134.205 52.0852 134.564 50.7467C134.716 50.1813 134.927 49.421 135.195 48.4656C135.457 47.4844 135.783 46.279 136.173 44.8494ZM169.703 35.1195C170.016 35.2566 170.041 35.6087 169.779 36.1759C169.67 36.5917 168.641 38.1097 166.693 40.7299C164.061 43.892 161.445 45.8216 158.843 46.5187C157.865 46.7809 156.985 46.7957 156.205 46.563C154.969 46.1763 154.165 45.2875 153.793 43.8965C153.178 41.6041 153.757 38.8679 155.527 35.6879C156.614 33.7679 157.941 32.0734 159.507 30.6046C161.074 29.1358 162.475 28.2357 163.712 27.9044C164.871 27.5938 165.543 27.7863 165.73 28.4817C165.916 29.1772 165.593 30.3405 164.76 31.9717C164.008 33.388 163.162 34.6636 162.224 35.7984C160.62 37.7465 158.773 39.2492 156.682 40.3064C156.638 41.1739 156.699 41.9168 156.865 42.535C157.127 43.5138 157.642 44.1487 158.411 44.4398C159.081 44.6744 159.802 44.6881 160.575 44.481C162.275 44.0255 164.073 42.6466 165.968 40.3443C167.554 38.1247 168.515 36.6111 168.851 35.8034C169.165 35.2224 169.449 34.9944 169.703 35.1195ZM164.094 28.713C163.398 28.8994 162.497 29.5549 161.391 30.6797C160.221 31.8766 159.205 33.2391 158.345 34.7673C157.616 36.0667 157.114 37.5403 156.838 39.188C158.465 38.255 160.002 36.9322 161.448 35.2196C162.367 34.1174 163.191 32.9166 163.92 31.6171C164.674 30.3107 164.989 29.4257 164.865 28.962C164.789 28.6787 164.532 28.5957 164.094 28.713ZM186.552 31.5575C186.461 31.9406 186.182 32.4434 185.713 33.0658C185.245 33.6882 184.609 34.5075 183.804 35.5236C182.576 37.1226 181.344 38.0877 180.108 38.419C179.67 38.5363 179.189 38.5962 178.665 38.5985C177.283 40.6529 175.806 41.8906 174.235 42.3116C173.334 42.5532 172.446 42.4872 171.573 42.1138C170.609 41.7096 169.927 40.7605 169.527 39.2665C169.009 37.3347 168.996 34.6601 169.489 31.2429C169.94 28.0852 170.724 24.8798 171.84 21.6267C173.252 17.5213 174.816 13.9826 176.532 11.0105C178.267 8.00584 179.753 6.33784 180.989 6.00655C181.607 5.84091 181.992 6.04143 182.144 6.6081C182.413 7.61267 182.019 9.74744 180.961 13.0124C180.065 15.8478 178.921 18.7908 177.529 21.8415C175.146 27.0629 172.93 31.0524 170.881 33.8102C170.795 35.2412 170.879 36.4332 171.135 37.3862C171.583 39.0605 172.516 39.7078 173.933 39.3282C174.602 39.1488 175.313 38.7099 176.065 38.0116C174.968 37.422 174.268 36.5605 173.964 35.4272C173.495 33.6756 173.802 31.5779 174.887 29.1339C175.964 26.6642 177.314 25.212 178.937 24.7772C179.349 24.6667 179.76 24.6534 180.169 24.737C181.019 24.9233 181.593 25.5702 181.89 26.6778C182.262 28.0687 182.198 29.8389 181.698 31.9884C181.197 34.1379 180.4 36.0078 179.308 37.598C179.521 37.5686 179.744 37.5228 179.975 37.4607C181.006 37.1846 182.021 36.3881 183.021 35.0711C184.806 32.7706 185.652 31.55 185.559 31.4092C185.666 31.1875 185.796 31.0559 185.951 31.0145C186.105 30.9731 186.258 31.0288 186.409 31.1815C186.554 31.3084 186.601 31.4337 186.552 31.5575ZM180.533 8.32349C179.812 8.51674 178.839 9.72978 177.616 11.9626C176.203 14.522 174.82 17.8604 173.466 21.9778C172.265 25.5298 171.475 28.7644 171.097 31.6816C172.875 28.9414 174.684 25.5441 176.524 21.4897C179.841 14.0857 181.337 9.77832 181.013 8.56769C180.95 8.33587 180.791 8.25447 180.533 8.32349ZM179.077 25.6093C178.382 25.7956 177.671 26.3865 176.943 27.382C176.235 28.3447 175.679 29.5152 175.275 30.8933C174.798 32.512 174.711 33.888 175.015 35.0214C175.277 36.0002 175.872 36.7244 176.798 37.1939C177.407 36.4786 177.963 35.6672 178.465 34.7596C179.061 33.6887 179.581 32.2795 180.024 30.5321C180.509 28.6351 180.635 27.2487 180.4 26.3729C180.214 25.6775 179.773 25.4229 179.077 25.6093ZM204.318 27.1698C204.608 27.1196 203.806 28.3007 201.913 30.713C199.189 34.1483 197.146 35.9518 195.784 36.1235C194.345 36.3159 193.435 35.7037 193.056 34.287C192.966 33.9522 192.925 33.5906 192.931 33.2024C191.505 36.1243 190.022 37.7502 188.482 38.0802C186.864 38.4308 185.803 37.6659 185.299 35.7856C184.83 34.0341 185.14 31.8942 186.23 29.3661C187.319 26.838 188.814 24.5877 190.715 22.6151C192.477 20.8455 194.079 19.7674 195.522 19.3809C196.14 19.2152 196.667 19.2258 197.104 19.4125C197.541 19.5992 197.8 19.9991 197.881 20.6122C198.315 19.8611 198.582 19.4167 198.683 19.2792C198.784 19.1416 198.948 19.0289 199.172 18.941C199.416 18.8205 199.622 18.7653 199.791 18.7754C199.952 18.7597 200.011 18.8267 199.969 18.9762C199.443 20.4146 198.57 22.9261 197.35 26.5108C196.28 29.8342 195.83 32.1219 196 33.374C196.078 34.1812 196.401 34.5089 196.967 34.3571C197.946 34.0948 199.463 32.5427 201.517 29.7008C203.357 27.1924 204.023 26.1721 203.513 26.64C203.582 26.4836 203.706 26.3812 203.886 26.3329C204.195 26.2501 204.339 26.529 204.318 27.1698ZM196.964 22.5973C197.169 22.1282 197.203 21.636 197.065 21.1208C196.858 20.3481 196.381 20.0618 195.634 20.2619C194.835 20.4759 193.925 21.1478 192.902 22.2776C191.791 23.4865 190.806 24.9649 189.95 26.7129C188.01 30.6008 187.316 33.575 187.868 35.6357C188.103 36.5114 188.516 36.87 189.109 36.7112C189.779 36.5318 190.648 35.5533 191.718 33.7759C192.618 32.2924 193.381 30.7627 194.008 29.1867C194.803 27.2069 195.788 25.0105 196.964 22.5973Z" fill="#096142"/>
</svg>
