<svg width="979" height="610" viewBox="0 0 979 610" fill="none" xmlns="http://www.w3.org/2000/svg">
<path d="M1141.31 15.1208C1136.51 10.2348 1130.77 6.37558 1124.43 3.77742C1118.1 1.17925 1111.3 -0.103681 1104.45 0.00654573H397.712C235.318 0.00654573 80.9945 128.699 46.8426 289.54L36.1639 350.096L1.02776 549.486C-0.611145 557.539 -0.286119 565.87 1.97532 573.771C4.23676 581.673 8.36801 588.912 14.0193 594.878C18.8121 599.773 24.553 603.638 30.8907 606.237C37.2284 608.836 44.0295 610.114 50.8778 609.992H996.927C1030.24 609.992 1062.28 582.767 1068.13 549.486L1154.3 60.562C1155.94 52.5007 1155.62 44.162 1153.36 36.252C1151.1 28.342 1146.96 21.0937 1141.31 15.1208Z" fill="#006241"/>
</svg>
