<svg width="1286" height="336" viewBox="0 0 1286 336" fill="none" xmlns="http://www.w3.org/2000/svg">
<path d="M1374.32 8.32883C1371.7 5.63752 1368.55 3.5118 1365.08 2.08068C1361.62 0.649555 1357.9 -0.0571098 1354.15 0.00360552H217.707C128.813 0.00360552 44.3363 70.89 25.6416 159.485L19.7961 192.84L0.562595 302.668C-0.33454 307.104 -0.156621 311.692 1.08129 316.044C2.31919 320.397 4.58064 324.385 7.67413 327.67C10.2977 330.367 13.4403 332.496 16.9095 333.927C20.3788 335.359 24.1017 336.063 27.8504 335.996H1295.29C1313.53 335.996 1331.06 320.999 1334.27 302.668L1381.44 33.3587C1382.33 28.9184 1382.16 24.3253 1380.92 19.9683C1379.68 15.6113 1377.42 11.6188 1374.32 8.32883Z" fill="#096142"/>
</svg>
