<svg width="131" height="160" viewBox="0 0 131 160" fill="none" xmlns="http://www.w3.org/2000/svg">
<path d="M93.3756 160H14.697C8.45022 160 3.36911 154.919 3.36911 148.671V11.3279C3.36911 5.08111 8.45022 0 14.697 0H93.3756C99.6224 0 104.704 5.08111 104.704 11.3279V41.9245C104.704 43.3048 103.584 44.4242 102.204 44.4242C100.824 44.4242 99.7041 43.3048 99.7041 41.9245L99.7029 11.3279C99.7029 7.83932 96.8641 5.00036 93.3754 5.00036H14.6968C11.2082 5.00036 8.36926 7.8392 8.36926 11.3279V148.668C8.36926 152.158 11.2081 154.998 14.6968 154.998H93.3754C96.864 154.998 99.7029 152.159 99.7029 148.668V101.739C99.7029 100.359 100.822 99.2397 102.203 99.2397C103.583 99.2397 104.702 100.359 104.702 101.739V148.668C104.702 154.915 99.6212 159.997 93.3756 159.997L93.3756 160Z" fill="#096142"/>
<path d="M102.203 36.1476C100.823 36.1476 99.7036 35.0282 99.7036 33.6479C99.7036 32.015 96.9976 30.1887 93.3761 30.1887H14.6975C11.076 30.1887 8.36996 32.0149 8.36996 33.6479C8.36996 35.0282 7.25055 36.1476 5.87026 36.1476C4.48997 36.1476 3.37057 35.0282 3.37057 33.6479C3.37057 28.9046 8.34634 25.1884 14.6985 25.1884H93.3771C99.7295 25.1884 104.705 28.9046 104.705 33.6479C104.704 35.0282 103.586 36.1476 102.204 36.1476H102.203Z" fill="#096142"/>
<path d="M93.3756 134.813H14.697C8.34458 134.813 3.36911 131.097 3.36911 126.354C3.36911 124.973 4.48852 123.854 5.86881 123.854C7.2491 123.854 8.3685 124.973 8.3685 126.354C8.3685 127.986 11.0745 129.813 14.6961 129.813H93.3746C96.9962 129.813 99.7022 127.987 99.7022 126.354C99.7022 124.973 100.822 123.854 102.202 123.854C103.582 123.854 104.702 124.973 104.702 126.354C104.702 131.097 99.727 134.813 93.3749 134.813H93.3756Z" fill="#096142"/>
<path d="M2.4997 56.1587C1.11941 56.1587 0 55.0393 0 53.659V39.4922C0 38.1119 1.11941 36.9925 2.4997 36.9925C3.87999 36.9925 4.99939 38.1119 4.99939 39.4922V53.659C4.99939 55.0393 3.87999 56.1587 2.4997 56.1587Z" fill="#096142"/>
<path d="M2.4997 78.4466C1.11941 78.4466 0 77.3272 0 75.9469V69.8401C0 68.4598 1.11941 67.3404 2.4997 67.3404C3.87999 67.3404 4.99939 68.4598 4.99939 69.8401V75.9469C4.99939 77.3272 3.87999 78.4466 2.4997 78.4466Z" fill="#096142"/>
<path d="M54.0363 147.778C52.656 147.778 51.3682 146.491 51.3682 145.11C51.3682 143.73 52.656 142.442 54.0363 142.442C55.4166 142.442 56.7056 143.73 56.7056 145.11C56.7056 146.491 55.4166 147.778 54.0363 147.778Z" fill="#096142"/>
<path d="M58.3348 17.4399H49.739C48.3587 17.4399 47.2393 16.3205 47.2393 14.9402C47.2393 13.56 48.3587 12.4406 49.739 12.4406H58.3348C59.7151 12.4406 60.8345 13.56 60.8345 14.9402C60.8357 16.3205 59.7163 17.4399 58.3348 17.4399Z" fill="#096142"/>
<path d="M55.12 120.943C54.3457 120.943 53.5607 120.785 52.803 120.465C50.5914 119.53 49.2181 117.459 49.2181 115.059V105.858C49.2181 104.968 48.4936 104.242 47.6007 104.242C41.5922 104.242 36.7033 99.3529 36.7033 93.3432V50.3246C36.7033 44.3161 41.5922 39.4272 47.6007 39.4272H119.777C125.787 39.4272 130.676 44.3161 130.676 50.3246V93.3432C130.676 99.3529 125.787 104.242 119.777 104.242L76.3546 104.241C75.2435 104.241 74.1952 104.666 73.4007 105.44L59.1792 119.265C58.048 120.365 56.606 120.939 55.1214 120.94L55.12 120.943ZM47.6007 44.4289C44.3492 44.4289 41.7036 47.0744 41.7036 50.326V93.3445C41.7036 96.596 44.3491 99.2428 47.6007 99.2428C51.2496 99.2428 54.2175 102.21 54.2175 105.858V115.059C54.2175 115.561 54.5496 115.776 54.7488 115.86C54.9456 115.94 55.331 116.032 55.6939 115.682L69.9142 101.858C71.6478 100.171 73.9352 99.243 76.3544 99.243H119.777C123.028 99.243 125.675 96.5962 125.675 93.3446V50.3261C125.675 47.0746 123.028 44.429 119.777 44.429L47.6007 44.4289Z" fill="#096142"/>
<path d="M109.301 90.3525H58.0798C55.3548 90.3525 53.1399 88.2098 53.1399 85.5774V57.8223C53.1399 55.1898 55.355 53.0481 58.0798 53.0481H109.301C112.025 53.0481 114.24 55.1897 114.24 57.8223V85.5774C114.24 88.2111 112.025 90.3525 109.301 90.3525ZM58.1375 58.6146V85.5774L109.301 85.3533L109.241 58.6133L87.1569 78.2717C86.2676 79.2144 85.0154 79.7492 83.6908 79.7504C83.6849 79.7504 83.6789 79.7492 83.673 79.7492C82.352 79.7445 81.1093 79.2073 80.2306 78.267L58.1375 58.6146ZM65.0603 58.0822L83.6526 74.6196C83.738 74.6955 83.8186 74.7773 83.8934 74.8651C83.9645 74.7832 83.655 74.6919 83.7356 74.6196L102.319 58.0822H65.0603Z" fill="#096142"/>
<path d="M83.6918 79.7489C83.6859 79.7489 83.6799 79.7477 83.674 79.7477C82.353 79.743 81.1103 79.2058 80.2316 78.2655L56.8308 57.4487C56.0552 56.7585 55.7884 55.6617 56.1572 54.6929C56.526 53.7229 57.4557 53.0813 58.4933 53.0813H108.885C109.923 53.0813 110.853 53.7217 111.221 54.6917C111.59 55.6617 111.322 56.7585 110.548 57.4475L87.1544 78.2704C86.2662 79.2131 85.0152 79.7479 83.6907 79.7491L83.6918 79.7489ZM65.0628 58.0818L83.6551 74.6193C83.7404 74.6952 83.8211 74.777 83.8958 74.8647C83.9669 74.7829 83.6574 74.6916 83.7381 74.6193L102.321 58.0818H65.0628Z" fill="#096142"/>
<path d="M108.885 90.3525C108.294 90.3525 107.699 90.1438 107.224 89.7193L89.1008 73.5781C88.0692 72.6602 87.9779 71.0795 88.8969 70.0491C89.8123 69.0186 91.3942 68.9249 92.4259 69.8451L110.549 85.9864C111.58 86.9042 111.671 88.4849 110.752 89.5154C110.259 90.0703 109.574 90.3525 108.885 90.3525Z" fill="#096142"/>
<path d="M58.4927 90.3525C57.8037 90.3525 57.1183 90.0691 56.6239 89.5154C55.706 88.4837 55.7985 86.903 56.829 85.9852L74.9647 69.8439C75.9975 68.9249 77.5747 69.0186 78.4949 70.049C79.4127 71.0807 79.3202 72.6614 78.2898 73.5792L60.154 89.7205C59.6773 90.1438 59.0832 90.3525 58.4927 90.3525Z" fill="#096142"/>
</svg>
