<svg width="80" height="24" viewBox="0 0 80 24" fill="none" xmlns="http://www.w3.org/2000/svg">
<path d="M78.8241 0.594916C78.6352 0.40268 78.4092 0.250843 78.1599 0.14862C77.9105 0.0463968 77.643 -0.00407927 77.3735 0.000257537L16.0255 0.000257537C9.63448 0.000257537 3.56107 5.06358 2.21702 11.3918L1.79677 13.7743L0.413983 21.6191C0.349484 21.936 0.362275 22.2637 0.451274 22.5746C0.540273 22.8855 0.702858 23.1703 0.925264 23.405C1.11389 23.5976 1.33982 23.7497 1.58924 23.852C1.83866 23.9542 2.10632 24.0045 2.37583 23.9997H73.1419C74.453 23.9997 75.7138 22.9285 75.9443 21.6191L79.3354 2.38277C79.4 2.0656 79.3873 1.73752 79.2983 1.42631C79.2093 1.11509 79.0467 0.829915 78.8241 0.594916Z" fill="#AED877"/>
</svg>
