<svg width="96" height="12" viewBox="0 0 96 12" fill="none" xmlns="http://www.w3.org/2000/svg">
<path d="M95.8465 0.775444C91.6355 7.06817 84.5851 11.5192 77.1648 11.9535C76.872 11.9806 75.4427 12 75.0728 12H0.951732C0.819731 11.9976 0.689234 11.9713 0.566465 11.9225C0.448913 11.8721 0.342747 11.7982 0.254399 11.7053C0.20081 11.653 0.15535 11.5929 0.119553 11.527C0.0851108 11.4653 0.0567233 11.4004 0.0347935 11.3331C0.0325098 11.342 0.0325098 11.3242 0.0347935 11.3331C0.0169786 11.2711 0.00536436 11.1803 0.000120814 11.116C0.0019768 11.1005 0.0019768 11.0849 0.000120814 11.0695C-0.000981931 10.9851 0.00546637 10.9007 0.0193854 10.8174L0.705161 6.8937L0.913203 5.70339C1.58357 2.5357 4.60792 0 7.78253 0H95.4843C95.9582 0 96.1662 0.310178 95.8465 0.775444Z" fill="currentColor"/>
</svg>
