<svg width="20" height="20" viewBox="0 0 20 20" fill="none" xmlns="http://www.w3.org/2000/svg">
<path d="M18.3388 7.3172L4.33878 0.317199C3.78627 0.0422077 3.1624 -0.0556909 2.55222 0.0368503C1.94204 0.129391 1.37524 0.407869 0.929114 0.834314C0.482986 1.26076 0.179235 1.81442 0.0592753 2.41981C-0.0606847 3.0252 0.00898391 3.65285 0.258783 4.2172L2.65878 9.5872C2.71324 9.71703 2.74129 9.85641 2.74129 9.9972C2.74129 10.138 2.71324 10.2774 2.65878 10.4072L0.258783 15.7772C0.0554827 16.2339 -0.0304617 16.7342 0.00875966 17.2326C0.0479811 17.7309 0.211125 18.2116 0.483364 18.6309C0.755604 19.0502 1.12831 19.3948 1.56761 19.6334C2.0069 19.872 2.49887 19.9971 2.99878 19.9972C3.46701 19.9925 3.92827 19.8832 4.34878 19.6772L18.3488 12.6772C18.8454 12.4274 19.2628 12.0445 19.5545 11.5713C19.8461 11.0981 20.0006 10.5531 20.0006 9.9972C20.0006 9.44131 19.8461 8.89635 19.5545 8.42312C19.2628 7.94989 18.8454 7.56701 18.3488 7.3172H18.3388ZM17.4488 10.8872L3.44878 17.8872C3.26494 17.9755 3.05851 18.0054 2.85717 17.973C2.65582 17.9407 2.46919 17.8475 2.3223 17.7061C2.1754 17.5646 2.07526 17.3816 2.03531 17.1816C1.99536 16.9816 2.01751 16.7742 2.09878 16.5872L4.48878 11.2172C4.51972 11.1455 4.54643 11.072 4.56878 10.9972H11.4588C11.724 10.9972 11.9784 10.8918 12.1659 10.7043C12.3534 10.5168 12.4588 10.2624 12.4588 9.9972C12.4588 9.73198 12.3534 9.47763 12.1659 9.29009C11.9784 9.10256 11.724 8.9972 11.4588 8.9972H4.56878C4.54643 8.92237 4.51972 8.84891 4.48878 8.7772L2.09878 3.4072C2.01751 3.22016 1.99536 3.01275 2.03531 2.81277C2.07526 2.61279 2.1754 2.4298 2.3223 2.28835C2.46919 2.14689 2.65582 2.05373 2.85717 2.02135C3.05851 1.98897 3.26494 2.01893 3.44878 2.1072L17.4488 9.1072C17.6126 9.19112 17.75 9.31861 17.846 9.47564C17.942 9.63268 17.9928 9.81315 17.9928 9.9972C17.9928 10.1812 17.942 10.3617 17.846 10.5188C17.75 10.6758 17.6126 10.8033 17.4488 10.8872Z" fill="currentColor"/>
</svg>
