<svg width="40" height="28" viewBox="0 0 40 28" fill="none" xmlns="http://www.w3.org/2000/svg">
<g clip-path="url(#clip0_610_21887)">
<path d="M39.1669 4.37211C38.9385 3.52475 38.4916 2.75219 37.8711 2.13162C37.2505 1.51105 36.4779 1.0642 35.6306 0.835729C32.5091 -0.0137933 20 -0.0137939 20 -0.0137939C20 -0.0137939 7.48765 -0.0137936 4.37274 0.822558C3.52349 1.05156 2.74954 1.50019 2.12874 2.1233C1.50794 2.74641 1.0622 3.52202 0.836349 4.37211C-2.19813e-06 7.49032 0 14 0 14C0 14 -2.19813e-06 20.5097 0.836349 23.628C1.06422 24.4756 1.51086 25.2485 2.13153 25.8692C2.75219 26.4898 3.52508 26.9365 4.37274 27.1643C7.49095 28.0007 20 28.0007 20 28.0007C20 28.0007 32.5123 28.0007 35.6306 27.1643C36.4779 26.9359 37.2505 26.489 37.8711 25.8685C38.4916 25.2479 38.9385 24.4753 39.1669 23.628C40 20.5097 40 14 40 14C40 14 39.9901 7.49032 39.1669 4.37211Z" fill="#FF0000"/>
<path d="M16 19.9994L26.3951 14.0001L16 8.00073V19.9994Z" fill="white"/>
</g>
<defs>
<clipPath id="clip0_610_21887">
<rect width="40" height="28.0013" fill="white" transform="translate(0 -0.000610352)"/>
</clipPath>
</defs>
</svg>
