<?xml version="1.0" encoding="utf-8"?>
<!-- Generator: Adobe Illustrator 23.1.0, SVG Export Plug-In . SVG Version: 6.00 Build 0)  -->
<svg version="1.1" id="Layer_1" xmlns="http://www.w3.org/2000/svg" xmlns:xlink="http://www.w3.org/1999/xlink" x="0px" y="0px"
	 viewBox="0 0 533.1 602.9" style="enable-background:new 0 0 533.1 602.9;" xml:space="preserve">
<g>
	<path d="M47.1,6.2h111.3v591.2H47.1V6.2z M91.4,252.4H297c11.4,0,21.4-2.8,30.1-8.5c8.7-5.7,15.4-13.8,20.1-24.4
		c4.7-10.6,7.2-22.8,7.5-36.6c0-13.8-2.4-26-7.1-36.6c-4.7-10.6-11.4-18.7-20.1-24.4c-8.7-5.7-18.8-8.5-30.5-8.5H91.4V6.2H306
		c32.5,0,61.1,7.3,85.7,21.9c24.6,14.6,43.7,35.3,57.3,62c13.5,26.7,20.3,57.6,20.3,92.8c0,35.2-6.8,66.2-20.3,92.8
		c-13.5,26.7-32.7,47.3-57.5,62c-24.8,14.6-53.3,21.9-85.5,21.9H91.4V252.4z M215.7,341.4l119.1-18.7l159.3,274.7H359.2L215.7,341.4
		z" fill="currentColor"/>
</g>
</svg>
