<svg width="40" height="40" viewBox="0 0 40 40" fill="none" xmlns="http://www.w3.org/2000/svg">
<path fill-rule="evenodd" clip-rule="evenodd" d="M20.0004 0C8.9547 0 0 8.95446 0 20.0001C0 31.0463 8.9547 40 20.0004 40C31.0472 40 40.001 31.0463 40.001 20.0001C40.001 8.95518 31.0472 0.000955316 20.0001 0.000955316L20.0004 0ZM8.59502 15.4165C14.7494 13.5486 25.3845 13.9006 31.8306 17.7293H31.8315C32.7176 18.2571 33.8687 17.9641 34.3942 17.0752C34.922 16.1874 34.6306 15.0394 33.7398 14.5118C26.3184 10.1061 14.5739 9.69173 7.50906 11.8364C6.52006 12.1369 5.96263 13.1813 6.26213 14.17C6.56162 15.1583 7.60674 15.7162 8.59502 15.4165ZM31.6204 23.4001C31.169 24.1338 30.2089 24.3655 29.4757 23.9141C24.0996 20.6096 15.9047 19.6526 9.5458 21.5828C8.72112 21.8319 7.85011 21.3672 7.59982 20.5439C7.35143 19.7193 7.81644 18.8499 8.63968 18.5991C15.9032 16.3952 24.9332 17.4628 31.1069 21.2566C31.8401 21.708 32.0718 22.6679 31.6204 23.4001ZM27.4576 29.2591C28.0451 29.6197 28.8141 29.4334 29.1724 28.8459C29.533 28.2584 29.3467 27.4917 28.7592 27.1311C23.4873 23.9093 16.9522 23.1598 9.33348 24.9004C8.66094 25.0533 8.24227 25.722 8.39584 26.3931C8.54869 27.0642 9.21741 27.4846 9.88829 27.3317C16.8502 25.7411 22.7617 26.3907 27.4576 29.2591Z" fill="#1ED760"/>
</svg>
