<svg width="480" height="12" viewBox="0 0 480 12" fill="none" xmlns="http://www.w3.org/2000/svg">
<path d="M479.805 0.775444C475.612 7.06817 468.633 11.5192 461.244 11.9535C460.952 11.9806 459.529 12 459.161 12H0.947741C0.816293 11.9976 0.686344 11.9713 0.56409 11.9225C0.447031 11.8721 0.341312 11.7982 0.253334 11.7053C0.19997 11.653 0.154698 11.5929 0.119051 11.527C0.0847536 11.4653 0.0564858 11.4004 0.0346481 11.3331C0.032374 11.3242 0.032374 11.3149 0.0346481 11.306C0.016908 11.244 0.00534183 11.1803 0.000120286 11.116C0.00196849 11.1005 0.00196849 11.0849 0.000120286 11.0695C-0.000977831 10.9851 0.00544476 10.9007 0.0193054 10.8174L0.702205 6.8937L0.909373 5.70339C1.57693 2.5357 4.58859 0 7.74987 0H479.486C479.958 0 480.166 0.310178 479.847 0.775444" fill="currentColor"/>
</svg>
