<?xml version="1.0" encoding="utf-8"?>
<!-- Generator: Adobe Illustrator 23.1.0, SVG Export Plug-In . SVG Version: 6.00 Build 0)  -->
<svg version="1.1" id="Layer_1" xmlns="http://www.w3.org/2000/svg" xmlns:xlink="http://www.w3.org/1999/xlink" x="0px" y="0px"
	 viewBox="0 0 533.1 602.9" style="enable-background:new 0 0 533.1 602.9;" xml:space="preserve">
<path d="M456.6,132.6c-4-2.1-7.9-4.4-11.7-6.8c-11-7.3-21.1-15.9-30.1-25.6c-22.5-25.7-30.9-51.8-34-70.1h0.1
	c-2.6-15.2-1.5-25-1.4-25H277.2v395.8c0,5.3,0,10.6-0.2,15.8c0,0.6-0.1,1.2-0.1,1.9c0,0.3,0,0.6-0.1,0.9c0,0.1,0,0.1,0,0.2
	c-2.2,28.8-18.6,54.7-43.7,69c-12.9,7.3-27.5,11.2-42.3,11.2c-47.7,0-86.3-38.9-86.3-86.9s38.6-86.9,86.3-86.9c9,0,18,1.4,26.6,4.2
	l0.1-104.2c-52.7-6.8-105.8,8.7-146.5,42.9c-17.6,15.3-32.5,33.6-43.8,54c-4.3,7.4-20.6,37.4-22.6,86c-1.2,27.6,7,56.1,11,67.9v0.2
	c2.5,7,12.1,30.7,27.8,50.7c12.6,16,27.6,30.1,44.3,41.8v-0.2l0.2,0.2c49.5,33.7,104.5,31.5,104.5,31.5c9.5-0.4,41.4,0,77.5-17.1
	c40.1-19,63-47.3,63-47.3c14.6-16.9,26.2-36.2,34.3-57c9.3-24.3,12.4-53.5,12.4-65.2v-210c1.2,0.7,17.8,11.7,17.8,11.7
	s23.8,15.3,61,25.2c26.7,7.1,62.6,8.6,62.6,8.6V148.2C508.3,149.6,482.8,145.6,456.6,132.6z" fill="currentColor"/>
</svg>
