<svg width="16" height="12" viewBox="0 0 16 12" fill="none" xmlns="http://www.w3.org/2000/svg">
<path d="M15.6703 2.13241C15.486 1.44349 14.9455 0.900423 14.2602 0.714918C13.0081 0.370605 7.99982 0.370605 7.99982 0.370605C7.99982 0.370605 2.9917 0.370605 1.73965 0.701864C1.06748 0.887173 0.513868 1.44359 0.329493 2.13241C0 3.3907 0 6.00024 0 6.00024C0 6.00024 0 8.62292 0.329493 9.86806C0.514063 10.5569 1.0543 11.0999 1.73975 11.2855C3.00489 11.6299 8.00002 11.6299 8.00002 11.6299C8.00002 11.6299 13.0081 11.6299 14.2602 11.2986C14.9456 11.1132 15.486 10.5701 15.6705 9.88131C15.9999 8.62292 15.9999 6.01349 15.9999 6.01349C15.9999 6.01349 16.0131 3.3907 15.6703 2.13241ZM6.40529 8.41101V3.58946L10.5699 6.00024L6.40529 8.41101Z" fill="currentColor"/>
</svg>
