<svg width="72" height="24" viewBox="0 0 72 24" fill="none" xmlns="http://www.w3.org/2000/svg">
<path d="M71.6929 1.55089C63.271 14.1363 49.1701 23.0385 34.3296 23.9069C33.744 23.9612 30.8853 24 30.1456 24H1.90346C1.63946 23.9952 1.37847 23.9426 1.13293 23.8449C0.897826 23.7442 0.685495 23.5964 0.508798 23.4107C0.401619 23.3061 0.310699 23.1858 0.239106 23.054C0.170222 22.9306 0.113447 22.8007 0.069587 22.6662C0.0650197 22.684 0.0650197 22.6484 0.069587 22.6662C0.0339573 22.5422 0.0107287 22.3607 0.000241628 22.232C0.00395361 22.2011 0.00395361 22.1698 0.000241628 22.1389C-0.00196386 21.9701 0.0109327 21.8014 0.0387707 21.6349L1.41032 13.7874L1.82641 11.4068C3.16714 5.0714 9.21584 0 15.5651 0H70.9686C71.9164 0 72.3324 0.620355 71.6929 1.55089Z" fill="currentColor"/>
</svg>
