<svg width="14" height="14" viewBox="0 0 14 14" fill="none" xmlns="http://www.w3.org/2000/svg">
<path fill-rule="evenodd" clip-rule="evenodd" d="M9.53008 0.915884C9.57749 0.363906 10.0552 -0.0444137 10.5971 0.00387815C11.1389 0.05217 11.5398 0.538786 11.4924 1.09076L11.3284 3H13C13.5523 3 14 3.44772 14 4C14 4.55229 13.5523 5 13 5H11.1566L10.8131 9H13C13.5523 9 14 9.44772 14 10C14 10.5523 13.5523 11 13 11H10.6413L10.4623 13.0841C10.4149 13.6361 9.93719 14.0444 9.39531 13.9961C8.85344 13.9478 8.45259 13.4612 8.5 12.9092L8.66398 11H4.64892L4.46992 13.0841C4.42251 13.6361 3.9448 14.0444 3.40293 13.9961C2.86105 13.9478 2.46021 13.4612 2.50761 12.9092L2.67159 11H1C0.447716 11 0 10.5523 0 10C0 9.44772 0.447715 9 1 9H2.84337L3.18692 5H1C0.447716 5 0 4.55229 0 4C0 3.44772 0.447715 3 1 3H3.35869L3.53769 0.915884C3.5851 0.363906 4.06281 -0.0444137 4.60469 0.00387815C5.14656 0.05217 5.54741 0.538786 5.5 1.09076L5.33602 3H9.35108L9.53008 0.915884ZM5.16425 5L4.8207 9H8.83575L9.1793 5H5.16425Z" fill="#096142"/>
</svg>
