<svg width="40" height="40" viewBox="0 0 40 40" fill="none" xmlns="http://www.w3.org/2000/svg">
<path fill-rule="evenodd" clip-rule="evenodd" d="M39.2133 34.6667C38.8267 35.6533 37.9333 37.04 36.6533 38.0267C35.92 38.5867 35.04 39.1333 33.84 39.4933C32.56 39.88 30.9733 40 29 40H11C9.02667 40 7.45333 39.8667 6.16 39.4933C4.96 39.1333 4.08 38.6 3.34667 38.0267C2.08 37.0533 1.17333 35.6533 0.786667 34.6667C0.0133333 32.68 0 30.4267 0 29V11C0 9.57333 0.0133333 7.32 0.786667 5.33333C1.17333 4.34667 2.06667 2.96 3.34667 1.97333C4.08 1.41333 4.96 0.866667 6.16 0.506667C7.45333 0.133333 9.02667 0 11 0H29C30.9733 0 32.5467 0.133333 33.84 0.506667C35.04 0.866667 35.92 1.4 36.6533 1.97333C37.92 2.94667 38.8267 4.34667 39.2133 5.33333C40 7.32 40 9.58667 40 11V29C40 30.4267 39.9867 32.68 39.2133 34.6667Z" fill="url(#paint0_linear_610_21876)"/>
<path d="M23.4269 24.1466C23.3736 23.6666 23.2136 23.32 22.8936 23C22.2936 22.3733 21.2402 21.96 20.0002 21.96C18.7602 21.96 17.7069 22.36 17.1069 23C16.8002 23.3333 16.6269 23.6666 16.5736 24.1466C16.4669 25.08 16.5336 25.88 16.6402 27.1733C16.7469 28.4 16.9469 30.04 17.2002 31.6933C17.3869 32.88 17.5336 33.52 17.6669 33.9733C17.8936 34.72 18.7069 35.36 20.0002 35.36C21.2936 35.36 22.1202 34.7066 22.3336 33.9733C22.4669 33.52 22.6136 32.88 22.8002 31.6933C23.0536 30.0266 23.2536 28.4 23.3602 27.1733C23.4802 25.88 23.5336 25.08 23.4269 24.1466Z" fill="white"/>
<path d="M23.2827 17.3467C23.2827 19.16 21.816 20.6267 20.0027 20.6267C18.1893 20.6267 16.7227 19.16 16.7227 17.3467C16.7227 15.5333 18.1893 14.0667 20.0027 14.0667C21.816 14.0667 23.2827 15.5467 23.2827 17.3467Z" fill="white"/>
<path d="M19.9614 4.42666C12.3081 4.45332 6.04145 10.6667 5.93478 18.32C5.85478 24.52 9.81478 29.8266 15.3481 31.7733C15.4814 31.8266 15.6148 31.7066 15.6014 31.5733C15.5348 31.0933 15.4548 30.6133 15.4014 30.1333C15.3748 29.96 15.2681 29.8266 15.1214 29.7466C10.7481 27.84 7.69478 23.4533 7.74812 18.3733C7.81478 11.7067 13.2548 6.27999 19.9081 6.22666C26.7214 6.17332 32.2814 11.6933 32.2814 18.4933C32.2814 23.52 29.2414 27.84 24.9081 29.7466C24.7481 29.8133 24.6414 29.96 24.6281 30.1333C24.5614 30.6133 24.4948 31.0933 24.4281 31.5733C24.4014 31.72 24.5481 31.8266 24.6814 31.7733C30.1614 29.8533 34.0948 24.6266 34.0948 18.4933C34.0681 10.7333 27.7348 4.41332 19.9614 4.42666Z" fill="white"/>
<path d="M19.64 9.09329C14.6533 9.27996 10.6533 13.4 10.5867 18.3866C10.5467 21.6666 12.1867 24.5733 14.7067 26.2933C14.8267 26.3733 15 26.28 15 26.1333C14.96 25.56 14.96 25.0533 14.9867 24.52C15 24.3466 14.9333 24.1866 14.8 24.0666C13.2667 22.6266 12.3333 20.5733 12.3867 18.3066C12.4933 14.3066 15.7067 11.0533 19.7067 10.8933C24.0533 10.72 27.6266 14.2133 27.6266 18.5066C27.6266 20.6933 26.6933 22.6666 25.2133 24.0666C25.0933 24.1866 25.0266 24.3466 25.0266 24.52C25.0533 25.04 25.04 25.5466 25.0133 26.12C25 26.2666 25.1733 26.3733 25.3066 26.28C27.7866 24.5866 29.4266 21.72 29.4266 18.4933C29.44 13.1866 25 8.87996 19.64 9.09329Z" fill="white"/>
<defs>
<linearGradient id="paint0_linear_610_21876" x1="20" y1="0" x2="20" y2="40" gradientUnits="userSpaceOnUse">
<stop stop-color="#F452FF"/>
<stop offset="1" stop-color="#832BC1"/>
</linearGradient>
</defs>
</svg>
