<svg width="40" height="40" viewBox="0 0 40 40" fill="none" xmlns="http://www.w3.org/2000/svg">
<g clip-path="url(#clip0_610_21893)">
<path d="M2.42612 23.7931C2.10757 23.7933 1.79211 23.7306 1.49776 23.6088C1.20342 23.487 0.935955 23.3084 0.710655 23.0832C0.485356 22.858 0.306633 22.5906 0.184697 22.2963C0.0627607 22.002 -2.70852e-08 21.6866 0 21.368L0 18.6329C0 17.9897 0.255503 17.3729 0.710302 16.9181C1.1651 16.4633 1.78194 16.2078 2.42512 16.2078C3.0683 16.2078 3.68514 16.4633 4.13994 16.9181C4.59474 17.3729 4.85024 17.9897 4.85024 18.6329V21.368C4.85024 22.011 4.59488 22.6277 4.1403 23.0825C3.68571 23.5373 3.06913 23.7929 2.42612 23.7931V23.7931Z" fill="#0066D9"/>
<path d="M37.5736 23.7931C36.9304 23.7931 36.3135 23.5376 35.8587 23.0828C35.4039 22.628 35.1484 22.0112 35.1484 21.368V18.6329C35.1484 17.9897 35.4039 17.3729 35.8587 16.9181C36.3135 16.4633 36.9304 16.2078 37.5736 16.2078C38.2167 16.2078 38.8336 16.4633 39.2884 16.9181C39.7432 17.3729 39.9987 17.9897 39.9987 18.6329V21.368C39.9987 22.0112 39.7432 22.628 39.2884 23.0828C38.8336 23.5376 38.2167 23.7931 37.5736 23.7931Z" fill="#4285F4"/>
<path d="M11.2142 32.0017C10.571 32.0017 9.95416 31.7461 9.49936 31.2913C9.04457 30.8366 8.78906 30.2197 8.78906 29.5765V26.8394C8.78906 26.5209 8.85179 26.2056 8.97366 25.9113C9.09554 25.6171 9.27417 25.3498 9.49936 25.1246C9.72456 24.8994 9.9919 24.7207 10.2861 24.5989C10.5804 24.477 10.8957 24.4143 11.2142 24.4143C11.5327 24.4143 11.848 24.477 12.1422 24.5989C12.4365 24.7207 12.7038 24.8994 12.929 25.1246C13.1542 25.3498 13.3328 25.6171 13.4547 25.9113C13.5766 26.2056 13.6393 26.5209 13.6393 26.8394V29.5745C13.6396 29.8932 13.577 30.2087 13.4553 30.5032C13.3335 30.7977 13.1549 31.0652 12.9297 31.2906C12.7045 31.516 12.4371 31.6949 12.1427 31.8169C11.8483 31.9389 11.5328 32.0017 11.2142 32.0017V32.0017ZM11.2142 21.8011C10.571 21.8011 9.95416 21.5456 9.49936 21.0908C9.04457 20.636 8.78906 20.0192 8.78906 19.376V10.4276C8.78906 10.1091 8.85179 9.79374 8.97366 9.49951C9.09554 9.20528 9.27417 8.93794 9.49936 8.71274C9.72456 8.48755 9.9919 8.30892 10.2861 8.18704C10.5804 8.06517 10.8957 8.00244 11.2142 8.00244C11.5327 8.00244 11.848 8.06517 12.1422 8.18704C12.4365 8.30892 12.7038 8.48755 12.929 8.71274C13.1542 8.93794 13.3328 9.20528 13.4547 9.49951C13.5766 9.79374 13.6393 10.1091 13.6393 10.4276V19.374C13.6396 19.6927 13.577 20.0082 13.4553 20.3027C13.3335 20.5971 13.1549 20.8647 12.9297 21.0901C12.7045 21.3155 12.4371 21.4943 12.1427 21.6163C11.8483 21.7383 11.5328 21.8011 11.2142 21.8011V21.8011Z" fill="#EA4335"/>
<path d="M28.7884 32.0016C28.1452 32.0016 27.5284 31.746 27.0736 31.2912C26.6188 30.8365 26.3633 30.2196 26.3633 29.5764V20.627C26.3633 19.9838 26.6188 19.367 27.0736 18.9122C27.5284 18.4574 28.1452 18.2019 28.7884 18.2019C29.4316 18.2019 30.0484 18.4574 30.5032 18.9122C30.958 19.367 31.2135 19.9838 31.2135 20.627V29.5734C31.2139 29.8922 31.1515 30.2078 31.0298 30.5024C30.9081 30.797 30.7295 31.0647 30.5043 31.2902C30.279 31.5157 30.0116 31.6946 29.7171 31.8167C29.4227 31.9387 29.1071 32.0016 28.7884 32.0016ZM28.7884 15.5897C28.1452 15.5897 27.5284 15.3342 27.0736 14.8794C26.6188 14.4246 26.3633 13.8078 26.3633 13.1646V10.4265C26.3633 9.78328 26.6188 9.16644 27.0736 8.71164C27.5284 8.25685 28.1452 8.00134 28.7884 8.00134C29.4316 8.00134 30.0484 8.25685 30.5032 8.71164C30.958 9.16644 31.2135 9.78328 31.2135 10.4265V13.1616C31.2135 13.8048 30.958 14.4216 30.5032 14.8764C30.0484 15.3312 29.4316 15.5867 28.7884 15.5867V15.5897Z" fill="#34A853"/>
<path d="M19.9993 40.002C19.3562 40.002 18.7393 39.7465 18.2845 39.2917C17.8297 38.8369 17.5742 38.2201 17.5742 37.5769V34.8397C17.5742 34.1966 17.8297 33.5797 18.2845 33.1249C18.7393 32.6701 19.3562 32.4146 19.9993 32.4146C20.6425 32.4146 21.2593 32.6701 21.7141 33.1249C22.1689 33.5797 22.4244 34.1966 22.4244 34.8397V37.5749C22.4247 37.8935 22.3622 38.2091 22.2404 38.5035C22.1187 38.798 21.9401 39.0656 21.7149 39.291C21.4896 39.5164 21.2222 39.6952 20.9278 39.8172C20.6335 39.9392 20.318 40.002 19.9993 40.002V40.002ZM19.9993 29.7215C19.3562 29.7215 18.7393 29.466 18.2845 29.0112C17.8297 28.5564 17.5742 27.9395 17.5742 27.2964V12.7066C17.5742 12.0635 17.8297 11.4466 18.2845 10.9918C18.7393 10.537 19.3562 10.2815 19.9993 10.2815C20.6425 10.2815 21.2593 10.537 21.7141 10.9918C22.1689 11.4466 22.4244 12.0635 22.4244 12.7066V27.2944C22.4244 27.9375 22.1689 28.5544 21.7141 29.0092C21.2593 29.464 20.6425 29.7195 19.9993 29.7195V29.7215ZM19.9993 7.58738C19.6807 7.58738 19.3652 7.52459 19.0708 7.40259C18.7765 7.28059 18.509 7.10178 18.2838 6.87637C18.0586 6.65097 17.88 6.38339 17.7582 6.08893C17.6365 5.79447 17.574 5.4789 17.5742 5.16026V2.42512C17.5742 1.78194 17.8297 1.1651 18.2845 0.710302C18.7393 0.255503 19.3562 0 19.9993 0C20.6425 0 21.2593 0.255503 21.7141 0.710302C22.1689 1.1651 22.4244 1.78194 22.4244 2.42512V5.16026C22.4244 5.80344 22.1689 6.42028 21.7141 6.87508C21.2593 7.32988 20.6425 7.58538 19.9993 7.58538V7.58738Z" fill="#FAB908"/>
</g>
<defs>
<clipPath id="clip0_610_21893">
<rect width="40" height="40" fill="white"/>
</clipPath>
</defs>
</svg>
