<svg width="110" height="120" viewBox="0 0 110 120" fill="none" xmlns="http://www.w3.org/2000/svg">
<path fill-rule="evenodd" clip-rule="evenodd" d="M108.9 49.6364L93.5 38.1818V2.72727C93.5 2.00406 93.2103 1.31006 92.6946 0.798701C92.179 0.287345 91.4792 0 90.75 0H19.25C17.7314 0 16.5 1.22119 16.5 2.72727V38.1818L1.1 49.6364C0.413726 50.1575 0.00858 50.9623 0 51.8182V117.273C0 117.996 0.289734 118.69 0.805357 119.201C1.32098 119.713 2.02076 120 2.75 120H107.25C107.979 120 108.679 119.713 109.195 119.201C109.71 118.69 110 117.996 110 117.273V51.8182C109.991 50.9623 109.586 50.1575 108.9 49.6364ZM88 5.45455H22V62.5091L55 86.6188L88 62.5091V5.45455ZM102.63 51.8182L93.5 45.163V58.4733L102.63 51.8182ZM7.36969 51.8179L16.5 58.473V45.1627L7.36969 51.8179ZM42.9 84.4917L5.5 57.219V111.764L42.9 84.4917ZM47.41 87.9271L11 114.545H98.9994L62.3694 87.9271L56.5391 92.1811C55.5618 92.9079 54.2176 92.9079 53.2391 92.1811H53.2403L47.41 87.9271ZM67.1 84.5995L104.5 111.872V57.3268L67.1 84.5995Z" fill="#096142"/>
<path d="M70.62 22.6348C70.1216 22.1076 69.4242 21.8081 68.695 21.8081C67.9658 21.8081 67.2697 22.1076 66.77 22.6348L55.0003 34.3072L43.1753 22.6348C42.6769 22.1076 41.9796 21.8081 41.2503 21.8081C40.5211 21.8081 39.8237 22.1076 39.3253 22.6348C38.8048 23.1474 38.5114 23.8438 38.5114 24.5707C38.5114 25.2987 38.8048 25.9952 39.3253 26.5077L51.095 38.1802L39.3253 49.8526C38.5556 50.6318 38.3272 51.7921 38.7458 52.8002C39.1645 53.8096 40.1503 54.4743 41.2503 54.4889C41.9796 54.4975 42.6793 54.2004 43.1753 53.6708L55.0003 41.9983L66.77 53.6708C67.2697 54.198 67.9658 54.4975 68.695 54.4975C69.4242 54.4975 70.1216 54.1979 70.62 53.6708C71.1516 53.1765 71.4536 52.4849 71.4536 51.7617C71.4536 51.0385 71.1516 50.3481 70.62 49.8526L58.8503 38.1802L70.62 26.5077C71.1405 25.9952 71.4339 25.2987 71.4339 24.5707C71.4339 23.8438 71.1405 23.1474 70.62 22.6348Z" fill="#096142"/>
</svg>
