<svg width="11" height="16" viewBox="0 0 11 16" fill="none" xmlns="http://www.w3.org/2000/svg">
<path fill-rule="evenodd" clip-rule="evenodd" d="M5.4915 8.2729C3.23058 8.2729 1.35284 6.39618 1.35284 4.17475C1.35284 1.87672 3.23058 0 5.4915 0C7.82906 0 9.63014 1.87672 9.63014 4.17475C9.63014 6.39618 7.82906 8.2729 5.4915 8.2729ZM5.4915 2.41293C4.53347 2.41293 3.80537 3.21723 3.80537 4.17475C3.80537 5.13226 4.53347 5.85997 5.4915 5.85997C6.48784 5.85997 7.17761 5.13226 7.17761 4.17475C7.17761 3.21723 6.48784 2.41293 5.4915 2.41293ZM7.13929 11.6816L9.47685 13.9414C9.93672 14.4393 9.93672 15.167 9.47685 15.6266C8.97869 16.1245 8.21227 16.1245 7.82906 15.6266L5.4915 13.3285L3.23058 15.6266C3.00063 15.8564 2.69408 15.9713 2.34918 15.9713C2.08094 15.9713 1.77437 15.8564 1.50613 15.6266C1.04628 15.167 1.04628 14.4393 1.50613 13.9414L3.88202 11.6816C3.00063 11.4135 2.19592 11.0688 1.42949 10.6092C0.854679 10.3028 0.739707 9.53681 1.04628 8.96231C1.42949 8.38778 2.11926 8.2346 2.73239 8.6176C4.4185 9.6517 6.56448 9.6517 8.25059 8.6176C8.86372 8.2346 9.59182 8.38778 9.93672 8.96231C10.2816 9.53681 10.1283 10.3028 9.59182 10.6092C8.86372 11.0688 8.02067 11.4135 7.13929 11.6816Z" fill="currentColor"/>
</svg>
