<svg width="16" height="16" viewBox="0 0 16 16" fill="none" xmlns="http://www.w3.org/2000/svg">
<path fill-rule="evenodd" clip-rule="evenodd" d="M8.33977 1.27012C9.19216 0.44603 10.334 -0.0101402 11.5194 0.000171077C12.7048 0.0104824 13.8386 0.486446 14.6765 1.32523C15.5144 2.16399 15.9895 3.29841 15.9998 4.48411C16.0101 5.66982 15.5548 6.81232 14.7316 7.66551L14.7194 7.67792L12.6076 9.79183C12.6076 9.79188 12.6076 9.79179 12.6076 9.79183C12.1495 10.2506 11.5979 10.6055 10.9907 10.8323C10.3833 11.059 9.73431 11.1524 9.08769 11.1061C8.44107 11.0597 7.81201 10.8747 7.24319 10.5636C6.67438 10.2525 6.17913 9.82269 5.791 9.30327C5.46041 8.86086 5.55105 8.23422 5.99346 7.90363C6.43587 7.57303 7.06251 7.66368 7.39311 8.10609C7.60962 8.39583 7.88579 8.6355 8.20285 8.8089C8.5199 8.98229 8.87044 9.08538 9.2307 9.1112C9.59096 9.13703 9.95258 9.085 10.291 8.95862C10.6295 8.83224 10.9369 8.63444 11.1924 8.37859L13.2978 6.27107C13.7535 5.79584 14.0056 5.16076 13.9999 4.50147C13.9942 3.83952 13.7289 3.20652 13.2616 2.73873C12.7943 2.27098 12.1624 2.00584 11.502 2.0001C10.8438 1.99437 10.2095 2.24676 9.73469 2.7034L8.5294 3.90288C8.13794 4.29246 7.50478 4.29093 7.1152 3.89947C6.72561 3.508 6.72714 2.87484 7.11861 2.48526L8.32944 1.28025L8.33977 1.27012ZM5.00934 5.16774C5.61668 4.94095 6.26569 4.84756 6.91231 4.89392C7.55893 4.94027 8.18798 5.12529 8.7568 5.43638C9.32562 5.74746 9.82087 6.17731 10.209 6.69673C10.5396 7.13913 10.4489 7.76578 10.0065 8.09637C9.56413 8.42697 8.93748 8.33632 8.60689 7.89391C8.39038 7.60417 8.1142 7.3645 7.79715 7.1911C7.4801 7.01771 7.12956 6.91462 6.76929 6.8888C6.40903 6.86297 6.04742 6.915 5.70897 7.04138C5.37051 7.16776 5.06308 7.36556 4.80758 7.62141L2.70219 9.72892C2.24654 10.2042 1.99437 10.8392 2.0001 11.4985C2.00584 12.1605 2.27109 12.7935 2.73841 13.2613C3.20569 13.729 3.8376 13.9942 4.49798 13.9999C5.15571 14.0056 5.78965 13.7536 6.26435 13.2975L7.46149 12.0992C7.85182 11.7085 8.48498 11.7081 8.8757 12.0985C9.26642 12.4888 9.26674 13.122 8.87642 13.5127L7.67262 14.7177L7.66023 14.7299C6.80784 15.554 5.666 16.0101 4.48058 15.9998C3.29517 15.9895 2.16143 15.5136 1.32348 14.6748C0.485572 13.836 0.0104638 12.7016 0.000170782 11.5159C-0.0101223 10.3302 0.445219 9.18768 1.26843 8.33449L1.28061 8.32209L3.3924 6.20817C3.85056 5.74938 4.402 5.39452 5.00934 5.16774Z" fill="currentColor"/>
</svg>
