<?xml version="1.0" encoding="utf-8"?>
<!-- Generator: Adobe Illustrator 23.1.0, SVG Export Plug-In . SVG Version: 6.00 Build 0)  -->
<svg version="1.1" id="Layer_1" xmlns="http://www.w3.org/2000/svg" xmlns:xlink="http://www.w3.org/1999/xlink" x="0px" y="0px"
	 viewBox="0 0 533.1 602.9" style="enable-background:new 0 0 533.1 602.9;" xml:space="preserve">
<g>
	<path class="st0" d="M468.9,68.6c-3.4-2.3-6.8-2.3-10.2-1.1c-28.2,12.4-57.6,3.4-74.5-19.2c-7.9-10.2-12.4-23.7-12.4-36.1
		c0-3.4-1.1-5.6-3.4-7.9s-4.5-3.4-7.9-3.4H245.3c-6.8,0-11.3,4.5-11.3,11.3v400.9v2.3c-2.3,20.3-18.1,35-38.4,35
		c-21.5,0-39.5-18.1-39.5-39.5c0-20.3,14.7-36.1,35-38.4c5.6-1.1,10.2-5.6,10.2-11.3v-131c0-6.8-4.5-11.3-11.3-11.3h-2.3
		C83.8,223.4,3.6,306.9,3.6,410.8c0,106.2,85.8,192,192,192c99.4,0,183-76.8,190.9-175.1c1.1-1.1,1.1-3.4,1.1-4.5v-218
		c24.8,5.6,50.8,7.9,77.9,3.4c5.6-1.1,9-5.6,9-11.3V77.7C474.6,74.3,472.3,70.9,468.9,68.6L468.9,68.6z M452,188.4
		c-26,2.3-49.7,0-73.4-7.9c-3.4-1.1-6.8,0-10.2,1.1c-3.4,2.3-4.5,5.6-4.5,9v228.1c0,1.1,0,2.3-1.1,3.4
		c-5.6,88.1-80.2,158.1-168.3,158.1c-93.7,0-169.4-75.7-169.4-169.4c0-88.1,65.5-160.4,152.5-168.3v109.6
		c-26,7.9-45.2,31.6-45.2,58.7c0,33.9,28.2,62.1,62.1,62.1c30.5,0,56.5-22.6,61-52c1.1-1.1,1.1-3.4,1.1-4.5v-393h93.7
		c2.3,14.7,7.9,27.1,15.8,38.4c19.2,26,53.1,39.5,85.8,31.6L452,188.4z" stroke-miterlimit="10" stroke="currentColor" fill="currentColor"/>
</g>
</svg>
