<svg width="8" height="14" viewBox="0 0 8 14" fill="none" xmlns="http://www.w3.org/2000/svg">
<path d="M0.957542 7.4238H2.36804V13.2903C2.36804 13.4061 2.46093 13.5 2.57558 13.5H4.96712C5.08177 13.5 5.17467 13.4061 5.17467 13.2903V7.45144H6.79615C6.90158 7.45144 6.99028 7.37151 7.00232 7.2657L7.24859 5.10594C7.25535 5.04652 7.23672 4.98701 7.19737 4.94244C7.15798 4.89782 7.10161 4.87228 7.04246 4.87228H5.17475V3.51843C5.17475 3.11032 5.39225 2.90336 5.82128 2.90336C5.88242 2.90336 7.04246 2.90336 7.04246 2.90336C7.1571 2.90336 7.25 2.80947 7.25 2.69369V0.711229C7.25 0.595403 7.1571 0.501552 7.04246 0.501552H5.3595C5.34763 0.500965 5.32127 0.5 5.28242 0.5C4.99041 0.5 3.97541 0.557913 3.17363 1.30311C2.28527 2.1289 2.40876 3.11766 2.43827 3.28909V4.87224H0.957542C0.842896 4.87224 0.75 4.96609 0.75 5.08191V7.21408C0.75 7.32991 0.842896 7.4238 0.957542 7.4238Z" fill="currentColor"/>
</svg>
