<?xml version="1.0" encoding="utf-8"?>
<!-- Generator: Adobe Illustrator 23.1.0, SVG Export Plug-In . SVG Version: 6.00 Build 0)  -->
<svg version="1.1" id="Layer_1" xmlns="http://www.w3.org/2000/svg" xmlns:xlink="http://www.w3.org/1999/xlink" x="0px" y="0px"
	 viewBox="0 0 20 18" style="enable-background:new 0 0 20 18;" xml:space="preserve">
<path d="M18.2,1.9c-1.1-1.1-2.5-1.7-4-1.9c-1.5-0.1-3,0.3-4.2,1.2C8.7,0.3,7.2-0.1,5.6,0C4,0.2,2.6,1,1.5,2.2C0.5,3.4-0.1,5,0,6.6
	c0.1,1.6,0.7,3.1,1.8,4.3l6.2,6.3c0.5,0.5,1.2,0.8,2,0.8c0.7,0,1.4-0.3,2-0.8l6.2-6.3C19.3,9.7,20,8.1,20,6.4
	C20,4.7,19.3,3.1,18.2,1.9z M16.8,9.5l-6.2,6.3c-0.1,0.1-0.2,0.1-0.2,0.2C10.2,16,10.1,16,10,16c-0.1,0-0.2,0-0.3-0.1
	c-0.1,0-0.2-0.1-0.2-0.2L3.3,9.4C2.5,8.6,2,7.5,2,6.4c0-1.1,0.4-2.2,1.2-3c0.8-0.8,1.9-1.2,3-1.2c1.1,0,2.2,0.4,3,1.2
	c0.1,0.1,0.2,0.2,0.3,0.2C9.7,3.6,9.8,3.7,10,3.7c0.1,0,0.3,0,0.4-0.1c0.1-0.1,0.2-0.1,0.3-0.2c0.8-0.8,1.9-1.2,3-1.2s2.2,0.4,3,1.2
	c0.8,0.8,1.2,1.9,1.3,3S17.5,8.6,16.8,9.5L16.8,9.5z" fill="currentColor"/>
</svg>
