<?xml version="1.0" encoding="utf-8"?>
<!-- Generator: Adobe Illustrator 23.1.0, SVG Export Plug-In . SVG Version: 6.00 Build 0)  -->
<svg version="1.1" id="Layer_1" xmlns="http://www.w3.org/2000/svg" xmlns:xlink="http://www.w3.org/1999/xlink" x="0px" y="0px"
	 viewBox="0 0 28 28" style="enable-background:new 0 0 28 28;" xml:space="preserve">
<path d="M16.7,16.7c-2.2,2.3-2.4,5.1-2.6,11.3c5.8,0,9.8,0,11.8-2c2-2.1,2-6.2,2-11.8C21.8,14.3,19,14.5,16.7,16.7 M0,14.1
	c0,5.6,0,9.8,2,11.8c2.1,2,6,2,11.8,2c-0.2-6.2-0.4-9-2.6-11.3C9,14.5,6.2,14.3,0,14.1 M13.9,0C8.1,0,4.1,0,2,2C0,4.1,0,8.3,0,13.8
	c6.2-0.2,9-0.4,11.3-2.6C13.5,9,13.7,6.2,13.9,0 M16.7,11.3C14.5,9,14.3,6.2,14.1,0c5.8,0,9.8,0,11.8,2c2,2.1,2,6.2,2,11.8
	C21.8,13.6,19,13.5,16.7,11.3" fill="currentColor"/>
</svg>
