<svg width="74" height="24" viewBox="0 0 74 24" fill="none" xmlns="http://www.w3.org/2000/svg">
<path d="M73.3609 22.4491C64.8678 9.86365 50.7334 0.961548 35.7676 0.09305C35.177 0.0387688 32.2942 0 31.5482 0H1.91954C1.65331 0.00482368 1.39011 0.0573521 1.1425 0.155087C0.905409 0.255835 0.691285 0.403566 0.513095 0.589334C0.405011 0.693937 0.313324 0.814192 0.241125 0.946043C0.171659 1.06944 0.114405 1.19929 0.0701747 1.33377C0.0655689 1.35157 0.0655689 1.37024 0.0701747 1.38804C0.0342441 1.51206 0.0108193 1.63935 0.000243669 1.76801C0.003987 1.79892 0.003987 1.83016 0.000243669 1.86106C-0.00198045 2.0299 0.0110251 2.1986 0.0390982 2.36511L1.42223 10.2126L1.84183 12.5932C3.19389 18.9286 9.29368 24 15.6965 24H72.716C73.6717 24 74.0914 23.3796 73.4464 22.4491" fill="currentColor"/>
</svg>
