<?xml version="1.0" encoding="utf-8"?>
<!-- Generator: Adobe Illustrator 23.1.0, SVG Export Plug-In . SVG Version: 6.00 Build 0)  -->
<svg version="1.1" id="Layer_1" xmlns="http://www.w3.org/2000/svg" xmlns:xlink="http://www.w3.org/1999/xlink" x="0px" y="0px"
	 viewBox="0 0 533.1 602.9" style="enable-background:new 0 0 533.1 602.9;" xml:space="preserve">
<g>
	<path d="M94.8,104.6c104.4-27.9,214.3-27.9,318.7,0c35,9.4,61.8,38.1,68.8,73.8c12.3,63.3,12.3,128.4,0,191.7
		c-7,35.7-33.7,64.4-68.8,73.8c-2.6,0.7-5.3,1.4-8,2.1c-5.3,1.3-9,6.1-9,11.5v75.7c0,1.9-1.1,3.5-2.7,4.3c-1.7,0.8-3.7,0.5-5.1-0.7
		l-76.9-65.1c-6.5-5.5-14.8-8.3-23.3-7.8c-65.2,3.6-130.6-3.1-193.8-19.9c-35-9.4-61.8-38.1-68.8-73.8
		c-12.3-63.3-12.3-128.4,0-191.7C33,142.7,59.8,114,94.8,104.6z M245.4,252.1c2.6,0,7.8-4.3,7.8-7l3.9-8.4l-0.4,2.5
		c2.6,0,7.3,7.5,7.3,4.9l0.4,6.1c0-2.6,1.1-2.9-1.5-2.9l-4.3-6.4c-2.6,0,0-2.6,0,0l-8,3.5c0,2.6,5-1.3,7.6-1.3l-19.9-9.8l16.6,15.1
		c-31.6,43.6-4.8,3.2-2.2,3.2L245.4,252.1z" fill="currentColor" />
	<path d="M362.6,183.3c0-7.2-5.9-13.1-13.1-13.1H153.3c-7.2,0-13.1,5.9-13.1,13.1v45.8c0,7.2,5.9,13.1,13.1,13.1h45.8
		c7.2,0,13.1,5.9,13.1,13.1v124.3c0,7.2,5.9,13.1,13.1,13.1h52.3c7.2,0,13.1-5.9,13.1-13.1l0-124.3c0-7.2,5.9-13.1,13.1-13.1h45.7
		c7.2,0,13.1-5.9,13.1-13.1V183.3z" fill-rule="evenodd" clip-rule="evenodd" fill="white"/>
</g>
</svg>
