<svg width="16" height="16" viewBox="0 0 16 16" fill="none" xmlns="http://www.w3.org/2000/svg">
<path fill-rule="evenodd" clip-rule="evenodd" d="M8 2C4.68629 2 2 4.68629 2 8C2 11.3137 4.68629 14 8 14C11.3137 14 14 11.3137 14 8C14 4.68629 11.3137 2 8 2ZM0 8C0 3.58172 3.58172 0 8 0C12.4183 0 16 3.58172 16 8C16 12.4183 12.4183 16 8 16C3.58172 16 0 12.4183 0 8ZM8 2.8C8.55228 2.8 9 3.24772 9 3.8V7.38197L11.2472 8.50557C11.7412 8.75256 11.9414 9.35324 11.6944 9.84721C11.4474 10.3412 10.8468 10.5414 10.3528 10.2944L7.55279 8.89443C7.214 8.72503 7 8.37877 7 8V3.8C7 3.24772 7.44772 2.8 8 2.8Z" fill="#096142"/>
</svg>
