<svg width="16" height="16" viewBox="0 0 16 16" fill="none" xmlns="http://www.w3.org/2000/svg">
<path fill-rule="evenodd" clip-rule="evenodd" d="M4 1C4 0.447715 4.44772 0 5 0C5.55228 0 6 0.447715 6 1V2H10V1C10 0.447715 10.4477 0 11 0C11.5523 0 12 0.447715 12 1V2H13C14.6569 2 16 3.34315 16 5V13C16 14.6569 14.6569 16 13 16H3C1.34315 16 0 14.6569 0 13V5C0 3.34315 1.34315 2 3 2H4V1ZM10 4V5C10 5.55228 10.4477 6 11 6C11.5523 6 12 5.55228 12 5V4H13C13.5523 4 14 4.44772 14 5V13C14 13.5523 13.5523 14 13 14H3C2.44772 14 2 13.5523 2 13V5C2 4.44772 2.44772 4 3 4H4V5C4 5.55228 4.44772 6 5 6C5.55228 6 6 5.55228 6 5V4H10Z" fill="#096142"/>
</svg>
