<svg width="31" height="28" viewBox="0 0 31 28" fill="none" xmlns="http://www.w3.org/2000/svg">
<path d="M27.7649 3.36029C26.1745 1.74253 24.0662 0.755136 21.8209 0.576477C19.5756 0.397818 17.3414 1.03967 15.5218 2.38609C13.6128 0.945557 11.2367 0.292348 8.872 0.558009C6.50729 0.823669 4.32963 1.98847 2.77753 3.81784C1.22544 5.64721 0.414203 8.00526 0.507195 10.4172C0.600187 12.829 1.5905 15.1156 3.2787 16.8164L12.5961 26.2844C13.3763 27.0634 14.4271 27.5 15.5218 27.5C16.6165 27.5 17.6673 27.0634 18.4476 26.2844L27.7649 16.8164C29.5167 15.0282 30.5 12.6095 30.5 10.0883C30.5 7.56719 29.5167 5.14845 27.7649 3.36029ZM25.6494 14.7158L16.332 24.1685C16.226 24.2771 16.0998 24.3634 15.9607 24.4222C15.8217 24.481 15.6725 24.5113 15.5218 24.5113C15.3711 24.5113 15.222 24.481 15.0829 24.4222C14.9438 24.3634 14.8176 24.2771 14.7116 24.1685L5.39424 14.6701C4.21757 13.4498 3.55868 11.8106 3.55868 10.1036C3.55868 8.39648 4.21757 6.75728 5.39424 5.53701C6.59327 4.33599 8.21041 3.66255 9.89538 3.66255C11.5803 3.66255 13.1975 4.33599 14.3965 5.53701C14.536 5.67968 14.7019 5.79293 14.8848 5.8702C15.0676 5.94748 15.2637 5.98727 15.4618 5.98727C15.6599 5.98727 15.856 5.94748 16.0388 5.8702C16.2216 5.79293 16.3876 5.67968 16.5271 5.53701C17.7261 4.33599 19.3432 3.66255 21.0282 3.66255C22.7132 3.66255 24.3303 4.33599 25.5294 5.53701C26.7222 6.74129 27.4027 8.37161 27.4251 10.0787C27.4476 11.7858 26.8101 13.434 25.6494 14.6701V14.7158Z" fill="currentColor"/>
</svg>
