<svg width="360" height="120" viewBox="0 0 360 120" fill="none" xmlns="http://www.w3.org/2000/svg">
<path d="M358.024 7.75444C315.525 70.6817 244.798 115.192 169.911 119.535C166.956 119.806 152.531 120 148.798 120H9.60516C8.27296 119.976 6.95595 119.713 5.71693 119.225C4.53056 118.721 3.45911 117.982 2.56747 117.053C2.02663 116.53 1.56783 115.929 1.20656 115.27C0.858963 114.653 0.572468 114.004 0.351146 113.331C0.328099 113.242 0.328099 113.149 0.351146 113.06C0.171354 112.44 0.0541387 111.803 0.00121929 111.16C0.0199505 111.005 0.0199505 110.849 0.00121929 110.695C-0.00990994 109.851 0.0551683 109.007 0.195643 108.174L7.11669 68.937L9.21631 57.0339C15.9818 25.357 46.5045 0 78.5435 0H354.797C359.579 0 361.679 3.10178 358.452 7.75444" fill="currentColor"/>
</svg>
