<svg width="18" height="14" viewBox="0 0 18 14" fill="none" xmlns="http://www.w3.org/2000/svg">
<path fill-rule="evenodd" clip-rule="evenodd" d="M2.13692 7C2.2045 7.11725 2.28616 7.25432 2.38161 7.40673C2.7114 7.93333 3.19911 8.63241 3.83085 9.32733C5.1149 10.7398 6.86627 12 9 12C11.1337 12 12.8851 10.7398 14.1692 9.32733C14.8009 8.63241 15.2886 7.93333 15.6184 7.40673C15.7138 7.25432 15.7955 7.11725 15.8631 7C15.7955 6.88274 15.7138 6.74568 15.6184 6.59327C15.2886 6.06667 14.8009 5.36759 14.1692 4.67267C12.8851 3.26021 11.1337 2 9 2C6.86627 2 5.1149 3.26021 3.83085 4.67267C3.19911 5.36759 2.7114 6.06667 2.38161 6.59327C2.28616 6.74568 2.2045 6.88274 2.13692 7ZM17 7C17.8998 6.56373 17.8997 6.5634 17.8995 6.56305L17.8981 6.5602L17.8953 6.55449L17.8865 6.53662C17.8791 6.5219 17.8689 6.50159 17.8558 6.47608C17.8296 6.42507 17.7919 6.35316 17.743 6.26334C17.645 6.08382 17.5014 5.83194 17.3134 5.53173C16.9387 4.93333 16.3809 4.13241 15.649 3.32733C14.2058 1.73979 11.9572 0 9 0C6.04282 0 3.79419 1.73979 2.35097 3.32733C1.61908 4.13241 1.06133 4.93333 0.686574 5.53173C0.498565 5.83194 0.354964 6.08382 0.257048 6.26334C0.208052 6.35316 0.170384 6.42507 0.144208 6.47608C0.131117 6.50159 0.12089 6.5219 0.113549 6.53662L0.104699 6.55449L0.1019 6.5602L0.100907 6.56224C0.100738 6.56259 0.100186 6.56373 1 7L0.100186 6.56373C-0.0333953 6.83924 -0.0333953 7.16076 0.100186 7.43627L1 7C0.100186 7.43627 0.100017 7.43593 0.100186 7.43627L0.1019 7.4398L0.104699 7.44551L0.113549 7.46338C0.12089 7.4781 0.131117 7.49841 0.144208 7.52392C0.170384 7.57493 0.208052 7.64684 0.257048 7.73666C0.354964 7.91618 0.498565 8.16806 0.686574 8.46827C1.06133 9.06667 1.61908 9.86759 2.35097 10.6727C3.79419 12.2602 6.04282 14 9 14C11.9572 14 14.2058 12.2602 15.649 10.6727C16.3809 9.86759 16.9387 9.06667 17.3134 8.46827C17.5014 8.16806 17.645 7.91618 17.743 7.73666C17.7919 7.64684 17.8296 7.57493 17.8558 7.52392C17.8689 7.49841 17.8791 7.4781 17.8865 7.46338L17.8953 7.44551L17.8981 7.4398L17.8991 7.43776C17.8993 7.43741 17.8998 7.43627 17 7ZM17 7L17.8998 7.43627C18.0334 7.16076 18.0331 6.83856 17.8995 6.56305L17 7ZM9 5.75C8.37608 5.75 7.81818 6.28042 7.81818 7C7.81818 7.71958 8.37608 8.25 9 8.25C9.62392 8.25 10.1818 7.71958 10.1818 7C10.1818 6.28042 9.62392 5.75 9 5.75ZM5.81818 7C5.81818 5.2343 7.21395 3.75 9 3.75C10.7861 3.75 12.1818 5.2343 12.1818 7C12.1818 8.7657 10.7861 10.25 9 10.25C7.21395 10.25 5.81818 8.7657 5.81818 7Z" fill="currentColor"/>
</svg>
