<svg width="14" height="12" viewBox="0 0 14 12" fill="none" xmlns="http://www.w3.org/2000/svg">
<path fill-rule="evenodd" clip-rule="evenodd" d="M1.39009 5.26003C4.87904 3.74483 7.20168 2.73802 8.36798 2.24957C11.6875 0.863957 12.3852 0.624715 12.8338 0.614746C12.9335 0.614746 13.1528 0.634683 13.3023 0.754304C13.422 0.853988 13.4519 0.983578 13.4718 1.08326C13.4917 1.18295 13.5117 1.39228 13.4917 1.55178C13.3123 3.44577 12.5348 8.04121 12.136 10.1545C11.9666 11.0517 11.6376 11.3507 11.3186 11.3806C10.6208 11.4404 10.0925 10.9221 9.42463 10.4835C8.36798 9.79565 7.77984 9.36701 6.7531 8.68916C5.56686 7.91162 6.33442 7.48298 7.01228 6.78519C7.19171 6.60576 10.252 3.81461 10.3118 3.5654C10.3218 3.53549 10.3218 3.41587 10.252 3.35606C10.1822 3.29625 10.0825 3.31619 10.0028 3.33612C9.89315 3.35606 8.21845 4.47252 4.95878 6.67554C4.4803 7.0045 4.05166 7.16399 3.66289 7.15402C3.23425 7.14406 2.41684 6.91478 1.7988 6.71541C1.05117 6.47617 0.453062 6.34658 0.502905 5.92791C0.53281 5.7086 0.831862 5.4893 1.39009 5.26003Z" fill="currentColor"/>
</svg>
