<svg width="20" height="22" viewBox="0 0 20 22" fill="none" xmlns="http://www.w3.org/2000/svg">
<path d="M19.3852 4.74576C19.3511 4.61806 19.292 4.49841 19.2113 4.3937C19.1306 4.289 19.03 4.20133 18.9152 4.13576L13.7152 1.13576C13.6017 1.06923 13.4761 1.02576 13.3458 1.00784C13.2154 0.98993 13.0828 0.997925 12.9555 1.03137C12.8282 1.06481 12.7088 1.12305 12.6041 1.20274C12.4993 1.28243 12.4114 1.382 12.3452 1.49576L10.0052 5.55576L7.66522 1.49576C7.59906 1.382 7.51109 1.28243 7.40637 1.20274C7.30165 1.12305 7.18223 1.06481 7.05495 1.03137C6.92768 0.997925 6.79505 0.98993 6.66468 1.00784C6.53431 1.02576 6.40876 1.06923 6.29522 1.13576L1.09522 4.13576C0.980453 4.20133 0.879822 4.289 0.799149 4.3937C0.718476 4.49841 0.65936 4.61806 0.625221 4.74576C0.559037 4.99921 0.594944 5.2685 0.725221 5.49576L4.72522 12.3258C4.27897 13.1433 4.03226 14.0547 4.00522 14.9858C4.00284 15.894 4.2067 16.791 4.60144 17.609C4.99617 18.4271 5.57148 19.1448 6.28398 19.7081C6.99647 20.2714 7.82757 20.6657 8.71459 20.861C9.60162 21.0564 10.5214 21.0478 11.4047 20.836C12.2879 20.6241 13.1115 20.2145 13.8134 19.638C14.5153 19.0616 15.0771 18.3332 15.4566 17.508C15.836 16.6828 16.0231 15.7822 16.0038 14.8741C15.9846 13.966 15.7594 13.0741 15.3452 12.2658L19.2452 5.50576C19.3178 5.3947 19.3676 5.27031 19.3916 5.13983C19.4156 5.00935 19.4135 4.87539 19.3852 4.74576ZM3.00522 5.36576L6.46522 3.36576L9.68522 8.98576C8.31264 9.07056 7.01201 9.62898 6.00522 10.5658L3.00522 5.36576ZM10.0052 18.9858C8.94435 18.9858 7.92694 18.5643 7.17679 17.8142C6.42665 17.064 6.00522 16.0466 6.00522 14.9858C6.00522 13.9249 6.42665 12.9075 7.17679 12.1573C7.92694 11.4072 8.94435 10.9858 10.0052 10.9858C11.0661 10.9858 12.0835 11.4072 12.8336 12.1573C13.5838 12.9075 14.0052 13.9249 14.0052 14.9858C14.0052 16.0466 13.5838 17.064 12.8336 17.8142C12.0835 18.5643 11.0661 18.9858 10.0052 18.9858ZM14.0052 10.5358C13.4623 10.0399 12.8315 9.64984 12.1452 9.38576L11.1652 7.55576L13.5852 3.36576L17.0452 5.36576L14.0052 10.5358Z" fill="currentColor"/>
</svg>
