<svg width="16" height="20" viewBox="0 0 16 20" fill="none" xmlns="http://www.w3.org/2000/svg">
<path fill-rule="evenodd" clip-rule="evenodd" d="M8 10C10.7614 10 13 7.76142 13 5C13 2.23858 10.7614 0 8 0C5.23858 0 3 2.23858 3 5C3 7.76142 5.23858 10 8 10ZM8 8C9.65685 8 11 6.65685 11 5C11 3.34315 9.65685 2 8 2C6.34315 2 5 3.34315 5 5C5 6.65685 6.34315 8 8 8Z" fill="currentColor"/>
<path d="M2.00781 19.1415C2.4273 16.2348 4.9512 14 8 14C11.0488 14 13.5727 16.2348 13.9922 19.1415C14.0711 19.6882 14.5822 20.068 15.1338 19.9898C15.6854 19.9116 16.0686 19.405 15.9897 18.8583C15.4301 14.9805 12.0671 12 8 12C3.93291 12 0.569926 14.9805 0.0102943 18.8583C-0.0686057 19.405 0.314592 19.9116 0.866192 19.9898C1.41779 20.068 1.92891 19.6882 2.00781 19.1415Z" fill="currentColor"/>
</svg>
