<svg width="20" height="18" viewBox="0 0 20 18" fill="none" xmlns="http://www.w3.org/2000/svg">
<path d="M18.1766 2.01042C17.1163 0.947627 15.7108 0.298959 14.2139 0.181589C12.7171 0.0642192 11.2276 0.485885 10.0145 1.37042C8.74187 0.424057 7.15781 -0.00506942 5.58133 0.169457C4.00486 0.343983 2.55308 1.1092 1.51835 2.311C0.483624 3.51281 -0.0571979 5.06194 0.00479662 6.64643C0.0667912 8.23093 0.726997 9.73309 1.85246 10.8504L8.06404 17.0704C8.58419 17.5822 9.28474 17.869 10.0145 17.869C10.7443 17.869 11.4449 17.5822 11.965 17.0704L18.1766 10.8504C19.3445 9.67569 20 8.08669 20 6.43042C20 4.77415 19.3445 3.18515 18.1766 2.01042ZM16.7663 9.47042L10.5547 15.6804C10.484 15.7518 10.3999 15.8084 10.3072 15.8471C10.2144 15.8857 10.115 15.9056 10.0145 15.9056C9.91409 15.9056 9.81464 15.8857 9.72192 15.8471C9.62922 15.8084 9.54509 15.7518 9.4744 15.6804L3.26282 9.44042C2.47838 8.63876 2.03912 7.56189 2.03912 6.44042C2.03912 5.31895 2.47838 4.24207 3.26282 3.44042C4.06218 2.65141 5.14027 2.20899 6.26359 2.20899C7.3869 2.20899 8.46499 2.65141 9.26435 3.44042C9.35734 3.53415 9.46797 3.60854 9.58986 3.65931C9.71175 3.71008 9.84248 3.73622 9.97453 3.73622C10.1066 3.73622 10.2373 3.71008 10.3592 3.65931C10.4811 3.60854 10.5917 3.53415 10.6847 3.44042C11.4841 2.65141 12.5622 2.20899 13.6855 2.20899C14.8088 2.20899 15.8869 2.65141 16.6862 3.44042C17.4815 4.23157 17.9351 5.30261 17.9501 6.42411C17.9651 7.5456 17.5401 8.62835 16.7663 9.44042V9.47042Z" fill="currentColor"/>
</svg>
