<svg width="20" height="22" viewBox="0 0 20 22" fill="none" xmlns="http://www.w3.org/2000/svg">
<path d="M18.2192 11.6599C18.0589 11.4774 17.9705 11.2428 17.9705 10.9999C17.9705 10.757 18.0589 10.5224 18.2192 10.3399L19.4992 8.89989C19.6403 8.74256 19.7279 8.5446 19.7494 8.3344C19.771 8.12421 19.7254 7.91258 19.6192 7.72989L17.6192 4.2699C17.5141 4.08742 17.3541 3.94277 17.162 3.85658C16.9698 3.77039 16.7554 3.74705 16.5492 3.7899L14.6692 4.1699C14.43 4.21932 14.181 4.17948 13.9691 4.0579C13.7573 3.93631 13.5972 3.74138 13.5192 3.5099L12.9092 1.6799C12.8421 1.48127 12.7143 1.30876 12.5439 1.18674C12.3734 1.06471 12.1689 0.999354 11.9592 0.999895H7.95923C7.74117 0.988513 7.52537 1.04882 7.3448 1.17161C7.16423 1.2944 7.02881 1.47291 6.95923 1.6799L6.39923 3.5099C6.32123 3.74138 6.1612 3.93631 5.94935 4.0579C5.73749 4.17948 5.48845 4.21932 5.24923 4.1699L3.31923 3.7899C3.12378 3.76228 2.92453 3.79312 2.74658 3.87853C2.56863 3.96395 2.41993 4.10012 2.31923 4.2699L0.319232 7.72989C0.210392 7.91054 0.161454 8.12098 0.179415 8.33112C0.197375 8.54126 0.281314 8.74034 0.419232 8.89989L1.68923 10.3399C1.84955 10.5224 1.93797 10.757 1.93797 10.9999C1.93797 11.2428 1.84955 11.4774 1.68923 11.6599L0.419232 13.0999C0.281314 13.2595 0.197375 13.4585 0.179415 13.6687C0.161454 13.8788 0.210392 14.0892 0.319232 14.2699L2.31923 17.7299C2.42433 17.9124 2.58435 18.057 2.77648 18.1432C2.96862 18.2294 3.18306 18.2527 3.38923 18.2099L5.26923 17.8299C5.50845 17.7805 5.75749 17.8203 5.96935 17.9419C6.1812 18.0635 6.34123 18.2584 6.41923 18.4899L7.02923 20.3199C7.09881 20.5269 7.23423 20.7054 7.4148 20.8282C7.59537 20.951 7.81117 21.0113 8.02923 20.9999H12.0292C12.2389 21.0004 12.4434 20.9351 12.6139 20.8131C12.7843 20.691 12.9121 20.5185 12.9792 20.3199L13.5892 18.4899C13.6672 18.2584 13.8273 18.0635 14.0391 17.9419C14.251 17.8203 14.5 17.7805 14.7392 17.8299L16.6192 18.2099C16.8254 18.2527 17.0398 18.2294 17.232 18.1432C17.4241 18.057 17.5841 17.9124 17.6892 17.7299L19.6892 14.2699C19.7954 14.0872 19.841 13.8756 19.8194 13.6654C19.7979 13.4552 19.7103 13.2572 19.5692 13.0999L18.2192 11.6599ZM16.7292 12.9999L17.5292 13.8999L16.2492 16.1199L15.0692 15.8799C14.349 15.7327 13.5998 15.855 12.9638 16.2237C12.3279 16.5924 11.8494 17.1817 11.6192 17.8799L11.2392 18.9999H8.67923L8.31923 17.8599C8.08909 17.1617 7.61061 16.5724 6.97464 16.2037C6.33866 15.835 5.58945 15.7127 4.86923 15.8599L3.68923 16.0999L2.38923 13.8899L3.18923 12.9899C3.68119 12.4399 3.95316 11.7278 3.95316 10.9899C3.95316 10.252 3.68119 9.53992 3.18923 8.98989L2.38923 8.0899L3.66923 5.88989L4.84923 6.1299C5.56945 6.27712 6.31866 6.15478 6.95464 5.78609C7.59061 5.41741 8.06909 4.82805 8.29923 4.1299L8.67923 2.9999H11.2392L11.6192 4.13989C11.8494 4.83805 12.3279 5.42741 12.9638 5.79609C13.5998 6.16478 14.349 6.28712 15.0692 6.13989L16.2492 5.8999L17.5292 8.11989L16.7292 9.0199C16.2428 9.56866 15.9742 10.2766 15.9742 11.0099C15.9742 11.7432 16.2428 12.4511 16.7292 12.9999ZM9.95923 6.9999C9.16811 6.9999 8.39475 7.23449 7.73695 7.67402C7.07915 8.11354 6.56646 8.73826 6.26371 9.46916C5.96096 10.2001 5.88175 11.0043 6.03609 11.7803C6.19043 12.5562 6.57139 13.2689 7.13081 13.8283C7.69022 14.3877 8.40295 14.7687 9.17887 14.923C9.95479 15.0774 10.7591 14.9982 11.49 14.6954C12.2209 14.3927 12.8456 13.88 13.2851 13.2222C13.7246 12.5644 13.9592 11.791 13.9592 10.9999C13.9592 9.93903 13.5378 8.92161 12.7877 8.17147C12.0375 7.42132 11.0201 6.9999 9.95923 6.9999ZM9.95923 12.9999C9.56367 12.9999 9.17699 12.8826 8.84809 12.6628C8.51919 12.4431 8.26285 12.1307 8.11147 11.7653C7.9601 11.3998 7.92049 10.9977 7.99766 10.6097C8.07483 10.2218 8.26531 9.86539 8.54502 9.58568C8.82472 9.30598 9.18109 9.11549 9.56905 9.03832C9.95701 8.96115 10.3591 9.00076 10.7246 9.15214C11.0901 9.30351 11.4024 9.55986 11.6222 9.88875C11.8419 10.2177 11.9592 10.6043 11.9592 10.9999C11.9592 11.5303 11.7485 12.039 11.3734 12.4141C10.9984 12.7892 10.4897 12.9999 9.95923 12.9999Z" fill="currentColor"/>
</svg>
