<svg width="100" height="160" fill="none" xmlns="http://www.w3.org/2000/svg"><path fill-rule="evenodd" clip-rule="evenodd" d="M77.553 93.986l-.007-.004-27.6-19.974-27.6 19.975c-.85.63-2.123.63-3.185 0-.85-.631-1.274-1.893-1.06-2.944l10.614-32.168-27.6-19.975c-.85-.63-1.273-1.892-1.06-2.943.424-1.05 1.273-1.892 2.547-1.892h34.18L47.399 1.892C47.822.842 48.672 0 49.946 0s2.123.63 2.548 1.892l10.615 32.169h34.18c1.062 0 2.124.63 2.548 1.892.425 1.051 0 2.313-1.06 2.943l-27.6 19.975L81.79 91.039c.425 1.051 0 2.313-1.06 2.944-.425.209-1.062.42-1.699.42-.633 0-1.056-.209-1.479-.417zM49.947 68.121c.633 0 1.056.208 1.48.416l.007.004 22.504 16.19-8.704-26.282c-.424-1.05 0-2.312 1.06-2.943L88.8 39.316H60.986c-1.06 0-2.123-.63-2.547-1.892l-8.492-26.07-8.705 26.28c-.424 1.052-1.274 1.893-2.547 1.893H10.882l22.504 16.19c.85.63 1.274 1.892 1.062 2.943l-8.705 26.281 22.716-16.4h.002c.425-.21.85-.42 1.485-.42z" fill="#fff"/><path d="M52.706 109.326V75.679c0-1.472-1.273-2.734-2.76-2.734-1.487 0-2.76 1.262-2.76 2.734v33.647H20.65c-1.486 0-2.76 1.262-2.76 2.734v42.985h5.307v-40.461h53.5v39.948H9.185c-1.486 0-2.76 1.262-2.76 2.734S7.699 160 9.185 160H90.71c1.486 0 2.76-1.262 2.761-2.734 0-1.472-1.273-2.734-2.76-2.734h-8.282l.002-42.472c0-1.472-1.274-2.734-2.76-2.734H52.705z" fill="#fff"/><path fill-rule="evenodd" clip-rule="evenodd" d="M66.08 144.442H33.599v-19.553h32.483v19.553zm-27.174-5.257h21.868v-9.04H38.906v9.04z" fill="#fff"/></svg>