<svg width="160" height="160" fill="none" xmlns="http://www.w3.org/2000/svg"><path d="M74.822 110.162c0 1.381 1.133 2.499 2.534 2.499h5.308c1.402 0 2.536-1.118 2.534-2.499 0-1.382-1.133-2.5-2.534-2.5h-5.308c-1.4 0-2.534 1.118-2.534 2.5z" fill="#fff"/><path fill-rule="evenodd" clip-rule="evenodd" d="M37.667 9.16V4.717c0-.922.514-1.77 1.339-2.204 12.326-6.512 26.05.94 38.158 7.52.96.522 1.911 1.039 2.849 1.54.838-.449 1.687-.91 2.545-1.376l.309-.167c12.105-6.574 25.817-14.02 38.149-7.515a2.493 2.493 0 011.34 2.204v4.452c3.423.763 7.495 1.703 10.459 2.937a2.5 2.5 0 011.547 2.301v.088h14.979c5.863 0 10.633 4.743 10.633 10.575v72.785a2.486 2.486 0 010 .716v15.577c0 5.83-4.77 10.574-10.633 10.574v-.001H94.358c1.156 8.396 7.478 21.962 18.328 30.278h16.48c1.4 0 2.534 1.119 2.534 2.5.001 1.381-1.133 2.499-2.533 2.499H30.313c-1.4 0-2.534-1.118-2.534-2.499s1.134-2.5 2.534-2.5h16.98c10.852-8.315 17.174-21.882 18.33-30.278H10.636C4.774 124.723 0 119.978 0 114.146L.001 25.07c0-5.832 4.772-10.574 10.636-10.574h15.007v-.087a2.5 2.5 0 011.555-2.305c2.975-1.23 7.068-2.198 10.468-2.944zm44.88 70.66a245.458 245.458 0 005.197-3.255c9.293-5.927 19.73-12.578 29.544-10.023V6.288c-9.673-3.998-21.489 2.42-31.972 8.113l-.016.009a593.15 593.15 0 01-2.753 1.49v63.92zm-5.07-63.914c-.701-.377-1.41-.761-2.124-1.15l-.636-.344c-10.489-5.7-22.314-12.117-31.981-8.12v4.712c.003.054.005.109.005.164v55.377a17.37 17.37 0 012.091-.406 18.314 18.314 0 012.386-.156c.215 0 .43.004.646.01 8.232.265 16.666 5.637 24.33 10.518l.027.018c1.807 1.15 3.556 2.265 5.256 3.288V15.906zm-39.81-1.622c-2.33.527-4.86 1.147-6.954 1.854V80.51c10.451-3.591 22.208-4.634 33.41-3.131l-.339-.204c-6.176-3.709-12.312-6.657-17.84-6.127a12.08 12.08 0 00-3.73.963 3.275 3.275 0 01-2.36.117 3.217 3.217 0 01-.731-.351 3.137 3.137 0 01-1.456-2.651V14.284zm41.128 72.062c-15.345-6.233-34.337-6.197-49.642.102a2.56 2.56 0 01-2.381-.227 2.49 2.49 0 01-1.129-2.08l.001-64.646H10.636c-3.07 0-5.566 2.502-5.566 5.575v70.646h149.835V25.07c0-3.073-2.495-5.574-5.564-5.574h-14.979v64.643a2.48 2.48 0 01-1.131 2.08 2.557 2.557 0 01-2.382.226c-15.284-6.306-34.274-6.335-49.628-.093l-.015.008a2.566 2.566 0 01-1.196.294l.001-.001H80a2.543 2.543 0 01-1.182-.295l-.022-.012zm39.019-14.335a11.84 11.84 0 00-1.113-.423c-6.267-2.024-13.505 1.392-20.785 5.79a75.313 75.313 0 0110.017-.668c8.004 0 16.001 1.264 23.359 3.799v-64.37c-2.087-.702-4.653-1.322-6.93-1.84v54.83a3.138 3.138 0 01-1.456 2.651 3.261 3.261 0 01-2.379.453 3.363 3.363 0 01-.713-.222zm37.091 28.704v13.434c0 3.075-2.495 5.577-5.564 5.577H10.635c-3.069 0-5.565-2.502-5.565-5.577v-13.434h149.835zm-84.19 24.028c-.965 8.006-6.088 20.716-15.78 30.257h50.106c-9.689-9.542-14.813-22.251-15.778-30.257H70.715z" fill="#fff"/></svg>