<svg width="114" height="120" fill="none" xmlns="http://www.w3.org/2000/svg"><path d="M32.584 13.846a2.312 2.312 0 01-2.316-2.307V9.23h-2.316a2.312 2.312 0 01-2.315-2.308 2.312 2.312 0 012.315-2.308h2.316V2.308A2.312 2.312 0 0132.584 0a2.312 2.312 0 012.315 2.308v2.307h2.316a2.312 2.312 0 012.315 2.308 2.312 2.312 0 01-2.315 2.308h-2.316v2.308a2.312 2.312 0 01-2.316 2.307zm57.889 99.231a2.312 2.312 0 00-2.316-2.308h-2.315v-2.307a2.312 2.312 0 00-2.316-2.308 2.312 2.312 0 00-2.315 2.308v2.307h-2.316a2.312 2.312 0 00-2.316 2.308 2.312 2.312 0 002.316 2.308h2.316v2.307A2.312 2.312 0 0083.526 120a2.312 2.312 0 002.316-2.308v-2.307h2.315a2.312 2.312 0 002.316-2.308z" fill="#096142"/><path fill-rule="evenodd" clip-rule="evenodd" d="M11.743 32.308a9.282 9.282 0 006.55-2.704 9.219 9.219 0 002.713-6.527 9.219 9.219 0 00-2.713-6.528 9.282 9.282 0 00-13.1 0 9.218 9.218 0 00-2.712 6.528c0 2.448.976 4.796 2.713 6.527a9.282 9.282 0 006.55 2.704zm0-13.846a4.64 4.64 0 013.275 1.351 4.608 4.608 0 010 6.528 4.64 4.64 0 01-6.55 0 4.609 4.609 0 010-6.528 4.64 4.64 0 013.275-1.351zm92.623 64.615a9.281 9.281 0 00-6.55 2.703 9.219 9.219 0 00-2.712 6.528c0 2.447.976 4.795 2.713 6.527a9.28 9.28 0 006.549 2.703 9.283 9.283 0 006.55-2.703 9.218 9.218 0 002.713-6.527 9.218 9.218 0 00-2.713-6.528 9.283 9.283 0 00-6.55-2.703zm0 13.846a4.642 4.642 0 01-3.275-1.352 4.61 4.61 0 010-6.527 4.642 4.642 0 016.55 0 4.605 4.605 0 010 6.527 4.64 4.64 0 01-3.275 1.352zm-27.093-57.46a8.361 8.361 0 01-2.779.461v-.092a9.274 9.274 0 01-7.062-3.227 9.206 9.206 0 01-2.112-7.45 9.227 9.227 0 014.323-6.433 9.287 9.287 0 017.718-.89 9.25 9.25 0 015.681 5.28 9.201 9.201 0 01-.35 7.735 9.254 9.254 0 01-5.419 4.616zm-5.19-12.715a4.618 4.618 0 00-1.71 1.822 4.604 4.604 0 001.99 6.185 4.643 4.643 0 006.253-1.938 4.602 4.602 0 00.303-3.528 4.622 4.622 0 00-4.425-3.21 4.635 4.635 0 00-2.411.669zM29.156 71.63a9.279 9.279 0 01-2.918.507h-.139a9.27 9.27 0 01-7.24-3.522 9.205 9.205 0 01-1.735-7.841 9.238 9.238 0 015.087-6.228 9.292 9.292 0 018.056.099 9.24 9.24 0 014.632 5.354 9.201 9.201 0 01-.479 6.989 9.253 9.253 0 01-5.264 4.642zm-2.918-13.108a4.16 4.16 0 00-1.481 0h-.001a4.627 4.627 0 00-2.766 2.397 4.6 4.6 0 00-.152 3.649 4.644 4.644 0 007.864 1.617 4.606 4.606 0 00.935-4.524 4.618 4.618 0 00-1.69-2.277 4.65 4.65 0 00-2.71-.862z" fill="#096142"/><path fill-rule="evenodd" clip-rule="evenodd" d="M82.491 88.075a11.614 11.614 0 01-8.829-.752h-.231l.368 1.109a11.138 11.138 0 01-.648 8.86 11.38 11.38 0 01-6.715 5.77L31.33 114.693a11.235 11.235 0 01-3.658.6 11.883 11.883 0 01-5.187-1.199 11.501 11.501 0 01-5.789-6.693L7.11 78.739.627 59.26a11.138 11.138 0 01.649-8.86 11.383 11.383 0 016.715-5.77l34.781-11.585c1.56-.541 3.2-.73 4.811-.574l4.74-9.23c.025-.055.052-.11.081-.165L59.26 9.739a11.565 11.565 0 016.777-5.691 11.615 11.615 0 018.83.752l32.881 16.984a11.545 11.545 0 015.71 6.754 11.501 11.501 0 01-.755 8.8L89.268 82.383a11.565 11.565 0 01-6.777 5.691zM56.305 25.49c.065-.092.124-.188.175-.29L63.334 12a6.984 6.984 0 014.021-3.37 7.01 7.01 0 015.241.37l32.882 16.984a6.88 6.88 0 013.426 4.109 6.94 6.94 0 01-.416 5.26L94.594 61.709l-5.14-12.093a2.27 2.27 0 00-2.825-1.292L62.64 55.94l-5.232-15.6h-.001a11.505 11.505 0 00-5.446-6.514l4.344-8.335zM11.463 77.26L4.981 58.015a7.041 7.041 0 01.416-5.307 6.937 6.937 0 014.03-3.461L44.576 37.57a7.064 7.064 0 015.358.494 7.023 7.023 0 013.441 4.12l9.262 28.154-12.272-4.615a2.366 2.366 0 00-2.917 1.108l-10.56 20.862-9.632-4.616a2.367 2.367 0 00-2.779.554l-8.104 8.677-4.91-15.047zm74.888-23.955l5.79 13.847-6.948 13.338a6.983 6.983 0 01-4.02 3.37 7.01 7.01 0 01-5.242-.37L71.3 81.183l-6.947-20.816 21.998-7.06zm-17.32 41.908a6.937 6.937 0 01-4.03 3.462l-35.149 11.676v.001a7.062 7.062 0 01-5.276-.315 7.02 7.02 0 01-3.57-3.885l-2.778-8.816 8.567-9.646 10.096 5.03a2.312 2.312 0 001.76 0 2.22 2.22 0 001.343-1.153l10.79-21.462 13.894 5.401 2.64 7.846 2.222 6.555v-.001a7.037 7.037 0 01-.509 5.307z" fill="#096142"/></svg>