<svg width="104" height="40" fill="none" xmlns="http://www.w3.org/2000/svg"><g clip-path="url(#clip0_614_136)"><path d="M53.728 7.62a2.313 2.313 0 002.136-2.075 1.542 1.542 0 00-1.542-2.046l-.594 4.122zm-2.164-4.24a2.313 2.313 0 00-2.224 2.046 1.542 1.542 0 001.542 2.046l.682-4.092zm7.265 2.165a5.337 5.337 0 01-5.456 4.18l-.208 1.276H50.2l.208-1.275c-2.758 0-4.448-1.631-4.033-4.21a5.308 5.308 0 015.456-4.182L52.038.09h2.966l-.208 1.245c2.787 0 4.477 1.602 4.033 4.21zm5.931 1.512c.207-1.305 0-2.016-1.098-2.016-1.097 0-1.601.682-1.809 1.986-.207 1.335 0 2.046 1.127 2.046s1.572-.74 1.78-2.016zm-5.486 0a4.773 4.773 0 014.744-4.062 3.173 3.173 0 013.35 3.973 4.685 4.685 0 01-4.714 4.033 3.113 3.113 0 01-3.35-3.944m13.787.771h-2.194l-.534 3.054h-2.49l1.304-7.739h2.491l-.475 2.906h2.224l.475-2.906h2.52l-1.304 7.74h-2.52l.503-3.055zm6.257 1.245h1.986l.682-4.121h-1.542c0 .83-.267 1.542-.415 2.194a7.975 7.975 0 01-.711 1.927zm-1.424 3.677H75.7l.623-3.677h.297c.444-.207.83-.83 1.186-2.135a36.43 36.43 0 00.711-3.795h6.257l-.979 5.93h.979l-.623 3.677h-2.224l.297-1.868H78.19l-.267 1.868zm-32.261.8h2.906l-.682 4.063h3.321l.682-4.062h2.876l-1.779 10.585h-2.906l.712-4.15h-3.32l-.683 4.15h-2.906l1.78-10.585zm13.64 7.888v-.474h-.474c-1.038 0-1.513.207-1.631.83-.119.623.178.741.77.741a1.394 1.394 0 001.424-1.097h-.089zm-4.625.563c.296-1.808 1.897-2.52 4.358-2.52h.682v-.178c.148-.741 0-1.245-.741-1.245a1.126 1.126 0 00-1.156.919h-2.373a3.677 3.677 0 013.974-2.787c2.046 0 3.202.89 2.965 2.965l-.83 5.011h-2.728l.148-.89a2.964 2.964 0 01-2.372 1.068c-1.334 0-2.372-.682-2.105-2.313m9.607-5.634h2.52l-1.008 5.93h1.453l.978-5.93h2.52l-1.007 5.93h1.453l1.008-5.93h2.52l-1.305 7.74H62.802l1.305-7.74zm16.338 2.995c0-.919-.237-1.453-1.068-1.453a1.808 1.808 0 00-1.66 1.453h2.728zm-5.456.979a4.714 4.714 0 014.596-4.181c2.016 0 3.558 1.215 2.965 4.003v.711h-5.189c0 1.009.356 1.602 1.275 1.602a1.363 1.363 0 001.423-.92h2.373a3.885 3.885 0 01-4.181 2.728 2.965 2.965 0 01-3.262-3.943zM45.752 35.197c.92 0 1.483-.356 1.601-1.157 0-.741-.296-1.156-1.245-1.156h-.83l-.386 2.372.86-.06zm-.267 2.283H41.66l1.78-10.586h6.938l-.445 2.372h-4.062l-.267 1.512h1.068c2.52 0 3.736 1.157 3.38 3.262a4.063 4.063 0 01-4.626 3.41m7.235-.83l-1.779-6.939h2.728l.83 4.122 2.106-4.122h2.431L53.284 40h-2.431l1.808-3.38zm8.095-1.008h1.987l.682-4.122h-1.631c-.148.83-.296 1.542-.445 2.165a8.245 8.245 0 01-.711 1.957h.118zm-1.542 3.676H56.99l.623-3.676h.356c.445-.238.86-.86 1.186-2.135.3-1.253.538-2.52.712-3.796h6.256l-.978 5.93h.978l-.623 3.677h-2.223l.326-1.868H59.54l-.326 1.868zm9.844-2.668l-1.778-6.94h2.728l.83 4.122 2.106-4.122h2.402L69.68 40h-2.43l1.808-3.38zm14.827 2.668l.207-1.868H74.93l1.304-7.739h2.52l-1.007 5.93H79.2l.978-5.93h2.52l-1.008 5.93h1.453l1.008-5.93h2.491l-.978 5.93h.978l-.623 3.677h-2.135zm9.043-6.612c0-.949-.237-1.453-1.038-1.453a1.75 1.75 0 00-1.66 1.453h2.698zm-5.456.949a4.714 4.714 0 014.656-4.033c2.016 0 3.558 1.216 2.965 3.974v.711h-5.19c0 1.008.386 1.601 1.276 1.601a1.394 1.394 0 001.453-.919h2.342a3.914 3.914 0 01-4.18 2.758 2.964 2.964 0 01-3.352-3.974m13.937-1.067c0-.949-.237-1.453-1.068-1.453a1.75 1.75 0 00-1.66 1.453h2.728zm-5.456.949a4.744 4.744 0 014.685-4.033c2.016 0 3.558 1.216 2.965 3.974v.711h-5.189c0 1.008.356 1.601 1.275 1.601a1.333 1.333 0 001.423-.919h2.372a3.912 3.912 0 01-4.21 2.758 2.966 2.966 0 01-3.321-3.974" fill="#096142"/><path d="M37.687 24.107a9.13 9.13 0 00.148-3.232.83.83 0 00-.8-.771H26.538a.563.563 0 00-.563.741 7.203 7.203 0 010 2.402 10.408 10.408 0 01-2.491 4.21c-.297.356-.237.623.178.623h11.86a1.304 1.304 0 001.068-.77 10.02 10.02 0 00.949-3.203" fill="#FD495C"/><path d="M16.368 1.69a.653.653 0 00-.475-.207H4.952a4.715 4.715 0 00-4.36 3.795l-.147.8-.415 2.61a.682.682 0 00.148.593.623.623 0 00.474.178H14.56a.949.949 0 00.89-.771l1.067-6.405a.683.683 0 00-.148-.593z" fill="#096142"/><path d="M14.796 11a.652.652 0 00-.474-.207h-5.93a4.774 4.774 0 00-4.39 3.796v.8l-.444 2.58a.741.741 0 00.148.593.593.593 0 00.475.207h9.044a.95.95 0 00.89-.8l.83-6.494a.683.683 0 00-.149-.593" fill="#00953B"/><path d="M13.225 20.37a.625.625 0 00-.445-.207H6.7a4.774 4.774 0 00-4.388 3.796v.8l-.445 2.58a.652.652 0 00.178.593.504.504 0 00.445.207h8.895a.95.95 0 00.89-.8l1.097-6.375a.682.682 0 00-.178-.593" fill="#FD495C"/><path d="M11.653 29.622a.591.591 0 00-.445-.208H5.13A4.715 4.715 0 00.77 33.21l-.148.77-.445 2.61a.682.682 0 00.178.593.622.622 0 00.445.208h9.073a.98.98 0 00.89-.8l1.067-6.376a.682.682 0 00-.178-.593z" fill="#AED877"/><path d="M40.207 2.283a.653.653 0 00-.622-.8H18.68a.979.979 0 00-.89.8l-1.067 6.405a.654.654 0 00.623.77h17.791a4.715 4.715 0 004.359-3.765l.148-.8a.267.267 0 010-.149l.563-2.46z" fill="#096142"/><path d="M37.183 18.265a10.26 10.26 0 00-9.37-7.442H16.842l-.237.148h-.148v.178l-.415 2.61-.149.8a3.173 3.173 0 003.114 3.766h17.998a.385.385 0 00.415-.504" fill="#00953B"/><path d="M35.108 29.948a15.804 15.804 0 01-11.861 7.413H12.305a.533.533 0 01-.207 0 .385.385 0 010-.178l.415-2.58.148-.8a4.715 4.715 0 014.359-3.796h18.088c.296 0 .415.208.237.534" fill="#AED877"/></g><defs><clipPath id="clip0_614_136"><path fill="#fff" d="M0 0h103.781v40H0z"/></clipPath></defs></svg>