<svg width="64" height="64" fill="none" xmlns="http://www.w3.org/2000/svg"><path d="M41.613 46.827h-11.01c-.553 0-1-.452-1-1.01 0-.557.447-1.008 1-1.008h.476v-8.93c0-.558.447-1.01 1-1.01.552 0 1 .452 1 1.01v8.93h2.77v-6.216c0-.557.447-1.009 1-1.009.552 0 .999.452.999 1.01v6.215h2.769v-3.5c0-.557.447-1.009 1-1.009.552 0 1 .452 1 1.01v3.499h1.125c.552 0 1 .451 1 1.009 0 .557-.447 1.009-1 1.009h-2.129z" fill="#fff"/><path fill-rule="evenodd" clip-rule="evenodd" d="M30.189 53.897a.997.997 0 00.157-.012c.54.255 1.112.483 1.711.682.601.19 1.164.33 1.72.425a12.99 12.99 0 001.549.187c.244.021.48.03.72.03.268 0 .54-.01.83-.026.386-.014.786-.059 1.132-.112l.012-.001c.141-.014.31-.03.496-.077.326-.036.625-.107.887-.174.47-.108.935-.254 1.485-.467a12.78 12.78 0 004.086-2.409l2.361 1.8a2 2 0 00.525 2.562l9.196 7.002a3.399 3.399 0 004.765-.659l1.49-2.005c.547-.722.78-1.619.657-2.525-.123-.913-.59-1.72-1.365-2.307l-7.235-5.519V17.113c-.03-1.818-1.51-3.29-3.327-3.29h-8.256a16.4 16.4 0 00-4.572-9.013C36.126 1.709 32.03 0 27.684 0c-8.072 0-14.846 5.881-16.11 13.822h-8.26c-1.827 0-3.313 1.5-3.314 3.344V50.54c0 1.851 1.487 3.357 3.314 3.357H30.19zm8.793-36.826v-.615c0-3.049-1.174-5.912-3.308-8.067a11.207 11.207 0 00-7.99-3.334c-5.553 0-10.244 4.005-11.155 9.522-.102.617-.154 1.25-.154 1.879v.615h-3.009v-.615c0-.507.027-1.02.08-1.524.77-7.362 6.89-12.914 14.238-12.914 3.814 0 7.407 1.5 10.116 4.221a14.395 14.395 0 014.119 8.751c.047.484.072.973.072 1.466v.615h-3.009zm-20.606-.615v.907a2.584 2.584 0 011.375 2.286v3.396c0 1.421-1.146 2.578-2.555 2.578h-4.653c-1.402 0-2.543-1.157-2.543-2.578V19.65c0-.991.555-1.854 1.367-2.285v-.908c0-.205.004-.41.011-.615H3.314c-.736 0-1.314.582-1.314 1.326v7.936c.04 3.002 2.473 5.432 5.457 5.432h20.461a13.159 13.159 0 015.084-2.444l.008-.002c.428-.104.86-.209 1.342-.24 3.58-.502 7.165.449 10.08 2.686h3.466c2.985 0 5.419-2.418 5.47-5.411v-7.956c0-.744-.583-1.326-1.327-1.326H43.98c.007.203.011.408.011.613v.892c.83.425 1.4 1.297 1.4 2.302v3.396c0 1.421-1.141 2.578-2.543 2.578h-4.652c-1.409 0-2.555-1.157-2.555-2.578V19.65c0-.978.543-1.831 1.341-2.268v-.925c0-.208-.006-.415-.02-.62H18.396c-.014.206-.02.413-.02.62zm10.55 15.848a11.718 11.718 0 00-4.343 10.062c.014.25.037.472.072.697.09.74.25 1.425.478 2.07.38 1.159.911 2.207 1.588 3.137a11.476 11.476 0 002.083 2.243c.52.44 1.1.842 1.788 1.237.623.343 1.327.648 2.077.896.501.158.978.277 1.445.356.51.09.952.144 1.351.164a9.31 9.31 0 001.32 0c.331-.012.658-.05.983-.099l.06-.006c.106-.011.18-.02.213-.03a.999.999 0 01.202-.038c.22-.02.444-.074.694-.137a9.148 9.148 0 001.257-.398 10.932 10.932 0 004.14-2.672.967.967 0 01.128-.111.53.53 0 01.04-.045c.406-.422.78-.876 1.114-1.35.213-.295.383-.564.526-.832l.1-.165a11.52 11.52 0 00.877-1.93c.627-1.72.824-3.628.567-5.514a11.926 11.926 0 00-1.401-4.164 11.393 11.393 0 00-2.817-3.34c-2.103-1.698-4.639-2.595-7.278-2.595-.542 0-1.089.039-1.637.115-.384.029-.72.11-1.074.196a11.201 11.201 0 00-4.552 2.253zm-21.469.249h18.345a13.735 13.735 0 00-3.214 9.946c.015.292.046.584.087.842.104.854.297 1.686.568 2.447a13.193 13.193 0 001.858 3.666 13.485 13.485 0 002.204 2.425H3.315c-.726 0-1.315-.602-1.315-1.34V30.151a7.408 7.408 0 005.457 2.402zm42.19 18.065l-.608.815-.516.686-2.105-1.605c.404-.472.78-.97 1.126-1.49l2.103 1.594zm-.183 3.593a.984.984 0 00.06-.073l2.325-3.103a.976.976 0 00.138-.25l.255-.347 9.206 7.02c.296.225.487.557.54.934a1.388 1.388 0 01-.272 1.036l-1.49 2.003a1.4 1.4 0 01-1.964.267l-9.19-6.955.392-.532zm1.4-5.195l-2.346-1.779c.185-.4.345-.795.482-1.195.737-2.027.969-4.266.668-6.48a13.85 13.85 0 00-3.114-7.01h1.344a7.427 7.427 0 005.47-2.405V48.77a1.954 1.954 0 00-2.504.246zm-33.586-29.92h-4.815a.556.556 0 00-.463.553v3.396c0 .308.244.56.543.56h4.653a.558.558 0 00.554-.56V19.65a.56.56 0 00-.472-.553zm20.836 0h4.814c.262.04.463.273.463.553v3.396c0 .308-.243.56-.543.56h-4.652a.558.558 0 01-.555-.56V19.65a.56.56 0 01.473-.553zm-3.851-9.278a9.34 9.34 0 012.35 4H18.749c1.142-3.968 4.74-6.745 8.935-6.745 2.48 0 4.817.976 6.579 2.745z" fill="#fff"/></svg>