<svg width="64" height="64" fill="none" xmlns="http://www.w3.org/2000/svg"><path d="M10.634 50.196h-2.08a1 1 0 110-2h1.085v-5.202a1 1 0 012.002 0v5.202h3.572v-9.215a1 1 0 012.002 0v9.215h3.572v-6.54a1 1 0 012.002 0v6.54h3.572V37.643a1 1 0 012.002 0v10.553h1.084a1 1 0 110 2H10.634z" fill="#fff"/><path fill-rule="evenodd" clip-rule="evenodd" d="M37.899 49.059a9.323 9.323 0 003.46.666c3.723 0 7.262-2.229 8.738-5.88a1 1 0 00-.556-1.303l-6.845-2.735 2.752-6.851a1.002 1.002 0 00-.557-1.3c-4.812-1.926-10.29.415-12.215 5.215-1.925 4.782.416 10.25 5.223 12.188zm-3.365-11.443c1.155-2.88 3.936-4.634 6.87-4.634a7.34 7.34 0 011.787.22l-2.658 6.618-4.86 5.193c-1.642-2.015-2.171-4.831-1.139-7.397zm2.6 8.763c.461.325.966.603 1.511.823 3.454 1.378 7.356-.054 9.156-3.202l-6.143-2.454-4.523 4.833z" fill="#fff"/><path fill-rule="evenodd" clip-rule="evenodd" d="M55.306 41.924a.996.996 0 01-.372-.071l-7.775-3.107a1.002 1.002 0 01-.558-1.3l3.124-7.78a1.004 1.004 0 011.303-.556c4.794 1.926 7.13 7.392 5.207 12.187a1 1 0 01-.93.627zm-6.473-4.663l5.853 2.339a7.39 7.39 0 00-3.5-8.199l-2.353 5.86z" fill="#fff"/><path d="M28.307 19.134H49.2a1 1 0 100-2h-1.085V6.581a1 1 0 00-2.002 0v10.553H42.54v-6.54a1 1 0 00-2.003 0v6.54h-3.572V7.92a1 1 0 00-2.002 0v9.215h-3.572v-5.202a1 1 0 00-2.002 0v5.202h-1.083a1 1 0 100 2zm2.307 40.451h2.77a1 1 0 100-2h-2.77a1 1 0 100 2z" fill="#fff"/><path fill-rule="evenodd" clip-rule="evenodd" d="M22.541 4.224v7.467H8.867a5.738 5.738 0 00-5.729 5.734V53.17H1.002a1 1 0 00-1.001 1C0 59.59 4.415 64 9.841 64h44.322a9.781 9.781 0 006.955-2.879A9.762 9.762 0 0064 54.17a1 1 0 00-1.001-1h-2.124V17.425c0-3.162-2.576-5.734-5.741-5.734h-.206V4.223C54.928 1.895 53.026 0 50.687 0H26.77a4.23 4.23 0 00-4.229 4.224zm7.132 27.215c-.3 0-.606-.06-.901-.184a2.287 2.287 0 01-1.41-2.112v-3.545a.587.587 0 00-.592-.579 4.151 4.151 0 01-2.993-1.25 4.256 4.256 0 01-1.236-2.987v-7.091H8.867a3.734 3.734 0 00-3.726 3.734V53.17h53.732V17.425a3.74 3.74 0 00-3.74-3.734h-.205v7.09a4.244 4.244 0 01-4.242 4.238H37.858c-.424 0-.818.157-1.11.44l-5.49 5.325a2.251 2.251 0 01-1.585.655zm-5.13-27.215v8.406a1.092 1.092 0 010 .121v8.031c0 .587.24 1.163.658 1.58a2.17 2.17 0 001.569.658 2.59 2.59 0 012.594 2.578v3.545c0 .167.114.239.182.267.08.034.2.05.312-.057l5.495-5.33a3.574 3.574 0 012.505-1.003h12.828a2.241 2.241 0 002.24-2.238V4.223A2.234 2.234 0 0050.686 2H26.77a2.227 2.227 0 00-2.227 2.224zm35.331 50.958H4.14a.999.999 0 01-.156-.012H2.065A7.848 7.848 0 009.841 62h44.321a7.788 7.788 0 005.54-2.293 7.766 7.766 0 002.232-4.537H60.03a.998.998 0 01-.156.012z" fill="#fff"/></svg>