<svg width="64" height="64" fill="none" xmlns="http://www.w3.org/2000/svg"><path d="M28.57 5.43a1 1 0 01-.707-1.707l3.43-3.43a1 1 0 011.415 0l3.43 3.43a1 1 0 11-1.414 1.414L32 2.414l-2.724 2.723a.997.997 0 01-.707.293z" fill="#fff"/><path fill-rule="evenodd" clip-rule="evenodd" d="M45.772 47.185A20.298 20.298 0 0133 52.491v7.079a1 1 0 11-2 0v-7.078a20.24 20.24 0 01-12.77-5.31L13.213 52.2a.998.998 0 01-1.414 0 1 1 0 010-1.414l5.024-5.022a14.088 14.088 0 01-.565-.66 20.393 20.393 0 01-4.687-12.105H4.43a1 1 0 110-2h7.145a20.373 20.373 0 015.306-12.705L11.8 13.212a1 1 0 111.414-1.414l5.085 5.085a20.37 20.37 0 0112.703-5.256V4.43a1 1 0 112 0v7.197a20.39 20.39 0 0112.703 5.254l5.083-5.083a1 1 0 111.414 1.414l-5.08 5.08A20.365 20.365 0 0152.435 31h7.135a1 1 0 110 2h-7.13a20.513 20.513 0 01-5.253 12.771l5.015 5.015a1 1 0 11-1.414 1.414l-5.015-5.015zm-.708-2.237a4.324 4.324 0 00-.546-.034h-5.431a3.09 3.09 0 01-2.876-1.98 3.085 3.085 0 01-.214-1.123v-1.028a6.996 6.996 0 01-3.668 1.04c-1.597 0-3.114-.539-4.388-1.526v1.514c0 .353-.064.714-.191 1.075a3.125 3.125 0 01-2.925 2.028h-5.35c-.182 0-.362.011-.54.033a1.03 1.03 0 01.299.434 18.27 18.27 0 0012.292 5.129.996.996 0 01.949 0 18.331 18.331 0 0012.288-5.12.996.996 0 01.241-.387l.012-.011a.97.97 0 01.048-.044zM19.106 18.867a18.388 18.388 0 0112.786-5.263 1.022 1.022 0 00.223 0 18.41 18.41 0 0112.77 5.249 1.002 1.002 0 00.266.264 18.384 18.384 0 015.305 12.523 1 1 0 00.002.724 18.51 18.51 0 01-3.804 10.921 6.345 6.345 0 00-2.136-.372h-5.431c-.453 0-.848-.27-1.01-.696a1.106 1.106 0 01-.08-.406v-2.789c1.182-1.442 1.894-3.248 2.046-5.184.787-.978 3.624-4.968 1.506-9.342l-.47-1.522c-.751-2.44-2.848-4.236-5.343-4.578-4.489-.62-7.831.073-10.22 2.11-.556.474-1.032.784-1.496.977-.872.36-2.83 1.56-2.21 4.906.64 3.502 2.337 6.611 2.764 7.356a9.354 9.354 0 001.367 4.306v3.76a1.096 1.096 0 01-1.116 1.103h-5.35a6.33 6.33 0 00-2.118.363 18.43 18.43 0 01-3.806-10.939.998.998 0 00.001-.672 18.39 18.39 0 015.312-12.558 1 1 0 00.242-.241zm7.448 14.453c.05 1.465.492 2.837 1.28 3.97 1.109 1.612 2.745 2.534 4.494 2.534 1.47 0 2.863-.653 3.923-1.84 1.176-1.307 1.823-3.059 1.823-4.934 0-.027 0-.053.003-.08a1.002 1.002 0 01-.013-.16 6.54 6.54 0 00-.014-.377v-.007a1.215 1.215 0 01-.014-.168c-.01-.23-.01-.43-.01-.629a37.24 37.24 0 01.037-2.448 1.654 1.654 0 00-.438-1.21 1.919 1.919 0 00-1.452-.628c-2.391.022-5.659.04-7.993.052a1.59 1.59 0 00-1.186.53 1.597 1.597 0 00-.408 1.233c.204 2.132.162 2.555.146 2.715v.001l-.158 1.293v.003a3.25 3.25 0 01-.02.15zm9.635-7.977c1.099 0 2.155.462 2.903 1.269a3.64 3.64 0 01.969 2.66l-.015.353c.365-1.252.445-2.766-.325-4.314a.965.965 0 01-.06-.15l-.493-1.598c-.524-1.698-1.978-2.95-3.704-3.187-3.897-.532-6.721.007-8.651 1.651-.72.615-1.365 1.029-2.029 1.303-.943.39-1.272 1.273-1.009 2.696.188 1.025.48 2.022.803 2.925a3.63 3.63 0 01.931-2.369 3.622 3.622 0 012.66-1.188 2211.423 2211.423 0 008.02-.05z" fill="#fff"/><path d="M32 64a1 1 0 01-.707-.293l-3.43-3.431a1 1 0 111.413-1.414l2.725 2.724 2.722-2.724a1 1 0 111.414 1.414l-3.43 3.43a1 1 0 01-.706.294zm21.92-48.07a1 1 0 01-1-1v-3.85h-3.85a1 1 0 110-2h4.85a1 1 0 011 1v4.85a.998.998 0 01-1 1zM14.93 54.92h-4.85a1 1 0 01-1-1v-4.85a1 1 0 112 0v3.85h3.85a1 1 0 110 2zm44.64-18.49a1 1 0 01-.707-1.707L61.585 32l-2.724-2.724a1 1 0 111.414-1.414l3.431 3.431a.999.999 0 010 1.414l-3.43 3.43a.998.998 0 01-.708.293zm-55.14 0a.997.997 0 01-.707-.293l-3.43-3.43a1 1 0 010-1.414l3.43-3.431a1 1 0 111.414 1.414L2.415 32l2.723 2.723a1 1 0 01-.708 1.707zm49.49 18.49h-4.85a1 1 0 110-2h3.85v-3.85a1 1 0 112 0v4.85a.998.998 0 01-1 1zM10.08 15.93a1 1 0 01-1-1v-4.85a1 1 0 011-1h4.85a1 1 0 110 2h-3.85v3.85a1 1 0 01-1 1z" fill="#fff"/></svg>