<svg width="64" height="54" fill="none" xmlns="http://www.w3.org/2000/svg"><path fill-rule="evenodd" clip-rule="evenodd" d="M29.53 38.356a3.192 3.192 0 01-2.806-1.672l-2.534-4.657a1.947 1.947 0 01-.913-.047 1.981 1.981 0 01-1.19-.964l-.254-.467-1.204.669a3.586 3.586 0 01-2.78.311 3.634 3.634 0 01-2.183-1.766 3.706 3.706 0 01-.308-2.811 3.66 3.66 0 011.75-2.207l1.202-.669-.254-.466a2.026 2.026 0 01.785-2.733l4.497-2.5a1.978 1.978 0 012.14.143c3.379-2.453 5.35-5.172 6.47-8.906-.688-1.345-.029-3.108 1.494-3.955.714-.397 1.517-.54 2.268-.406.816.147 1.497.622 1.868 1.304l1.77 3.252a5.847 5.847 0 013.626-.092 5.932 5.932 0 013.564 2.881c1.416 2.617.712 5.838-1.522 7.627l1.773 3.26c.736 1.352.078 3.15-1.465 4.008-.55.306-1.139.45-1.702.45v.001c-.996 0-1.914-.454-2.398-1.285-3.72-1.043-7.05-.819-10.908.75a2.039 2.039 0 01-.524 1.505l2.534 4.656c.849 1.56.283 3.528-1.261 4.387a3.15 3.15 0 01-1.535.399zM19.274 25.847l-1.203.669a1.68 1.68 0 00-.654 2.272h.001c.213.391.564.675.99.801.425.123.872.075 1.259-.14l1.202-.67-1.595-2.932zm5.017-5.703l.103.188a.905.905 0 00.019.037l3.787 6.96a.94.94 0 00.069.108l.056.104-.28.155-.045.024-3.849 2.14c-.037.02-.073.044-.107.068l-.204.114-4.027-7.4 4.478-2.498zm3.797 9.834l2.485 4.565a1.218 1.218 0 01-.472 1.644 1.193 1.193 0 01-1.625-.478l-2.485-4.565 2.097-1.166zm-8.283-7.331l-.481-.885.481.885zm9.713 2.908L26.6 20.194c3.189-2.31 5.307-4.918 6.637-8.208l6.695 12.302c-3.461-.627-6.777-.218-10.414 1.267zM34.406 7.43c.24-.134.505-.205.75-.205.07 0 .138.007.203.018.128.023.359.091.466.288l9.21 16.926c.176.323-.058.922-.675 1.265-.617.344-1.244.222-1.419-.1l-9.21-16.927c-.176-.323.059-.922.675-1.265zm9.63 10.98l-3.697-6.794a3.922 3.922 0 012.077.04c1.02.3 1.86.98 2.368 1.913a4.056 4.056 0 01-.748 4.842z" fill="#fff"/><path fill-rule="evenodd" clip-rule="evenodd" d="M58.53 3.189V5.46h1.776C62.343 5.46 64 7.135 64 9.194v35.628c0 2.058-1.657 3.733-3.694 3.733h-20.49c-.813 0-1.55.48-1.793 1.166A6.403 6.403 0 0132.003 54a6.407 6.407 0 01-6.026-4.28c-.243-.687-.98-1.166-1.793-1.166H3.694C1.658 48.554 0 46.879 0 44.82V9.194C0 7.134 1.657 5.46 3.695 5.46h1.78V3.189C5.476 1.429 6.892 0 8.632 0h46.744c1.74 0 3.155 1.43 3.155 3.189zM30.998 47.515a.999.999 0 001.42.92 1.01 1.01 0 00.585-.92c0-.11.004-.219.012-.327.166-2.33 2.09-4.175 4.43-4.175h20.072a.994.994 0 00.768-.363 1.01 1.01 0 00.245-.663V7.481h1.776c.934 0 1.694.768 1.694 1.713V44.82c0 .945-.76 1.713-1.695 1.713h-20.49c-1.668 0-3.146 1.008-3.676 2.508a4.4 4.4 0 01-4.141 2.937 4.4 4.4 0 01-4.137-2.937c-.53-1.5-2.007-2.508-3.676-2.508H3.695a1.705 1.705 0 01-1.694-1.712V9.193c0-.945.76-1.712 1.694-1.712h1.78l.001 34.506c0 .188.05.363.139.514a.998.998 0 00.87.512h20.071c2.45 0 4.442 2.02 4.442 4.502zM56.532 3.188V6.3a.952.952 0 00-.014.17v34.506H37.46c-2.292 0-4.31 1.217-5.455 3.046-1.146-1.829-3.164-3.046-5.456-3.046H7.482V6.471c0-.04-.002-.08-.007-.119V3.188c0-.644.519-1.168 1.156-1.168h46.744c.637 0 1.155.524 1.155 1.168z" fill="#fff"/></svg>