<svg width="80" height="80" fill="none" xmlns="http://www.w3.org/2000/svg"><rect width="80" height="80" rx="40" fill="#096142"/><path d="M51.749 16.98a2 2 0 00-2.74-.7l-5.9 3.54a7.298 7.298 0 01-1.08.46V14a2 2 0 00-4 0v6.28a7.298 7.298 0 01-1.08-.46l-6-3.54a2 2 0 00-2 3.44l5.88 3.52a9.9 9.9 0 0010.28 0l5.88-3.52a2.002 2.002 0 00.76-2.74z" fill="#00953B"/><path d="M44.149 23.54a2 2 0 01-1.72-.98 2 2 0 01.68-2.74l5.9-3.54a2 2 0 012 3.44l-5.84 3.52a2 2 0 01-1.02.3zm-8.24 0a2 2 0 01-1.02-.3l-5.88-3.52a2 2 0 012-3.44l6 3.54a2 2 0 01.68 2.74 2 2 0 01-1.78.98z" fill="#4FB15C"/><path d="M48.689 20.8a2 2 0 01-1.02-3.72l1.34-.8a2 2 0 012 3.44l-1.32.8a2.14 2.14 0 01-1 .28zm-17.4-.04a2.12 2.12 0 01-1.02-.28l-1.26-.76a2 2 0 012-3.44l1.28.76a2 2 0 01.68 2.74 2 2 0 01-1.68.98z" fill="#9ADC8E"/><path d="M62.029 42a3.777 3.777 0 01-.22.5c-1.3 2.72-2.6 5.22-3.86 7.5 0 .18-.2.38-.32.56-1.08 1.9-2.14 3.66-3.18 5.26C49.229 64 44.369 68 40.029 68c-3.06 0-6.34-2-9.88-6a53.985 53.985 0 01-4.58-6.18L24.409 54c-.68-1.08-1.36-2.24-2-3.46l-.38-.54c-1.28-2.28-2.58-4.78-3.88-7.5a5.426 5.426 0 01-.12-.5 13.879 13.879 0 01-1.1-4 14.16 14.16 0 011.5-8 13.998 13.998 0 013.32-4.24 9.999 9.999 0 0110.4-1.42l3.88 1.66a10.14 10.14 0 008 0l3.84-1.7a10 10 0 0110.4 1.42A14 14 0 0162.029 42z" fill="#00953B"/><path d="M44.029 34a4 4 0 01-4 4h-23.16a14.16 14.16 0 011.5-8h21.66a4 4 0 014 4zm8 12a4 4 0 01-4 4h-26c-1.28-2.28-2.58-4.78-3.88-7.5a5.426 5.426 0 01-.12-.5h30a4 4 0 014 4zm-7.172 14.828A4 4 0 0042.03 54H24.41a61.022 61.022 0 005.74 8h11.88a4 4 0 002.828-1.172z" fill="#008535"/><path d="M27.029 48a1 1 0 100-2 1 1 0 000 2zm10-2a1 1 0 100-2 1 1 0 000 2z" fill="#307E45"/><path d="M27.029 30a1 1 0 100-2 1 1 0 000 2zm26 0a1 1 0 100-2 1 1 0 000 2zm-5 1a1 1 0 11-2 0 1 1 0 012 0zm9 5a1 1 0 100-2 1 1 0 000 2zm-1 5a1 1 0 11-2 0 1 1 0 012 0zm-17-7a1 1 0 100-2 1 1 0 000 2zm-15 1a1 1 0 11-2 0 1 1 0 012 0zm23 11a1 1 0 100-2 1 1 0 000 2zm-3 13a1 1 0 11-2 0 1 1 0 012 0z" fill="#005C24"/><path d="M40.029 68c-6.3 0-13.66-8.58-21.84-25.5a14 14 0 013.56-16.74 2 2 0 112.58 3.06 10 10 0 00-2.54 12C32.029 61.74 38.029 64 40.029 64a2 2 0 010 4z" fill="#007830"/><path d="M60.029 43.62a2 2 0 01-1.8-2.86 10 10 0 00-2.54-12 6 6 0 00-6.2-.82l-3.86 1.7a2.001 2.001 0 01-2.64-1.02 2 2 0 011.04-2.62l3.84-1.7a10 10 0 0110.4 1.42 14 14 0 013.56 16.74 2 2 0 01-1.8 1.16z" fill="#1FB55A"/><path opacity=".5" d="M57.009 29.28a2 2 0 01-1.28-.46 6 6 0 00-6.2-.82 2 2 0 11-1.62-3.66 10.001 10.001 0 0110.4 1.42 2 2 0 01-1.3 3.52zm3.86 6.12a2 2 0 01-2-1.48c0-.32-.18-.64-.28-.94a2 2 0 011.18-2.56 2 2 0 012.56 1.18c.16.42.3.84.42 1.28a2 2 0 01-1.42 2.46l-.46.06z" fill="#D1FFC5"/><path d="M19.924 45.321a2 2 0 001.045.299 2 2 0 00.9-.16 2.002 2.002 0 00.88-2.7l-.96-2a2.003 2.003 0 10-3.6 1.76l1 2a2 2 0 00.735.801zm8.95 14.828a2 2 0 00.895.21 2 2 0 001.18-.42 2 2 0 00.38-2.8 78.201 78.201 0 01-5.8-9.14 2.016 2.016 0 00-3.5 2 81.25 81.25 0 006.14 9.56 2 2 0 00.705.59z" fill="#005C24"/><path fill-rule="evenodd" clip-rule="evenodd" d="M43.187 37.103a4.756 4.756 0 001.454 2.379L49.034 44l4.394-4.55a4.774 4.774 0 001.44-2.366 4.94 4.94 0 00-.09-2.8 3.662 3.662 0 00-1.324-1.675 3.435 3.435 0 00-1.998-.608 4.403 4.403 0 00-2.422.777A4.402 4.402 0 0046.612 32a3.42 3.42 0 00-2 .605 3.646 3.646 0 00-1.322 1.678 4.921 4.921 0 00-.103 2.82zm5.847-2.204c-2.98-3.044-6.272.324-3.29 3.433l3.29 3.433 3.292-3.433c2.918-3.109-.31-6.542-3.292-3.433z" fill="#D1FFC5"/><path d="M40.029 58a6 6 0 01-6-6v-4h12v4a6 6 0 01-6 6z" fill="#511D21"/><path d="M46.029 48h-12v4h12v-4z" fill="#fff"/><path d="M40.029 54a4 4 0 00-4 4h8a4 4 0 00-4-4z" fill="#FD495C"/><path d="M40.029 60a8 8 0 01-8-8v-4a2 2 0 012-2h12a2 2 0 012 2v4a8 8 0 01-8 8zm-4-10v2a4 4 0 108 0v-2h-8z" fill="#98E285"/><path fill-rule="evenodd" clip-rule="evenodd" d="M25.187 37.103a4.756 4.756 0 001.454 2.379L31.034 44l4.394-4.55a4.774 4.774 0 001.44-2.366 4.94 4.94 0 00-.09-2.8 3.662 3.662 0 00-1.324-1.675 3.435 3.435 0 00-1.998-.608 4.403 4.403 0 00-2.422.777A4.402 4.402 0 0028.613 32a3.42 3.42 0 00-2 .605 3.646 3.646 0 00-1.323 1.678 4.921 4.921 0 00-.103 2.82zm5.847-2.204c-2.98-3.044-6.272.324-3.29 3.433l3.29 3.433 3.292-3.433c2.918-3.109-.31-6.542-3.292-3.433z" fill="#D1FFC5"/></svg>