<svg width="83" height="80" fill="none" xmlns="http://www.w3.org/2000/svg"><path d="M27.76 60.517c-2.809 4.195-7.483 7.163-12.432 7.452a33.73 33.73 0 01-1.395.031H4.135a.63.63 0 01-.612-.445.036.036 0 010-.018.648.648 0 01-.01-.325l.457-2.616.14-.794C4.555 61.691 6.572 60 8.69 60h18.856c.316 0 .455.207.242.517" fill="#FD495C"/><path d="M82.302 12.775c-4.247 6.293-11.315 10.744-18.8 11.178-.295.028-1.736.047-2.11.047H47.46a.953.953 0 01-.925-.667.054.054 0 010-.027.966.966 0 01-.035-.19 1.401 1.401 0 01.02-.299l.691-3.923.21-1.19C48.097 14.535 51.148 12 54.35 12h27.63c.479 0 .689.31.366.775" fill="#AED877"/><path fill-rule="evenodd" clip-rule="evenodd" d="M31.342 68.706a2.757 2.757 0 002.921.212l6.009-3.158a.274.274 0 01.254 0l6.005 3.158a2.75 2.75 0 002.923-.211 2.755 2.755 0 001.102-2.714L49.403 59.3a.275.275 0 01.08-.243l4.868-4.739a2.757 2.757 0 00.702-2.845 2.752 2.752 0 00-2.241-1.886l-6.715-.97a.276.276 0 01-.208-.15l-3.004-6.087a2.755 2.755 0 00-2.487-1.547 2.754 2.754 0 00-2.487 1.546l-3.005 6.086a.276.276 0 01-.206.15l-6.715.971a2.757 2.757 0 00-2.242 1.888 2.756 2.756 0 00.703 2.845l4.867 4.737a.276.276 0 01.08.242l-1.153 6.695a2.755 2.755 0 001.102 2.713zm8.81-25.22a.257.257 0 01.246-.153c.112 0 .195.051.244.153l3.004 6.087a2.775 2.775 0 002.091 1.516l6.717.97a.26.26 0 01.221.187.257.257 0 01-.07.281l-4.866 4.738a2.775 2.775 0 00-.8 2.456v.002l1.153 6.695a.254.254 0 01-.109.267.254.254 0 01-.288.02l-6.007-3.158a2.771 2.771 0 00-2.58 0l-6.009 3.159a.255.255 0 01-.288-.021.254.254 0 01-.108-.267l1.152-6.695c.156-.9-.143-1.82-.8-2.458l-4.866-4.736a.256.256 0 01-.07-.282.257.257 0 01.222-.187l6.716-.97a2.772 2.772 0 002.09-1.518l3.004-6.086z" fill="#096142"/><path fill-rule="evenodd" clip-rule="evenodd" d="M30.831.411l9.557 10.56L49.948.412a1.25 1.25 0 01.926-.411h25.173a1.25 1.25 0 01.927 2.089l-22.21 24.538a5.462 5.462 0 012.18 4.366v7.501a24.573 24.573 0 013.35 3.945 24.076 24.076 0 014.154 13.519c0 13.257-10.785 24.04-24.041 24.04l-.001.001c-13.266 0-24.06-10.785-24.06-24.041a23.95 23.95 0 014.154-13.52 24.486 24.486 0 013.352-3.926v-7.519c0-1.778.853-3.36 2.17-4.36L3.824 2.09A1.249 1.249 0 014.75 0h25.156c.352 0 .69.149.926.411zm-.238 25.104l10.722-11.843.01-.011L51.427 2.5H73.23L52.397 25.514H30.593zm-4.666 14.478l-.01.01a22.203 22.203 0 00-3.348 3.84 21.456 21.456 0 00-3.722 12.115c-.001 11.878 9.671 21.541 21.56 21.541 11.878 0 21.54-9.663 21.54-21.541 0-4.319-1.287-8.51-3.723-12.118a22.15 22.15 0 00-3.367-3.873 21.626 21.626 0 00-13.327-5.514 23.859 23.859 0 00-2.253 0 18.93 18.93 0 00-1.004.087 21.602 21.602 0 00-12.333 5.442l-.013.011zm3.424-37.492l9.35 10.332-10.9 12.04L7.565 2.5H29.35zm-3 28.493a2.97 2.97 0 012.967-2.968h22.16a2.97 2.97 0 012.966 2.968v5.435a24.17 24.17 0 00-12.79-4.475 26.407 26.407 0 00-2.501 0c-.396.02-.771.06-1.133.1a24.142 24.142 0 00-11.669 4.392v-5.452z" fill="#096142"/></svg>