<svg width="145" height="28" fill="none" xmlns="http://www.w3.org/2000/svg"><path d="M14.77 0c-7.742 0-14 6.258-14 14s6.258 14 14 14 14-6.258 14-14-6.258-14-14-14zm-1.936 19.936l-1.032 3.032C7.93 21.678 5.35 18 5.35 13.87c0-4.13 2.58-7.742 6.516-9.097L12.9 7.806c-2.581.84-4.258 3.29-4.258 6-.13 2.84 1.612 5.29 4.193 6.13zm4.774 3.096l-.968-3.096c2.646-.84 4.388-3.29 4.388-6.065 0-2.774-1.742-5.161-4.323-6l1.032-3.097a9.57 9.57 0 016.58 9.097c0 4.258-2.709 7.935-6.709 9.161z" fill="#00BEF0"/><path d="M142.966 16.516l1.548 1.87c-1.612 1.678-3.612 2.13-5.225 2.13-1.549 0-2.645-.258-3.613-.71-2.065-1.032-3.097-3.097-3.097-5.613 0-3.806 2.581-6.645 6.387-6.645 4.258 0 6.323 3.161 6 7.29h-9.677c.064 1.033.645 2 1.484 2.517.709.451 1.548.645 2.645.645 1.226 0 2.451-.387 3.548-1.484zm-7.613-3.936h6.839c-.194-1.483-1.419-2.774-3.355-2.774-2 0-3.226 1.42-3.484 2.774zm-64.968 7.55h3.484l-5.484-6.387 5.42-6h-3.42l-4.129 4.774h-1.225V7.742h-2.646v12.322h2.646v-4.903h1.225l4.13 4.968zM81.74 9.999c-2.258 0-3.742 1.743-3.742 3.936 0 2.194 1.484 3.936 3.742 3.936s3.678-1.678 3.678-3.936C85.482 11.806 84.063 10 81.74 10zm.452-2.515c3.484 0 6.064 2.71 6.064 6.451 0 3.678-2.516 6.516-6.064 6.516-1.677 0-3.032-.58-4-1.613v6.452h-2.71V7.806h2.645V9.29c1.033-1.226 2.388-1.806 4.065-1.806zm35.161.322h-11.032v2.452h4.193v9.87h2.71v-9.87h4.194V7.806h-.065zm-56.838 0H49.417v2.452h4.193v9.87h2.71v-9.87h4.194V7.806zM46.191 14c0-2.323-1.613-4-3.871-4-2.194 0-3.871 1.677-3.871 4 0 2.322 1.613 4 3.87 4 2.194 0 3.872-1.678 3.872-4zm-10.516 0c0-3.678 2.838-6.452 6.645-6.452 3.742 0 6.645 2.774 6.645 6.452 0 3.677-2.839 6.516-6.645 6.516-3.742-.065-6.645-2.839-6.645-6.516zm94.774-6.194V20.13h-2.645v-7.936l-6.452 7.936h-2.129V7.806h2.645v7.936l6.452-7.936h2.129zm-26 12.323h-2.645V7.806h2.645V20.13zm-6.839-4.194c0-1.097-.774-1.87-1.806-1.87h-2.71v3.806h2.71c1.032 0 1.806-.839 1.806-1.936zm2.645 0c0 2.452-1.806 4.194-4.387 4.194H90.45V7.806h2.645v4h3.032c2.581 0 4.129 1.678 4.129 4.13z" fill="#000"/></svg>