<svg width="96" height="40" fill="none" xmlns="http://www.w3.org/2000/svg"><path fill-rule="evenodd" clip-rule="evenodd" d="M.004 22.533C.004 27.247 2.638 32 8.537 32c5.894 0 8.533-4.753 8.533-9.467 0-3.22-1.082-6.927-2.889-9.921C12.424 9.72 10.313 8 8.537 8c-1.781 0-3.893 1.72-5.635 4.612C1.087 15.606.004 19.314.004 22.533zm60.584-7.461h-5.973V9.286h18.347v5.786h-5.974v15.643h-6.4V15.072zm26.026 0h9.387V9.286h-9.386c-8.625 0-13.23 4.307-13.23 10.714 0 6.408 4.605 10.715 13.23 10.715h9.386v-5.786h-9.387c-3.99 0-6.615-1.433-6.615-4.928 0-3.496 2.625-4.93 6.615-4.93zm-48.426 7.005L41.6 9.287h11.31v21.428h-6.4V13.274l-4.653 17.44h-7.338l-4.65-17.43v17.43h-6.4V9.287h11.307l3.412 12.79z" fill="#E30611"/></svg>