<svg width="117" height="34" fill="none" xmlns="http://www.w3.org/2000/svg"><g clip-path="url(#clip0_610_24176)"><path d="M14.543 4.186h-2.239c-4.107 0-6.263 2.06-6.263 5.109 0 3.46 1.493 5.067 4.561 7.128l2.53 1.69L5.84 28.947H.402l6.554-9.683c-3.775-2.677-5.89-5.273-5.89-9.682 0-5.52 3.856-9.27 11.198-9.27h7.293v28.635H14.54l.004-24.762z" fill="#FC3F1D"/><path d="M60.249 8.223H45.857v1.771c0 5.07-.332 11.62-2.073 15.08h-1.53v8.611h4.563v-4.737h11.065v4.737h4.564v-8.611h-2.197V8.224zm-4.935 16.844h-6.968c1.368-3.126 1.736-8.774 1.736-12.36v-.617h5.227l.005 12.977zm-20.073-8.644h-6.593v-8.2H23.71v20.725h4.937v-8.651h6.593v8.651h4.935V8.223H35.24v8.2zm76.393-4.739c1.91 0 3.775.66 4.77 1.278V8.794c-1.042-.576-2.862-.988-5.308-.988-6.304 0-9.58 4.49-9.58 10.794 0 6.922 3.193 10.754 9.786 10.754 2.282 0 3.899-.412 5.102-1.276v-3.994c-1.243.868-2.737 1.401-4.81 1.401-3.527 0-4.977-2.72-4.977-7.005 0-4.489 1.782-6.796 5.017-6.796zm-10.785-3.461h-4.977l-6.968 9.56v-9.56h-4.935v20.725h4.935V18.772l7.3 10.176h5.598l-7.921-11.166 6.968-9.559zm-28.325-.411c-6.014 0-8.876 4.573-8.876 10.835 0 7.21 3.567 10.712 9.872 10.712 3.152 0 5.474-.824 6.925-1.812v-3.994c-1.535 1.03-4.105 1.936-6.511 1.936-3.609 0-4.977-1.69-5.184-5.15h11.902v-2.605c0-7.203-3.193-9.922-8.128-9.922zm3.111 8.899H68.75c.125-3.3 1.327-5.027 3.692-5.027 2.447 0 3.193 2.02 3.193 4.615v.412z" fill="#000"/></g><defs><clipPath id="clip0_610_24176"><path fill="#fff" transform="translate(.402 .313)" d="M0 0h116v33.373H0z"/></clipPath></defs></svg>