<svg width="160" height="160" fill="none" xmlns="http://www.w3.org/2000/svg"><path d="M87.953 63.136a2.753 2.753 0 01-.859-.136c-1.02-.341-1.828-1.466-1.828-2.551 0-1.392 1.287-2.69 2.668-2.69 1.38 0 2.668 1.298 2.668 2.69 0 .866-.509 1.766-1.235 2.259a2.56 2.56 0 01-.436.234l-.001-.002a2.602 2.602 0 01-.977.196z" fill="#fff"/><path fill-rule="evenodd" clip-rule="evenodd" d="M133.794 52.121a2.504 2.504 0 01-2.38-1.75l-.832-2.614-23.958 7.748a19.56 19.56 0 01.634 4.955c0 7.398-4.07 14.028-10.49 17.3l28.447 77.201H157.5a2.51 2.51 0 012.5 2.52 2.51 2.51 0 01-2.501 2.519h-155A2.51 2.51 0 010 157.481a2.51 2.51 0 012.5-2.52h48.496l28.39-77.045a19.138 19.138 0 01-9.536-10.518l-12.882 4.165c-.253.082-.51.121-.763.121a2.503 2.503 0 01-2.38-1.75l-1.23-3.861-25.077 8.11 1.336 4.193a2.53 2.53 0 01-1.623 3.172l-7.413 2.377a9.912 9.912 0 01-3.078.491v.002a9.838 9.838 0 01-4.521-1.105c-2.381-1.225-4.147-3.323-4.972-5.907L1.315 58.83c-1.67-5.33 1.237-11.013 6.478-12.684l7.4-2.407a2.454 2.454 0 011.909.155 2.51 2.51 0 011.24 1.472l1.337 4.2 25.078-8.11-1.229-3.859a2.528 2.528 0 011.617-3.17l73.618-23.81-.827-2.596a2.53 2.53 0 01.158-1.922 2.505 2.505 0 011.46-1.248L133.435.37c3.966-1.291 8.215.916 9.479 4.89l10.379 32.672c1.288 3.944-.874 8.248-4.824 9.574a.117.117 0 01-.028.01l-13.884 4.483a2.46 2.46 0 01-.762.122l-.001.001zM56.33 154.961h29.772V79.854a18.585 18.585 0 01-1.99-.294l-27.782 75.4zm34.771 0h28.781l-27.81-75.474c-.32.07-.644.131-.97.183v75.291zM68.704 62.476a20.12 20.12 0 01-.1-2.016c0-10.74 8.67-19.478 19.327-19.478 7.183 0 13.462 3.969 16.794 9.845l24.331-7.867-8.766-27.543-71.238 23.04 1.198 3.763.033.096 6.31 19.818.028.095 1.199 3.766 10.884-3.52zm5.287 1.35a2.568 2.568 0 00-.072-.323 14.772 14.772 0 01-.315-3.044c0-7.962 6.427-14.438 14.327-14.438 5.887 0 10.957 3.597 13.158 8.725.03.085.065.167.103.247a14.48 14.48 0 011.067 5.466c0 5.868-3.45 11.082-8.873 13.316-1.47.67-3.145 1.04-4.843 1.078h-.017a4.74 4.74 0 00-.595.044c-1.86 0-3.612-.342-5.264-1.036a14.227 14.227 0 01-8.676-10.035zM25.99 69.384l-4.783-15.019 25.078-8.11 4.782 15.02-25.077 8.109zm-10.543-16.62l-1.1-3.454-5.03 1.636c-2.628.836-4.074 3.683-3.237 6.35l5.927 18.563a5.018 5.018 0 002.489 2.968c1.18.61 2.528.718 3.793.3l5.038-1.617-1.098-3.445c-.15-.21-.27-.445-.352-.704l-6.31-19.817a2.543 2.543 0 01-.12-.78zm119.147-8.951c.029.09.052.181.071.273l.747 2.348 11.486-3.709c1.338-.458 2.074-1.905 1.641-3.235L138.153 6.8c-.416-1.307-1.876-2.053-3.192-1.63l-11.5 3.714.753 2.364c.031.074.059.15.084.226l10.296 32.339z" fill="#fff"/></svg>