<svg width="211" height="101" fill="none" xmlns="http://www.w3.org/2000/svg"><path d="M61.23 38.675c.11.303-.025.573-.403.813-1.109.6-2.36 1.805-3.752 3.614-1.4 1.783-2.473 3.547-3.22 5.294a53.52 53.52 0 00-3.4 11.264 75.61 75.61 0 013.409.204c.577.094.856.31.835.646-.01.168-.107.319-.293.451a1.13 1.13 0 01-.716.11c-.24-.074-1.378-.198-3.412-.37-.432 1.993-1.108 5.293-2.026 9.902-.516 2.816-1.136 4.57-1.862 5.26-.477.487-1.273 1.018-2.39 1.593-1.09.568-1.972.93-2.65 1.083-.386.104-.6.078-.64-.076-.035-.13.098-.303.398-.521 1.284-.98 2.338-2.504 3.164-4.575 1.35-3.51 2.729-7.744 4.133-12.703a70.032 70.032 0 00-8.56.513 44.277 44.277 0 01-5.943 13.519c-2.169 3.342-4.744 6.144-7.727 8.406-2.727 2.084-5.456 3.491-8.186 4.223-3.76 1.008-6.55.595-8.365-1.237a5.745 5.745 0 01-1.47-2.547c-.6-2.24.06-4.93 1.98-8.067 1.524-2.451 3.348-4.555 5.473-6.311-.535-.658-.93-1.463-1.186-2.416-.483-1.803-.433-3.832.15-6.086.626-2.404 1.79-4.704 3.494-6.9 1.64-2.123 3.613-3.977 5.922-5.562 2.212-1.531 4.452-2.6 6.718-3.208 2.653-.71 4.863-.654 6.63.17 1.447.661 2.46 2.074 3.04 4.237.773 2.885.672 6.474-.303 10.766a78.228 78.228 0 018.636-.533c1.16-4.12 2.375-7.621 3.646-10.502 1.184-2.691 2.574-5.024 4.17-6.998 1.466-1.745 2.874-2.978 4.227-3.7.244-.12.404-.039.48.244zm-25.252 7.14c-1.08-.319-2.379-.274-3.898.133-1.777.476-3.635 1.374-5.573 2.694-1.919 1.287-3.519 2.682-4.8 4.185a18.79 18.79 0 00-3.733 7.088c-.739 2.6-.86 4.827-.363 6.681.083.31.191.612.326.907 4.032-2.571 8.788-4.55 14.27-5.936.537-1.496.774-2.982.71-4.455 0-.414.125-.669.376-.764.103-.027.21.013.322.121.093.14.155.373.186.696.151 1.284.023 2.658-.386 4.12a61.84 61.84 0 015.291-.962c1.15-4.366 1.368-7.876.657-10.529-.559-2.086-1.687-3.413-3.385-3.98zM31.693 62.74c-5.164 1.44-9.55 3.36-13.157 5.762 1.13 1.436 2.867 1.84 5.211 1.213 2.55-.684 4.664-2.12 6.341-4.308a17.227 17.227 0 001.605-2.667zm6.71-1.384c-1.832.27-3.631.615-5.397 1.032a13.867 13.867 0 01-1.93 3.458c-1.937 2.562-4.476 4.264-7.619 5.106-2.756.738-5.09.425-7.001-.94a23.227 23.227 0 00-2.036 1.83c-1.737 1.762-3.08 3.599-4.031 5.51-1.065 2.107-1.41 3.856-1.038 5.248a3.249 3.249 0 001.018 1.632c1.227 1.079 3.168 1.263 5.82.552 3.066-.821 6.374-2.591 9.925-5.31 3.576-2.725 6.3-5.594 8.17-8.607 1.694-2.746 3.067-5.916 4.12-9.51zm22.725 9.15c.047.485-.039.936-.258 1.354-.227.391-.533.64-.92.743-.36.096-.698.021-1.012-.226-.296-.28-.467-.661-.514-1.146a2.15 2.15 0 01.269-1.314c.245-.425.548-.685.908-.782.387-.104.728-.015 1.023.264.29.254.457.623.504 1.108zm40.171-37.97c.469 1.751.307 3.88-.485 6.383-.89 2.86-2.49 5.747-4.803 8.658 1.045.19 1.851.622 2.419 1.298.474.535.819 1.203 1.033 2.001.586 2.19.291 5.209-.886 9.058a44.322 44.322 0 01-3.736 8.62c1.154.188 1.993.433 2.516.734.359.208.44.462.245.763-.252.399-.61.453-1.074.163-.438-.296-1.208-.49-2.31-.582-2.766 4.717-6.35 8.494-10.754 11.33-1.299.817-2.85 1.468-4.653 1.95-3.632.974-5.636.448-6.013-1.577-.446-2.282 1.165-4.77 4.832-7.465 3.041-2.25 6.03-3.769 8.967-4.556 2.318-.62 4.532-.91 6.641-.868 1.109-2.147 1.988-4.48 2.638-7.002.795-3.111.944-5.595.447-7.45-.442-1.648-1.473-2.766-3.093-3.353-3.404 3.37-6.536 5.437-9.395 6.203-1.056.283-1.746.233-2.07-.15a1.824 1.824 0 01-.459-.787c-.407-1.52.847-3.278 3.764-5.274 1.656-1.134 3.669-2.019 6.039-2.654 1.365-.365 2.575-.538 3.63-.517 2.034-2.505 3.551-5.134 4.553-7.887 1.002-2.753 1.278-4.967.83-6.64-.656-2.448-2.954-3.143-6.895-2.087-1.623.434-3.226 1.099-4.809 1.992-3.069 1.733-5.505 3.822-7.307 6.265-1.72 2.338-2.36 4.331-1.918 5.98.118.438.335.835.651 1.192.857.93 2.174 1.157 3.95.68 1.237-.33 2.56-.96 3.966-1.89 1.286-.87 2.35-1.79 3.195-2.761.545-.643.913-.866 1.104-.669.264.261.147.651-.349 1.17-.952 1.084-2.167 2.113-3.644 3.09-1.664 1.107-3.242 1.862-4.736 2.262-2.164.58-3.863.317-5.098-.788a4.66 4.66 0 01-1.456-2.343c-.517-1.931.019-4.104 1.608-6.518 1.608-2.446 3.832-4.45 6.671-6.011 2.23-1.26 4.388-2.17 6.475-2.729 2.163-.58 4.05-.754 5.657-.522 2.237.312 3.608 1.408 4.112 3.288zm-9.345 17.826c-.998-.12-2.115-.013-3.352.318-.876.235-1.714.556-2.516.964-1.123.55-2.024 1.205-2.703 1.967-.66.73-.855 1.292-.583 1.688.179.256.577.301 1.196.136 2.138-.573 4.79-2.264 7.958-5.073zm.806 19.081c-1.908-.013-3.867.25-5.876.788a23.85 23.85 0 00-5.128 2.037c-2.147 1.155-3.878 2.475-5.192 3.959-1.307 1.51-1.907 2.774-1.8 3.794.086.833.612 1.355 1.58 1.565.85.186 1.932.103 3.246-.248a14.048 14.048 0 003.497-1.476c3.843-2.244 7.068-5.717 9.673-10.419zm29.195-20.577c-.09.383-.37.886-.838 1.508-.468.623-1.104 1.442-1.909 2.458-1.228 1.6-2.46 2.564-3.696 2.895a5.666 5.666 0 01-1.443.18c-1.382 2.054-2.859 3.292-4.43 3.713a3.974 3.974 0 01-2.662-.198c-.964-.404-1.646-1.353-2.047-2.847-.517-1.932-.53-4.606-.038-8.024.452-3.157 1.236-6.363 2.352-9.616 1.412-4.105 2.976-7.644 4.692-10.616 1.735-3.005 3.22-4.673 4.457-5.004.618-.166 1.003.035 1.155.602.269 1.004-.125 3.139-1.183 6.404-.897 2.835-2.041 5.778-3.432 8.829-2.383 5.221-4.599 9.211-6.649 11.969-.086 1.43-.001 2.623.255 3.576.448 1.674 1.381 2.321 2.797 1.942.67-.18 1.381-.619 2.132-1.317-1.096-.59-1.796-1.45-2.1-2.584-.469-1.752-.162-3.85.923-6.293 1.077-2.47 2.427-3.922 4.05-4.357a2.65 2.65 0 011.232-.04c.85.186 1.424.833 1.72 1.94.373 1.391.309 3.161-.192 5.311-.5 2.15-1.297 4.02-2.389 5.61.213-.03.435-.076.667-.138 1.03-.276 2.045-1.072 3.045-2.39 1.786-2.3 2.632-3.52 2.539-3.661.106-.222.237-.354.391-.395.155-.041.308.014.459.167.145.127.192.252.142.376zm-6.018-23.234c-.721.193-1.694 1.406-2.918 3.64-1.412 2.559-2.795 5.897-4.149 10.014-1.202 3.552-1.991 6.787-2.369 9.704 1.778-2.74 3.587-6.137 5.427-10.192 3.317-7.404 4.813-11.711 4.488-12.922-.062-.232-.222-.313-.479-.244zm-1.456 17.286c-.695.186-1.407.777-2.134 1.773-.708.962-1.264 2.133-1.668 3.51-.477 1.62-.564 2.996-.26 4.129.262.979.856 1.703 1.783 2.172a14.763 14.763 0 001.666-2.434c.597-1.07 1.117-2.48 1.559-4.227.486-1.897.611-3.284.377-4.16-.187-.695-.627-.95-1.323-.763zm22.32 1.018c.313.137.338.489.076 1.056-.109.416-1.138 1.934-3.086 4.554-2.631 3.162-5.248 5.092-7.849 5.789-.979.262-1.859.277-2.639.044-1.235-.387-2.04-1.276-2.412-2.666-.614-2.293-.036-5.03 1.734-8.21a21.325 21.325 0 013.98-5.082c1.567-1.47 2.968-2.37 4.205-2.7 1.159-.311 1.832-.119 2.018.577.186.695-.137 1.858-.97 3.49a22.669 22.669 0 01-2.536 3.826c-1.604 1.949-3.451 3.451-5.542 4.508-.044.868.017 1.61.183 2.229.262.979.778 1.614 1.546 1.905.67.234 1.391.248 2.164.041 1.7-.455 3.498-1.834 5.393-4.137 1.587-2.22 2.548-3.733 2.883-4.54.314-.582.598-.81.852-.684zm-5.609-6.407c-.695.186-1.596.842-2.703 1.967a19.517 19.517 0 00-3.046 4.087c-.728 1.3-1.231 2.773-1.507 4.421 1.627-.933 3.164-2.256 4.61-3.968a23.764 23.764 0 002.472-3.603c.754-1.306 1.069-2.191.945-2.655-.076-.283-.333-.366-.771-.249zm22.994 2.99c.113.219-.844 1.538-2.874 3.96-1.375 1.665-2.337 2.765-2.884 3.298-1.419 1.402-2.859 2.312-4.32 2.731-1.911.595-3.453.663-4.625.204-1.172-.459-2.11-1.436-2.815-2.931a97.988 97.988 0 00-.469 1.492 141.86 141.86 0 01-2.285 7.238 101.887 101.887 0 01-2.034 5.39c-2.037 5.074-3.686 7.78-4.948 8.118-.592.158-.982-.11-1.168-.805-.552-2.061 1.555-8.106 6.322-18.135a119.008 119.008 0 012.064-4.197c.845-1.69 1.863-3.66 3.054-5.912.48-1.813.858-3.184 1.134-4.113a75.06 75.06 0 01.449-1.57c.106-.222.472-.402 1.097-.542.658-.121.981-.098.971.07-.037.066-.194.563-.47 1.493 1.318-1.678 2.62-2.69 3.908-3.035a3.227 3.227 0 011.299-.1c1.019.197 1.718 1.004 2.097 2.42.318 1.185.407 2.652.268 4.4a26.797 26.797 0 01-.304 2.111 12.296 12.296 0 01-.415 1.851c-.638 2.048-1.564 3.746-2.776 5.092.721-.193 1.519-.614 2.394-1.263 1.38-1.032 2.668-2.357 3.863-3.975 2.017-2.776 2.861-3.955 2.531-3.535.151-.262.304-.413.458-.455.284-.076.46.015.529.273a.546.546 0 01-.051.428zm-9.982-6.187c-1.082.29-2.702 2.022-4.861 5.196l-2.177 6.712c.144.845.457 1.603.941 2.274.59.863 1.272 1.191 2.044.984 1.546-.414 3.022-2.425 4.43-6.032 1.283-3.353 1.658-6.021 1.127-8.004-.256-.953-.757-1.33-1.504-1.13zm-8.031 10.517a68.799 68.799 0 00-3.036 6.446c-.765 1.778-1.512 3.524-2.24 5.238a435.574 435.574 0 01-2.23 5.277c-1.273 3.184-1.83 5.073-1.671 5.665.069.258.181.366.335.325.644-.173 1.889-2.535 3.733-7.088.807-2.038 1.5-3.88 2.081-5.527a54.99 54.99 0 001.419-4.438c.152-.566.363-1.326.631-2.281.262-.982.588-2.187.978-3.617zm33.53-9.73c.313.138.338.49.076 1.057-.109.416-1.138 1.934-3.086 4.554-2.632 3.162-5.248 5.092-7.85 5.789-.978.262-1.858.277-2.638.044-1.236-.387-2.04-1.276-2.412-2.666-.615-2.293-.036-5.03 1.734-8.21a21.323 21.323 0 013.98-5.082c1.567-1.47 2.968-2.37 4.205-2.7 1.159-.311 1.831-.119 2.018.577.186.695-.137 1.858-.97 3.49a22.669 22.669 0 01-2.536 3.826c-1.604 1.948-3.451 3.451-5.542 4.508-.044.868.017 1.61.183 2.229.262.979.777 1.614 1.546 1.905.67.234 1.391.248 2.164.041 1.7-.456 3.498-1.834 5.393-4.137 1.586-2.22 2.547-3.733 2.883-4.54.314-.582.598-.81.852-.684zm-5.609-6.406c-.696.186-1.597.842-2.703 1.967a19.48 19.48 0 00-3.046 4.087c-.729 1.3-1.231 2.773-1.507 4.421 1.627-.933 3.164-2.256 4.61-3.968a23.764 23.764 0 002.472-3.603c.754-1.306 1.069-2.191.945-2.655-.076-.283-.333-.366-.771-.249zm22.458 2.845c-.091.383-.37.885-.839 1.508a133.15 133.15 0 01-1.909 2.458c-1.228 1.599-2.46 2.564-3.696 2.895a5.666 5.666 0 01-1.443.18c-1.382 2.054-2.859 3.292-4.43 3.713a3.975 3.975 0 01-2.662-.198c-.964-.404-1.646-1.353-2.046-2.847-.518-1.932-.531-4.607-.038-8.024.451-3.158 1.235-6.363 2.351-9.616 1.412-4.106 2.976-7.644 4.692-10.616 1.735-3.005 3.221-4.673 4.457-5.004.618-.166 1.003.034 1.155.601.269 1.005-.125 3.14-1.183 6.404-.896 2.836-2.04 5.779-3.432 8.83-2.383 5.22-4.599 9.21-6.648 11.968-.086 1.431-.002 2.623.254 3.576.448 1.674 1.381 2.322 2.798 1.942.669-.18 1.38-.618 2.132-1.316-1.097-.59-1.797-1.452-2.101-2.585-.469-1.751-.162-3.85.923-6.293 1.077-2.47 2.427-3.922 4.05-4.357a2.65 2.65 0 011.232-.04c.85.186 1.424.833 1.721 1.94.372 1.392.308 3.162-.192 5.311-.501 2.15-1.298 4.02-2.39 5.61.213-.03.436-.075.667-.137 1.031-.276 2.046-1.073 3.046-2.39 1.785-2.3 2.631-3.521 2.538-3.662.107-.221.237-.353.392-.394.154-.042.307.014.458.166.145.127.192.253.143.377zm-6.019-23.235c-.721.194-1.694 1.407-2.917 3.64-1.413 2.559-2.796 5.897-4.15 10.015-1.201 3.552-1.991 6.786-2.369 9.704 1.778-2.74 3.587-6.138 5.427-10.192 3.317-7.404 4.813-11.712 4.489-12.922-.063-.232-.222-.314-.48-.245zm-1.456 17.286c-.695.187-1.406.777-2.134 1.773-.708.963-1.264 2.133-1.668 3.511-.477 1.619-.564 2.995-.26 4.128.262.98.857 1.703 1.783 2.173a14.761 14.761 0 001.667-2.434c.596-1.071 1.116-2.48 1.559-4.228.485-1.897.611-3.283.376-4.16-.186-.695-.627-.95-1.323-.763zm25.241 1.56c.29-.05-.512 1.132-2.405 3.544-2.724 3.435-4.767 5.239-6.129 5.41-1.439.193-2.349-.42-2.728-1.836a3.931 3.931 0 01-.125-1.085c-1.426 2.922-2.909 4.548-4.449 4.878-1.618.35-2.679-.414-3.183-2.294-.469-1.752-.159-3.892.931-6.42a22.443 22.443 0 014.485-6.75c1.762-1.77 3.364-2.849 4.807-3.235.618-.166 1.145-.155 1.582.032.437.186.696.586.777 1.2.434-.752.701-1.196.802-1.334.101-.137.265-.25.489-.338.244-.12.45-.176.619-.166.161-.015.22.052.178.201-.526 1.439-1.399 3.95-2.619 7.535-1.07 3.323-1.52 5.61-1.35 6.863.078.807.401 1.135.967.983.979-.262 2.496-1.814 4.55-4.656 1.84-2.509 2.506-3.529 1.996-3.061a.534.534 0 01.373-.307c.309-.083.453.196.432.837zm-7.354-4.572c.205-.469.239-.961.101-1.476-.207-.773-.684-1.06-1.431-.86-.799.215-1.709.887-2.732 2.017-1.111 1.209-2.096 2.687-2.952 4.435-1.94 3.888-2.634 6.862-2.082 8.923.235.875.648 1.234 1.241 1.075.67-.18 1.539-1.158 2.609-2.935a30.756 30.756 0 002.29-4.59c.795-1.98 1.78-4.175 2.956-6.589z" fill="#096142"/></svg>