<svg width="80" height="80" fill="none" xmlns="http://www.w3.org/2000/svg"><rect width="80" height="80" rx="40" fill="#FD495C"/><path d="M51.749 16.98a2 2 0 00-2.74-.7l-5.9 3.54a7.298 7.298 0 01-1.08.46V14a2 2 0 00-4 0v6.28a7.298 7.298 0 01-1.08-.46l-6-3.54a2 2 0 00-2 3.44l5.88 3.52a9.9 9.9 0 0010.28 0l5.88-3.52a2.002 2.002 0 00.76-2.74z" fill="#00953B"/><path d="M44.149 23.54a2 2 0 01-1.72-.98 2 2 0 01.68-2.74l5.9-3.54a2 2 0 012 3.44l-5.84 3.52a2 2 0 01-1.02.3zm-8.24 0a2 2 0 01-1.02-.3l-5.88-3.52a2 2 0 012-3.44l6 3.54a2 2 0 01.68 2.74 2 2 0 01-1.78.98z" fill="#4FB15C"/><path d="M48.689 20.8a2 2 0 01-1.02-3.72l1.34-.8a2 2 0 012 3.44l-1.32.8a2.14 2.14 0 01-1 .28zm-17.4-.04a2.12 2.12 0 01-1.02-.28l-1.26-.76a2 2 0 012-3.44l1.28.76a2 2 0 01.68 2.74 2 2 0 01-1.68.98z" fill="#9ADC8E"/><path d="M62.029 42a3.777 3.777 0 01-.22.5c-1.3 2.72-2.6 5.22-3.86 7.5-6.66 12-12.7 18-18 18-3.06 0-6.34-2-9.88-6a61.022 61.022 0 01-5.74-8c-.78-1.24-1.56-2.58-2.34-4-1.28-2.28-2.58-4.78-3.88-7.5a5.447 5.447 0 01-.08-.5 13.879 13.879 0 01-1.1-4 14.16 14.16 0 011.5-8 13.998 13.998 0 013.32-4.24 9.999 9.999 0 0110.4-1.42l3.88 1.66a10.14 10.14 0 008 0l3.84-1.7a10 10 0 0110.4 1.42A14 14 0 0162.029 42z" fill="#FF7785"/><path d="M44.029 34a4 4 0 01-4 4h-23.16a14.16 14.16 0 011.5-8h21.66a4 4 0 014 4zm8 12a4 4 0 01-4 4h-26c-1.28-2.28-2.58-4.78-3.88-7.5a5.426 5.426 0 01-.12-.5h30a4 4 0 014 4zm-6 12a4 4 0 01-4 4h-11.88a61.022 61.022 0 01-5.74-8h17.62a4 4 0 014 4z" fill="#F15A6A"/><path d="M51.029 36a1 1 0 100-2 1 1 0 000 2zm2-6a1 1 0 100-2 1 1 0 000 2zm-26 0a1 1 0 100-2 1 1 0 000 2zm20 2a1 1 0 100-2 1 1 0 000 2zm10 4a1 1 0 100-2 1 1 0 000 2zm-2 14a1 1 0 100-2 1 1 0 000 2zm-6 6a1 1 0 100-2 1 1 0 000 2zm6-14a1 1 0 100-2 1 1 0 000 2z" fill="#F45356"/><path fill-rule="evenodd" clip-rule="evenodd" d="M39.029 34a1 1 0 100-2 1 1 0 000 2zm-12 14a1 1 0 100-2 1 1 0 000 2zm-3-13a1 1 0 11-2 0 1 1 0 012 0zm13 11a1 1 0 100-2 1 1 0 000 2zm11-1a1 1 0 11-2 0 1 1 0 012 0zm-15 11a1 1 0 100-2 1 1 0 000 2zm11 3a1 1 0 11-2 0 1 1 0 012 0z" fill="#AA2937"/><path fill-rule="evenodd" clip-rule="evenodd" d="M32.029 42c0 1.105-1.791 2-4 2-2.21 0-4-.895-4-2s1.79-2 4-2c2.209 0 4 .895 4 2zm24 0c0 1.105-1.791 2-4 2-2.21 0-4-.895-4-2s1.79-2 4-2c2.209 0 4 .895 4 2z" fill="#FF8B8D"/><path d="M40.029 68c-6.3 0-13.66-8.58-21.84-25.5a14 14 0 013.56-16.74 2 2 0 112.58 3.06 10 10 0 00-2.54 12C32.029 61.74 38.029 64 40.029 64a2 2 0 010 4z" fill="#DA3445"/><path d="M40.029 57a8.44 8.44 0 01-7.58-4.68l-.2-.42a2 2 0 013.56-1.8l.22.42a4.46 4.46 0 008 0l.22-.42a2 2 0 113.56 1.8l-.2.42a8.44 8.44 0 01-7.58 4.68z" fill="#FFB6B7"/><path d="M32.029 42a4.2 4.2 0 01-2.8-1.12 4.4 4.4 0 01-.88-1.34 3.86 3.86 0 01-.32-1.54 4.2 4.2 0 011.12-2.8 4.12 4.12 0 012.88-1.2c.272-.03.547-.03.82 0l.7.22c.303.116.586.278.84.48l.3.22.1.1h.12a4.2 4.2 0 011.12 2.98 3.7 3.7 0 01-.32 1.52 3.66 3.66 0 01-.78 1.24v.12h-.14l-.46.34a2.82 2.82 0 01-.68.38 5.807 5.807 0 01-.78.24l-.84.16zm16 0a4.28 4.28 0 01-2.76-1.1l-.14-.14a3.998 3.998 0 01-.78-1.22 3.86 3.86 0 01-.32-1.54 3.7 3.7 0 01.32-1.52 3.8 3.8 0 01.78-1.24c.388-.394.85-.707 1.36-.92a3.84 3.84 0 011.54-.32 4 4 0 012.84 1.14c.355.38.64.82.84 1.3a3.44 3.44 0 01.32 1.56 3.56 3.56 0 01-.38 1.66 3.8 3.8 0 01-.72 1.1 4.2 4.2 0 01-2.9 1.24z" fill="#FFE7E7"/><path d="M48.029 40a2 2 0 100-4 2 2 0 000 4zm-16 0a2 2 0 100-4 2 2 0 000 4z" fill="#511D21"/><path d="M47.029 38a1 1 0 100-2 1 1 0 000 2zm-16 0a1 1 0 100-2 1 1 0 000 2z" fill="#fff"/><path d="M60.029 43.62a2 2 0 01-1.8-2.86 10 10 0 00-2.54-12 6 6 0 00-6.2-.82l-3.86 1.7a2.001 2.001 0 01-2.64-1.02 2 2 0 011.04-2.62l3.84-1.7a10 10 0 0110.4 1.42 14 14 0 013.56 16.74 2 2 0 01-1.8 1.16z" fill="#FF8B8D"/><path d="M57.009 29.28a2 2 0 01-1.28-.46 6 6 0 00-6.2-.82 2 2 0 11-1.62-3.66 10.001 10.001 0 0110.4 1.42 2 2 0 01-1.3 3.52zm3.86 6.12a2 2 0 01-2-1.48c0-.32-.18-.64-.28-.94a2 2 0 011.18-2.56 2 2 0 012.56 1.18c.16.42.3.84.42 1.28a2 2 0 01-1.42 2.46l-.46.06z" fill="#FFC5C6"/><path d="M20.969 45.62a2 2 0 01-1.78-1.1l-1-2a2.003 2.003 0 113.6-1.76l.96 2a2 2 0 01-.88 2.7 2 2 0 01-.9.16zm8.8 14.74a2 2 0 01-1.6-.8 81.255 81.255 0 01-6.14-9.56 2.015 2.015 0 113.5-2 78.215 78.215 0 005.8 9.14 2 2 0 01-.38 2.8 2 2 0 01-1.18.42z" fill="#AA2937"/></svg>