<svg width="188" height="160" fill="none" xmlns="http://www.w3.org/2000/svg"><path d="M176.197 100.733c1.728-9.791.615-14.328.615-14.328a3.75 3.75 0 00-3.734-3.43h-48.985c-1.937 0-3.155 1.457-2.694 3.234 0 0 1.439 5.624.541 10.726-1.544 8.746-11.545 18.827-11.545 18.827-1.488 1.5-1.119 2.735.818 2.735h55.61a5.88 5.88 0 004.921-3.436s2.706-4.536 4.434-14.328M76.467.887A2.94 2.94 0 0074.32 0H23.182C13.722 0 4.73 7.5 2.725 16.86l-.615 3.53L.06 32.001a2.96 2.96 0 00.757 2.643 2.934 2.934 0 002.147.88h65.088A4.412 4.412 0 0072.205 32l5.019-28.47a2.961 2.961 0 00-.757-2.643zM69.141 42.37a2.934 2.934 0 00-2.146-.878H38.627c-9.454 0-18.452 7.492-20.458 16.86l-.615 3.522L15.5 73.497a2.98 2.98 0 00.756 2.643 2.94 2.94 0 002.153.88h42.324a4.412 4.412 0 004.152-3.523l5.02-28.471a2.96 2.96 0 00-.757-2.643m-7.32 41.472a2.932 2.932 0 00-2.147-.88H31.308c-9.46 0-18.453 7.493-20.458 16.86l-.615 3.529-2.048 11.605a3 3 0 00.756 2.649 2.928 2.928 0 002.147.879h42.33a4.398 4.398 0 004.146-3.528l5.025-28.465a2.991 2.991 0 00-.757-2.65m-7.325 41.484a2.964 2.964 0 00-2.147-.879H23.988c-9.46 0-18.452 7.493-20.458 16.861l-.615 3.528-2.048 11.629a2.977 2.977 0 00.757 2.644A2.94 2.94 0 003.77 160H46.1a4.395 4.395 0 004.146-3.523l5.025-28.471a2.995 2.995 0 00-.756-2.649M187.926 3.53a2.875 2.875 0 00-1.62-3.273A2.89 2.89 0 00185.023 0H87.348a4.406 4.406 0 00-4.152 3.529L78.171 32a2.88 2.88 0 002.91 3.522h83.724c9.454 0 18.453-7.493 20.452-16.86l.615-3.455v-.073c.031-.203.074-.418.111-.615l1.931-10.972.012-.018zm-14.11 71.154c-5.972-18.606-22.204-31.779-43.855-33.063-.843-.08-5.081-.13-6.151-.13H80.028c-.43.005-.856.082-1.26.228h-.05c-.412.145-.8.353-1.15.615a4.42 4.42 0 00-.615.528c-.165.178-.315.37-.449.572a.578.578 0 00-.055.074 4.24 4.24 0 00-.302.571c0 .05-.049.093-.067.142a4.177 4.177 0 00-.216.731l-2.048 11.611-.615 3.528c-1.316 9.362 5.05 16.86 14.504 16.86h84.205c1.414 0 2.355-.909 1.9-2.323m-9.183 52.161c-12.548 18.624-33.424 31.778-55.505 33.063-.88.074-5.13.129-6.225.129H59.116a3.07 3.07 0 01-1.175-.233h-.043a2.9 2.9 0 01-.93-.615 2.777 2.777 0 01-.399-.529 2.75 2.75 0 01-.246-.571.308.308 0 01-.03-.08 3.313 3.313 0 01-.1-.566v-.141a3.361 3.361 0 01.032-.769l2.048-11.604.615-3.529c1.993-9.367 10.998-16.86 20.458-16.86h84.205c1.408 0 2.029.916 1.082 2.33" fill="#247156"/></svg>