<svg width="74" height="48" fill="none" xmlns="http://www.w3.org/2000/svg"><path d="M72.59 1.19A3.982 3.982 0 0069.688 0h-38.35C18.54 0 6.381 10.128 3.69 22.785l-.842 4.765L.08 43.24a4.022 4.022 0 001.024 3.571A3.967 3.967 0 004.009 48h57.206c2.625 0 5.149-2.143 5.61-4.762l6.79-38.472A4.025 4.025 0 0072.59 1.19z" fill="#FD495C"/><path d="M50.18 27.121c.162-.708.195-1.44.1-2.16a.555.555 0 00-.536-.515h-7.016a.377.377 0 00-.376.495 4.81 4.81 0 010 1.606 6.955 6.955 0 01-1.665 2.814c-.198.238-.158.416.12.416h7.926a.871.871 0 00.714-.515 6.7 6.7 0 00.634-2.14M35.93 12.139a.435.435 0 00-.316-.139H28.3a3.151 3.151 0 00-2.913 2.537l-.1.535-.277 1.744a.455.455 0 00.099.396.416.416 0 00.317.12h9.295a.634.634 0 00.594-.516l.714-4.28a.457.457 0 00-.1-.397zm-1.05 6.223a.435.435 0 00-.317-.139H30.6a3.19 3.19 0 00-2.933 2.537v.535l-.298 1.724a.496.496 0 00.1.396.397.397 0 00.317.14h6.044a.635.635 0 00.595-.536l.555-4.34a.455.455 0 00-.1-.397m-1.05 6.342a.414.414 0 00-.297-.138H29.47a3.19 3.19 0 00-2.933 2.536v.535l-.297 1.725a.436.436 0 00.119.396.337.337 0 00.297.139H32.6a.635.635 0 00.595-.535l.733-4.261a.456.456 0 00-.119-.397m-1.029 6.184a.396.396 0 00-.297-.14H28.42a3.151 3.151 0 00-2.914 2.538l-.099.515-.297 1.744a.456.456 0 00.119.396.417.417 0 00.297.139h6.065a.654.654 0 00.594-.535l.714-4.261a.455.455 0 00-.12-.396zm19.085-18.273a.434.434 0 00-.416-.535H37.477a.653.653 0 00-.595.535l-.713 4.28a.436.436 0 00.416.516h11.89a3.15 3.15 0 002.914-2.517l.1-.535a.178.178 0 010-.099l.376-1.645zm-2.022 10.682a6.858 6.858 0 00-6.262-4.974h-7.333l-.159.099h-.099v.119l-.277 1.744-.1.535a2.12 2.12 0 002.082 2.517h12.03a.258.258 0 00.277-.337m-1.546 8.106a10.563 10.563 0 01-7.927 4.954h-7.313a.356.356 0 01-.139 0 .26.26 0 010-.119l.278-1.724.099-.535a3.151 3.151 0 012.913-2.537h12.09c.197 0 .276.139.158.357" fill="#fff"/></svg>