<svg width="83" height="32" fill="none" xmlns="http://www.w3.org/2000/svg"><path d="M42.97 6.096a1.85 1.85 0 001.708-1.66 1.235 1.235 0 00-1.233-1.637l-.475 3.297zm-1.73-3.392a1.85 1.85 0 00-1.78 1.637 1.234 1.234 0 001.234 1.637l.545-3.274zm5.81 1.732a4.27 4.27 0 01-4.364 3.345L42.52 8.8h-2.372l.166-1.02c-2.205 0-3.557-1.305-3.225-3.369a4.246 4.246 0 014.364-3.345l.165-.996h2.372l-.166.996c2.23 0 3.58 1.281 3.225 3.369zm4.742 1.21c.166-1.044 0-1.613-.877-1.613-.878 0-1.281.545-1.447 1.589-.166 1.067 0 1.637.901 1.637s1.257-.593 1.423-1.613zm-4.387 0a3.819 3.819 0 013.794-3.25 2.537 2.537 0 012.68 3.178 3.748 3.748 0 01-3.77 3.227 2.49 2.49 0 01-2.68-3.155m11.027.616H56.7l-.427 2.444h-1.992l1.043-6.192h1.992l-.379 2.325h1.779l.379-2.325h2.016l-1.044 6.192h-2.015l.403-2.444zm5.004.997h1.588l.546-3.298H64.36c0 .665-.214 1.234-.332 1.756a6.382 6.382 0 01-.57 1.542zM62.32 10.2h-1.778l.498-2.941h.237c.355-.166.664-.665.948-1.708.244-1.002.434-2.015.57-3.037h5.003l-.782 4.745h.782L67.3 10.2h-1.778l.237-1.494h-3.225L62.32 10.2zm-25.8.64h2.324l-.545 3.25h2.656l.545-3.25h2.3l-1.422 8.47h-2.325l.57-3.322h-2.656l-.546 3.321h-2.324l1.423-8.468zm10.909 6.31v-.379h-.38c-.83 0-1.21.166-1.304.664-.095.498.142.593.616.593a1.115 1.115 0 001.139-.877h-.071zm-3.7.451c.237-1.447 1.518-2.016 3.486-2.016h.545v-.142c.12-.593 0-.997-.592-.997a.9.9 0 00-.925.736h-1.897a2.942 2.942 0 013.178-2.23c1.636 0 2.56.712 2.37 2.372l-.663 4.009h-2.182l.119-.712a2.372 2.372 0 01-1.897.854c-1.068 0-1.898-.545-1.684-1.85m7.683-4.507h2.016l-.806 4.744h1.162l.782-4.744h2.016l-.806 4.744h1.162l.806-4.744h2.016l-1.044 6.191h-8.347l1.043-6.191zm13.067 2.396c0-.736-.19-1.163-.854-1.163a1.447 1.447 0 00-1.328 1.163h2.182zm-4.364.783a3.772 3.772 0 013.676-3.345c1.613 0 2.846.972 2.372 3.202v.57h-4.15c0 .806.284 1.28 1.02 1.28a1.09 1.09 0 001.138-.735h1.897a3.107 3.107 0 01-3.344 2.182 2.37 2.37 0 01-2.608-3.154zm-23.382 11.86c.735 0 1.186-.285 1.28-.925 0-.593-.236-.925-.995-.925h-.664l-.309 1.898.688-.048zm-.213 1.827h-3.06l1.424-8.469h5.549l-.356 1.898h-3.249l-.213 1.21h.853c2.016 0 2.988.925 2.704 2.609a3.25 3.25 0 01-3.7 2.728m5.787-.664l-1.423-5.551h2.181l.664 3.297 1.684-3.297h1.945L42.615 32H40.67l1.447-2.704zm6.473-.806h1.59l.545-3.298H49.42a31.14 31.14 0 01-.356 1.732 6.597 6.597 0 01-.57 1.565h.096zm-1.233 2.94H45.58l.498-2.94h.284c.356-.19.688-.689.949-1.709.24-1.002.43-2.015.57-3.036h5.003l-.783 4.744h.783l-.498 2.942h-1.779l.261-1.495h-3.249l-.26 1.495zm7.873-2.134l-1.422-5.551h2.181l.665 3.297 1.683-3.297h1.921L55.728 32h-1.944l1.447-2.704zm11.858 2.134l.166-1.494h-7.328l1.043-6.191h2.016l-.806 4.744h1.162l.783-4.744h2.015l-.806 4.744h1.162l.806-4.744h1.992l-.782 4.744h.782l-.498 2.942h-1.707zm7.232-5.29c0-.758-.19-1.162-.83-1.162a1.399 1.399 0 00-1.328 1.163h2.158zm-4.363.76a3.772 3.772 0 013.723-3.226c1.613 0 2.846.972 2.372 3.178v.57h-4.15c0 .806.308 1.28 1.02 1.28a1.114 1.114 0 001.161-.735h1.874a3.13 3.13 0 01-3.344 2.207 2.371 2.371 0 01-2.68-3.18m11.147-.854c0-.758-.19-1.162-.855-1.162a1.4 1.4 0 00-1.328 1.163h2.182zm-4.364.76a3.796 3.796 0 013.747-3.226c1.612 0 2.845.972 2.371 3.178v.57h-4.15c0 .806.285 1.28 1.02 1.28a1.067 1.067 0 001.138-.735h1.897a3.13 3.13 0 01-3.367 2.206 2.37 2.37 0 01-2.656-3.178m-46.576-7.71a7.31 7.31 0 00.12-2.585.664.664 0 00-.64-.617h-8.396a.45.45 0 00-.45.593 5.77 5.77 0 010 1.922 8.328 8.328 0 01-1.992 3.368c-.238.284-.19.498.142.498h9.486a1.043 1.043 0 00.853-.617 8.02 8.02 0 00.76-2.562M13.09 1.352a.522.522 0 00-.38-.166H3.96A3.77 3.77 0 00.474 4.222l-.118.64L.024 6.95a.546.546 0 00.118.475.498.498 0 00.38.142h11.122a.759.759 0 00.711-.617l.854-5.123a.546.546 0 00-.119-.475zM11.834 8.8a.522.522 0 00-.38-.165H6.711a3.817 3.817 0 00-3.51 3.036v.64l-.355 2.064a.593.593 0 00.118.475.473.473 0 00.38.165h7.233a.758.758 0 00.711-.64l.664-5.195a.545.545 0 00-.118-.474m-1.258 7.591a.497.497 0 00-.355-.166H5.359a3.817 3.817 0 00-3.51 3.036v.64l-.355 2.064a.522.522 0 00.142.475.402.402 0 00.356.166h7.114a.758.758 0 00.712-.641l.877-5.1a.546.546 0 00-.142-.474M9.32 23.698a.474.474 0 00-.356-.166H4.103a3.77 3.77 0 00-3.486 3.036l-.119.617-.356 2.087a.546.546 0 00.143.475.498.498 0 00.355.166h7.257a.782.782 0 00.711-.641l.854-5.1a.546.546 0 00-.142-.474zM32.157 1.827a.523.523 0 00-.498-.641H14.94a.782.782 0 00-.711.64l-.854 5.124a.522.522 0 00.498.617H28.1a3.77 3.77 0 003.486-3.013l.119-.64a.214.214 0 010-.119l.45-1.968zm-2.419 12.785a8.207 8.207 0 00-7.494-5.954H13.47l-.19.119h-.119v.142l-.332 2.088-.118.64a2.54 2.54 0 002.49 3.013h14.395a.308.308 0 00.331-.404m-1.849 9.703a12.64 12.64 0 01-9.486 5.93H9.841a.425.425 0 01-.166 0 .308.308 0 010-.142l.332-2.064.119-.64a3.771 3.771 0 013.486-3.037h14.466c.237 0 .332.166.19.427" fill="#fff"/></svg>