<svg width="64" height="64" fill="none" xmlns="http://www.w3.org/2000/svg"><path d="M31.999 3.666a1.004 1.004 0 01-1.007-1V1c0-.552.45-1 1.007-1 .556 0 1.007.448 1.007 1v1.666c0 .552-.45 1-1.007 1z" fill="#fff"/><path fill-rule="evenodd" clip-rule="evenodd" d="M24.214 46.373l.796 2.131a3.481 3.481 0 013.237 2.267l2.256 5.758a.997.997 0 01-.573 1.295 1.01 1.01 0 01-1.304-.57l-2.262-5.773c-.283-.759-1.086-1.156-1.802-.898l-13.825 4.998c-.33.119-.594.362-.744.685a1.434 1.434 0 00-.036 1.117l1.97 5.268a.997.997 0 01-.593 1.285 1 1 0 01-.351.064h-.001c-.409 0-.793-.25-.944-.652l-1.97-5.269a3.407 3.407 0 01.096-2.652c.19-.407.453-.765.774-1.058l-.19-.511a10.22 10.22 0 00-2.978-4.212l-1.467-1.24C1.741 46.241.173 43.101 0 39.794l.258-22.397c-.057-1.064.374-2.181 1.184-3.002a4.297 4.297 0 013.213-1.278c2.227.07 3.992 1.819 4.018 3.982l.88 11.943a3.75 3.75 0 01.343-.143c1.85-.67 3.894.242 4.562 2.027l1.875 5.014a10.54 10.54 0 003.6 4.765 12.54 12.54 0 014.28 5.668zm-13.578 6.788l.107.289 12.305-4.448-.722-1.932a10.538 10.538 0 00-3.6-4.764 12.538 12.538 0 01-4.281-5.67l-1.875-5.013c-.283-.76-1.172-1.14-1.985-.845a1.57 1.57 0 00-.899.809.99.99 0 01-.076.199c-.087.291-.079.599.028.883l3.404 9.102a.997.997 0 01-.594 1.286 1.009 1.009 0 01-1.294-.59L7.75 33.365a3.352 3.352 0 01-.06-2.186L6.662 17.184c-.016-1.15-.924-2.031-2.07-2.067a2.324 2.324 0 00-1.711.678c-.424.43-.64.984-.61 1.562l-.258 22.398c.143 2.696 1.453 5.318 3.596 7.129l1.466 1.24a12.224 12.224 0 013.56 5.037z" fill="#fff"/><path d="M14.549 59.097c.18.356.582.574.98.574a.996.996 0 00.422-.091 1.1 1.1 0 00.548-.607c.086-.247.068-.56-.044-.796a1.112 1.112 0 00-.609-.545 1.125 1.125 0 00-.816.049 1.091 1.091 0 00-.481 1.416z" fill="#fff"/><path fill-rule="evenodd" clip-rule="evenodd" d="M55.06 54.368l.19-.51a10.226 10.226 0 012.98-4.213l1.465-1.24A12.191 12.191 0 0064 39.73l-.262-22.27a4.08 4.08 0 00-1.182-3.066 4.387 4.387 0 00-3.213-1.277c-2.227.069-3.992 1.818-4.016 3.92l-.883 12.005a3.786 3.786 0 00-.343-.143c-1.843-.664-3.893.241-4.561 2.027l-1.876 5.015a10.539 10.539 0 01-3.6 4.764 12.535 12.535 0 00-4.28 5.669l-.797 2.13a3.473 3.473 0 00-3.23 2.252l-2.26 5.773a.998.998 0 00.573 1.295 1.008 1.008 0 001.304-.57l2.267-5.787c.279-.746 1.086-1.143 1.798-.884l13.824 4.998c.329.12.593.363.744.685.162.35.174.746.035 1.117l-1.97 5.268a.998.998 0 00.594 1.286 1.011 1.011 0 001.295-.59l1.97-5.268a3.412 3.412 0 00-.096-2.653 3.33 3.33 0 00-.775-1.058zm-14.11-5.367l.722-1.93a10.537 10.537 0 013.6-4.764 12.533 12.533 0 004.28-5.67l1.876-5.013c.284-.759 1.173-1.135 1.984-.845.404.147.724.434.9.809a.99.99 0 00.075.197c.088.292.08.6-.028.885l-3.403 9.102a.998.998 0 00.593 1.286 1.01 1.01 0 001.295-.59l3.404-9.102c.265-.71.284-1.471.06-2.187l1.03-14.056c.014-1.09.922-1.971 2.068-2.007a2.3 2.3 0 011.71.679c.424.429.64.983.608 1.626l.263 22.27c-.145 2.76-1.456 5.381-3.599 7.192l-1.465 1.239a12.231 12.231 0 00-3.561 5.04l-.108.287-12.304-4.448z" fill="#fff"/><path d="M48.034 59.574a1.102 1.102 0 00.813.049c.251-.086.489-.295.606-.532a1.094 1.094 0 00-.484-1.41 1.128 1.128 0 00-.816-.048 1.117 1.117 0 00-.6.525c-.12.24-.142.561-.053.816.087.249.296.484.534.6zM40.078 5.815a1.012 1.012 0 001.376-.366l.84-1.443a.996.996 0 00-.37-1.366 1.01 1.01 0 00-1.376.366L39.71 4.45a.996.996 0 00.37 1.366zm6.786 6.372c-.348 0-.686-.18-.872-.5a.995.995 0 01.368-1.366l1.453-.833a1.01 1.01 0 011.376.366.995.995 0 01-.369 1.365l-1.453.834a1.005 1.005 0 01-.503.134zm2.299 8.52h1.677c.556 0 1.007-.448 1.007-1s-.45-1-1.007-1h-1.678c-.556 0-1.006.448-1.006 1s.45 1 1.007 1zM23.418 5.95a1.01 1.01 0 01-.873-.5l-.839-1.444a.996.996 0 01.369-1.366 1.011 1.011 0 011.376.366l.839 1.443a.996.996 0 01-.37 1.366 1.003 1.003 0 01-.502.134zm-6.786 6.103a1.007 1.007 0 001.375-.366.995.995 0 00-.368-1.366l-1.453-.833a1.01 1.01 0 00-1.376.366.995.995 0 00.369 1.365l1.453.834zm-1.797 8.654h-1.677a1.004 1.004 0 01-1.007-1c0-.552.45-1 1.007-1h1.678c.556 0 1.007.448 1.007 1s-.45 1-1.008 1z" fill="#fff"/><path fill-rule="evenodd" clip-rule="evenodd" d="M26.145 36.971a.999.999 0 01-.012-.154v-.29c0-2.705-1.165-5.342-3.196-7.234-3.17-2.953-4.649-7.122-4.056-11.438.803-5.847 5.687-10.563 11.613-11.215 3.767-.414 7.542.774 10.344 3.265 2.8 2.49 4.407 6.06 4.407 9.797 0 3.604-1.44 6.967-4.054 9.467-2.144 2.05-3.325 4.665-3.325 7.362v.285a.983.983 0 01-.012.155 3.137 3.137 0 01-.103 4.133c.159.279.25.6.25.942 0 3.286-2.692 5.96-6.002 5.96-3.31 0-6.002-2.674-6.002-5.96 0-.342.091-.664.25-.942a3.137 3.137 0 01-.102-4.133zm2.458 5.17h-.591c.05 2.14 1.82 3.864 3.986 3.864 2.168 0 3.936-1.725 3.987-3.865h-7.382zm7.963-3.162c0 .636-.518 1.154-1.157 1.162h-6.82a1.167 1.167 0 01-1.156-1.162c0-.64.525-1.162 1.17-1.162h6.792c.646 0 1.17.521 1.17 1.162zm-5.574-3.163h-2.867c-.187-3.002-1.552-5.879-3.81-7.983-2.689-2.503-3.942-6.042-3.439-9.708.68-4.951 4.818-8.946 9.839-9.498 3.26-.356 6.37.626 8.778 2.767a11.125 11.125 0 013.737 8.307 11.01 11.01 0 01-3.439 8.027c-2.353 2.252-3.728 5.1-3.918 8.088h-2.867v-8.809h1.78c2.092 0 3.794-1.69 3.794-3.767s-1.702-3.767-3.794-3.767c-1.1 0-2.093.468-2.787 1.214a3.797 3.797 0 00-2.787-1.214c-2.092 0-3.794 1.69-3.794 3.767s1.702 3.767 3.794 3.767h1.78v8.81zm3.794-10.81h-1.78V23.24c0-.974.798-1.767 1.78-1.767.98 0 1.78.793 1.78 1.767 0 .974-.799 1.767-1.78 1.767zm-7.353-1.767c0-.973.798-1.766 1.78-1.766.98 0 1.779.793 1.779 1.767v1.766h-1.78c-.98 0-1.78-.792-1.78-1.767z" fill="#fff"/></svg>