<svg width="64" height="64" fill="none" xmlns="http://www.w3.org/2000/svg"><path d="M36.07 7.047h-3.305c-.553 0-1-.465-1-1.039 0-.574.447-1.039 1-1.039h3.305c.552 0 1 .465 1 1.04 0 .573-.448 1.038-1 1.038zm-2.717 50.966c0 .574.512 1.106 1.065 1.106.553 0 1.065-.532 1.065-1.106 0-.574-.512-1.106-1.065-1.106-.553 0-1.065.532-1.065 1.106z" fill="#fff"/><path fill-rule="evenodd" clip-rule="evenodd" d="M9.89 36.798c.29.179.61.268.93.268.297 0 .595-.077.87-.232l7.222-4.075c.586-.332.951-.968.951-1.662a1.9 1.9 0 00-.95-1.661l-7.222-4.084a1.742 1.742 0 00-1.8.035 1.89 1.89 0 00-.89 1.625v8.16c0 .674.333 1.282.89 1.626zm1.111-1.94v-7.53l6.667 3.77L11 34.857z" fill="#fff"/><path fill-rule="evenodd" clip-rule="evenodd" d="M53.935 13.513v6.221l4.932 14.696c.654 1.952-.341 4.093-2.22 4.774a3.468 3.468 0 01-1.184.209 3.499 3.499 0 01-1.528-.353v20.373c0 2.518-1.97 4.567-4.393 4.567H19.295c-2.423 0-4.395-2.049-4.395-4.567V43.206h-2.238a1.11 1.11 0 00-.812.36l-4.121 4.451c-.358.386-.84.59-1.331.59v.001c-.233 0-.469-.046-.695-.14a1.92 1.92 0 01-1.16-1.785v-3.11a.358.358 0 00-.351-.366C1.88 43.207 0 41.254 0 38.852V24.353c0-2.402 1.88-4.355 4.191-4.355h10.724a1.085 1.085 0 01-.015-.18V4.567C14.9 2.048 16.87 0 19.293 0H49.54c2.423 0 4.394 2.048 4.394 4.566v8.946zm-2-.031v2.908a3.53 3.53 0 00-.284-.16 3.452 3.452 0 00-2.772-.173 3.635 3.635 0 00-2.06 1.914 3.857 3.857 0 00-.17 2.823c-2.84 3.175-5.645 4.966-8.79 5.621a.976.976 0 00-.34.142 2.568 2.568 0 00-1.116 2.45l-1.861.675a4.075 4.075 0 00-2.35 2.178 4.347 4.347 0 00-.195 3.296c.557 1.66 1.999 2.739 3.585 2.87l5.042 9.162c.682 1.24 1.937 1.959 3.249 1.959.41 0 .825-.07 1.23-.217a3.77 3.77 0 002.137-1.98 4 4 0 00.164-2.97l-2.374-7.075c2.188-.586 4.476-.599 6.913-.043a1.106 1.106 0 00-.007.127v13.528c0 .633-1.024 1.342-2.394 1.342H19.295c-1.37 0-2.395-.709-2.395-1.342v-7.311h6.605c2.311 0 4.191-1.954 4.191-4.356V24.353c0-2.402-1.88-4.355-4.191-4.355h-6.62c.01-.058.015-.118.015-.18v-6.336c0-.633 1.024-1.342 2.394-1.342h30.247c1.37 0 2.394.709 2.394 1.342zm-8.801 24.085c-.437.19-.871.402-1.302.64a.949.949 0 01-.364.116 2.417 2.417 0 01-2.34-1.197l-1.449.524 4.681 8.507c.416.757 1.292 1.096 2.085.81.44-.16.792-.486.994-.921.202-.435.23-.926.076-1.382l-2.381-7.097zm-7.013-1.617a2.12 2.12 0 00.487-.113l1.807-.656-1.407-4.192-1.808.656a2.085 2.085 0 00-1.207 1.118 2.234 2.234 0 00-.107 1.709c.322.96 1.22 1.546 2.153 1.485a.948.948 0 01.082-.007zm11.266-12.957l3.9 11.621c-3.622-.612-6.963-.075-10.165 1.633a.463.463 0 01-.334-.306l-.142-.422a1.248 1.248 0 00-.012-.04l-2.066-6.155a.988.988 0 00-.015-.044l-.141-.42a.492.492 0 01.082-.46c3.202-.72 6.064-2.456 8.893-5.407zm6.556 13.22l-.176-.522-.007-.024-5.21-15.522a1.71 1.71 0 01.071-1.273c.186-.403.512-.705.917-.852.174-.063.352-.095.53-.095.242 0 .48.059.705.173.382.193.671.53.813.95l5.392 16.066c.292.87-.152 1.823-.99 2.127-.83.304-1.752-.158-2.045-1.027zm-2.008-25.615V4.566c0-1.37-1.075-2.487-2.394-2.487H19.294c-1.32 0-2.394 1.116-2.394 2.487v6.032a5.388 5.388 0 012.395-.536h30.247a5.39 5.39 0 012.393.536zM16.9 59.433V53.4a5.381 5.381 0 002.395.537h30.247c.89 0 1.709-.196 2.393-.536v6.032c0 1.372-1.074 2.489-2.393 2.489H19.295c-1.32 0-2.395-1.116-2.395-2.489zM2 24.353c0-1.256.984-2.277 2.192-2.277h19.313c1.208 0 2.192 1.021 2.192 2.277V38.85c0 1.255-.983 2.277-2.191 2.277H12.663c-.846 0-1.667.363-2.254.997L6.543 46.3v-2.73c0-1.347-1.054-2.444-2.351-2.444C2.984 41.127 2 40.105 2 38.85V24.353z" fill="#fff"/><path d="M61.06 24.608a1 1 0 01-.923-.64c-.213-.53.028-1.137.538-1.358l1.748-.758c.503-.222 1.094.028 1.307.559.213.53-.028 1.137-.538 1.359l-1.748.758a.957.957 0 01-.384.08zm-1 4.388c.006.569.453 1.025 1 1.025h.012l1.94-.026c.553-.007.995-.48.988-1.053-.007-.569-.453-1.025-1-1.025h-.013l-1.94.026c-.553.007-.994.48-.987 1.053zm-1.991-9.028a.99.99 0 01-.83-.458 1.066 1.066 0 01.27-1.443l1.608-1.127a.978.978 0 011.389.28 1.066 1.066 0 01-.27 1.443l-1.608 1.127a.976.976 0 01-.56.178z" fill="#fff"/></svg>