<svg width="320" height="687" fill="none" xmlns="http://www.w3.org/2000/svg"><path d="M-77.367 185.99h-5.947l-4.758 4.753 1.19 4.752 5.947 1.188h1.19l1.189-1.188h1.189l1.19-1.188v1.188l-1.19 1.188h1.19l1.189-1.188v-4.752l-2.379-4.753zm54.715 27.327l2.379 1.188v3.564l3.568 2.377 2.38-3.565-1.19-3.564-1.19-3.564v-2.377l-1.19-2.376h-2.378v2.376h-2.379v5.941zm-33.305-1.188l-3.568-1.188-4.758-1.188-5.947 1.188 1.19 1.188v2.376h-2.38l-1.19-1.188v-1.188l1.19-1.188-3.568-1.188h-4.758l-1.19-1.189-7.136 1.189-7.137-1.189-1.19-1.188v-1.188 2.376h-1.189v3.565l-1.19-2.376-2.378-1.189-1.19-1.188-4.757 3.565-4.758 4.752-5.948-2.376-4.757-3.564 1.189-3.565 1.19-2.376-1.19-2.376-1.189-2.377 4.757-2.376 3.569-1.188 5.947 3.564 1.19-1.188 1.189-1.188v-1.188h1.19v-7.129l-3.569-4.752-4.758-3.564-1.189-3.565-1.19-1.188v9.505l-7.136 5.941-5.948 4.752v7.129l-4.757 3.564-2.379 2.376v3.565l4.757 7.129 3.569 7.128 1.189 2.376 1.19 1.189v1.188h2.379v-1.188l2.379-1.189h2.378l2.379 1.189 2.379 2.376h8.327l9.515 1.188 2.38-1.188 1.188-1.188 1.19 1.188v1.188l2.379-1.188h2.379l5.947 4.752 7.137 5.941 35.683 21.386 1.19 1.188 1.19 1.188 7.136-1.188 8.326-2.376v-1.188l1.19-2.376 1.19 1.188h1.189l2.379-1.188 2.379-1.189 2.378-1.188 2.38-1.188 1.189-1.188h2.379l2.379 1.188 2.379-3.564v-2.376l-1.19-1.189-2.379-3.564 1.19-1.188 1.19-1.188 2.378-2.376v-2.377l-3.568-5.94-4.758-4.753-5.947-4.752-1.19-1.188-1.19-1.188-1.189 1.188-1.19 1.188-1.189-1.188h-1.19l-1.189 1.188v7.129l-1.189 7.128-1.19-1.188h-1.189l-2.379 1.188-2.379-1.188h-1.19l-1.189 2.376-3.568 1.189-1.19-2.377 1.19-2.376 2.379-1.188h1.19v-2.376l-1.19-2.377h1.19l-8.327-1.188-7.137 1.188-2.379-3.564-7.136-2.376-4.758 1.188v1.188l-1.19 1.188-1.19-2.376h-2.378l-1.19 1.188h-1.189l1.19-1.188v-2.376l-2.38-1.188h-2.378l1.19-1.188v-1.189h2.379l2.378 1.189 1.19-2.377 1.189-2.376h1.19l1.189-1.188v-1.188h-1.19 4.758zm17.844 188.911l-4.758 1.188-1.19 1.188v1.188h-2.378l-2.38-1.188h-5.947l-1.189-1.188h-1.19l-2.378 1.188-1.19 2.376h-3.568l-3.569-1.188v2.376l-1.189 1.188v4.753l-2.379 1.188h-4.758v-1.188h-3.568l-2.379 1.188-2.379 4.752-1.19 5.941v1.188h1.19l-1.19 1.188h-2.379l-1.189 3.565v3.564l2.38 1.188 2.378 1.188v4.753h3.568v1.188l1.19 1.188 1.19-1.188 1.189 1.188 2.379 3.564 1.19 3.565 1.189 1.188 2.379 1.188h1.189l1.19 3.564 2.378 4.753h1.19v-1.188l1.19 1.188v1.188h1.189l2.379 1.188 2.379 2.376 1.189 2.376h2.379l1.19-1.188v-2.376h1.189l2.379-1.188-1.19-1.188v-1.188h2.38v-1.188l-1.19-1.189 1.19-1.188 2.378-1.188v-1.188l1.19-1.188h1.19v-2.376l1.188-1.188h1.19v-3.565l2.379 1.188 3.568-1.188-1.19-8.317v-1.188h-3.568l-1.189-1.188 1.19-1.188 2.378-1.188v-7.129l3.569-2.376 3.568-2.376 1.19 1.188 1.189 2.376-1.19 1.188v2.376h2.38l2.378 1.189 2.38 1.188 3.568 2.376 1.19-1.188h2.378l8.326 2.376 9.516-3.564-2.379-2.377h-3.568l-1.19-1.188-1.19-1.188-3.568-2.376-2.379-1.188v-2.376l1.19-3.565h-2.38l-2.378-2.376 1.19-1.188v-1.188l-1.19-1.188h-1.19l-1.189-4.753-2.379-3.564-1.19-1.188h-1.189l-1.19-1.188-3.567-1.189h-3.569l-1.19-1.188-1.189-2.376h-2.379l-1.19 1.188-2.378 3.565z" fill="#E0EAE7" stroke="#F2F6F5"/><path d="M3.519 431.931l-9.516 3.564-8.326-2.376h-2.379l-1.19 1.188-3.568-2.376-2.379-1.188-2.379-1.188h-2.379v-2.377l1.19-1.188-1.19-2.376-1.19-1.188-3.568 2.376-3.568 2.376v7.129l-2.379 1.188-1.19 1.188 1.19 1.188h3.569v1.188l1.19 9.505h-3.57l-2.378-1.188v3.565h-1.19l-1.19 1.188v2.376h-1.189l-1.189 1.188v1.188l-2.379 1.188-1.19 1.188 1.19 1.189-1.19 1.188h-1.189v1.188l1.19 1.188-2.38 1.188h-1.189v2.376l2.38 3.565-1.19 5.94v2.376h1.19l-3.57 4.753 1.19 2.376 1.19 1.188 1.19 1.188h1.189l1.19-1.188h1.189v1.188h1.189v-1.188l1.19-1.188v8.317l2.378-1.188v-1.188l2.38 1.188 2.378 2.376 1.19 1.188h2.378v1.188l-1.189 1.188-2.379-1.188-2.379 3.565 1.19 2.376 2.379-1.188 5.947 3.564h1.19l4.757-2.376h3.569l2.378-2.376h2.38l1.189-3.565 1.19-2.376 1.189-1.188v-1.188l-1.19-3.564-1.19-2.377 1.19-5.94 2.38-2.377-1.19-1.188v-2.376h2.379l2.379-2.376 2.379-1.188H-.05v-2.376l-1.19-2.377 1.19-2.376 2.378-1.188v-2.376l1.19-2.377 1.19-1.188v-2.376l-1.19-1.188-1.19-2.376 1.19-1.188v-2.377l-1.19-2.376v-4.752l-1.19-1.188v-1.189h1.19v-3.564h1.19v-3.564zm86.828 124.752h-1.19l-1.19-1.188-1.189-1.188-1.189 1.188h-1.19l-1.189-1.188-2.379-2.376-3.568 1.188-1.19 2.376 1.19 2.376-2.38 2.377-1.189-1.189h-3.568l-1.19-1.188-1.189-1.188-1.19 2.376-1.189 2.377H62.99l-1.19 1.188-1.189 1.188h-8.326L49.905 565l-1.19 1.188L46.338 565l-2.379 1.188 2.379 2.376 2.379 2.377v4.752h-3.569l2.38 5.941 3.568 4.752 1.19 3.564 1.189 3.565 1.19 1.188h1.189l2.378 1.188 1.19 1.188 4.758-1.188 3.568-1.188v1.188l-1.19 1.188 5.948 8.317h4.758l2.379-1.188 1.19-2.376 5.946 1.188h3.569l1.19-1.188h1.189l1.19 1.188 2.378-3.565 1.19-2.376-1.19-2.376v-1.188h-2.379v-1.188l3.569-2.377h2.379v-2.376l-2.38-1.188v-4.752h-1.189l-1.19-1.188v-3.565l-1.189-4.752-1.19 1.188-2.378 1.188-3.569-1.188-2.379-3.565 1.19-1.188 1.19-1.188v-3.564l2.378-1.188 2.38-2.376v-3.565h-1.19zM-72.607 243.02l-7.137-5.941-5.947-4.752h-4.758l-1.19-1.188-1.189 1.188-2.379 1.188-9.515-1.188h-8.327l-3.568 4.752-3.568 4.753-1.19 3.564h2.379l1.19 1.188-1.19 3.565-1.189 3.564 1.189 2.376v1.188l-1.189 1.188-1.19 1.189-1.189-1.189-2.379-2.376h-1.19l-1.189 1.188-1.19-1.188v-1.188h-3.568l-1.189-1.188-2.379 1.188-1.19-1.188v-2.376l-8.326-5.941-8.326-3.564v5.94l2.379 4.753v5.94l-2.379 3.565v2.376l1.189 2.376-3.568 1.188h-2.379l-3.568 4.753-1.19 4.752 1.19 1.188h1.189l1.19-1.188 1.189 1.188 2.379 1.189v-1.189l1.189-2.376 3.569-1.188 1.189 1.188 1.19-1.188h1.189l1.19 2.376 1.189 2.377-4.758 4.752-5.947 4.753-1.19 3.564-1.189 2.376-7.137 2.376h-2.379l-2.379 1.188-3.568 5.941v3.564l-4.758 1.189-2.379 3.564 2.379 2.376 1.19 2.376v2.377l1.189 3.564-1.189 1.188v2.376l3.568-2.376 2.379-2.376h2.379v-1.188l4.758 2.376 3.568 1.188 4.758-1.188h3.568V325l2.379-1.188-1.189-3.564 2.379-5.941 7.136 2.376h2.379l2.379 2.376-1.189 2.377 3.568 2.376 2.379-1.188 2.379 3.564 2.379 1.188h2.379l3.568-1.188 1.19 1.188v1.188l1.189-1.188h3.568l1.19 1.188 2.379-1.188 3.568-1.188 7.137 7.129 11.894 1.188v-1.188l2.38-1.188 1.189-2.376 1.19-3.565h2.378l1.19-2.376-1.19-1.188v-1.188l2.38-4.753 2.378-4.752 4.758-4.753 4.758-4.752 1.19-7.129 1.189-1.188 2.379-1.188 1.189-1.188h1.19l2.378-1.188h2.38v1.188l1.189 2.376 2.379-1.188 2.379-1.188 2.378-1.188v-1.188l3.569-1.189 2.379-1.188h3.568l2.38 1.188 3.567-3.564 3.569-1.188v-1.188l2.379-2.376h3.568l4.758-1.189h4.758l1.19-1.188 1.189-2.376 5.947-2.376 4.758-3.565-1.19-3.564-2.379-3.564 1.19-4.753h1.19l1.189-1.188-2.38-1.188h-2.378l-1.19 1.188-2.378 1.188-2.38 1.188-2.378 1.189-2.38 1.188h-1.189l-1.189-1.188-1.19 2.376v1.188l-8.326 2.376-7.136 1.188-1.19-1.188-1.19-1.188-35.683-21.386z" fill="#E0EAE7" stroke="#F2F6F5"/><path d="M-40.492 172.921v-2.376h-2.38v2.376l1.19 1.188-1.19 4.752 3.569-3.564v-1.188l-1.19-1.188zm27.357-26.139l-3.568-1.188h-3.569v2.376h-1.19v2.377l-2.378-1.189h-3.569v2.377l1.19 1.188h-1.19v1.188h1.19-1.19l-1.189 1.188-3.568 2.376-2.38 2.377-1.189-1.189v-1.188l-1.19-1.188-2.378 1.188-2.379 2.377-1.19 3.564v3.564h2.38v1.188l1.189-1.188 1.19-1.188v1.188l-1.19 2.376 2.379 2.377 1.19-1.188-1.19 1.188-1.19 4.752 1.19 1.188 1.19 2.377h-2.38l-1.19-1.189v1.189l-1.188 1.188h-1.19v2.376l1.19 2.376h2.378l1.19 2.376v2.377h2.379v-1.189h1.19l1.189 2.377 1.19 2.376 1.189 1.188v-2.376l1.189-1.188v2.376l2.379 3.564v-2.376l1.19 1.188h2.378l-1.19-3.564-1.189-3.565v-5.94l1.19-5.941 1.19-4.752 2.378-4.753h1.19l1.19-2.376 1.189-2.376 1.19-2.376 1.188 1.188 2.38-1.188v-1.188l-1.19-1.189h1.19l2.378 1.189 1.19-1.189v-1.188h-1.19l-1.19-1.188 3.57 1.188v-2.376h2.379l-1.19-3.564-2.38-2.377v-1.188l-1.189-1.188h-3.568zm27.358-26.138l-2.38 2.376v1.188h1.19v1.188l1.19 1.188h-2.38l-2.378 1.188h1.19l1.189 1.188v1.189l1.189 1.188-2.379-1.188-3.568-1.189-1.19 1.189 1.19 2.376H2.328l1.19 1.188v1.188h-1.19l-1.19-1.188v2.376l1.19 2.376-1.19-1.188-2.378-2.376-2.38 1.188v2.376-1.188l-2.378-1.188-2.38 1.188-1.189 1.188-1.19-1.188 2.38 3.565 4.758 1.188v1.188h-7.137l-2.379 1.188v1.188h3.568l2.38 2.376 1.189 2.377 1.19-1.189v3.565l2.378 1.188 1.19-1.188v1.188l1.189-1.188 2.379-1.188-1.19-2.377v-2.376l1.19 3.565h2.379l1.19-1.189-1.19-2.376-1.19-1.188v-1.188l2.38 1.188 1.189 2.376v1.188l1.19-2.376 1.189-2.376-1.19-1.188v-1.188h1.19v-1.188h1.19v5.94l1.189-1.188 1.189-1.188 2.379-1.188 2.379-3.565-1.19-1.188v-1.188h1.19v2.376l2.379 1.189 1.19-1.189 1.189-2.376v-1.188 1.188l1.19 3.565 1.189-1.189v-2.376h1.189v2.376l2.379-1.188v-1.188l1.19 1.188 1.189-1.188v-1.188l-1.19-1.188h2.38l1.189-1.188-1.19 1.188 2.38-1.188 3.568-1.188v1.188l1.189-1.188h1.19l3.568-1.188H64.18l11.894-1.188 3.569-2.377 2.379-3.564 2.378-2.376-1.189-3.565-5.947-2.376-7.137 2.376v1.188l-1.19 1.189h-1.189v-1.189H52.285l-3.568-3.564-2.38-1.188-1.189 2.376-3.568 1.188h1.19v-1.188h-2.38l-2.378 1.188-2.38-1.188h-3.568l-2.379 1.188h-2.379v1.188h-3.568v2.377l-1.19 1.188-1.189-1.188-1.19-1.188-1.189 1.188-1.19 1.188-2.378 1.188v-1.188l-1.19-2.376zm59.472-86.852v-2.97l-2.379-.594-1.189 2.495v3.564l3.568-2.495zM60.611 23.218l-1.19 2.97 3.57.594 1.189-3.564h-3.57zm13.084.475l3.569 2.02 1.19-1.188-2.38-2.614-2.379 1.782zm-5.947 5.347v.95l2.379-1.544h-1.19l-1.189.594zm-1.19-9.505v-.95l-1.189-.12v2.852l1.19-1.782v0zm1.19 1.307l-1.19.95v2.495l2.38-2.376v-.713l-1.19-.356zm7.137.118l1.19-.95-3.57-3.92-1.189 2.019 1.19 2.02 2.379.831zm-24.979 5.11v.831l1.19.713 1.19-1.663v-1.902l-2.38-.118v2.138zm1.19-7.13l-2.38 1.545 1.19 1.426 1.19-1.307v-1.663zM41.58 1.714v1.544l1.19.238V5.99l3.568-.119 2.379-.713 1.19-.237v.119l1.189.237 1.19 2.97 1.189-.95V4.683l-1.19-2.495h-2.379l-2.379.238-1.19-.12-1.189-.237L42.77 1l-1.189.713zm19.031 5.109V6.11l-1.19.356-2.378.476-1.19.475v2.732l-4.757.12-3.569-.951v.832l1.19 1.069h-1.19l-1.19-.594v1.9h-1.189v-2.02l-2.379-.357-1.189 1.664v1.782l2.379-.119v1.545l-1.19.713-1.189.712 1.19.357 1.189-.119 1.19.95 1.189-1.069v.713l1.19.119 1.189-1.782-1.19-1.307v-.119l3.569.357 1.19 1.188 1.189-.832 2.378-.713 7.137-.356-1.19-2.495-2.378-.832v-.238l1.19-.831 1.189-.12 1.19-1.187v-.476h-2.38v-.831 0zm3.569-3.208l-1.19 1.07 1.19.356 2.379-.476V3.376l-1.19-.594-1.19.832zM107 16.208l2.379 2.139 1.19-1.902-2.379-2.257-1.19 2.02zm-9.516 18.297l2.38 2.257 4.757.238 3.569-3.09v-.237l1.189-4.04L107 28.446l-1.189 1.783-1.19 1.544-1.189-.237-3.569.475-2.379 2.495zm-16.652 7.604l-1.19-1.426-2.378 2.02 2.379 1.782 1.19-2.376zm0-9.505l-5.947-.713v6.297h1.19v-.713l1.189.12 1.19-.476-1.19-.832v-.713l3.568.476 1.19-2.02-1.19-1.426zm4.758-1.188l-1.19 1.188v2.851l1.19.238v-.119l1.19-.118v1.188l1.189 1.663 3.568-1.188 3.569-2.733 1.189-1.782v-1.901l-1.19-.713h-2.378l-2.38-1.544-2.378-.595-2.38 3.565zM83.21 25l1.19 1.782 2.378-.713-1.19-1.782L83.21 25zm-2.379 3.09l-1.19-.595-1.189 1.307 1.19.356 1.19-1.069zm0-10.1l-1.19-1.426-1.189-1.188-1.19-1.188V13l-1.189.356-1.19.832 1.19 2.495 1.19 2.97 1.19 3.565 3.568 1.9-1.19-7.128zm2.379-.832l-1.19-1.425-1.189.118 1.19 2.495v2.733l1.189 2.139 1.19.237v-4.87l-1.19-1.427v0zm3.568.238l1.19-1.426-2.38-.119-1.189 1.307 2.38.238v0zm8.327 10.218l2.378-2.258-2.378-1.069-3.569 1.901 3.569 1.426zm-1.19-13.782l-1.19.713v1.9l1.19-.712v-1.901zm4.758-8.792l-2.379-.476v-.356l-1.19.119v1.069l-1.189 1.188 2.379 1.07 3.568-1.545-1.19-1.07v0zm-9.516 3.802v3.445l3.569.594-1.19-4.04h-2.379zm-5.947 2.613V10.03l-1.19.475v2.851l2.38 1.189h3.568l1.19.237v-.237l-1.19-3.208-3.569 1.069-1.189-.95zm-228.376 186.416h-1.189l-1.19 1.188h-3.568l-3.568 1.189-2.379-1.189-1.19-1.188-3.568 1.188h-4.758l-4.758 3.565-1.189 4.752-1.19 4.753h-1.189l-1.19 1.188 1.19-1.188-1.19-1.188-1.189-1.188v1.188h-1.19l-2.378-1.188-1.19-3.565-2.379-3.564-2.379-1.188-1.189 1.188v-1.188l1.189-1.188h2.379l-1.189-5.941-3.569-4.753-2.379 1.189-2.378 1.188-1.19 9.505h1.19l2.378 1.188-2.378 3.564-3.569 3.565-1.189-1.189h-1.19v1.189l-2.379-3.565-2.379-4.752-2.379 2.376-2.378 1.188-1.19-1.188-1.189-1.188-1.19 3.564-1.189 3.565-1.19 2.376-2.379 2.376 1.19 4.752 2.379 3.565-2.379 2.376-2.379 2.376v1.188l-1.19 3.565-2.378 3.564-1.19-1.188-1.189 1.188-1.19 1.188-1.189 3.565-1.19 3.564-1.189 2.376v4.753h1.189l1.19 1.188v2.376l2.379 1.188h1.189l1.19 2.376v1.189h1.189l1.189 1.188 1.19 1.188 1.189 1.188 1.19 1.188v2.376h3.568l2.379-1.188v1.188h1.19l1.189 1.188 1.189 1.188v1.189l1.19 2.376h1.189l2.379 1.188v2.376h3.569l2.379-1.188 2.379 3.564 3.568 5.941 2.379-1.188h4.758v4.752h2.379l1.189 4.753 5.947 1.188 1.19 2.376 2.379 2.376 2.379-1.188h2.378l7.137-2.376 1.19-2.376 1.189-3.564 5.947-4.753 4.758-4.752-1.189-2.377-1.19-2.376h-1.189l-1.19 1.188h-4.757l-1.19 2.376v1.189h-2.379l-1.189-1.189h-2.379l-1.19-1.188 1.19-4.752 3.568-4.753h2.379l3.568-1.188-1.189-2.376v-2.376l2.379-3.565v-5.94l-2.379-4.753v-4.752l8.326 2.376 8.326 5.941v3.564l1.19 1.188 2.379-2.376 1.189 2.376 2.379-1.188h1.19v1.188l1.189 1.188 1.19-1.188h1.189l2.379 2.376 1.189 1.189 1.19-1.189 1.189-1.188v-1.188l-1.189-1.188 1.189-4.752 1.19-3.565-1.19-1.188h-2.379l1.19-3.564 3.568-4.753 3.569-4.752-2.379-2.376-2.379-1.189h-2.379l-2.379 1.189v1.188h-2.379v-1.188l-1.189-1.189-1.19-2.376-3.568-7.129-4.758-7.128v-3.565l-5.947 4.753 1.189-2.376-1.189-1.188-1.19-1.189-1.189 1.189 1.189-1.189 2.379-1.188-4.758-9.505zM68.939 185.99v-1.188H66.56l-5.947 2.376v3.565l4.758 1.188 3.568-1.188v-4.753zm15.463 29.703v-4.752l1.19-3.565V205l-1.19-1.188-1.19 3.564-1.19 5.941-3.568 3.564-5.947 1.188-1.19 1.188h-1.189l-1.19 2.377-1.189 1.188-1.189 1.188-1.19 1.188v1.188l1.19 1.188v1.188l-1.19 2.377 1.19 4.752v4.753l-3.568 3.564-2.38 2.376-1.189 3.565-1.19 2.376-1.189 2.376v4.752l-1.19 2.377-1.189 3.564h3.569l1.19 1.188 1.189 1.188 2.379-1.188h2.379l7.136 4.753 3.569 7.128v1.189l-1.19 1.188 1.19 3.564v3.564h-2.38l-3.568 2.377-1.19 3.564 4.759 4.752 3.568 2.377h-2.379l-2.379-1.188-2.379 1.188h-1.19v-3.565l-1.189-2.376v-1.188l1.19-2.376v-2.377l1.19-1.188 1.189-1.188h-1.19v-1.188l1.19-1.188v-4.752l-1.19-2.377v-4.752H57.044l-2.379 3.564-1.19 2.376v3.565l-2.378 8.317-2.379 2.376-3.568 1.188-1.19 3.564-2.379 2.377-3.568 1.188-3.568 2.376-2.38-1.188-1.189 1.188-2.379 3.564H24.93v-1.188l-1.19-1.188-4.757-1.188-3.569-2.376-2.379-1.188-1.19-2.377-1.188-3.564v-3.564l4.757 2.376 5.948 2.376-1.19 1.188h-2.379v1.188l3.569 2.377h4.757v-2.377l1.19-2.376h1.19l2.378-1.188 1.19-1.188h1.19v-2.376l4.757-2.377 4.758-2.376 1.19-3.564v-2.376l3.568-2.377 2.378-3.564-2.378-4.753-1.19-7.128 3.569-5.941 2.378-5.94 2.38-7.129 1.189-1.188 1.19-1.188 3.568-7.129-1.19-5.941v-5.94l4.758-4.753L71.318 205v-3.564l-2.38-3.565-5.946-2.376-2.38-1.188-2.378-1.188h-1.19l1.19-1.188h-1.19v-1.188l-5.947 7.128-5.947 8.317-9.516 7.129-7.137 3.564h1.19l-1.19 2.376h-1.19l-1.189 2.377h2.38l1.189 1.188-2.38 3.564-2.378 4.753v2.376l-1.19 2.376-1.189-1.188h-1.19l-2.378 2.376-1.19 3.565v1.188l1.19-1.188h1.19l1.189 2.376 1.189 2.376h1.19v2.376l-1.19 1.188v5.941l2.379 2.376v1.188l-7.137 8.317h-2.379l1.19-1.188v-1.188l-1.19-1.188-1.19-1.188-1.189-8.317-2.379-3.564-3.568-4.753h1.19l2.379 2.376v2.377-1.189l-2.38-4.752-4.757-3.564-2.38 1.188-1.189 2.376h-1.19l2.38 3.564 1.19 2.377v2.376l-2.38 2.376-2.379 2.376-1.189 4.753 2.379 3.564 1.19 3.564-4.758 2.377-5.948 3.564-1.19 1.188-1.189 2.376h-4.758l-4.757 1.189h-3.569l-2.379 2.376v1.188l-3.568 1.188-3.568 2.376v1.188l-2.38-1.188h-3.568l1.19 3.565v2.376l1.19 2.376v1.188l-2.38 2.376-1.19 4.753h-2.378l-1.19 2.376 1.19 2.376 3.568 1.188-1.19 2.377 1.19 2.376h3.569l1.19 1.188 2.378-1.188h2.379v1.188l1.19 1.188 1.189-1.188h1.19l3.568 1.188 3.568 2.376 1.19 1.189 2.378 1.188-1.189 1.188-2.379 1.188 2.38 3.564 3.567 3.565 2.38-1.189 2.378-1.188 3.569 1.188h1.19l1.189-1.188h2.378v1.188l1.19 1.189h1.19l2.378 2.376-1.19 1.188-1.189 2.376v3.565l1.19 2.376 2.379 2.376v8.317l5.947 1.188 5.947-1.188 2.38 3.564 1.189 3.565 2.379 2.376 2.378 1.188 5.948 1.188 4.758 3.564 5.947 3.565 1.19 3.564 2.378 3.564h8.326l2.38 1.189 2.378 1.188 7.137-2.377 4.758-2.376h1.19v3.565l3.568 3.564h4.758l2.379 3.564 2.378 3.565h4.758l2.38 2.376 2.378 3.564 5.947-3.564 3.569-4.753 1.189-2.376v-1.188l1.19-1.188 1.189-2.376-2.379-1.188-1.189-1.189v-2.376l1.189-1.188h2.379l4.758-7.129 1.189-7.128-1.189-3.565-2.379 1.188-2.379-1.188-1.189-2.376h-2.379l-1.19-3.564h1.19l1.189-2.376v-8.317l-3.568-1.188-1.19-3.565v-8.317l1.19-4.752-1.19-5.941-1.19-3.564-1.189-1.188v-1.188l2.38-2.377v-1.188l-1.19-1.188v-4.752l4.758-2.376 2.379-5.941 1.189-8.317 1.189-5.94-1.189-1.189-1.189-1.188v-1.188l-1.19-1.188-2.379 2.376h-3.569l-2.378-2.376-3.568-2.376-1.19-3.565-1.19-2.376v-3.564l2.38-1.188v-1.188l1.189-1.189 4.758-2.376 2.379-2.376 2.379 1.188h2.379l1.189-5.94v-7.129l-2.379-1.188-2.379-2.377v-4.752h3.569l2.378-2.376v-3.565l-2.378-2.376-2.379-2.376-1.19-2.376-1.19-2.377h-3.568l-3.568 2.377h2.379l1.19 2.376v2.376l-4.758-1.188-1.19-3.564-4.758 1.188-1.19 4.752 1.19 4.753 2.38 3.564h2.378l2.379 2.376-1.19 5.941-1.189-2.376-1.19-2.377-7.136-3.564-5.947-4.752 1.19-1.188 2.378-4.753-1.19-2.376 3.569-3.565 2.379-3.564zm13.084 2.376l1.19-1.188v-2.376l-1.19-1.188-5.947 2.376 4.757 2.376h1.19zM85.59 200.248l-4.757-1.189 1.189 3.565h1.19l1.189-2.376h1.19zm5.948-5.941l1.189 1.188 1.19-1.188-2.38-1.188-1.189 1.188h1.19zm82.072 354.059h-2.379l-5.948 2.377-3.568-1.189-1.189 1.189h-2.379v-1.189h-1.19l-1.189 1.189h-3.569l-1.189 2.376-1.189 3.564-2.379 1.188-2.379 1.188-5.948 8.317-8.326 4.753-8.326-1.188-7.137-2.377-1.189-2.376-2.379-1.188-3.569 1.188-3.568 1.188v5.941h-4.758l-4.757-1.188v8.317l1.189 1.188h1.19v4.752l2.378 1.188v2.377h-2.379l-3.568 2.376 1.19 1.188h1.189v1.188l1.19 2.376 4.757-1.188H107v-2.376l1.189-2.376 5.948 1.188 2.379-1.188 2.379-1.188h4.757v-1.189l1.19-1.188h1.189v1.188h1.19v1.189h1.189l2.379-1.189v2.377l1.19 2.376h4.757l5.948 1.188 1.189 3.564 1.19 4.753 4.758 1.188 4.757 1.188h1.19l1.189-1.188 5.948 2.376h2.378l3.569 1.188 1.189 1.188 1.19 1.189 8.326-4.753 1.189-3.564 1.19-3.565h-1.19l-1.189-2.376v-3.564l-1.19-1.188 2.379-5.941 3.569-4.752h1.189l1.19-1.189 2.379-2.376 1.189-2.376v-2.376l-1.189-1.188v-2.377l1.189-1.188v-5.94h1.189v-2.377l-1.189-1.188h-4.758l-5.947-4.752-5.947-5.941v1.188z" fill="#E0EAE7" stroke="#F2F6F5"/><path d="M318.724 502.03h-2.379l-2.379-2.376v-2.377l-1.189 1.188h-7.137l-1.189-1.188-1.19-1.188-1.189 2.376-3.569 2.377h-5.947l-1.189-1.188h-1.19v-1.189h-1.189l-2.379 1.189-1.19 2.376h-1.189l-1.19-1.188-2.379 2.376-3.568 2.376 1.19 5.941h2.378v2.376l2.379 1.188 1.19 2.376h-2.379v2.377l-2.379 9.505 1.189 9.505 3.569-13.07 2.379-4.752 3.568-1.188-1.189 15.445-2.379 16.634-1.19 1.188-1.189 1.188v-3.564l-1.19-1.188-1.189 2.376-1.19 2.376h3.569v2.376l-1.19 2.377h-2.379l-2.378 3.564-3.569 4.752-14.273 5.941-1.19 3.564-1.189 3.565-8.326 4.752-4.758 1.188-1.19 1.188-3.568 3.565h-4.758l-1.189 1.188h-1.19v-4.753l-1.189-2.376-2.379-1.188v-2.376l-1.19-2.376-8.326-7.129-1.189 1.188h-1.19l-1.189-2.376-1.19-3.565-5.947-3.564-4.758-3.564-1.189-3.565v-2.376l-5.948 4.753-4.757 3.564-1.19-1.188h-1.189v5.94l-1.19 1.188v2.377l1.19 1.188v2.376l1.189 1.188 2.379 1.188 8.326 4.753 7.137 3.564h1.189l1.19 1.188 4.758 1.188 3.568 1.189v7.128l7.137 8.317 10.705 2.376 9.516-2.376 2.379-1.188h1.189l4.758 1.188 4.758 1.188h3.568l3.568 2.376 2.379 2.377h2.379l2.379 1.188v-4.753l2.379-3.564h2.379l2.379-2.376-2.379-1.188-2.379-2.377 1.19-2.376 2.378-2.376-1.189-3.564 1.189-2.377h4.758l3.569 1.188 2.379-2.376 3.568-2.376h3.568l2.379 1.188 1.19-1.188 2.379-2.376 2.378-2.377 2.379-1.188 2.379-1.188 1.19-3.564 1.189-1.188h1.19l2.379 1.188 1.189-2.376 2.379-1.189 5.947-1.188 5.948-4.752-2.379-7.129-2.379-4.752 2.379-1.188v-1.189l7.136-5.94 5.948-5.941 2.379-1.188 2.379-1.188h2.378l2.379-1.188v-8.317l-5.947-4.752-3.568-2.377v-4.752l-1.19-2.376v-1.188l-1.189-2.377v-3.564l-1.19-1.188-1.189-1.188h-1.19l2.379-1.188-1.189-2.377 2.379-2.376h1.189l1.19-1.188-5.948-1.188-5.947 7.129-5.947 2.376-4.758-1.188-2.379 1.188zm-201.018 19.01l-2.379-2.377-2.379 1.189h-3.568l-3.568-3.565-3.569-3.564-1.189 1.188v5.941l-1.19 3.564-1.19 4.752h3.569l2.379 2.377-1.189 1.188-1.19 1.188 1.19 2.376-1.19 2.376h-1.189l-2.38 2.377v2.376l1.19 3.564-1.19 2.376 1.19 2.377 1.19 3.564-4.758 3.564-4.758 2.377-2.379 2.376-2.379 1.188v3.564l-1.19 1.188v1.189l1.19 3.564 3.569 1.188 2.379-1.188 2.379-1.188 4.757 1.188h4.758v-5.941l3.569-1.188 3.568-1.188 1.189-3.564 2.379-2.376 1.19-1.189h2.379l2.379-4.752v-1.188l2.378-1.188 2.379-2.377v-1.188l-1.189-1.188-1.19-1.188v-1.188l-1.189-1.188 2.379-5.941-2.379-7.128-1.189-7.129-3.569-1.188z" fill="#E0EAE7" stroke="#F2F6F5"/><path d="M92.728 490.149H84.4l-1.189 1.188-1.19-1.188h-1.189l-2.379 2.376-1.19 1.188h-1.189l-1.19-1.188-2.378 1.188h-2.38l-1.188 2.376v1.188l1.189 3.565v3.564l1.19 1.188-1.19 2.376-1.19 2.377 1.19 2.376v2.376l-1.19 1.188-1.189 2.376 2.379 2.377 1.19 2.376 1.189 1.188h1.19v2.376l1.189 1.188 1.19 1.189 1.189 1.188v3.564l1.19 2.376 2.378 1.188 1.19 1.188-1.19 1.189-1.19 2.376v1.188h1.19v1.188l-1.19 1.188 1.19 2.376v3.565l2.379 2.376 1.19 1.188h1.189l1.19-1.188 1.189 1.188 1.19 1.188h1.189l1.19-1.188v4.753l4.757-2.377 4.758-3.564-1.19-3.564-1.19-2.377 1.19-2.376-1.19-3.564 1.19-2.376 1.19-2.377 2.379-1.188v-1.188l-1.19-2.376 1.19-1.188 1.189-1.188-2.379-2.377h-3.568l1.19-4.752 2.378-3.564-1.189-1.189v-4.752l1.189-1.188 3.569-3.565 3.568-1.188v-1.188l-1.189-10.693-1.19-1.188-1.189-1.188 1.189-2.376h1.19l-1.19-1.188v-1.189h-4.758l-3.568 2.377-2.379-1.188-2.379-1.189-1.19 1.189z" fill="#E0EAE7" stroke="#F2F6F5"/><path d="M9.464 459.257l-2.379-1.188-2.379-2.376-1.19 2.376v1.188l-1.189 2.377v2.376l-2.379 1.188-1.19 2.376 1.19 2.377v2.376H-4.81l-2.378 1.188-2.38 2.376h-2.379v2.376l1.19 1.188-2.379 2.377-1.19 5.94 1.19 2.377 1.19 3.564v1.188l-1.19 1.188-1.19 2.376-1.189 3.565h4.758l1.19-1.188 1.19-1.189 1.189 1.189h3.568L-6 503.218l-2.379 1.188 3.568 7.129 4.758 8.317 1.19-2.377 2.379-1.188 1.19 1.188v1.188l2.378-1.188h2.379l3.568 1.188H16.6l1.19-1.188 8.325-3.564 7.137-2.376v1.188l1.19 3.564 1.189 1.188v2.377h1.19l1.189 1.188-1.19 1.188h-1.189l5.947 7.128 3.569-3.564 5.947-3.564v2.376h2.379v-2.376h9.516l1.189-1.188 3.568-2.377 1.19-2.376 1.19-1.188v-2.376l-1.19-2.376 1.19-2.377 1.189-2.376-1.19-1.188v-3.564l-1.19-3.565v-1.188l1.19-2.376H64.18l-1.19-1.188-1.189 3.564-2.379 1.188h-1.19v-1.188l-1.189-1.188 1.19-1.188 1.19-1.188v-8.317h-3.57l-1.189 1.188v1.188l-1.19-1.188h-7.136l-1.042-4.752-8.474-1.189-5.876-9.453-8.35-4.693 1.112-1.229-14.243-4.823z" fill="#E0EAE7" stroke="#F2F6F5"/><path d="M58.233 522.228h-4.758v2.376h-1.19l-1.19-2.376-5.946 3.564-3.569 3.564-4.758-7.128 1.19-1.188-1.19-1.188h-1.19v-2.377l-1.188-1.188-1.19-3.564v-1.188l-7.137 2.376-8.326 3.564-1.19 1.188h-3.568l-3.568-1.188H7.086l-1.19 1.188-1.189-2.376h-1.19l-1.189 1.188-2.379 2.377 8.326 42.772 4.758-1.188v-2.377h2.38v-1.188l1.189-1.188 2.378 5.941 2.38 4.752 4.757 1.188 2.38 1.188h4.757v-1.188h3.569l1.189-1.188 4.758 3.565 2.379 4.752h3.568v-4.752l-2.379-2.377-2.379-2.376L46.338 565l2.379 1.188V565h1.19l2.378-1.188h8.327l1.189-1.188 1.19-1.188h2.379l1.189-2.377 1.19-2.376 1.189 1.188 1.19 1.188h3.568l1.189 1.189 2.379-2.377-1.19-2.376 1.19-2.376 3.568-1.188v-3.565l-1.19-2.376 1.19-1.188v-1.188l-1.19-1.188 1.19-2.376 1.19-2.377h-1.19l-2.379-1.188-1.19-2.376v-3.564l-1.189-1.189-1.189-1.188-1.19-1.188v-2.376h-1.189l-2.379-1.188v-2.376l-2.379-2.377-3.568 2.377-1.19 1.188h-2.379l-2.378-1.188v1.188zm299.743-52.277l-3.568-1.189-2.379 2.377 2.379 2.376-1.19 1.188h-1.189v3.564h-1.19v1.189l1.19 8.316h2.379v7.129h-1.19l-1.189-1.188-2.379 2.376-1.19 1.188-2.379-1.188h-4.758l-2.378 1.188v2.377l-1.19 1.188h1.19l1.189 1.188 1.189 1.188v2.376l-1.189 1.188h1.189l1.19 2.376v1.189l1.189 2.376-1.189 1.188 1.189 3.564 3.569 2.377 5.947 4.752v9.505h-2.379l-3.568 1.188h-1.19l-2.379 1.188-5.947 5.941-7.137 5.94-1.189 1.189-1.19 1.188 2.379 4.752 2.379 7.129-5.947 4.752-7.137 1.188-1.189 1.189-2.379 2.376-1.19-1.188h-1.189l-1.189 2.376-1.19 2.376-2.379 1.188-3.568 1.188-1.19 2.377-2.379 2.376-1.189 1.188-2.379-1.188h-3.568l-3.569 2.376-2.379 2.376h-1.189l-2.379-1.188h-4.758l-1.189 2.376 1.189 3.565v1.188l-2.379 1.188-2.379 2.376 3.569 2.377 2.379 2.376-2.379 1.188h-2.379l-2.379 3.564v4.753l2.379 2.376 4.758 4.752 8.326 1.189 8.326 1.188h1.19l1.189-1.188 1.189 1.188h2.379l2.379-1.188 3.569-2.377 8.326-2.376 8.326-2.376 2.379-4.753 8.326-7.128 5.947 1.188 4.758 2.376h4.758l7.137-1.188 5.947 3.564 8.326 1.188 2.379-3.564 3.569-3.564 3.568-2.377 2.379-2.376v-2.376h-1.19v-1.188l2.379-9.505 2.379-10.693 3.569-4.753 2.379-4.752-1.19-1.188-1.189-1.188v-2.377l-1.19-1.188-3.568 1.188-1.19-3.564 1.19-2.376 3.568-3.565v-1.188l1.19-1.188 4.757-2.376 5.948-3.564-2.379-3.565-3.569-3.564 1.19-2.376v-3.565l1.189-1.188 1.19-1.188-3.569-2.376h-1.189l-1.189-1.188 2.378-5.941-2.378-5.941-2.379 1.189h-1.19l-1.189-3.565-2.379-3.564-3.569 1.188-2.379 1.188v1.188h-1.189l-2.379-2.376v-2.376h1.19l1.189-1.188-2.379-1.188-2.379-1.189-1.189-1.188v-2.376h-2.379l1.189-4.752-3.568-4.753-1.19-4.752h-1.189l-1.189 1.188-2.379-4.753v-7.128l-4.758 1.188-2.379-1.188z" fill="#E0EAE7" stroke="#F2F6F5"/><path d="M285.418 199.059h-2.379v3.565h-1.189l1.189 2.376 3.569 2.376 2.378-1.188 1.19-2.376-4.758-4.753zm123.704-15.445l-2.379-3.565-3.569-1.188 2.379 2.377 3.569 2.376zm-11.895-27.327v-4.752l-1.189-1.189-2.379 1.189 2.379 3.564v2.376l1.189-1.188zm29.736 11.881l1.19 4.753 1.189 1.188h2.379v-4.753l-4.758-1.188zm20.221 14.258l2.379-4.753v-1.188l-1.189-1.188-5.948-3.564h-5.947l-2.379 3.564v4.752l-1.189 2.377-1.19 1.188-1.189 1.188h2.379l2.379-1.188 2.379-1.188h3.568l5.947-1.188v1.188zm-8.326-45.149l1.189-1.188-5.947-1.188-4.758-1.188-1.189 1.188-2.379 1.188-4.758-2.376-3.568-1.188v1.188l1.189 1.188h-1.189l-1.19 1.188v1.188l1.19 2.376v1.189l1.189 1.188-3.568-1.188-3.569-1.189-2.378-1.188h-1.19l-1.189-1.188v-1.188l-1.19 1.188-1.189 2.376-1.19 2.377-1.189 1.188-1.19 1.188 1.19 1.188v3.564l-1.19 2.377h1.19l1.189 1.188v2.376l1.19 2.376 2.379 2.376 3.568 1.189 1.189 2.376 1.19 1.188h5.947v-7.129l1.19 1.188 1.189 1.188 1.19-1.188 1.189-1.188 4.758-3.564h4.758l1.189-1.188 1.19-1.188 1.189-1.189-2.379-1.188h-2.379l-4.758-3.564-2.378-4.752 3.568-3.565v1.188l7.137 9.505 3.568-4.752-1.189-4.753 1.189-1.188zm28.547-7.129l-1.189 1.189-3.569-1.189-3.568 1.189v1.188l-1.19 1.188-2.379-1.188v-1.188h-3.568l-2.379 1.188v2.376l-1.189 1.188-2.379-2.376v-1.188l-1.19 2.376 1.19 4.752 4.758 1.189 5.947 1.188 7.137-2.377 4.757-4.752v-2.376l-1.189-2.377zm78.504 42.773l-19.031 11.881-5.947 7.129-4.758 2.376-4.758-2.376-4.758-2.377h-5.947l-4.758-1.188v1.188l-1.19 1.188h-2.378l-1.19-1.188 1.19-2.376 2.378-1.188-2.378-2.376-3.569-2.376-4.758 1.188-3.568 1.188-4.758 9.505-4.758 8.317h-1.189v-2.377l-1.19-1.188 2.379-1.188 1.19-1.188-1.19-1.188v-2.376l2.379-1.189 1.19-2.376-2.379 1.188-5.947 3.565-1.19 1.188-1.189 1.188-1.19-2.376 3.569-3.565h1.189l3.568-2.376 3.569-1.188-13.084 1.188-13.084 4.753h-5.948l-2.379 1.188 1.19 1.188 2.379 1.188-1.19 3.564-3.568 1.188-2.379 5.941 1.19 1.188 2.378-1.188v2.376l1.19 1.188 1.189 2.377v2.376l2.379 1.188v2.376h-2.379v2.376l-1.189-1.188-1.19-1.188h-1.189l-1.189 1.188h-2.379v7.129l-4.758-2.376-8.326-1.188-3.569 4.752-4.758 3.565-4.757-1.189-3.569-2.376-1.189-2.376 2.379-1.188-2.379-1.188-1.19 10.693-1.189 13.069-1.19 1.188-1.189-1.188-1.19-1.188v1.188h-2.378l-1.19-1.188v-1.188h-3.568l-2.379-3.565-2.379-3.564h-1.19l-1.189-1.188 1.189-1.188 1.19-1.188-1.19-2.376-2.378-1.189 1.189 1.189v1.188l-1.189 1.188-2.379-2.376-1.19-2.377-5.947-3.564-2.379-1.188h3.568l2.379 2.376 2.379 2.376h3.569l2.378-2.376-1.189-3.564-2.379-2.377v-4.752l-1.189-2.376v-1.188l-2.379-2.377h-2.379l-7.137-5.94-2.379 1.188-2.379 1.188h-5.947l-3.568-2.376-4.758-1.188v1.188l-1.19 1.188-2.379 5.941 1.19 4.752v4.752l-2.379-1.188h-3.568v1.188h-2.379l-2.379 1.189-1.19 1.188-3.568-1.188-2.379-1.189h-7.137l-2.379-1.188v-2.376l2.379-2.376-1.189-1.188h-9.516l-2.379-1.188-1.189 1.188h-1.19l-2.379-1.188h-2.379l-1.189 1.188-1.189 1.188-2.379 1.188-3.569 1.188v3.564l-2.379-2.376 1.19-2.376-1.19-3.564-2.379-2.377v3.565l-1.189 1.188h-3.568l-3.569-2.376-1.189 1.188-1.19 3.564-2.379 2.376 1.19 1.188h1.189v3.565l1.19 1.188-1.19 4.752 1.19 4.753 1.189 1.188v3.564l1.19 1.188 2.379 1.189 2.379 2.376 1.189 4.752v4.753l2.379 4.752 1.189 3.565v1.188l-4.757 3.564-4.758 3.564-1.19 3.565v2.376l-1.189 1.188-2.379 1.188v4.753l-2.379 3.564h-2.379l-3.568-1.188-3.569 1.188-2.379 2.376h-2.379l-2.378-1.188v1.188h-1.19l-1.189 2.377v1.188l1.189 4.752 2.379 3.565v16.633l-1.189 13.069-3.569 2.377-2.379 2.376 1.19 1.188 1.189 1.188v8.317l1.19 2.376v5.941l1.189 2.376 2.379 2.376 2.379 2.377-1.19 2.376-1.189 1.188-2.379 3.564v3.565l-2.379 3.564 2.379 4.752h2.379l1.189 1.189 1.19 1.188 4.758 1.188h8.326l1.189 2.376 1.19 3.564-1.19 1.189-2.378 3.564 3.568 2.376 4.758 2.376 1.189 8.317v5.941l2.379 2.376 1.19 3.564-1.19 3.565-2.379 1.188 1.19 5.94 3.568 3.565-2.379 5.94-2.379 7.129v4.753l-1.189 1.188-1.19 5.94 1.19 4.753h2.379l5.947-1.188 1.189-2.377 3.569 1.189h1.189v-1.189h1.19l1.189 1.189 1.19-1.189h3.568l1.189-1.188 2.379-2.376v1.188l2.379 2.376 1.19 1.189-1.19 3.564 5.947-5.941 4.758-7.128h2.379l1.19-2.377 1.189-3.564 2.379-1.188h2.379l3.568-3.564h4.758l3.569 1.188 2.378 2.376 2.379 1.188v2.376l1.19 1.188v2.377h5.947l5.947 1.188 1.19 1.188v2.376l1.189 2.376v3.565l1.19 2.376 1.189 1.188v1.188l1.19 2.376v7.129l2.379 4.753 1.189-1.189h1.189l1.19 4.753 3.568 4.752 4.758-2.376 4.758-1.188 2.379 1.188 2.379 1.188 2.379 1.188h4.758l2.378 1.189 1.19 1.188h7.137l5.947 1.188 2.379 2.376 2.379 2.376 5.947 1.188 3.568-1.188h3.569l2.379 1.188h2.379l3.568-2.376 2.379-1.188h2.379l1.189 1.188 1.19-1.188v-2.376h4.758l1.189-1.188 2.379 1.188 3.568 1.188 1.19-1.188v-1.188l2.379-2.377 2.379-1.188v-1.188l1.189-1.188h3.568l2.379-2.376 1.19-5.941v-4.752l2.379-1.188 1.189-1.188v-2.377l-1.189-2.376-2.379-1.188-1.19-1.188h-2.379l1.19-2.376 2.379-1.189v-3.564l1.189-1.188 1.19-1.188-3.569-2.376-2.379-3.565h3.569l-1.19-4.752 1.19-3.565 1.189-7.128 1.19-2.377 2.379-2.376h2.379l5.947-2.376 5.947-2.376 1.19-1.188v-2.377l1.189-2.376h1.189l1.19 1.188h1.189l2.379-1.188 5.948-3.564 1.189-4.753v-1.188l1.189-1.188 2.379 2.376 1.19-1.188-1.19-3.564-1.189-2.376-2.379-4.753-1.189-5.94-2.379-3.565 1.189-4.752v-1.188l1.19-1.189v-1.188l1.189-1.188v-2.376l2.379-1.188 1.189-1.188v-7.129l1.19-7.129h4.758l5.947 2.377h2.379l1.189-1.189 1.19 1.189 1.189 1.188 2.379-3.565 2.379-2.376h2.379v1.188l1.189-1.188 1.19-1.188 1.189 1.188 2.379 2.376 1.19-3.564v-8.317l1.189-2.376v-2.376l-1.189-1.188 1.189-2.377v-1.188l-2.379-2.376-3.568-2.376-1.19-10.693 1.19-4.753 1.189-3.564h2.379l2.379-1.188 1.19-1.188 1.189-1.189 1.19 1.189 1.189-1.189 1.19-3.564-2.379-3.564 2.379-1.188h2.378l2.379-2.377 1.19-2.376 4.758 2.376 3.568 1.189 1.189-2.377v-1.188l2.379-1.188 1.19-1.188 1.189-2.376 2.379-3.565h1.19v-2.376h-1.19v-1.188l1.19-2.376-1.19-1.188-3.568-2.377v-5.94l2.379-3.565-2.379-1.188v-3.564l1.189-2.376 1.19-2.377-1.19-2.376v-2.376h3.569v-2.376l4.757-1.188 3.569-1.188 1.189-1.189 1.19-1.188 2.379 1.188h1.189l1.19-2.376 1.189-3.564 2.379-1.188v-2.377l-2.379-3.564-2.379-4.752 1.19-1.188v-1.189l-7.137-2.376-7.137-4.752v-2.377l1.19-2.376-1.19-1.188-1.189-1.188 5.947-8.317 8.326-9.505 1.19-1.188 2.379-1.188-1.19-2.376-2.379-3.565v-2.376l-2.379-1.188h-1.189l-1.19-2.376-1.189-1.188h-1.19l-1.189-1.188-1.19-2.377-1.189 2.377v2.376h-1.189v-1.188h-1.19v5.94l-1.189-2.376-2.379-2.376-3.569 1.188h-4.758l-1.189-3.564-2.379-4.753-13.084-3.564zm-116.567 49.901l2.379 1.188 2.379-1.188v-1.188l-1.189-1.189-2.379 1.189-1.19 1.188z" fill="#E0EAE7" stroke="#F2F6F5"/><path d="M103.433 210.941l1.189 2.376h3.569v-7.129l-4.758 4.753zm28.547-40.396h1.189v1.188l1.19 1.188 1.189-4.753-1.189-1.188v1.188l-2.379 2.377zm7.136-89.466V80.01l-1.189-.832-3.568-1.544 2.378 1.9V81.2l2.379-.12zm20.221-27.208l-3.568-.95-2.379 1.07 1.189 1.187h1.19l2.379.713 1.189-2.02zm121.325 104.792l1.189 1.189v1.188l2.379 1.188-1.189-3.565-1.19-1.188-1.189 1.188zm-77.315-9.504h3.568l2.379-3.565h-2.379l-1.189 1.188-1.189 1.188-1.19 1.189zm-1.189-59.525l1.189-3.446-2.379-2.376-3.568-1.188-1.19-.594-2.379 1.425v3.09l2.379.95 1.19.95v2.376l4.758-1.187zm26.168 1.782l-3.569-6.297-3.568 2.614-2.379 3.92-1.189 1.426-1.19.713 1.19-1.544 1.189-1.307v-.594l-1.189.594-2.379.95-1.19-.237 4.758-2.733 1.189-4.515-3.568-1.307-4.758.475-1.189.238v.594h-1.19l-1.189.475-2.379 2.139 1.189 1.426v1.425l-1.189.238-1.189.119-1.19 1.426-1.189 1.782-1.19.475v1.782l1.19.357v-1.901l1.189-.357v2.971l1.19-.12 1.189.476-1.189 2.257v2.377l1.189.712v2.614l1.189 1.307h1.19l1.189-1.188v2.376h3.569l2.379 2.377 2.379 2.376 4.757 1.188 4.758-3.564-1.189-2.377v-2.376l-1.19-2.257v-.119l1.19-.119 1.189-5.584 1.19-5.703zm26.168 32.792h-1.19v1.188l-1.189 1.188h1.189l1.19-2.376zm1.189 4.753h2.379l1.19-1.189-1.19-1.188h-2.379l-1.189 1.188v1.189h1.189zm-20.221-24.357v-2.851l-1.189.475-1.189 1.188-1.19 2.97v2.376l1.19 1.189h-1.19l-1.189 1.188v3.564h-1.19v-1.188l-1.189 2.376-1.19 2.376v3.565l-2.379 3.564-1.189 3.565 2.379 2.376 3.568-2.376 2.379-2.377h4.758l7.137-2.376 3.568-1.188 1.189-3.564v-3.565l-1.189-2.376h-1.19v1.188h-1.189v-3.564l-1.189-1.188-1.19-1.189v-2.376l-2.379 2.376-2.379 3.565v1.188h-1.189v-1.188l3.568-9.862-2.379-1.306-1.189-.119v2.138l-1.19 1.426zm49.958 62.376v1.188l-1.19-2.376v-2.376l-1.189-1.188h-2.379l-2.379-3.565-2.379-3.564-1.19 1.188-1.189-1.188h-1.189v1.188h-5.948l-2.379 1.188-1.189-1.188h-1.19l-1.189 1.188-2.379 4.753h-3.568l2.379-5.941v-4.752h-7.137l1.189-1.188v-1.188l-3.568 1.188-2.379-1.188 2.379-1.189 2.379-2.376 1.189-1.188h1.19l1.189-1.188-2.379-2.376-3.568-1.188-1.19-1.189v-1.188h-2.378l-2.379 1.188h-1.19l-7.136 8.317-4.758 8.317 1.189 1.188v3.565l-7.137 2.376-1.189-1.188h-2.379v1.188l2.379 3.564 1.189 2.376h-2.379l-1.189-2.376-2.379 1.188h-1.189v1.188l-1.19 1.189h-1.189v1.188h-3.569l-1.189 1.188h-2.379 1.189v-1.188l-1.189-1.188-2.379 1.188-1.189 1.188 1.189-2.376 1.19-1.189-7.137-2.376-7.137 1.188-1.189 1.188 2.378 1.189h2.379v1.188l-2.379 1.188h-2.378l-4.758 1.188-3.569 1.188h-7.136l-2.379 1.188-4.758 2.376-2.379 2.377h-7.137l1.19 1.188 2.379 1.188-1.19 1.188-2.379 1.188-1.189 2.376v2.377l-2.379-2.377-3.568-1.188v1.188l3.568 3.565 2.379 2.376-1.19 1.188-1.189-1.188-1.19-1.188-1.189 1.188h-2.379l2.379 2.376 3.568 3.565-1.189 1.188v7.128h-1.19l-2.378 1.188h-1.19l1.19-1.188 1.189-1.188L152.2 205v-1.188l-4.757-1.188-3.569 1.188h-5.947l-7.137-1.188-7.137-1.188h-3.568l-2.379-1.188v1.188l-1.189 2.376-1.19 1.188 1.19 1.188v1.188h-1.19v2.377l1.19 1.188-1.19 3.564-1.189 2.376v2.377l-1.19 1.188 3.569 3.564 3.568 2.376v7.129l3.568 2.376 1.19 4.753-2.379 3.564-2.379 3.564 1.19 2.377-1.19 10.693-2.379 1.188-2.379 1.188 3.569 8.317 1.189 4.752h-1.189v-1.188l-2.379-1.188-1.19-1.188v-4.753l-1.189-2.376-1.19-1.188 4.758-11.881-1.189-2.376-2.379-1.188 1.189-1.189v-2.376l3.569-2.376 3.568-4.753-3.568-2.376-5.948-1.188-1.189-3.564-1.19-3.565-3.568-4.752-3.568-3.564h-3.569l1.19 2.376 1.189 2.376 2.379 2.376 2.379 2.377v3.564l-2.379 2.376-1.189 1.188v-1.188h-2.379v4.753l2.379 2.376 2.379 2.376v5.941l-1.19 5.94h-2.379l-2.379-1.188-2.379 2.376-4.757 3.565h-1.19v1.188l-2.379 1.188v3.564l1.19 2.377 1.19 3.564 3.567 2.376 2.38 2.376v1.188h1.189l2.379-1.188 2.379-2.376 1.189 1.188v1.188l1.19 1.188 1.189 1.189-1.189 7.128-1.19 7.129-2.379 5.941-4.758 2.376v4.752l1.19 2.377v-1.189 1.189l-2.38 2.376v1.188l1.19 2.376 1.19 2.376 1.19 5.941-1.19 4.752v8.317l1.19 3.565 3.568 1.188v8.317l-1.19 2.376h-1.189l1.189 3.564h2.379l1.19 2.376 2.379 1.189 2.378-1.189 1.19 3.565-1.19 7.129-4.757 7.128h-2.379l-1.19 1.188v2.377l1.19 1.188 2.379 1.188-1.19 2.376-1.189 1.188v1.188l-1.19 2.377-3.568 4.752-5.947 4.753 1.189 8.316 4.758 2.377 2.379 2.376-8.326 4.752-9.516 2.377v15.445l5.947 2.376 3.569-1.188 4.757 1.188 3.569 1.188 2.379 1.189v1.188l1.189 1.188h1.19l2.379 2.376v3.564l1.189 2.377 3.568 1.188 2.379 3.564-2.379 1.188-2.379 2.376-2.378 3.565v3.564l4.757 4.753 3.569 5.94-1.19 1.188h-1.189v2.377l-1.19 1.188h-2.379l-2.378 4.752-1.19 2.376v2.377l1.19 1.188h-1.19l-1.189 2.376 1.189 1.188 1.19 1.188 1.189 10.693v1.188l-3.568 1.189-3.569 3.564 3.569 3.564 3.568 3.565h3.568l2.379-1.188 2.379 2.376 3.569 1.188 1.189 7.129 2.379 7.128-2.379 5.941 1.189 1.188v1.188l1.19 1.188 1.189 1.188v1.188l-2.379 2.377-2.378 1.188v1.188l-2.379 4.752h-2.379l-1.19 1.189-2.379 2.376-1.189 3.564 2.379 1.188 1.189 2.377 7.137 2.376 8.326 1.188 8.326-4.753 5.948-8.316 2.379-1.189 2.379-1.188 1.189-3.564 1.189-2.376h3.569l1.189-1.188h1.19v1.188h2.379l1.189-1.188 3.568 1.188 5.948-2.377-2.379-3.564-2.379-3.564-2.379-1.188-1.189-1.188v-2.377l3.568-2.376 3.568-1.188h1.19l1.189-3.564v-5.941l1.19-1.188 1.189-1.188v-5.941l4.758-4.752 3.568-2.377h1.19l1.189-1.188-1.189-1.188v-5.94l-1.19-2.377-2.379-1.188 2.379-5.94 3.569-5.941 3.568 1.188h3.568l2.379 1.188h4.758l1.19-4.752 1.189-1.188h2.379v1.188l2.379 8.317 4.758 2.376v-5.941h-1.19l4.758-9.505 9.516-5.94v-1.188l1.189-2.377 3.569-2.376h2.379l1.189 1.188v3.565l2.379 1.188h2.379l-1.19 1.188v1.188h2.379l1.19 1.188 1.189 1.188h1.19l2.378-3.564v-1.188l2.379-2.376 1.19-3.565-2.379-3.564-2.379-2.376 1.189-1.189 1.19-1.188v-1.188h3.568v-4.752l-2.379-2.377-3.568-1.188-2.379-9.505 1.19-5.94v-1.188l2.378-1.188 1.19-1.189 5.947-4.752 4.758-5.941v-2.376l-1.189-1.188 1.189-2.376 1.19-1.188-1.19-3.565-1.189-3.564 1.189-4.752 3.568-5.941-1.189-1.188 2.379-1.188 1.189 1.188 1.19 1.188 1.189-1.188 1.19-1.188 2.379-1.188h1.189v-4.753h-4.758l-4.758-1.188-1.189-1.188-1.189-1.188h-2.379l-2.379-4.753 2.379-3.564v-3.564l2.379-3.565 1.189-1.188 1.189-2.376-2.378-2.376-2.379-2.377-1.19-2.376v-5.94l-1.189-2.377v-8.317l-1.19-1.188-1.189-1.188 2.379-2.376 3.568-2.376 1.19-13.07v-16.633l-2.379-3.565-1.19-4.752v-1.188l1.19-2.376h1.189v-1.189l2.379 1.189h2.379l2.379-2.377 3.568-1.188 3.569 1.188h2.378l2.379-3.564v-4.753l2.379-1.188 1.19-1.188v-2.376l1.189-3.564 4.758-3.565 4.758-3.564v-1.188l-1.19-3.565-2.378-4.752v-4.752l-1.19-4.753-2.379-2.376-2.379-1.188-1.189-1.188v-3.565l-1.19-1.188-1.189-4.752 1.189-4.753-1.189-1.188v-3.564h-1.19l-1.189-1.188 2.379-2.377 1.189-3.564 1.19-1.188v-2.376l1.189-1.189-2.379 1.189-1.189 1.188-2.379-1.188-3.568 2.376v3.564h2.378l3.569-1.188v1.188l-1.19 1.188h-1.189l-2.379 3.565-2.379 1.188-1.189-1.188-1.19 2.376-2.379 1.188v3.564l-2.379-1.188-1.189-1.188v1.188h-8.326l-1.19 3.565-3.568 3.564h-1.19l1.19-2.376 2.379-2.376v-2.377l1.189-2.376 3.569-1.188 1.189-3.564-1.189-1.189-2.379-1.188h-1.19l7.137 1.188 4.758-4.752h1.189l1.19-2.376 1.189-2.377 2.379-2.376 2.379-2.376 1.189-3.564 7.137-4.753v-1.188l1.19-1.188 2.379-3.564 3.568-3.565 1.189-5.94-2.378-1.188-1.19-2.377v1.188l-1.189 1.189v-3.565h1.189l2.379 1.188v2.377l1.189-2.377v-5.94h-2.378v-3.565l-2.379-2.376v2.376zm-86.831-90.415l-1.189.237-1.19.713 1.19.475 1.189.357 1.19 1.069 1.189 1.188-1.189.119-1.19-.119v.832l1.19.237 1.189.12 1.19 1.306 1.189.713 2.379-.832 1.189-1.069 9.516-1.188 1.19-.594v-6.416l2.378-1.426 1.19-1.425v-1.307l-1.19-1.307v-.238l-1.189-.594-2.379-5.584-1.189-4.396-2.379-.12v1.664l-5.948 3.327-4.757 3.802v2.02l1.189.475v1.07l-1.189 1.188v1.306l-1.19 1.307-1.189.594-1.19.594v.951l1.19.832v.356h-1.19v-.238zm-2.379-19.96l-1.189 1.544v1.069h1.189l2.379 1.07 2.379-2.971-4.758-.713zm9.516 107.999l-2.379-1.188 1.19 2.376 2.378 1.188v-2.376h-1.189z" fill="#E0EAE7" stroke="#F2F6F5"/><path d="M17.791 357.079l-2.379-2.376H9.465l-5.947-1.188v-8.317l-2.379-1.188-1.19-3.564v-3.565l1.19-1.188 1.19-2.376-2.38-2.376H-1.24l-1.19-1.188v-1.189h-2.378l-1.19 1.189h-7.136l-2.38 1.188-3.568-3.565-2.379-3.564 2.38-1.188 1.189-1.188-2.38-1.188-1.189-1.189-3.568-2.376-3.569-1.188h-1.189l-1.19 1.188-1.189-1.188v-1.188h-2.379l-2.379 1.188-1.19-1.188h-3.568l-1.189-2.376 1.19-2.376-3.569-1.189-1.19-2.376 1.19-2.376h2.38l1.188-3.564 2.38-3.565v-1.188l-1.19-1.188v-3.564l-1.19-3.565-2.378 1.188-3.569 1.188v2.377h-2.379l-2.379 1.188-2.379 1.188-1.189-2.376v-1.188h-2.379l-2.379 1.188h-1.19l-1.189 1.188-2.379 1.188-1.19 1.188-1.189 7.129-4.757 4.752-4.758 4.753-2.38 4.752-2.378 5.941v1.188h1.19l-1.19 2.376h-2.379l-1.19 3.565-1.189 2.376v1.188l1.19 1.188v3.564l3.568 2.377 3.568 2.376 3.569 8.317 1.19 2.376 2.378 3.564-2.379 4.753-1.19 4.752-1.189 2.376v3.565l2.38 1.188v2.376l-1.19 4.753-1.19 4.752 3.569 2.376 3.568 2.377v13.069l1.19 1.188 3.568 1.188h3.568l1.19-2.376 2.379-1.188h1.189v1.188h7.137l2.379 1.188h1.19l1.189-1.188 1.19-1.188 4.757-1.188 2.379-3.565 1.19-1.188h2.378l1.19 2.376v1.189h4.758l3.568 1.188 1.19 1.188 1.189 1.188h1.19l2.378 3.564 1.19 4.753h1.189l1.19 1.188-1.19 1.188v1.188l2.379 2.376h1.19v3.565l-1.19 2.376 3.568 2.376 3.569 1.188 1.19 1.188 1.189 1.189h3.568l2.379 2.376 4.758-4.753 4.758-4.752h7.136l3.569-5.941 1.19-4.752 1.189-1.188h1.189l1.19-2.377-1.19-2.376v-1.188h1.19l1.189 1.188 4.758 1.188 4.758 1.188 1.189 1.188 1.19 1.189 2.378-1.189h2.38v2.377l2.378 2.376h4.758l4.758-1.188v2.376l1.19 2.376h4.758l1.189 1.188 2.379 1.189 1.189-1.189h1.19l3.568-2.376 2.379-1.188 3.568 2.376 2.379 1.188 10.705-2.376 7.137-4.752-1.19-2.377-4.757-2.376-1.19-8.317-2.379-4.752-2.379-2.376h-4.758l-2.378-3.565-2.38-3.564h-4.758l-3.567-3.564v-1.189l-1.19-2.376-5.947 2.376-5.948 2.377-2.379-1.188-2.378-1.189h-8.327l-2.379-2.376-1.189-4.752-5.947-3.565-4.758-3.564-5.947-1.188-2.38-1.188-2.378-2.376-2.38-3.565h1.19z" fill="#E0EAE7" stroke="#F2F6F5"/><path d="M66.558 418.861l-2.38-1.188H60.61l-1.189-2.376-1.19-2.376-4.757 1.188h-4.758l-2.379-2.377v-2.376h-2.379l-2.379 1.188-1.19-1.188-1.189-1.188-4.758-1.188-4.757-1.188-1.19-1.188v3.564l-1.19 2.376h-1.189l-1.19 1.188-1.189 4.753-3.568 5.941h-7.137l-4.758 4.752-4.757 4.753v3.564h-1.19v3.564h-1.19v1.188l1.19 1.188v4.753l1.19 2.376v2.376l-1.19 1.189 1.19 2.376 1.19 1.188 2.378 2.376 2.379 1.188 14.273 4.753-1.19 1.188 8.327 4.752 5.947 9.505 8.327 1.188 1.19 4.753h7.136l1.19 1.188v-1.188l1.189-1.188h3.569l1.189 2.376-1.19 1.188v4.753l-1.19 1.188-1.189 1.188h1.19v1.188l1.19 1.188 2.378-1.188 1.19-3.564 1.189 1.188h8.326l2.379-1.188 1.19 1.188h1.189l1.19-1.188 2.378-2.377h1.19l1.19 1.188 1.189-1.188h8.326l1.19-1.188 2.378 1.188 2.38 1.188 3.568-2.376h4.757l1.19-3.564 2.379-4.753h2.379l1.189-1.188v-2.376h1.19v-1.188l-2.379-5.941-4.758-4.752v-3.565l1.189-3.564 3.569-2.376 2.379-1.188-2.379-3.565-3.569-1.188-1.189-2.376v-3.564l-2.379-2.377h-1.19l-1.189-1.188v-1.188l-2.379-1.188-4.758-1.188-3.568-1.188-4.758 1.188-4.758-2.376v-15.446l-3.568-1.188-3.569-2.376-2.378 1.188-3.569 2.376h-1.19l-1.189 1.188-2.379-1.188h1.19zm208.154-34.455h-3.568v4.752h-1.19l-2.378 1.189-1.19 1.188-1.189 1.188-1.19-1.188h-3.568v1.188l-2.379 5.94-1.19 5.941 1.19 2.376 1.189 3.565-1.189 1.188-1.19 2.376 1.19 1.188v2.376l-4.758 5.941-5.947 5.941h-2.379l-1.19 1.188v1.188l-1.189 5.94 2.379 9.505 3.568 1.188 2.379 2.377v4.752h-3.568v1.188l-1.19 1.188-1.189 1.188 2.379 2.377 2.379 3.564-1.19 3.564-2.379 2.377v1.188l-2.379 3.564h-1.189l-1.19-1.188-1.189-1.188h-2.379v-2.376h-1.189l-2.379-1.188v-3.565l-1.19-1.188-3.568 1.188-2.379 1.188-1.189 2.377v1.188l-9.516 5.94-4.758 9.505 1.19 1.188-1.19 1.188 1.19 1.189v2.376l-4.758-2.376-2.379-7.129v-2.376h-2.379l-1.19 1.188-1.189 4.752h-4.758l-2.379-1.188h-3.568l-3.569-1.188-3.568 5.941-2.379 5.94 1.19 1.188 2.379 2.377v5.94l1.189 1.188-1.189 1.188h-1.19l-3.568 2.377-4.758 4.752-1.19 3.564 1.19 2.377-1.19 1.188-1.189 1.188v2.376l-1.19 3.565v3.564h-1.189l-3.568 1.188-3.569 2.376v2.376l1.19 1.189 2.379 1.188 2.379 3.564 2.378 3.564h2.379l5.948 4.753 5.947 4.752h4.758l1.189 1.188v2.377l1.19 1.188 4.758-3.565 4.757-4.752 1.19 2.376 1.189 3.565 4.758 3.564 5.947 3.564 1.19 3.565 1.189 2.376h1.19l1.189-1.188 8.326 7.128v2.377l1.19 2.376 1.189 1.188 2.379 2.376v2.377l-1.189 2.376h2.379l1.189-1.188h4.758l3.568-3.565v-1.188l-8.326-2.376 3.569-1.188 5.947-2.376-1.19-1.189-2.379-1.188v-1.188l-1.189-1.188v-1.188l3.568 3.564 4.758 2.377L262.818 565l17.842-26.139-1.19-9.504 1.19-9.505 1.189-2.377h2.379l-1.19-2.376-2.378-1.188v-1.188l-1.19-1.188h-1.189l-1.19-5.941 2.379-2.376 3.568-2.376 1.19 1.188h1.189l1.19-2.376 2.379-2.377 1.189 1.188v1.189h1.19l1.189 1.188h5.947l3.569-2.377 1.189-2.376 1.19 1.188 1.189 1.188h5.947l2.379-1.188v2.377l2.379 2.376h2.379l2.379-1.188 4.758 1.188 5.947-2.376 5.947-7.129 4.758 1.188v1.188h-1.189l1.189 1.188h3.569l2.379 1.188 1.189-1.188 2.379-2.376 1.189 1.188h1.19v-7.129h-2.379l-1.189-8.316v-1.189h1.189v-3.564h1.189l1.19-1.188-2.379-2.376 2.379-2.377 3.568 1.189 2.379 1.188 4.758-1.188-1.189-2.377v-1.188l-1.19-1.188-1.189-2.376v-3.565l-1.19-2.376v-2.376l-1.189-2.376h-11.895v-2.376l-1.189-1.189v-2.376L343.701 445l-2.379-2.376-3.569-1.188h-4.757l-3.569 2.376-2.379 1.188-2.379 1.188-1.189 3.565-1.189 2.376h-2.379l-4.758 7.128-5.947 5.941 1.189-3.564-2.379-1.188-1.189-2.377v-1.188l-2.379 2.376-2.379 1.189h-5.948v1.188h-1.189l-3.568-1.188-1.19 2.376-5.947 1.188h-2.379l-1.189-4.753v-5.94l1.189-1.188 1.189-1.188v-3.565l2.379-7.128 2.379-5.941-3.568-3.564-1.19-5.941 2.379-2.376 1.19-2.376-2.379-3.565-2.379-2.376v-5.941l-1.189-8.316-3.569-3.565-4.758-1.188 3.569-3.564 1.189-1.188-1.189-3.565-1.19-2.376z" fill="#E0EAE7" stroke="#F2F6F5"/></svg>