<svg width="80" height="80" fill="none" xmlns="http://www.w3.org/2000/svg"><rect width="80" height="80" rx="40" fill="#096142"/><path d="M51.749 16.98a2 2 0 00-2.74-.7l-5.9 3.54a7.298 7.298 0 01-1.08.46V14a2 2 0 00-4 0v6.28a7.298 7.298 0 01-1.08-.46l-6-3.54a2 2 0 00-2 3.44l5.88 3.52a9.9 9.9 0 0010.28 0l5.88-3.52a2.002 2.002 0 00.76-2.74z" fill="#00953B"/><path d="M44.149 23.54a2 2 0 01-1.72-.98 2 2 0 01.68-2.74l5.9-3.54a2 2 0 012 3.44l-5.84 3.52a2 2 0 01-1.02.3zm-8.24 0a2 2 0 01-1.02-.3l-5.88-3.52a2 2 0 012-3.44l6 3.54a2 2 0 01.68 2.74 2 2 0 01-1.78.98z" fill="#4FB15C"/><path d="M48.689 20.8a2 2 0 01-1.02-3.72l1.34-.8a2 2 0 012 3.44l-1.32.8a2.14 2.14 0 01-1 .28zm-17.4-.04a2.12 2.12 0 01-1.02-.28l-1.26-.76a2 2 0 012-3.44l1.28.76a2 2 0 01.68 2.74 2 2 0 01-1.68.98z" fill="#9ADC8E"/><path d="M62.029 42a3.777 3.777 0 01-.22.5c-1.3 2.72-2.6 5.22-3.86 7.5 0 .18-.2.38-.32.56-1.08 1.9-2.14 3.66-3.18 5.26C49.229 64 44.369 68 40.029 68c-3.06 0-6.34-2-9.88-6a53.985 53.985 0 01-4.58-6.18L24.409 54c-.68-1.08-1.36-2.24-2-3.46l-.38-.54c-1.28-2.28-2.58-4.78-3.88-7.5a5.426 5.426 0 01-.12-.5 13.879 13.879 0 01-1.1-4 14.16 14.16 0 011.5-8 13.998 13.998 0 013.32-4.24 9.999 9.999 0 0110.4-1.42l3.88 1.66a10.14 10.14 0 008 0l3.84-1.7a10 10 0 0110.4 1.42A14 14 0 0162.029 42z" fill="#00953B"/><path d="M44.029 34a4 4 0 01-4 4h-23.16a14.16 14.16 0 011.5-8h21.66a4 4 0 014 4zm8 12a4 4 0 01-4 4h-26c-1.28-2.28-2.58-4.78-3.88-7.5a5.426 5.426 0 01-.12-.5h30a4 4 0 014 4zm-7.172 14.828A4 4 0 0042.03 54H24.41a61.022 61.022 0 005.74 8h11.88a4 4 0 002.828-1.172z" fill="#008535"/><path d="M27.029 48a1 1 0 100-2 1 1 0 000 2zm10-2a1 1 0 100-2 1 1 0 000 2z" fill="#307E45"/><path d="M27.029 30a1 1 0 100-2 1 1 0 000 2zm26 0a1 1 0 100-2 1 1 0 000 2zm-5 1a1 1 0 11-2 0 1 1 0 012 0zm9 5a1 1 0 100-2 1 1 0 000 2zm-1 5a1 1 0 11-2 0 1 1 0 012 0zm-17-7a1 1 0 100-2 1 1 0 000 2zm-15 1a1 1 0 11-2 0 1 1 0 012 0zm23 11a1 1 0 100-2 1 1 0 000 2zm-3 13a1 1 0 11-2 0 1 1 0 012 0z" fill="#005C24"/><path d="M40.029 68c-6.3 0-13.66-8.58-21.84-25.5a14 14 0 013.56-16.74 2 2 0 112.58 3.06 10 10 0 00-2.54 12C32.029 61.74 38.029 64 40.029 64a2 2 0 010 4z" fill="#007830"/><path d="M60.029 43.62a2 2 0 01-1.8-2.86 10 10 0 00-2.54-12 6 6 0 00-6.2-.82l-3.86 1.7a2.001 2.001 0 01-2.64-1.02 2 2 0 011.04-2.62l3.84-1.7a10 10 0 0110.4 1.42 14 14 0 013.56 16.74 2 2 0 01-1.8 1.16z" fill="#1FB55A"/><path opacity=".5" d="M57.009 29.28a2 2 0 01-1.28-.46 6 6 0 00-6.2-.82 2 2 0 11-1.62-3.66 10.001 10.001 0 0110.4 1.42 2 2 0 01-1.3 3.52zm3.86 6.12a2 2 0 01-2-1.48c0-.32-.18-.64-.28-.94a2 2 0 011.18-2.56 2 2 0 012.56 1.18c.16.42.3.84.42 1.28a2 2 0 01-1.42 2.46l-.46.06z" fill="#D1FFC5"/><path d="M19.924 45.321a2 2 0 001.045.299 2 2 0 00.9-.16 2.002 2.002 0 00.88-2.7l-.96-2a2.003 2.003 0 10-3.6 1.76l1 2a2 2 0 00.735.801zm8.95 14.828a2 2 0 00.895.21 2 2 0 001.18-.42 2 2 0 00.38-2.8 78.201 78.201 0 01-5.8-9.14 2.016 2.016 0 00-3.5 2 81.25 81.25 0 006.14 9.56 2 2 0 00.705.59z" fill="#005C24"/><path d="M48.743 44.998a4.665 4.665 0 01-2.37-.646 4.962 4.962 0 01-1.766-1.782 4.405 4.405 0 01-.489-3.19 4.217 4.217 0 011.802-2.619c.374-.242.79-.404 1.224-.476a3.178 3.178 0 011.303.053c.427.108.83.303 1.185.574.355.272.656.614.884 1.008.194.328.324.694.383 1.075a3.07 3.07 0 01-.041 1.147 3.017 3.017 0 01-.48 1.057 2.86 2.86 0 01-.833.778 2.305 2.305 0 01-1.8.303 2.26 2.26 0 01-.846-.407 2.391 2.391 0 01-.624-.724.699.699 0 01.21-.938.637.637 0 01.496-.088.64.64 0 01.234.111c.07.053.13.12.176.197.071.126.166.236.278.324a1.003 1.003 0 001.18.05c.339-.223.584-.574.682-.98a1.641 1.641 0 00-.183-1.187 2.057 2.057 0 00-1.262-.955 1.965 1.965 0 00-1.536.251 2.762 2.762 0 00-.778.755 2.91 2.91 0 00-.443 1.011 3.009 3.009 0 00.328 2.152c.246.418.567.78.945 1.066a3.47 3.47 0 001.262.604 3.364 3.364 0 002.626-.455c.496-.31.927-.724 1.265-1.215.34-.491.579-1.05.705-1.641a5.12 5.12 0 00-.63-3.56 4.698 4.698 0 00-1.25-1.388c-.5-.37-1.067-.63-1.666-.764a5.782 5.782 0 00-2.455.056 5.936 5.936 0 00-2.233 1.075.64.64 0 01-.492.118.637.637 0 01-.24-.097.695.695 0 01-.298-.698.699.699 0 01.091-.249.662.662 0 01.177-.192 7.132 7.132 0 012.712-1.316 6.948 6.948 0 012.988-.063 5.648 5.648 0 012.25.938 5.97 5.97 0 011.69 1.821c.414.661.698 1.404.834 2.183.135.78.12 1.58-.046 2.352a6.039 6.039 0 01-.918 2.146 5.73 5.73 0 01-1.643 1.597 4.567 4.567 0 01-2.588.828zM27.474 34.65c-.272.286-.51.606-.709.952a5.23 5.23 0 00-.673 1.868 5.299 5.299 0 00.07 1.995 4.228 4.228 0 001.81 2.609 3.867 3.867 0 003.035.51 3.25 3.25 0 001.189-.57c.356-.27.658-.612.888-1.006a3.61 3.61 0 00.45-1.289 3.661 3.661 0 00-.058-1.371 2.948 2.948 0 00-1.26-1.821 2.696 2.696 0 00-2.115-.359 2.387 2.387 0 00-1.473 1.121 2.605 2.605 0 00-.287 1.887c.04.183.148.341.3.441a.655.655 0 00.508.09.659.659 0 00.24-.113.695.695 0 00.18-.201.731.731 0 00.085-.535 1.172 1.172 0 01.115-.865 1.05 1.05 0 01.673-.514c.38-.084.774-.01 1.103.206.328.217.563.558.657.953a2.23 2.23 0 01-.236 1.618 2.09 2.09 0 01-.539.614 1.98 1.98 0 01-.722.348 2.505 2.505 0 01-1.058.049 2.55 2.55 0 01-.99-.394 2.841 2.841 0 01-1.183-1.739 3.886 3.886 0 01.43-2.813 3.56 3.56 0 012.197-1.67 4.068 4.068 0 011.723-.08 4.147 4.147 0 011.613.645c.508.35.946.802 1.288 1.33.341.53.58 1.123.702 1.75.122.625.125 1.27.009 1.897a4.983 4.983 0 01-.686 1.756 6.196 6.196 0 01-1.772 1.78c-.7.46-1.483.766-2.3.897a.667.667 0 00-.431.281.73.73 0 00-.12.519c.032.18.13.34.272.445a.645.645 0 00.49.12c.97-.169 1.9-.54 2.732-1.093a7.551 7.551 0 002.114-2.121 6.311 6.311 0 00.92-2.318 6.445 6.445 0 00-.04-2.511 6.07 6.07 0 00-.879-2.179 5.755 5.755 0 00-1.621-1.642 5.459 5.459 0 00-2.105-.84 5.356 5.356 0 00-2.25.094 4.84 4.84 0 00-2.286 1.27z" fill="#D1FFC5"/><path d="M40.029 58a4 4 0 01-4-4v-2a4 4 0 118 0v2a4 4 0 01-4 4z" fill="#511D21"/><path d="M40.029 48a4 4 0 00-4 4h8a4 4 0 00-4-4z" fill="#fff"/><path d="M40.029 54a4 4 0 00-4 4h8a4 4 0 00-4-4z" fill="#FD495C"/><path d="M40.029 60a6 6 0 01-6-6v-2a6 6 0 1112 0v2a6 6 0 01-6 6zm0-10a2 2 0 00-2 2v2a2 2 0 004 0v-2a2 2 0 00-2-2z" fill="#98E285"/></svg>