<svg width="88" height="80" fill="none" xmlns="http://www.w3.org/2000/svg"><path d="M39.802 10.775c-4.247 6.293-11.315 10.744-18.8 11.178-.295.028-1.736.047-2.11.047H4.96a.952.952 0 01-.925-.667.054.054 0 010-.027.968.968 0 01-.035-.19 1.406 1.406 0 01.02-.299l.691-3.923.21-1.19C5.597 12.535 8.648 10 11.85 10h27.63c.478 0 .688.31.365.775" fill="#00953B"/><path d="M87.26 60.517c-2.809 4.195-7.483 7.163-12.432 7.452a33.73 33.73 0 01-1.395.031h-9.798a.63.63 0 01-.612-.445.037.037 0 010-.018.647.647 0 01-.01-.325l.457-2.616.14-.794C64.055 61.691 66.072 60 68.19 60h18.856c.316 0 .455.207.242.517" fill="#AED877"/><path fill-rule="evenodd" clip-rule="evenodd" d="M29.485 34.943c-4.163-3.714-6.976-9.69-6.976-16.147C22.509 8.432 29.889 0 38.96 0c9.071 0 16.452 8.432 16.452 18.796 0 6.119-2.527 11.807-6.334 15.547.036.116.055.24.055.368v5.398c0 .3.053.583.156.843.078.2.18.384.3.55a2.319 2.319 0 001.88.956h.943c.041 0 .083.002.124.006h4.895c3.247 0 6.182 1.607 8.073 4.311a3.72 3.72 0 013.538-.842l.094-11.092c-.115-2.139 1.56-4.044 3.814-4.26a4.355 4.355 0 013.336 1.093 4.194 4.194 0 011.4 3.056l1.612 21.176a11.957 11.957 0 01-3.624 8.751l-1.31 1.271a9.474 9.474 0 00-2.483 4.07l-.096.321a3.557 3.557 0 01.998 3.66l-1.54 5.137a1.24 1.24 0 11-2.374-.711l1.54-5.137c.087-.29.058-.59-.08-.845a.959.959 0 00-.576-.47l-13.378-3.916c-.538-.164-1.12.18-1.293.758l-1.791 5.655a1.24 1.24 0 01-2.363-.748l1.785-5.637a3.573 3.573 0 012.968-2.517l.569-1.898a12.244 12.244 0 013.788-5.795 9.771 9.771 0 003.024-4.623L64.2 49.44c-1.34-2.786-3.899-4.498-6.767-4.498h-3.387a1.24 1.24 0 01-.128.22l-6.912 9.416a1.238 1.238 0 01-1.876.141l-5.774-5.773-5.774 5.774a1.239 1.239 0 01-1.876-.144L24.81 45.16a1.244 1.244 0 01-.127-.216h-3.382c-3.186 0-5.428 1.012-6.665 3.011.054.125.101.254.141.387l1.465 4.89a9.769 9.769 0 003.024 4.624 12.24 12.24 0 013.788 5.794l.57 1.899a3.592 3.592 0 012.97 2.535l1.78 5.619a1.24 1.24 0 01-2.364.748l-1.784-5.637c-.177-.595-.76-.933-1.297-.777l-13.38 3.917a.956.956 0 00-.575.47 1.095 1.095 0 00-.08.844l1.54 5.137a1.24 1.24 0 01-2.375.712l-1.54-5.138a3.555 3.555 0 011-3.66l-.097-.32a9.47 9.47 0 00-2.483-4.072l-1.31-1.269A11.924 11.924 0 010 55.985L1.62 34.65c.012-1.078.522-2.192 1.398-2.977a4.375 4.375 0 013.334-1.093c2.254.217 3.928 2.122 3.813 4.335l.095 11.018a3.734 3.734 0 012.606.213c1.745-2.411 4.644-3.681 8.435-3.681h4.861c.044-.005.09-.007.134-.007h.83c.98 0 1.865-.616 2.203-1.532a.982.982 0 01.04-.094c.077-.238.115-.479.115-.722v-5.167zm2.478 1.842c2.149 1.304 4.53 2.046 6.998 2.046 2.737 0 5.37-.913 7.695-2.495v3.773c0 .255.02.505.057.749l-7.359 4.851-7.442-4.902c.034-.23.05-.463.05-.697v-3.325zm-6.975-17.989c0-8.998 6.268-16.318 13.973-16.318 7.704 0 13.973 7.32 13.973 16.318 0 9.353-6.53 17.557-13.973 17.557-7.444 0-13.973-8.204-13.973-17.557zm5.924 24.32A4.86 4.86 0 0127.7 44.91l5.151 7.035 4.553-4.554-6.49-4.275zm16.82.038a4.775 4.775 0 003.285 1.767l-5.156 7.025-4.555-4.555 6.425-4.237zm10.412 22.817l.482-1.61a9.777 9.777 0 013.024-4.623 12.243 12.243 0 003.788-5.795l1.466-4.89c.177-.592.836-.92 1.47-.734.31.09.562.285.716.551.024.072.056.14.092.205.07.206.075.425.012.632l-2.66 8.877a1.24 1.24 0 002.374.712l2.66-8.877a3.5 3.5 0 00-.066-2.218l.112-13.415c-.046-.886.646-1.65 1.575-1.74a1.908 1.908 0 011.443.471c.367.33.571.77.58 1.322l1.614 21.176c.032 2.599-.989 5.036-2.875 6.862l-1.311 1.27a11.965 11.965 0 00-3.132 5.14l-.003.01-11.361-3.326zm-37.465-1.61l.483 1.61-11.363 3.326-.003-.01a11.972 11.972 0 00-3.132-5.14l-1.311-1.269c-1.858-1.802-2.906-4.303-2.878-6.784L4.096 34.76c.006-.473.21-.913.578-1.243.39-.35.908-.523 1.442-.47.93.089 1.62.854 1.573 1.815l.113 13.342a3.501 3.501 0 00-.064 2.215l2.66 8.878a1.24 1.24 0 002.374-.712l-2.66-8.878a1.04 1.04 0 01.014-.64 1.36 1.36 0 00.086-.19 1.21 1.21 0 01.717-.558c.637-.184 1.297.143 1.473.734l1.465 4.89a12.243 12.243 0 003.788 5.796 9.77 9.77 0 013.024 4.622z" fill="#096142"/><path d="M65.52 76.159c-.176 0-.352-.035-.508-.101-.613-.263-.935-1.03-.695-1.652.245-.637 1.027-.984 1.663-.74a.714.714 0 01.047.02c.62.264.94 1.044.687 1.669-.126.31-.399.584-.707.712-.15.06-.32.092-.487.092zm-51.735 0a1.31 1.31 0 01-.5-.098 1.341 1.341 0 01-.702-.724c-.24-.622.081-1.39.694-1.652l.047-.02c.622-.238 1.384.089 1.645.7.27.629-.048 1.423-.677 1.693a1.31 1.31 0 01-.507.1z" fill="#096142"/></svg>