<svg width="111" height="80" fill="none" xmlns="http://www.w3.org/2000/svg"><path d="M73.86 38.45c-8.491-12.587-22.626-21.49-37.591-22.358-.591-.054-3.474-.093-4.22-.093H2.42c-.267.005-.53.057-.777.155-.238.1-.452.249-.63.434a1.5 1.5 0 00-.272.357 2.03 2.03 0 00-.17.388.108.108 0 000 .054c-.037.124-.06.251-.07.38a.387.387 0 010 .093c-.003.169.01.338.038.504l1.383 7.848.42 2.38C3.694 34.93 9.794 40 16.196 40h57.02c.956 0 1.375-.62.73-1.55" fill="#AED877"/><path d="M106.76 59.517c-2.809 4.195-7.483 7.163-12.432 7.452a33.73 33.73 0 01-1.395.031h-9.798a.63.63 0 01-.612-.445.037.037 0 010-.018.647.647 0 01-.01-.325l.457-2.616.14-.794C83.555 60.691 85.572 59 87.69 59h18.856c.316 0 .455.207.242.517" fill="#FD495C"/><path d="M48.594 5.474c-.69 0-1.25-.564-1.25-1.262v-2.95c0-.698.56-1.262 1.25-1.262s1.25.564 1.25 1.262v2.95c0 .698-.559 1.262-1.25 1.262z" fill="#096142"/><path fill-rule="evenodd" clip-rule="evenodd" d="M78.838 20.122v-3.756a1.275 1.275 0 01-.01-.166l-.001-10.942c0-.058.004-.115.011-.17V1.89c0-.697.56-1.262 1.25-1.262s1.25.565 1.25 1.262v2.105h14.646c.69 0 1.25.564 1.25 1.262v10.941c0 .698-.56 1.263-1.25 1.263H81.338v2.798l7.788 17.083c.023.043.043.087.06.132l7.24 15.88 3.282-4.546a5.876 5.876 0 014.305-2.427 5.876 5.876 0 014.625 1.724l1.496 1.51a1.27 1.27 0 010 1.785 1.241 1.241 0 01-1.768 0l-1.496-1.51a3.336 3.336 0 00-2.663-.992 3.38 3.38 0 00-2.478 1.396l-21.035 29.13A1.25 1.25 0 0179.64 80a1.247 1.247 0 01-1.017-.53L64.745 59.72l-3.02 1.465c-.41.2-.9.155-1.27-.112l-4.242-3.075-3.97 4.953a1.246 1.246 0 01-.972.469h-.009c-.38-.003-.74-.18-.974-.482l-2.897-3.72L32.76 79.481a1.24 1.24 0 01-1.747.276 1.27 1.27 0 01-.273-1.763l15.565-21.553c.024-.039.051-.076.08-.112l4.825-6.68a5.81 5.81 0 014.76-2.446h.04a5.811 5.811 0 014.768 2.508l2.263 3.22 15.797-32.808zm2.5-13.602v8.417h13.396V6.52H81.338zM94.74 55.688l-7.186-15.761-3.272 2.635a1.243 1.243 0 01-1.55.007l-3.86-3.058-2.953 2.124a1.242 1.242 0 01-1.68-.214l-1.824-2.185L64.69 55.28l1.45 2.063c.024.03.046.061.067.094l13.45 19.139L94.74 55.688zM83.498 39.966l2.98-2.4-6.448-14.142-6.417 13.328 1.795 2.153 2.776-1.997a1.244 1.244 0 011.497.035l3.817 3.023zM62.215 56.12l.018.025 1.045 1.487-1.966.955-4.6-3.334a1.243 1.243 0 00-1.7.232l-3.726 4.65-2.363-3.035 4.307-5.964a3.343 3.343 0 012.74-1.408h.023a3.35 3.35 0 012.746 1.445l3.476 4.947zM40.862 17.41c0 4.307 3.47 7.81 7.736 7.81 4.265 0 7.736-3.503 7.736-7.81 0-4.307-3.47-7.811-7.736-7.811-4.265 0-7.736 3.504-7.736 7.811zm2.5 0c0-2.915 2.35-5.287 5.236-5.287 2.887 0 5.236 2.372 5.236 5.287s-2.349 5.286-5.236 5.286c-2.886 0-5.235-2.37-5.235-5.286z" fill="#096142"/><path d="M47.344 33.544c0 .698.56 1.262 1.25 1.262.691 0 1.25-.564 1.25-1.262v-2.95c0-.698-.56-1.262-1.25-1.262s-1.25.564-1.25 1.261v2.951zm10.49-24.206c-.32 0-.64-.123-.884-.37a1.27 1.27 0 010-1.785l2.066-2.086a1.24 1.24 0 011.767 0 1.27 1.27 0 010 1.784l-2.066 2.087a1.24 1.24 0 01-.883.37zm-21.427 20.37a1.241 1.241 0 001.767 0l2.066-2.086a1.27 1.27 0 000-1.785 1.24 1.24 0 00-1.767 0l-2.066 2.087a1.27 1.27 0 000 1.784zm28.175-11.043H61.66c-.69 0-1.25-.565-1.25-1.262 0-.698.56-1.262 1.25-1.262h2.922c.69 0 1.25.564 1.25 1.262 0 .697-.56 1.262-1.25 1.262zm-31.974 0h2.922c.69 0 1.25-.565 1.25-1.262 0-.698-.56-1.262-1.25-1.262h-2.922c-.69 0-1.25.564-1.25 1.262 0 .697.56 1.262 1.25 1.262zM59.9 30.078c-.32 0-.64-.123-.885-.37l-2.066-2.086a1.27 1.27 0 010-1.785 1.24 1.24 0 011.768 0l2.066 2.087a1.27 1.27 0 010 1.784c-.244.247-.564.37-.884.37zM38.473 8.968a1.24 1.24 0 001.768 0 1.27 1.27 0 000-1.784l-2.066-2.087a1.24 1.24 0 00-1.768 0 1.27 1.27 0 000 1.785l2.066 2.086z" fill="#096142"/></svg>