<svg width="101" height="80" fill="none" xmlns="http://www.w3.org/2000/svg"><path d="M35.802 58.775c-4.247 6.293-11.315 10.744-18.8 11.179-.295.027-1.736.046-2.11.046H.96a.952.952 0 01-.925-.667.054.054 0 010-.027.968.968 0 01-.035-.19 1.406 1.406 0 01.02-.299l.691-3.923.21-1.19C1.597 60.535 4.648 58 7.85 58h27.63c.478 0 .688.31.365.775" fill="#FD495C"/><path d="M100.26 20.517c-2.809 4.195-7.483 7.163-12.432 7.452a33.73 33.73 0 01-1.395.031h-9.798a.63.63 0 01-.612-.445.037.037 0 010-.018.647.647 0 01-.01-.325l.457-2.616.14-.794C77.055 21.691 79.072 20 81.19 20h18.856c.316 0 .455.207.242.517" fill="#00953B"/><path fill-rule="evenodd" clip-rule="evenodd" d="M31.676 73.328h46.631c2.537 0 4.6-2.064 4.6-4.6a4.605 4.605 0 00-4.6-4.601H31.676a4.606 4.606 0 00-4.6 4.6c0 2.538 2.063 4.6 4.6 4.6zm46.631-6.702c1.16 0 2.102.942 2.102 2.102a2.103 2.103 0 01-2.102 2.1H31.676a2.103 2.103 0 01-2.102-2.1c0-1.16.942-2.102 2.102-2.102h46.631z" fill="#096142"/><path fill-rule="evenodd" clip-rule="evenodd" d="M64.138 17.867c0 4.355-1.94 8.163-5.008 10.591v3.598a1.708 1.708 0 001.707 1.708h7.519c4.799 0 8.702 3.903 8.702 8.7v8.178h5.925V33.248a7.31 7.31 0 00-1.953-4.995 5.51 5.51 0 01-3.707 1.43c-3.05 0-5.53-2.48-5.53-5.53 0-3.048 2.48-5.53 5.53-5.53a5.537 5.537 0 015.154 7.537 9.796 9.796 0 013.006 7.088v17.394h6.534a2.952 2.952 0 012.948 2.947v3.398a2.952 2.952 0 01-2.949 2.949H89.58V72.8c0 3.97-3.229 7.199-7.198 7.199H27.6c-3.968 0-7.197-3.23-7.197-7.199V59.936H17.95A2.952 2.952 0 0115 56.988V53.59a2.952 2.952 0 012.95-2.948h6.534v-8.178c0-4.797 3.904-8.7 8.702-8.7h7.626c.7 0 1.32-.429 1.582-1.102.074-.184.111-.387.111-.606V28.72c0-.18.038-.35.106-.504-2.895-2.435-4.71-6.136-4.71-10.348v-4.485c0-.168.002-.336.007-.502a1.249 1.249 0 01.015-.377c.181-3.43 1.426-6.385 3.628-8.587C44.15 1.318 47.246 0 50.753 0c7.381 0 13.385 6.003 13.385 13.382v4.485zM51.02 31.249c2.02 0 3.919-.443 5.612-1.24v2.047c0 .334.04.665.119.988l-6.022 4.29-5.84-4.095-.044-.03a4.18 4.18 0 00.159-1.153V29.81a13.086 13.086 0 006.016 1.44zM40.522 11.55c.321-2.337 1.272-4.342 2.797-5.867C45.43 3.57 47.932 2.5 50.753 2.5c4.976 0 9.184 3.356 10.477 7.923-1.18-.168-3.113-.88-5.301-3.418a1.25 1.25 0 00-2.195.773v.002c-.022.108-.816 4.161-13.212 3.771zm-.123 2.496c.599.02 1.181.029 1.747.029 5.943 0 10.11-1.062 12.412-3.17.33-.302.594-.6.806-.888 2.539 2.348 4.845 2.88 6.267 2.934.006.143.009.287.009.432v4.485c0 6.103-4.665 10.883-10.62 10.883-5.956 0-10.62-4.78-10.62-10.884v-3.82zm35.457 39.095a1.24 1.24 0 01-.095 0H17.95a.456.456 0 00-.45.449v3.397c0 .244.206.45.449.45h74.067c.253 0 .45-.197.45-.45V53.59a.444.444 0 00-.45-.449h-16.16zm-1.297-2.5v-8.177a6.21 6.21 0 00-6.202-6.202h-4.525c-.04.123-.1.242-.18.352l-6.3 8.601a1.248 1.248 0 01-1.89.145l-4.728-4.728-4.728 4.728a1.247 1.247 0 01-.883.366 1.248 1.248 0 01-1.006-.51l-6.572-8.954h-4.36a6.21 6.21 0 00-6.202 6.202v8.178h47.576zM60.812 36.263l-4.614 6.301-3.536-3.537 5.378-3.833a4.215 4.215 0 002.772 1.07zM48.8 39.033l-5.319-3.73a4.163 4.163 0 01-2.669.96h-.167l4.626 6.3 3.53-3.53zm31.555-14.88a3.035 3.035 0 00-3.031-3.03 3.035 3.035 0 00-3.032 3.03 3.035 3.035 0 003.032 3.031 3.035 3.035 0 003.03-3.03zm6.725 35.8V72.8c0 2.591-2.108 4.7-4.7 4.7H27.6a4.706 4.706 0 01-4.7-4.7l.001-12.849h64.18z" fill="#096142"/></svg>