<svg width="93" height="24" fill="none" xmlns="http://www.w3.org/2000/svg"><g clip-path="url(#clip0_610_23096)" fill-rule="evenodd" clip-rule="evenodd"><path d="M8.707 4.69c-.073 1.748-.157 3.34-.249 4.778a55.97 55.97 0 01-.373 3.882c-.157 1.15-.364 2.168-.622 3.051-.258.884-.59 1.649-.995 2.293a4.327 4.327 0 01-1.88 1.713c-.35.166-.695.28-1.036.346-.342.064-.66.096-.954.096a4.951 4.951 0 01-1.064-.096 4.178 4.178 0 01-.843-.291l.415-3.259c.214.072.438.11.664.111.294 0 .585-.074.87-.222.285-.147.529-.395.733-.746.276-.405.515-.997.718-1.782.203-.782.382-1.781.54-2.997.155-1.216.28-2.665.372-4.35.092-1.685.156-3.65.194-5.897h11.416v19.336h-3.788V4.689H8.707zm19.252 7.707h-.082l-1.189 2.015-4.92 6.244h-2.266V6.844h3.593v6.574l-.166 1.878h.111l1.134-1.961 4.975-6.491h2.266v13.812h-3.592v-6.3l.137-1.96zM41.17 10.02v10.634h-3.704V10.02h-3.952V6.844h11.498v3.177h-3.843.001z" fill="#3B393F"/><path d="M53.01 4.302c-.37 0-.72.014-1.05.042-.333.028-.6.06-.802.097v6.27c.073.019.183.037.332.056.316.036.635.055.953.055h.345a7.93 7.93 0 001.479-.138 3.64 3.64 0 001.313-.51c.395-.258.714-.616.926-1.037.23-.443.346-1.022.346-1.74 0-.609-.11-1.11-.332-1.506a2.713 2.713 0 00-.87-.953 3.38 3.38 0 00-1.23-.497 7.141 7.141 0 00-1.41-.139zm-3.082-3.134c.923-.083 1.85-.125 2.777-.125.958 0 1.922.079 2.889.235.923.14 1.81.46 2.612.94.774.47 1.404 1.123 1.892 1.96.488.839.733 1.93.733 3.273 0 1.216-.211 2.243-.636 3.081a5.875 5.875 0 01-1.686 2.058 6.792 6.792 0 01-2.39 1.16c-.906.241-1.84.362-2.777.36h-.444a16.2 16.2 0 01-1.285-.056 4.673 4.673 0 01-.456-.056v6.658H47.37V1.514a25.788 25.788 0 012.557-.345v-.001zm18.11 8.105c-1.122.033-1.647.316-2.116.867-.466.548-.735 1.297-.825 2.236l5.16.048c.074-.994-.016-1.762-.39-2.296-.376-.534-1.021-.879-1.828-.855zm2.868 11.314a9.835 9.835 0 01-3.026.456c-2.23 0-3.86-.65-4.892-1.948-1.032-1.299-1.548-3.08-1.548-5.345 0-2.43.581-4.255 1.74-5.47 1.162-1.216 2.793-1.823 4.893-1.823.7 0 1.383.092 2.046.277a4.75 4.75 0 011.769.91c.517.425.93.995 1.243 1.713.314.718.471 1.613.471 2.68 0 .387-.023.801-.07 1.243-.045.442-.114.902-.207 1.381h-8.33c.055 1.16.419 2.035.961 2.625.541.59 1.42.883 2.631.883.751 0 1.416-.147 2.024-.345.757-.247 1.47-.585 1.47-.585l1.078 2.229c-.553.442-1.304.815-2.252 1.119h-.001z" fill="#FF4C00"/><path d="M85.282 9.513s-1.1-.223-1.966-.223c-2.467 0-4.068 1.411-4.068 4.526 0 2.922 1.221 4.366 3.797 4.366.84 0 2.459-.224 2.459-.224l.495 2.495a12.32 12.32 0 01-3.605.542c-5.015 0-6.859-3.657-6.859-7.369 0-3.738 2.17-7.097 7.158-7.097.92 0 2.058.108 3.116.38l-.526 2.604h-.001zm5.677 1.268a2.037 2.037 0 110-4.075 2.039 2.039 0 110 4.077v-.002zm2.039 8.042a2.039 2.039 0 11-4.077-.002 2.039 2.039 0 014.077.002z" fill="#FF5C33"/></g><defs><clipPath id="clip0_610_23096"><path fill="#fff" transform="translate(.691)" d="M0 0h92.308v24H0z"/></clipPath></defs></svg>