<svg width="145" height="28" fill="none" xmlns="http://www.w3.org/2000/svg"><path d="M14.58.022C6.85.022.602 6.27.602 14c0 7.73 6.248 13.978 13.978 13.978 7.73 0 13.978-6.248 13.978-13.978C28.558 6.27 22.309.022 14.58.022zm-1.933 19.904l-1.03 3.028c-3.865-1.289-6.442-4.96-6.442-9.083 0-4.122 2.577-7.73 6.506-9.082l1.03 3.027c-2.576.838-4.25 3.285-4.25 5.99-.13 2.835 1.61 5.283 4.186 6.12zm4.767 3.092l-.966-3.092c2.64-.837 4.38-3.285 4.38-6.055 0-2.77-1.74-5.153-4.316-5.99l1.03-3.092a9.554 9.554 0 016.571 9.082c0 4.252-2.705 7.923-6.7 9.147z" fill="#00BEF0"/><path d="M142.571 16.512l1.546 1.868c-1.61 1.675-3.607 2.126-5.217 2.126-1.546 0-2.641-.258-3.608-.709-2.061-1.03-3.092-3.091-3.092-5.604 0-3.8 2.577-6.634 6.377-6.634 4.252 0 6.313 3.156 5.991 7.278h-9.662c.064 1.031.644 1.997 1.481 2.513.709.45 1.546.644 2.641.644 1.224 0 2.448-.387 3.543-1.482zm-7.601-3.93h6.828c-.193-1.48-1.417-2.769-3.349-2.769-1.997 0-3.221 1.417-3.479 2.77zM70.104 20.12h3.479l-5.475-6.377 5.41-5.99h-3.414l-4.122 4.766h-1.224V7.752h-2.641v12.303h2.641v-4.896h1.224l4.122 4.96zm11.338-10.113c-2.255 0-3.737 1.74-3.737 3.93 0 2.19 1.482 3.929 3.737 3.929 2.254 0 3.671-1.675 3.671-3.93.064-2.125-1.353-3.929-3.671-3.929zm.45-2.512c3.479 0 6.055 2.706 6.055 6.442 0 3.671-2.512 6.506-6.055 6.506-1.674 0-3.027-.58-3.993-1.61v6.44h-2.706V7.817h2.641v1.482c1.03-1.224 2.384-1.804 4.058-1.804zm35.106.322h-11.014v2.448h4.187v9.855h2.705v-9.855h4.187V7.816h-.065zm-56.749 0h-11.08v2.448h4.188v9.855h2.705v-9.855h4.187V7.816zM45.949 14c0-2.319-1.61-3.994-3.865-3.994-2.19 0-3.865 1.675-3.865 3.994s1.61 3.994 3.865 3.994c2.19 0 3.865-1.675 3.865-3.994zm-10.5 0c0-3.672 2.834-6.441 6.635-6.441 3.736 0 6.635 2.77 6.635 6.441 0 3.672-2.835 6.506-6.635 6.506-3.736-.064-6.635-2.834-6.635-6.506zm94.626-6.184V20.12h-2.641v-7.923l-6.442 7.923h-2.125V7.816h2.641v7.923l6.441-7.923h2.126zm-25.96 12.303h-2.641V7.816h2.641V20.12zm-6.828-4.187c0-1.095-.773-1.867-1.803-1.867h-2.706v3.8h2.706c1.03 0 1.803-.837 1.803-1.932zm2.641 0c0 2.448-1.803 4.187-4.38 4.187h-5.41V7.816h2.64v3.994h3.028c2.577 0 4.123 1.675 4.123 4.122z" fill="#000"/></svg>