<svg width="145" height="32" fill="none" xmlns="http://www.w3.org/2000/svg"><g clip-path="url(#clip0_610_24124)" fill="#EB5F0A"><path d="M85.88 19.888h3.321V5.942h-9.737v1.683c0 6.072-.732 8.356-2.983 9.198v3.005c.844-.12 6.022-1.022 6.078-10.039v-.902h3.434v11.001h-.113zm-18.575 0h3.32V9.008h6.023V5.942h-9.343v13.946zm31.97-14.066H96.01l-5.46 14.066h3.49l1.014-2.585h5.122l1.013 2.585h3.546l-5.46-14.066zm-3.265 8.776l1.633-4.388 1.632 4.388H96.01zm26.006-8.656h-3.321v13.946h3.152l5.798-8.115v8.115h3.264V5.942h-3.152l-5.741 8.296V5.942zm22.008 8.356v-2.705h-6.81V9.248h7.43V5.942h-10.695v13.946h10.807v-3.005h-7.542v-2.585h6.81zM58.695 5.702c-2.307 0-4.334 1.202-5.628 3.066-1.464 2.104-3.377 7.874-7.317 7.874-2.477 0-3.828-1.983-3.659-4.027.169-2.104 1.857-3.667 3.771-3.487 1.07.06 1.97.662 2.59 1.563l1.97-2.885c-1.126-1.202-2.59-1.984-4.278-2.104-3.772-.3-6.98 2.705-7.261 6.733-.282 4.027 2.533 7.454 6.304 7.754h.788c1.576 0 3.377-.721 4.559-1.683.9-.721 1.576-1.503 2.139-2.284 1.125 2.344 3.49 3.967 6.135 3.967 3.771 0 6.81-3.246 6.81-7.274-.112-3.967-3.151-7.213-6.923-7.213zm1.014 10.82c-.338.12-.676.18-1.07.18-1.463 0-2.702-.961-3.265-2.284-.168-.48-.28-.961-.28-1.442 0-.541.112-1.022.28-1.443.563-1.383 1.802-2.284 3.265-2.284.338 0 .732.06 1.07.18 1.463.48 2.476 1.863 2.476 3.607.056 1.623-1.013 3.005-2.476 3.486zm54.707-.962l-.281.3c-.676.662-1.52.963-2.42.963-2.027 0-3.659-1.744-3.659-3.908 0-2.164 1.632-3.907 3.659-3.907 1.013 0 2.026.48 2.701 1.322l.113-.12 1.632-2.404c-1.238-1.323-2.927-2.044-4.615-2.044-3.715 0-6.698 3.246-6.698 7.153 0 3.968 3.039 7.154 6.698 7.154 1.857 0 3.658-.842 4.953-2.405l-2.083-2.104zM88.074 30.048c-1.013 0-1.745-.902-1.745-1.984 0-1.082.732-1.984 1.689-1.984.62 0 1.07.3 1.463.722l.45-.541c-.45-.481-1.013-.902-1.913-.902-1.407 0-2.42 1.202-2.42 2.645s1.07 2.645 2.42 2.645c.9 0 1.463-.42 1.97-.962l-.45-.48c-.394.48-.845.84-1.464.84zm6.644-4.569H90.61v.721h1.689v4.389h.732V26.2h1.688v-.721zm3.6-.06c-.9 0-1.463.541-1.801 1.142V25.54h-.732v6.673h.732v-2.525c.394.541.957 1.082 1.801 1.082 1.126 0 2.251-.962 2.251-2.645 0-1.743-1.125-2.705-2.251-2.705zm-.169 4.569c-.9 0-1.745-.782-1.745-1.984s.845-1.984 1.745-1.984c.9 0 1.689.782 1.689 1.984 0 1.262-.732 1.984-1.689 1.984zm5.685-4.569c-.675 0-1.182.18-1.745.42l.225.602c.451-.24.901-.36 1.464-.36.9 0 1.407.48 1.407 1.382v.18c-.45-.12-.844-.24-1.463-.24-1.182 0-2.027.54-2.027 1.683 0 1.082.901 1.623 1.801 1.623.845 0 1.408-.42 1.689-.842v.782h.675v-3.186c0-.661-.168-1.142-.506-1.503-.338-.36-.844-.541-1.52-.541zm1.351 3.306c0 .782-.732 1.383-1.576 1.383-.619 0-1.182-.36-1.182-1.022 0-.601.507-1.022 1.407-1.022.563 0 1.013.12 1.407.24v.421h-.056zm4.052-1.262l-1.407-1.984h-.788l1.801 2.525-1.913 2.585h.844l1.463-2.104 1.464 2.104h.844l-1.914-2.585 1.802-2.525h-.788l-1.408 1.984zm5.294-2.044c-1.463 0-2.476 1.202-2.476 2.645s1.013 2.645 2.476 2.645c1.464 0 2.477-1.202 2.477-2.645s-1.07-2.645-2.477-2.645zm0 4.629c-1.013 0-1.745-.902-1.745-1.984 0-1.082.732-1.984 1.745-1.984 1.013 0 1.745.902 1.745 1.984 0 1.082-.732 1.984-1.745 1.984zm6.811-2.104c.394-.18.788-.481.788-1.143 0-.781-.619-1.262-1.576-1.262h-2.308v5.11h2.364c1.07 0 1.745-.541 1.745-1.383 0-.781-.45-1.142-1.013-1.322zm-2.364-1.804h1.463c.619 0 .957.3.957.722 0 .54-.394.841-.957.841h-1.463V26.14zm1.576 3.787h-1.576v-1.623h1.52c.788 0 1.182.3 1.182.782-.057.54-.451.841-1.126.841zm4.893-4.508c-.675 0-1.182.18-1.744.42l.225.602c.45-.24.9-.36 1.463-.36.901 0 1.407.48 1.407 1.382v.18c-.45-.12-.844-.24-1.463-.24-1.182 0-2.026.54-2.026 1.683 0 1.082.9 1.623 1.801 1.623.844 0 1.407-.42 1.688-.842v.782h.676v-3.186c0-.661-.169-1.142-.507-1.503-.338-.36-.844-.541-1.52-.541zm1.351 3.306c0 .782-.731 1.383-1.576 1.383-.619 0-1.182-.36-1.182-1.022 0-.601.507-1.022 1.407-1.022.563 0 1.014.12 1.408.24v.421h-.057zm2.874-3.246h-.676v5.11h.676v-2.224h2.758v2.224h.731v-5.11h-.731v2.224h-2.758V25.48zm5.738 5.11l2.814-4.028v4.028h.732v-5.11h-.676l-2.87 4.028v-4.028h-.676v5.11h.676zm7.093-5.17c-1.295 0-2.308 1.202-2.308 2.645 0 1.563 1.07 2.645 2.364 2.645.901 0 1.464-.36 1.97-.962l-.45-.42c-.394.42-.844.72-1.52.72-.844 0-1.576-.6-1.688-1.683h3.771v-.24c.112-1.503-.732-2.705-2.139-2.705zm-1.52 2.344c.113-.961.732-1.683 1.52-1.683.957 0 1.463.782 1.52 1.683h-3.04zM23.965.412c-2.026 0-4.053.54-5.797 1.623C16.422.953 14.396.352 12.37.352 5.953.352.719 5.942.719 12.795S5.953 25.24 12.37 25.24c2.026 0 4.053-.602 5.798-1.684 1.744 1.082 3.77 1.623 5.797 1.623 6.417 0 11.651-5.59 11.651-12.443 0-6.793-5.234-12.323-11.651-12.323zM8.711 12.795a5.381 5.381 0 00-.225 1.623c0 2.946 2.252 5.35 5.01 5.35 1.8 0 3.433-1.022 4.334-2.645l.056-.06.169-.36 3.04-6.313.056-.12c.337-.66.957-1.082 1.688-1.082 1.013 0 1.858.902 1.858 1.984v.12c0 .842-.394 2.645-2.927 5.35-3.209 3.487-6.192 4.569-6.192 4.63-1.013.48-2.139.66-3.264.66-4.728 0-8.556-4.087-8.556-9.137 0-5.05 3.828-9.137 8.556-9.137.9 0 1.745.12 2.589.42-3.208 2.766-5.291 5.711-6.192 8.717zm18.856.06c.17-.54.225-1.082.225-1.683 0-2.946-2.251-5.35-5.01-5.35-1.744 0-3.433 1.022-4.333 2.645l-.056.18a.468.468 0 00-.113.24l-3.152 6.553c-.338.661-.957 1.022-1.632 1.022-1.013 0-1.858-.902-1.858-1.984v-.06c0-.841.45-2.645 2.927-5.41 3.208-3.487 6.135-4.509 6.192-4.509a7.888 7.888 0 013.32-.721c4.729 0 8.556 4.088 8.556 9.137 0 5.05-3.827 9.138-8.556 9.138-.9 0-1.8-.12-2.645-.421 3.208-2.826 5.291-5.711 6.135-8.777z"/></g><defs><clipPath id="clip0_610_24124"><path fill="#fff" transform="translate(.8 .364)" d="M0 0h144v31.273H0z"/></clipPath></defs></svg>