<svg width="120" height="58" fill="none" xmlns="http://www.w3.org/2000/svg"><path d="M119.381 30.789a2.228 2.228 0 00-1.627-.667h-100.2c-7.168 0-13.98 5.678-15.487 12.775l-.47 2.672-1.552 8.798A2.257 2.257 0 00.62 56.37a2.22 2.22 0 001.627.666H113.01c1.47 0 2.884-1.2 3.142-2.67l3.803-21.572a2.251 2.251 0 00-.573-2.005z" fill="#00953B"/><path d="M23.401 45.465c0 1.162-.387 2.072-1.162 2.732-.774.66-1.82.989-3.14.989h-5.197l1.775-11.226h7.897l-.408 2.496h-4.758l-.298 1.884h1.083c2.806 0 4.208 1.042 4.208 3.125zm-4.773 1.57c1.11 0 1.665-.471 1.665-1.413 0-.43-.116-.727-.346-.895-.23-.178-.617-.267-1.162-.267H17.78l-.408 2.575h1.256zm5.434 2.151l1.303-8.211h2.795l-.722 4.631 3.312-4.631h2.748l-1.287 8.211H29.4l.737-4.632-3.313 4.632h-2.763zm14.208.204c-1.162 0-2.12-.35-2.873-1.052-.743-.712-1.115-1.769-1.115-3.171 0-.66.042-1.293.126-1.9.115-.848.277-1.586.487-2.214.22-.628.539-1.225.957-1.79.419-.565.99-1 1.712-1.303.722-.314 1.586-.487 2.59-.518 1.371-.042 2.282-.147 2.732-.314l-.33 2.182c-.24.147-1.067.278-2.48.393-1.172.084-2.01.335-2.512.753-.492.409-.848 1.105-1.068 2.089h.047c.722-.984 1.722-1.476 2.999-1.476.984 0 1.8.324 2.45.973.648.639.973 1.544.973 2.716 0 1.382-.435 2.502-1.303 3.36-.859.848-1.99 1.272-3.392 1.272zm.047-2.088c.597 0 1.047-.236 1.35-.707.315-.47.472-1.078.472-1.82 0-.472-.12-.854-.361-1.147-.23-.304-.576-.455-1.037-.455-.575 0-1.026.23-1.35.69-.325.461-.487 1.037-.487 1.727 0 1.141.471 1.712 1.413 1.712zm8.987-2.449c-.084.418-.157.764-.22 1.036a15.8 15.8 0 01-.282.989 3.924 3.924 0 01-.409.958 4.9 4.9 0 01-.55.753 2.06 2.06 0 01-.8.566 2.86 2.86 0 01-1.02.172c-.388 0-.66-.02-.817-.063a.422.422 0 01-.22-.078l.346-2.245c.01.01.02.015.031.015a.12.12 0 00.047.016c.021.01.1.016.236.016.24 0 .445-.126.612-.377.178-.262.309-.544.393-.848.083-.314.177-.738.282-1.271.032-.157.152-.916.361-2.277l.189-1.24h6.735l-1.287 8.211h-2.81l1.004-6.296h-1.507c-.042.21-.094.54-.157.99-.063.439-.115.763-.157.973zm5.323 4.333l1.303-8.211h2.794l-.722 4.631 3.313-4.631h2.748l-1.288 8.211h-2.81l.738-4.632-3.313 4.632h-2.763zm14.286.188c-1.193 0-2.161-.308-2.904-.926-.848-.69-1.272-1.633-1.272-2.826 0-1.403.44-2.56 1.319-3.47.89-.921 2.03-1.382 3.423-1.382 1.203 0 2.182.31 2.936.927.826.69 1.24 1.643 1.24 2.857 0 1.434-.44 2.59-1.319 3.47-.869.9-2.01 1.35-3.423 1.35zm.047-2.088c.597 0 1.068-.272 1.414-.816.303-.513.455-1.188.455-2.026 0-.47-.12-.853-.361-1.146-.23-.293-.576-.44-1.037-.44-.596 0-1.062.268-1.397.801-.324.524-.487 1.188-.487 1.994 0 .492.105.87.315 1.13.22.336.586.503 1.099.503zm10.152-4.396l-.989 6.296h-2.81l1.005-6.296h-2.214l.314-1.915h7.206l-.314 1.915h-2.198zm5.054 2.905c0 1.099.513 1.648 1.54 1.648.774 0 1.26-.324 1.46-.973h2.653c-.21.942-.68 1.664-1.413 2.166-.733.492-1.66.738-2.78.738-1.255 0-2.255-.303-2.998-.91-.817-.66-1.225-1.596-1.225-2.81 0-1.445.445-2.628 1.335-3.549.848-.9 1.962-1.35 3.344-1.35 1.35 0 2.387.403 3.109 1.209.732.848.984 1.973.753 3.375l-.063.393h-5.715v.063zm1.916-3.188c-.848 0-1.423.513-1.727 1.54h2.952c.083-1.027-.325-1.54-1.225-1.54zm7.815 2.795l-.597 3.784h-2.81l1.303-8.211h2.794l-.518 3.281 2.748-3.281h3.046l-3.391 3.8 2.198 4.411h-3.03l-1.743-3.784zm8.015 3.972c-.775 0-1.392-.199-1.853-.596-.502-.408-.753-.968-.753-1.68 0-1.026.387-1.774 1.162-2.245.722-.42 1.774-.628 3.155-.628h1.209l.032-.22c.063-.419.026-.733-.11-.942-.136-.22-.414-.33-.832-.33-.649 0-1.047.325-1.193.974h-2.638c.408-1.968 1.727-2.952 3.956-2.952 1.34 0 2.314.298 2.921.895.607.596.816 1.497.628 2.7l-.361 2.277c-.178 1.11-.22 1.962-.126 2.559h-2.716a4.441 4.441 0 01-.047-1.02c-.597.805-1.408 1.208-2.434 1.208zm1.115-1.884c.387 0 .717-.104.989-.314.272-.209.434-.497.487-.863l.078-.503h-.879c-.576 0-.989.068-1.24.204-.241.136-.362.372-.362.707 0 .22.079.403.236.55.167.146.398.22.691.22z" fill="#fff"/><path d="M100.877 1.63A2.229 2.229 0 0099.25.963H34.936c-7.167 0-13.979 5.679-15.486 12.775l-.471 2.672-1.55 8.798a2.256 2.256 0 00.573 2.003 2.22 2.22 0 001.626.667h74.876c1.47 0 2.885-1.201 3.143-2.67l3.803-21.573a2.25 2.25 0 00-.573-2.005z" fill="#096142"/><path d="M40.784 16.307c0 1.162-.387 2.072-1.162 2.732-.774.659-1.821.989-3.14.989h-5.197L33.06 8.802h7.898l-.409 2.496h-4.757l-.298 1.884h1.083c2.805 0 4.208 1.042 4.208 3.125zm-4.773 1.57c1.11 0 1.664-.471 1.664-1.413 0-.43-.115-.728-.345-.895-.23-.178-.618-.267-1.162-.267h-1.005l-.408 2.575h1.256zm5.434 2.151l1.303-8.212h2.795l-.723 4.632 3.313-4.632h2.748l-1.288 8.212h-2.81l.738-4.632-3.313 4.632h-2.763zm13.364.172c-1.068 0-1.936-.246-2.606-.738-.67-.491-1.037-1.209-1.1-2.15h2.591c.084.502.408.753.974.753.261 0 .46-.063.596-.188a.683.683 0 00.204-.503c.01-.22-.052-.392-.188-.518-.126-.136-.314-.204-.565-.204h-.848l.298-1.743h.895c.576 0 .874-.22.895-.66a.62.62 0 00-.188-.455c-.126-.125-.32-.188-.581-.188-.66 0-1.052.298-1.178.895h-2.48c.44-1.926 1.795-2.889 4.066-2.889 1.12 0 1.931.225 2.434.675.502.44.738.995.706 1.664-.02.461-.188.854-.502 1.178-.314.314-.717.534-1.21.66.409.094.733.287.974.58.24.294.356.676.346 1.147-.021.764-.367 1.402-1.037 1.915-.66.513-1.491.77-2.496.77zm9.998-3.328h-2.37l-.503 3.156h-2.81l1.302-8.212h2.795l-.487 3.14h2.371l.503-3.14h2.794l-1.287 8.212h-2.81l.502-3.156zm7.021-.236c0 1.1.513 1.649 1.539 1.649.774 0 1.26-.325 1.46-.974h2.653c-.21.942-.68 1.665-1.413 2.167-.733.492-1.659.738-2.779.738-1.256 0-2.255-.303-2.999-.91-.816-.66-1.224-1.597-1.224-2.811 0-1.444.445-2.627 1.334-3.548.848-.9 1.963-1.35 3.344-1.35 1.35 0 2.387.402 3.11 1.208.732.848.983 1.973.753 3.376l-.063.392h-5.715v.063zm1.915-3.187c-.847 0-1.423.513-1.727 1.539h2.952c.084-1.026-.324-1.539-1.225-1.539zm8.851 6.751c-1.235 0-2.23-.319-2.983-.957-.795-.66-1.193-1.597-1.193-2.81 0-1.456.43-2.623 1.287-3.502.859-.88 1.968-1.319 3.329-1.319 1.13 0 2.03.267 2.7.8.723.587 1.105 1.445 1.147 2.576h-2.638c-.052-.43-.183-.733-.393-.91-.199-.19-.492-.284-.879-.284-.555 0-.994.262-1.319.786-.282.47-.424 1.099-.424 1.884 0 1.13.487 1.695 1.46 1.695.827 0 1.33-.45 1.508-1.35h2.528c-.147 1.1-.576 1.942-1.288 2.528-.712.576-1.659.863-2.842.863z" fill="#fff"/></svg>