<svg width="117" height="26" fill="none" xmlns="http://www.w3.org/2000/svg"><path fill-rule="evenodd" clip-rule="evenodd" d="M16.398 18.496c0 4.056-3.23 6.998-8.36 6.998a11.18 11.18 0 01-7.835-3.516L1.92 20.08c1.606 1.53 3.496 3.016 6.084 3.016 2.875 0 5.974-1.613 5.974-4.507 0-2.404-1.91-3.973-5.926-5.21-4.576-1.398-6.9-3.296-6.9-6.863 0-3.531 2.989-6.43 7.247-6.43 3.18 0 5.17 1.356 7.107 3.088l-1.688 1.873c-1.698-1.504-3.316-2.524-5.301-2.524-2.464 0-4.895 1.588-4.895 3.875 0 2.071 1.19 3.39 5.394 4.677 3.85 1.186 7.383 3.024 7.383 7.42zm20.77-16.07a2.014 2.014 0 104.028 0 2.014 2.014 0 00-4.028 0zM56.654.825h-2.427v24.27h2.427V.826zm5.665 23.463s1.494 1.213 6.473 1.213h-.003c4.914 0 8.902-3.594 8.902-8.505 0-4.91-3.985-8.49-8.9-8.49a9.116 9.116 0 00-4.045.827V.825H62.32v23.463zm18.206-7.27a8.896 8.896 0 0017.791 0 8.895 8.895 0 00-8.895-8.895 8.895 8.895 0 00-8.896 8.895zm32.51 8.085h3.168l-7.005-8.343 6.533-7.825h-3.151l-4.961 5.943-4.986-5.943h-3.168l6.579 7.836-6.956 8.332h3.149l5.385-6.45 5.413 6.45zm-23.6-14.578a6.478 6.478 0 10-.002 12.955 6.478 6.478 0 00.002-12.955zm-20.644.413a7.203 7.203 0 00-4.045 1.311v10.018c1.257.61 2.65.89 4.045.809 3.574 0 6.473-2.498 6.473-6.069 0-3.571-2.902-6.07-6.476-6.07l.003.001zM46.138.825h2.427v24.271h-2.427V.826zm-14.97 24.273l-8.49-8.49 7.685-7.691h3.432l-7.686 7.69 8.49 8.49h-3.431zM20.243.825v24.27h2.427V.826h-2.428zm17.81 24.273h2.427V8.917h-2.427v16.18z" fill="#000"/></svg>