<?xml version="1.0" encoding="utf-8"?><svg viewBox="0 0 20 22" xmlns="http://www.w3.org/2000/svg" xmlns:xlink="http://www.w3.org/1999/xlink"><style>:root>svg{display:none}:root>svg:target{display:block}</style><svg fill="none" viewBox="0 0 10 12" id="icon-arrow-next" xmlns="http://www.w3.org/2000/svg"><path d="M0 8.832l5.294-2.808L0 3.12V0l10 5.664v.696L0 12V8.832z" fill="currentColor"/></svg><svg fill="none" viewBox="0 0 10 12" id="icon-arrow-prev" xmlns="http://www.w3.org/2000/svg"><path d="M10 8.832L4.706 6.024 10 3.12V0L0 5.664v.696L10 12V8.832z" fill="currentColor"/></svg><svg fill="none" viewBox="0 0 20 22" id="icon-auth" xmlns="http://www.w3.org/2000/svg"><path d="M5 10V6a5 5 0 1110 0v4M3 10h14a2 2 0 012 2v7a2 2 0 01-2 2H3a2 2 0 01-2-2v-7a2 2 0 012-2z" stroke="currentColor" stroke-width="2" stroke-linecap="round" stroke-linejoin="round"/></svg><svg fill="none" viewBox="0 0 8 14" id="icon-facebook" xmlns="http://www.w3.org/2000/svg"><path d="M.958 7.424h1.41v5.866c0 .116.093.21.208.21h2.391a.209.209 0 00.208-.21V7.451h1.621c.106 0 .194-.08.206-.185l.247-2.16a.211.211 0 00-.052-.164.207.207 0 00-.155-.07H5.175V3.518c0-.408.217-.615.646-.615h1.221a.209.209 0 00.208-.21V.712a.209.209 0 00-.208-.21H5.36L5.282.5c-.292 0-1.307.058-2.108.803-.889.826-.765 1.815-.736 1.986v1.583H.958a.209.209 0 00-.208.21v2.132c0 .116.093.21.208.21z" fill="currentColor"/></svg><svg fill="none" viewBox="0 0 14 12" id="icon-telegram" xmlns="http://www.w3.org/2000/svg"><path fill-rule="evenodd" clip-rule="evenodd" d="M1.39 5.26a795.77 795.77 0 016.978-3.01C11.688.864 12.385.625 12.834.615c.1 0 .319.02.468.14.12.099.15.229.17.328.02.1.04.31.02.469-.18 1.894-.957 6.49-1.356 8.603-.17.897-.498 1.196-.817 1.226-.698.06-1.227-.459-1.894-.898C8.368 9.796 7.78 9.367 6.753 8.69c-1.186-.777-.419-1.206.26-1.904.179-.18 3.239-2.97 3.299-3.22.01-.03.01-.15-.06-.209-.07-.06-.17-.04-.25-.02-.109.02-1.784 1.137-5.043 3.34-.479.329-.907.488-1.296.478-.429-.01-1.246-.24-1.864-.439C1.05 6.476.453 6.347.503 5.928c.03-.22.329-.439.887-.668z" fill="currentColor"/></svg><svg fill="none" viewBox="0 0 14 12" id="icon-twitter" xmlns="http://www.w3.org/2000/svg"><path d="M4.588 11.688c4.906 0 7.59-4.377 7.59-8.173 0-.124 0-.248-.009-.37.522-.407.973-.91 1.331-1.488a5.03 5.03 0 01-1.532.452A2.855 2.855 0 0013.141.521a5.12 5.12 0 01-1.694.697A2.617 2.617 0 009.934.35a2.505 2.505 0 00-1.691.303A2.8 2.8 0 007.07 2a3.078 3.078 0 00-.17 1.837 7.153 7.153 0 01-3.044-.87A7.708 7.708 0 011.405.836a3.067 3.067 0 00-.292 2.093A2.885 2.885 0 002.23 4.67a2.505 2.505 0 01-1.211-.359v.036c0 .664.213 1.306.603 1.82.39.513.933.865 1.537.996a2.479 2.479 0 01-1.205.05c.17.57.503 1.069.95 1.427a2.55 2.55 0 001.542.567 5.114 5.114 0 01-3.312 1.232c-.212 0-.424-.014-.635-.042a7.164 7.164 0 004.088 1.288" fill="currentColor"/></svg><svg fill="none" viewBox="0 0 16 10" id="icon-vk" xmlns="http://www.w3.org/2000/svg"><path d="M.5.32c.122 5.847 3.045 9.36 8.17 9.36h.29V6.335c1.884.188 3.308 1.565 3.88 3.345h2.66c-.73-2.66-2.652-4.132-3.85-4.694 1.198-.693 2.885-2.38 3.288-4.666H12.52c-.524 1.855-2.08 3.542-3.56 3.701v-3.7H6.543v6.483C5.044 6.429 3.151 4.61 3.067.32H.5z" fill="currentColor"/></svg><svg fill="none" viewBox="0 0 16 12" id="icon-youtube" xmlns="http://www.w3.org/2000/svg"><path d="M15.67 2.132A2.01 2.01 0 0014.26.715C13.008.37 8 .37 8 .37S2.992.37 1.74.7A2.05 2.05 0 00.33 2.133C0 3.391 0 6 0 6s0 2.623.33 3.868a2.01 2.01 0 001.41 1.418c1.265.344 6.26.344 6.26.344s5.008 0 6.26-.331a2.01 2.01 0 001.41-1.418C16 8.623 16 6.013 16 6.013s.013-2.622-.33-3.88zM6.405 8.411V3.589L10.57 6 6.405 8.411z" fill="currentColor"/></svg></svg>