<?xml version="1.0" encoding="utf-8"?><svg viewBox="0 0 188 160" xmlns="http://www.w3.org/2000/svg" xmlns:xlink="http://www.w3.org/1999/xlink"><style>:root>svg{display:none}:root>svg:target{display:block}</style><svg fill="none" viewBox="0 0 10 12" id="icon-arrow-next" xmlns="http://www.w3.org/2000/svg"><path d="M0 8.832l5.294-2.808L0 3.12V0l10 5.664v.696L0 12V8.832z" fill="currentColor"/></svg><svg fill="none" viewBox="0 0 10 12" id="icon-arrow-prev" xmlns="http://www.w3.org/2000/svg"><path d="M10 8.832L4.706 6.024 10 3.12V0L0 5.664v.696L10 12V8.832z" fill="currentColor"/></svg><svg fill="none" viewBox="0 0 20 22" id="icon-auth" xmlns="http://www.w3.org/2000/svg"><path d="M5 10V6a5 5 0 1110 0v4M3 10h14a2 2 0 012 2v7a2 2 0 01-2 2H3a2 2 0 01-2-2v-7a2 2 0 012-2z" stroke="currentColor" stroke-width="2" stroke-linecap="round" stroke-linejoin="round"/></svg><svg fill="none" viewBox="0 0 188 160" id="icon-b" xmlns="http://www.w3.org/2000/svg"><path d="M176.197 100.733c1.728-9.791.615-14.328.615-14.328a3.75 3.75 0 00-3.734-3.43h-48.985c-1.937 0-3.155 1.457-2.694 3.234 0 0 1.439 5.624.541 10.726-1.544 8.746-11.545 18.827-11.545 18.827-1.488 1.5-1.119 2.735.818 2.735h55.61a5.88 5.88 0 004.921-3.436s2.706-4.536 4.434-14.328M76.467.887A2.94 2.94 0 0074.32 0H23.182c-9.46 0-18.452 7.5-20.457 16.86L2.11 20.39.06 32.001a2.96 2.96 0 00.757 2.643 2.934 2.934 0 002.147.88h65.088A4.412 4.412 0 0072.205 32L77.224 3.53a2.961 2.961 0 00-.757-2.643zM69.141 42.37a2.934 2.934 0 00-2.146-.878H38.627c-9.454 0-18.452 7.492-20.458 16.86l-.615 3.522L15.5 73.497a2.98 2.98 0 00.756 2.643 2.94 2.94 0 002.153.88h42.324a4.412 4.412 0 004.152-3.523l5.02-28.471a2.96 2.96 0 00-.757-2.643M61.828 83.855a2.932 2.932 0 00-2.147-.88H31.308c-9.46 0-18.453 7.493-20.458 16.86l-.615 3.529-2.048 11.605a3 3 0 00.756 2.649 2.928 2.928 0 002.147.879h42.33a4.398 4.398 0 004.146-3.528l5.025-28.465a2.991 2.991 0 00-.757-2.65M54.509 125.338a2.964 2.964 0 00-2.147-.879H23.988c-9.46 0-18.452 7.493-20.458 16.861l-.615 3.528-2.048 11.629a2.977 2.977 0 00.757 2.644A2.94 2.94 0 003.77 160H46.1a4.395 4.395 0 004.146-3.523l5.025-28.471a2.995 2.995 0 00-.756-2.649M187.926 3.53a2.875 2.875 0 00-1.62-3.273A2.89 2.89 0 00185.023 0H87.348a4.406 4.406 0 00-4.152 3.529L78.171 32a2.88 2.88 0 002.91 3.522h83.724c9.454 0 18.453-7.493 20.452-16.86l.615-3.455v-.073c.031-.203.074-.418.111-.615l1.931-10.972.012-.018zM173.816 74.684c-5.972-18.606-22.204-31.779-43.855-33.063-.843-.08-5.081-.13-6.151-.13H80.028c-.43.005-.856.082-1.26.228h-.05c-.412.145-.8.353-1.15.615a4.42 4.42 0 00-.615.528c-.165.178-.315.37-.449.572a.578.578 0 00-.055.074 4.24 4.24 0 00-.302.571c0 .05-.049.093-.067.142a4.177 4.177 0 00-.216.731l-2.048 11.611-.615 3.528c-1.316 9.362 5.05 16.86 14.504 16.86h84.205c1.414 0 2.355-.909 1.9-2.323M164.627 126.789c-12.548 18.624-33.424 31.778-55.505 33.063-.88.074-5.13.129-6.225.129H59.116c-.404 0-.803-.079-1.175-.233h-.043a2.9 2.9 0 01-.93-.615 2.777 2.777 0 01-.399-.529 2.75 2.75 0 01-.246-.571.308.308 0 01-.03-.08 3.313 3.313 0 01-.1-.566v-.141a3.361 3.361 0 01.032-.769l2.048-11.604.615-3.529c1.993-9.367 10.998-16.86 20.458-16.86h84.205c1.408 0 2.029.916 1.082 2.33" fill="currentColor"/></svg><svg fill="none" viewBox="0 0 8 8" id="icon-caret" xmlns="http://www.w3.org/2000/svg"><path d="M2.112.667l1.872 3.53L5.92.666H8L4.224 7.333H3.76L0 .667h2.112z" fill="#096142"/></svg><svg fill="none" viewBox="0 0 10 10" id="icon-caret-white" xmlns="http://www.w3.org/2000/svg"><path d="M2.64.833l2.34 4.412L7.4.833H10L5.28 9.167H4.7L0 .833h2.64z" fill="#fff"/></svg><svg fill="none" viewBox="0 0 16 16" id="icon-close" xmlns="http://www.w3.org/2000/svg"><path d="M15 1L1 15M1 1l14 14" stroke="currentColor" stroke-width="2" stroke-linecap="round" stroke-linejoin="round"/></svg><svg fill="none" viewBox="0 0 16 16" id="icon-copy" xmlns="http://www.w3.org/2000/svg"><path fill-rule="evenodd" clip-rule="evenodd" d="M8.34 1.27A4.518 4.518 0 0116 4.484a4.525 4.525 0 01-1.268 3.182l-.013.012-2.111 2.114a4.52 4.52 0 01-5.365.772 4.52 4.52 0 01-1.452-1.26 1 1 0 111.602-1.198 2.52 2.52 0 002.898.853 2.52 2.52 0 00.901-.58l2.106-2.108a2.525 2.525 0 00-1.796-4.27 2.518 2.518 0 00-1.767.702l-1.206 1.2a1 1 0 11-1.41-1.418l1.21-1.205.01-.01zM5.01 5.168a4.516 4.516 0 015.199 1.529 1 1 0 01-1.602 1.197 2.521 2.521 0 00-2.898-.853 2.52 2.52 0 00-.901.58L2.702 9.73a2.525 2.525 0 001.796 4.27 2.518 2.518 0 001.766-.702L7.461 12.1a1 1 0 111.415 1.414l-1.203 1.205-.013.012A4.518 4.518 0 010 11.516a4.525 4.525 0 011.268-3.182l.013-.012 2.111-2.114a4.52 4.52 0 011.617-1.04z" fill="currentColor"/></svg><svg fill="none" viewBox="0 0 16 14" id="icon-employment" xmlns="http://www.w3.org/2000/svg"><path fill-rule="evenodd" clip-rule="evenodd" d="M0 1a1 1 0 011-1h4.2A3.873 3.873 0 018 1.187 3.873 3.873 0 0110.8 0H15a1 1 0 011 1v10a1 1 0 01-1 1h-4.9c-.307 0-.592.117-.795.31A.953.953 0 009 13a1 1 0 11-2 0 .953.953 0 00-.305-.69A1.155 1.155 0 005.9 12H1a1 1 0 01-1-1V1zm7 9.195A3.196 3.196 0 005.9 10H2V2h3.2c.493 0 .956.187 1.29.505.333.317.51.736.51 1.162v6.528zm2 0c.35-.128.722-.195 1.1-.195H14V2h-3.2c-.493 0-.956.187-1.29.505-.333.317-.51.736-.51 1.162v6.528z" fill="currentColor"/></svg><svg fill="none" viewBox="0 0 8 14" id="icon-facebook" xmlns="http://www.w3.org/2000/svg"><path d="M.958 7.424h1.41v5.866c0 .116.093.21.208.21h2.391a.209.209 0 00.208-.21V7.451h1.621c.106 0 .194-.08.206-.185l.247-2.16a.211.211 0 00-.052-.164.207.207 0 00-.155-.07H5.175V3.518c0-.408.217-.615.646-.615h1.221a.209.209 0 00.208-.21V.712a.209.209 0 00-.208-.21H5.36L5.282.5c-.292 0-1.307.058-2.108.803-.889.826-.765 1.815-.736 1.986v1.583H.958a.209.209 0 00-.208.21v2.132c0 .116.093.21.208.21z" fill="currentColor"/></svg><svg fill="none" viewBox="0 0 19 20" id="icon-file" xmlns="http://www.w3.org/2000/svg"><path d="M16.181 10.575l-6.18 6.19a4.25 4.25 0 01-6-6l8-8a2.57 2.57 0 013.54 0 2.52 2.52 0 010 3.54l-6.9 6.89a.765.765 0 11-1.12-1.04l5.13-5.12a1.004 1.004 0 10-1.42-1.42l-5.13 5.14a2.74 2.74 0 000 3.89 2.82 2.82 0 003.89 0l6.89-6.9a4.5 4.5 0 00-6.36-6.36l-8 8a6.25 6.25 0 008.89 8.77l6.19-6.18a1.003 1.003 0 10-1.42-1.42v.02z" fill="#fff"/></svg><svg fill="none" viewBox="0 0 14 14" id="icon-hashtag" xmlns="http://www.w3.org/2000/svg"><path fill-rule="evenodd" clip-rule="evenodd" d="M9.53.916a.99.99 0 011.067-.912.998.998 0 01.895 1.087L11.328 3H13a1 1 0 110 2h-1.843l-.344 4H13a1 1 0 110 2h-2.359l-.179 2.084a.99.99 0 01-1.067.912.998.998 0 01-.895-1.087L8.664 11H4.649l-.18 2.084a.99.99 0 01-1.066.912.998.998 0 01-.895-1.087L2.672 11H1a1 1 0 110-2h1.843l.344-4H1a1 1 0 110-2h2.359L3.538.916A.99.99 0 014.605.004.998.998 0 015.5 1.09L5.336 3h4.015l.18-2.084zM5.164 5l-.343 4h4.015l.343-4H5.164z" fill="#096142"/></svg><svg fill="none" viewBox="0 0 20 18" id="icon-like-green" xmlns="http://www.w3.org/2000/svg"><path d="M18.177 1.907A6.253 6.253 0 0014.214.05a6.227 6.227 0 00-4.2 1.206 6.206 6.206 0 00-8.496.955 6.42 6.42 0 00-1.513 4.4 6.406 6.406 0 001.847 4.266l6.212 6.312c.52.519 1.22.81 1.95.81s1.43-.291 1.951-.81l6.212-6.312A6.41 6.41 0 0020 6.392a6.41 6.41 0 00-1.823-4.485zm-1.41 7.57l-6.212 6.302a.76.76 0 01-.54.229.75.75 0 01-.54-.229L3.262 9.447a4.387 4.387 0 01-1.224-3.045c0-1.138.44-2.23 1.224-3.044a4.24 4.24 0 013-1.25 4.24 4.24 0 013.001 1.25 1 1 0 00.71.3.988.988 0 00.71-.3 4.24 4.24 0 013.002-1.25 4.24 4.24 0 013 1.25 4.385 4.385 0 011.264 3.028 4.388 4.388 0 01-1.184 3.06v.031z" fill="#096142"/><path d="M16.766 9.477l-6.211 6.302a.76.76 0 01-.54.229.75.75 0 01-.54-.229L3.262 9.447a4.387 4.387 0 01-1.224-3.045c0-1.138.44-2.23 1.224-3.044a4.24 4.24 0 013-1.25 4.24 4.24 0 013.001 1.25 1 1 0 00.71.3.988.988 0 00.71-.3 4.24 4.24 0 013.002-1.25 4.24 4.24 0 013 1.25 4.385 4.385 0 011.264 3.028 4.388 4.388 0 01-1.184 3.06v.031z" fill="currentColor"/></svg><svg fill="none" viewBox="0 0 20 18" id="icon-like-white" xmlns="http://www.w3.org/2000/svg"><path d="M18.177 1.907A6.253 6.253 0 0014.214.05a6.227 6.227 0 00-4.2 1.206 6.206 6.206 0 00-8.496.955 6.42 6.42 0 00-1.513 4.4 6.406 6.406 0 001.847 4.266l6.212 6.312c.52.519 1.22.81 1.95.81s1.43-.291 1.951-.81l6.212-6.312A6.41 6.41 0 0020 6.392a6.41 6.41 0 00-1.823-4.485zm-1.41 7.57l-6.212 6.302a.76.76 0 01-.54.229.75.75 0 01-.54-.229L3.262 9.447a4.387 4.387 0 01-1.224-3.045c0-1.138.44-2.23 1.224-3.044a4.24 4.24 0 013-1.25 4.24 4.24 0 013.001 1.25 1 1 0 00.71.3.988.988 0 00.71-.3 4.24 4.24 0 013.002-1.25 4.24 4.24 0 013 1.25 4.385 4.385 0 011.264 3.028 4.388 4.388 0 01-1.184 3.06v.031z" fill="#fff"/><path d="M16.766 9.477l-6.211 6.302a.76.76 0 01-.54.229.75.75 0 01-.54-.229L3.262 9.447a4.387 4.387 0 01-1.224-3.045c0-1.138.44-2.23 1.224-3.044a4.24 4.24 0 013-1.25 4.24 4.24 0 013.001 1.25 1 1 0 00.71.3.988.988 0 00.71-.3 4.24 4.24 0 013.002-1.25 4.24 4.24 0 013 1.25 4.385 4.385 0 011.264 3.028 4.388 4.388 0 01-1.184 3.06v.031z" fill="currentColor"/></svg><svg fill="none" viewBox="0 0 14 16" id="icon-location" xmlns="http://www.w3.org/2000/svg"><path d="M6.463 15.843L7 15l.537.844a1 1 0 01-1.074 0z" fill="currentColor"/><path fill-rule="evenodd" clip-rule="evenodd" d="M10 7a3 3 0 11-6 0 3 3 0 016 0zM8 7a1 1 0 11-2 0 1 1 0 012 0z" fill="currentColor"/><path fill-rule="evenodd" clip-rule="evenodd" d="M6.463 15.843L7 15c.537.844.538.843.538.843l.002-.001.005-.003.016-.01.058-.039a19.31 19.31 0 00.924-.66 20.984 20.984 0 002.167-1.891C12.245 11.69 14 9.374 14 6.727c0-1.8-.75-3.515-2.067-4.773A7.148 7.148 0 007 0a7.148 7.148 0 00-4.933 1.954A6.598 6.598 0 000 6.727c0 2.647 1.755 4.964 3.29 6.512a20.981 20.981 0 003.091 2.551l.058.038.016.01.005.004.003.001zM3.448 3.401A5.148 5.148 0 017 2c1.34 0 2.618.508 3.552 1.4A4.599 4.599 0 0112 6.727c0 1.808-1.245 3.627-2.71 5.103A18.987 18.987 0 017 13.785a18.977 18.977 0 01-2.29-1.955C3.245 10.354 2 8.535 2 6.727c0-1.238.515-2.436 1.448-3.326z" fill="currentColor"/></svg><svg fill="none" viewBox="0 0 12 8" id="icon-mark" xmlns="http://www.w3.org/2000/svg"><path d="M10.5 1l-6 6-3-3" stroke="#096142" stroke-width="2" stroke-linecap="round" stroke-linejoin="round"/></svg><svg fill="none" viewBox="0 0 17 16" id="icon-next" xmlns="http://www.w3.org/2000/svg"><path fill-rule="evenodd" clip-rule="evenodd" d="M15 0v16h2V0h-2zM1.514 1.143L0 .233v15.533l1.514-.908 10-6L12.944 8l-1.43-.857-10-6zM2 12.233V3.767L9.056 8 2 12.234z" fill="#096142"/></svg><svg fill="none" viewBox="0 0 110 120" id="icon-not-activity" xmlns="http://www.w3.org/2000/svg"><path fill-rule="evenodd" clip-rule="evenodd" d="M108.9 49.636L93.5 38.182V2.727c0-.723-.29-1.417-.805-1.928A2.762 2.762 0 0090.75 0h-71.5c-1.519 0-2.75 1.221-2.75 2.727v35.455L1.1 49.636A2.775 2.775 0 000 51.818v65.455c0 .723.29 1.417.805 1.928A2.76 2.76 0 002.75 120h104.5c.729 0 1.429-.287 1.945-.799a2.717 2.717 0 00.805-1.928V51.818a2.777 2.777 0 00-1.1-2.182zM88 5.455H22v57.054l33 24.11 33-24.11V5.455zm14.63 46.363l-9.13-6.655v13.31l9.13-6.655zm-95.26 0l9.13 6.655v-13.31l-9.13 6.655zM42.9 84.492L5.5 57.219v54.545l37.4-27.272zm4.51 3.435L11 114.545h88L62.37 87.927l-5.83 4.254a2.77 2.77 0 01-3.3 0l-5.83-4.254zM67.1 84.6l37.4 27.273V57.327L67.1 84.6z" fill="#096142"/><path d="M70.62 22.635a2.652 2.652 0 00-3.85 0L55 34.307 43.175 22.635a2.65 2.65 0 00-1.925-.827c-.729 0-1.426.3-1.925.827a2.717 2.717 0 00-.814 1.936c0 .728.294 1.424.814 1.937l11.77 11.672-11.77 11.673c-.77.779-.998 1.94-.58 2.947a2.749 2.749 0 002.505 1.689 2.596 2.596 0 001.925-.818L55 41.998l11.77 11.673a2.652 2.652 0 003.85 0 2.608 2.608 0 00.834-1.91 2.61 2.61 0 00-.834-1.908L58.85 38.18l11.77-11.672c.52-.513.814-1.21.814-1.937 0-.727-.293-1.424-.814-1.936z" fill="#096142"/></svg><svg fill="none" viewBox="0 0 11 16" id="icon-ok" xmlns="http://www.w3.org/2000/svg"><path fill-rule="evenodd" clip-rule="evenodd" d="M5.492 8.273c-2.261 0-4.14-1.877-4.14-4.098C1.353 1.877 3.232 0 5.493 0 7.829 0 9.63 1.877 9.63 4.175a4.112 4.112 0 01-4.139 4.098zm0-5.86c-.959 0-1.687.804-1.687 1.762 0 .957.728 1.685 1.687 1.685.996 0 1.686-.728 1.686-1.685 0-.958-.69-1.762-1.686-1.762zm1.647 9.269l2.338 2.26c.46.497.46 1.225 0 1.685-.498.498-1.265.498-1.648 0l-2.337-2.299-2.261 2.299c-.23.23-.537.344-.882.344-.268 0-.575-.115-.843-.344-.46-.46-.46-1.188 0-1.686l2.376-2.26a10.823 10.823 0 01-2.453-1.072c-.574-.306-.69-1.072-.383-1.647.383-.574 1.073-.727 1.686-.344a5.296 5.296 0 005.519 0c.613-.383 1.34-.23 1.686.344.345.575.191 1.34-.345 1.647-.728.46-1.571.805-2.453 1.073z" fill="currentColor"/></svg><svg fill="none" viewBox="0 0 18 20" id="icon-play" xmlns="http://www.w3.org/2000/svg"><path d="M1 2l14 8-14 8V2z" stroke="currentColor" stroke-width="2" stroke-linecap="round"/></svg><svg fill="none" viewBox="0 0 15 18" id="icon-play-fill" xmlns="http://www.w3.org/2000/svg"><path d="M1 2l12 7-12 7V2z" fill="#fff"/><path d="M1 2l.504-.864L0 .26V2h1zm12 7l.504.864L14.984 9l-1.48-.864L13 9zM1 16H0v1.741l1.504-.877L1 16zM.496 2.864l12 7 1.008-1.728-12-7L.496 2.864zm12 5.272l-12 7 1.008 1.728 12-7-1.008-1.728zM2 16V2H0v14h2z" fill="#fff"/></svg><svg fill="none" viewBox="0 0 40 40" id="icon-podcasts-apple" xmlns="http://www.w3.org/2000/svg"><path fill-rule="evenodd" clip-rule="evenodd" d="M39.213 34.667c-.386.986-1.28 2.373-2.56 3.36-.733.56-1.613 1.106-2.813 1.466-1.28.387-2.867.507-4.84.507H11c-1.973 0-3.547-.133-4.84-.507a8.318 8.318 0 01-2.813-1.466c-1.267-.974-2.174-2.374-2.56-3.36C.013 32.68 0 30.427 0 29V11c0-1.427.013-3.68.787-5.667.386-.986 1.28-2.373 2.56-3.36C4.08 1.413 4.96.867 6.16.507 7.453.133 9.027 0 11 0h18c1.973 0 3.547.133 4.84.507 1.2.36 2.08.893 2.813 1.466 1.267.974 2.174 2.374 2.56 3.36C40 7.32 40 9.587 40 11v18c0 1.427-.013 3.68-.787 5.667z" fill="url(#avpaint0_linear_610_21876)"/><path d="M23.427 24.147c-.053-.48-.213-.827-.533-1.147-.6-.627-1.654-1.04-2.894-1.04-1.24 0-2.293.4-2.893 1.04-.307.333-.48.667-.533 1.147-.107.933-.04 1.733.066 3.026.107 1.227.307 2.867.56 4.52.187 1.187.334 1.827.467 2.28.227.747 1.04 1.387 2.333 1.387 1.294 0 2.12-.653 2.334-1.387.133-.453.28-1.093.466-2.28.254-1.666.454-3.293.56-4.52.12-1.293.174-2.093.067-3.026zM23.283 17.347a3.278 3.278 0 01-3.28 3.28 3.278 3.278 0 01-3.28-3.28 3.278 3.278 0 013.28-3.28c1.813 0 3.28 1.48 3.28 3.28z" fill="#fff"/><path d="M19.961 4.427c-7.653.026-13.92 6.24-14.026 13.893-.08 6.2 3.88 11.507 9.413 13.453.133.054.267-.066.253-.2-.066-.48-.146-.96-.2-1.44a.528.528 0 00-.28-.386c-4.373-1.907-7.426-6.294-7.373-11.374.067-6.666 5.507-12.093 12.16-12.146 6.813-.054 12.373 5.466 12.373 12.266 0 5.027-3.04 9.347-7.373 11.254a.453.453 0 00-.28.386l-.2 1.44c-.027.147.12.254.253.2 5.48-1.92 9.414-7.146 9.414-13.28-.027-7.76-6.36-14.08-14.134-14.066z" fill="#fff"/><path d="M19.64 9.093c-4.987.187-8.987 4.307-9.053 9.294a9.417 9.417 0 004.12 7.906c.12.08.293-.013.293-.16a13.08 13.08 0 01-.013-1.613.543.543 0 00-.187-.453 7.624 7.624 0 01-2.413-5.76c.106-4 3.32-7.254 7.32-7.414 4.346-.173 7.92 3.32 7.92 7.614 0 2.186-.934 4.16-2.414 5.56a.635.635 0 00-.186.453c.026.52.013 1.027-.014 1.6-.013.147.16.253.294.16a9.436 9.436 0 004.12-7.787c.013-5.306-4.427-9.613-9.787-9.4z" fill="#fff"/><defs><linearGradient id="avpaint0_linear_610_21876" x1="20" y1="0" x2="20" y2="40" gradientUnits="userSpaceOnUse"><stop stop-color="#F452FF"/><stop offset="1" stop-color="#832BC1"/></linearGradient></defs></svg><svg fill="none" viewBox="0 0 40 40" id="icon-podcasts-google" xmlns="http://www.w3.org/2000/svg"><g clip-path="url(#awclip0_610_21893)"><path d="M2.426 23.793A2.424 2.424 0 010 21.368v-2.735a2.425 2.425 0 114.85 0v2.735a2.425 2.425 0 01-2.424 2.425z" fill="#0066D9"/><path d="M37.574 23.793a2.425 2.425 0 01-2.426-2.425v-2.735a2.425 2.425 0 114.85 0v2.735a2.425 2.425 0 01-2.424 2.425z" fill="#4285F4"/><path d="M11.214 32.002a2.425 2.425 0 01-2.425-2.426V26.84a2.426 2.426 0 014.85 0v2.736a2.426 2.426 0 01-2.425 2.427zm0-10.2a2.425 2.425 0 01-2.425-2.426v-8.948a2.425 2.425 0 114.85 0v8.946a2.426 2.426 0 01-2.425 2.427z" fill="#EA4335"/><path d="M28.788 32.002a2.425 2.425 0 01-2.425-2.426v-8.949a2.425 2.425 0 114.85 0v8.946a2.425 2.425 0 01-2.425 2.429zm0-16.412a2.425 2.425 0 01-2.425-2.425v-2.738a2.425 2.425 0 114.85 0v2.735a2.425 2.425 0 01-2.425 2.425v.003z" fill="#34A853"/><path d="M20 40.002a2.425 2.425 0 01-2.426-2.425V34.84a2.425 2.425 0 014.85 0v2.735A2.423 2.423 0 0120 40.002zm0-10.28a2.425 2.425 0 01-2.426-2.426v-14.59a2.425 2.425 0 014.85 0v14.588A2.425 2.425 0 0120 29.72v.002zm0-22.135a2.425 2.425 0 01-2.426-2.427V2.425a2.425 2.425 0 114.85 0V5.16A2.425 2.425 0 0120 7.585v.002z" fill="#FAB908"/></g><defs><clipPath id="awclip0_610_21893"><path fill="#fff" d="M0 0h40v40H0z"/></clipPath></defs></svg><svg fill="none" viewBox="0 0 40 40" id="icon-podcasts-spotify" xmlns="http://www.w3.org/2000/svg"><path fill-rule="evenodd" clip-rule="evenodd" d="M20 0C8.955 0 0 8.954 0 20s8.955 20 20 20c11.047 0 20.001-8.954 20.001-20 0-11.045-8.954-19.999-20-19.999V0zM8.595 15.416c6.154-1.867 16.79-1.515 23.236 2.313a1.87 1.87 0 002.563-.654 1.868 1.868 0 00-.654-2.563c-7.422-4.406-19.166-4.82-26.23-2.676a1.871 1.871 0 001.085 3.58zM31.62 23.4a1.56 1.56 0 01-2.144.514c-5.376-3.304-13.571-4.261-19.93-2.331a1.561 1.561 0 01-1.946-1.04A1.562 1.562 0 018.64 18.6c7.263-2.204 16.293-1.136 22.467 2.658.733.451.965 1.41.513 2.143zm-4.162 5.86a1.246 1.246 0 101.301-2.129c-5.272-3.222-11.807-3.971-19.426-2.23a1.247 1.247 0 00.555 2.431c6.962-1.59 12.874-.941 17.57 1.927z" fill="#1ED760"/></svg><svg fill="none" viewBox="0 0 40 28" id="icon-podcasts-youtube" xmlns="http://www.w3.org/2000/svg"><g clip-path="url(#ayclip0_610_21887)"><path d="M39.167 4.372A5.015 5.015 0 0035.63.836C32.509-.014 20-.014 20-.014s-12.512 0-15.627.837a5.008 5.008 0 00-3.537 3.55C0 7.49 0 14 0 14s0 6.51.836 9.628a5.009 5.009 0 003.537 3.536c3.118.837 15.627.837 15.627.837s12.512 0 15.63-.837a5.015 5.015 0 003.537-3.536C40 20.51 40 14 40 14s-.01-6.51-.833-9.628z" fill="red"/><path d="M16 20l10.395-6L16 8v12z" fill="#fff"/></g><defs><clipPath id="ayclip0_610_21887"><path fill="#fff" d="M0 0h40v28.001H0z"/></clipPath></defs></svg><svg fill="none" viewBox="0 0 48 48" id="icon-rbk" xmlns="http://www.w3.org/2000/svg"><rect width="48" height="48" rx="24" fill="#fff"/><path fill-rule="evenodd" clip-rule="evenodd" d="M16 16v14.933L30.933 16H16z" fill="#92CFAE"/><path fill-rule="evenodd" clip-rule="evenodd" d="M17.066 32H32V17.067L17.066 32z" fill="#2A8288"/></svg><svg fill="none" viewBox="0 0 16 16" id="icon-schedule" xmlns="http://www.w3.org/2000/svg"><path fill-rule="evenodd" clip-rule="evenodd" d="M8 2a6 6 0 100 12A6 6 0 008 2zM0 8a8 8 0 1116 0A8 8 0 010 8zm8-5.2a1 1 0 011 1v3.582l2.247 1.124a1 1 0 11-.894 1.788l-2.8-1.4A1 1 0 017 8V3.8a1 1 0 011-1z" fill="currentColor"/></svg><svg fill="none" viewBox="0 0 44 44" id="icon-share" xmlns="http://www.w3.org/2000/svg"><path d="M2 19.5A22.5 22.5 0 0124.5 42M2 2a40 40 0 0140 40M7 39.5a2.5 2.5 0 11-5 0 2.5 2.5 0 015 0z" stroke="#096142" stroke-width="3" stroke-linecap="round" stroke-linejoin="round"/></svg><svg fill="none" viewBox="0 0 14 12" id="icon-telegram" xmlns="http://www.w3.org/2000/svg"><path fill-rule="evenodd" clip-rule="evenodd" d="M1.39 5.26a795.77 795.77 0 016.978-3.01C11.688.864 12.385.625 12.834.615c.1 0 .319.02.468.14.12.099.15.229.17.328.02.1.04.31.02.469-.18 1.894-.957 6.49-1.356 8.603-.17.897-.498 1.196-.817 1.226-.698.06-1.227-.459-1.894-.898C8.368 9.796 7.78 9.367 6.753 8.69c-1.186-.777-.419-1.206.26-1.904.179-.18 3.239-2.97 3.299-3.22.01-.03.01-.15-.06-.209-.07-.06-.17-.04-.25-.02-.109.02-1.784 1.137-5.043 3.34-.479.329-.907.488-1.296.478-.429-.01-1.246-.24-1.864-.439C1.05 6.476.453 6.347.503 5.928c.03-.22.329-.439.887-.668z" fill="currentColor"/></svg><svg fill="none" viewBox="0 0 14 12" id="icon-twitter" xmlns="http://www.w3.org/2000/svg"><path d="M4.588 11.688c4.906 0 7.59-4.377 7.59-8.173 0-.124 0-.248-.009-.37.522-.407.973-.91 1.331-1.488a5.03 5.03 0 01-1.532.452A2.855 2.855 0 0013.141.521a5.12 5.12 0 01-1.694.697A2.617 2.617 0 009.934.35a2.505 2.505 0 00-1.691.303A2.8 2.8 0 007.07 2a3.078 3.078 0 00-.17 1.837 7.153 7.153 0 01-3.044-.87A7.708 7.708 0 011.405.836a3.067 3.067 0 00-.292 2.093A2.885 2.885 0 002.23 4.67a2.505 2.505 0 01-1.211-.359v.036c0 .664.213 1.306.603 1.82.39.513.933.865 1.537.996a2.479 2.479 0 01-1.205.05c.17.57.503 1.069.95 1.427a2.55 2.55 0 001.542.567 5.114 5.114 0 01-3.312 1.232c-.212 0-.424-.014-.635-.042a7.164 7.164 0 004.088 1.288" fill="currentColor"/></svg><svg fill="none" viewBox="0 0 16 10" id="icon-vk" xmlns="http://www.w3.org/2000/svg"><path d="M.5.32c.122 5.847 3.045 9.36 8.17 9.36h.29V6.335c1.884.188 3.308 1.565 3.88 3.345h2.66c-.73-2.66-2.652-4.132-3.85-4.694 1.198-.693 2.885-2.38 3.288-4.666H12.52c-.524 1.855-2.08 3.542-3.56 3.701v-3.7H6.543v6.483C5.044 6.429 3.151 4.61 3.067.32H.5z" fill="currentColor"/></svg><svg fill="none" viewBox="0 0 16 12" id="icon-youtube" xmlns="http://www.w3.org/2000/svg"><path d="M15.67 2.132A2.01 2.01 0 0014.26.715C13.008.37 8 .37 8 .37S2.992.37 1.74.7A2.05 2.05 0 00.33 2.133C0 3.391 0 6 0 6s0 2.623.33 3.868a2.01 2.01 0 001.41 1.418c1.265.344 6.26.344 6.26.344s5.008 0 6.26-.331a2.01 2.01 0 001.41-1.418C16 8.623 16 6.013 16 6.013s.013-2.622-.33-3.88zM6.405 8.411V3.589L10.57 6 6.405 8.411z" fill="currentColor"/></svg></svg>