<svg width="131" height="160" fill="none" xmlns="http://www.w3.org/2000/svg"><path d="M93.376 160H14.697c-6.247 0-11.328-5.081-11.328-11.329V11.328C3.37 5.08 8.45 0 14.697 0h78.679c6.246 0 11.328 5.081 11.328 11.328v30.597a2.5 2.5 0 01-5 0l-.001-30.597A6.335 6.335 0 0093.375 5H14.697a6.335 6.335 0 00-6.328 6.328v137.34c0 3.49 2.84 6.33 6.328 6.33h78.678a6.336 6.336 0 006.328-6.33v-46.929a2.5 2.5 0 014.999 0v46.929c0 6.247-5.08 11.329-11.326 11.329V160z" fill="#096142"/><path d="M102.203 36.148a2.5 2.5 0 01-2.5-2.5c0-1.633-2.705-3.46-6.327-3.46H14.698c-3.622 0-6.328 1.827-6.328 3.46a2.5 2.5 0 01-5 0c0-4.743 4.976-8.46 11.328-8.46h78.68c6.352 0 11.327 3.717 11.327 8.46a2.5 2.5 0 01-2.501 2.5h-.001zm-8.827 98.665H14.697c-6.352 0-11.328-3.716-11.328-8.459a2.5 2.5 0 115 0c0 1.632 2.706 3.459 6.327 3.459h78.679c3.621 0 6.327-1.826 6.327-3.459a2.5 2.5 0 015 0c0 4.743-4.975 8.459-11.327 8.459zM2.5 56.159a2.5 2.5 0 01-2.5-2.5V39.492a2.5 2.5 0 015 0V53.66a2.5 2.5 0 01-2.5 2.5zm0 22.288a2.5 2.5 0 01-2.5-2.5V69.84a2.5 2.5 0 015 0v6.107a2.5 2.5 0 01-2.5 2.5zm51.536 69.331c-1.38 0-2.668-1.287-2.668-2.668 0-1.38 1.288-2.668 2.668-2.668 1.38 0 2.67 1.288 2.67 2.668 0 1.381-1.29 2.668-2.67 2.668zM58.335 17.44h-8.596a2.5 2.5 0 010-5h8.596a2.5 2.5 0 010 5zM55.12 120.943c-.774 0-1.56-.158-2.317-.478-2.212-.935-3.585-3.006-3.585-5.406v-9.201c0-.89-.724-1.616-1.617-1.616-6.009 0-10.898-4.89-10.898-10.899V50.325c0-6.009 4.89-10.898 10.898-10.898h72.176c6.01 0 10.899 4.89 10.899 10.898v43.018c0 6.01-4.889 10.899-10.899 10.899l-43.422-.001c-1.112 0-2.16.425-2.954 1.199l-14.222 13.825c-1.131 1.1-2.573 1.674-4.058 1.675l-.001.003zM47.6 44.429a5.904 5.904 0 00-5.896 5.897v43.018a5.905 5.905 0 005.897 5.899 6.623 6.623 0 016.617 6.615v9.201c0 .502.332.717.53.801.198.08.583.172.946-.178l14.22-13.824a9.185 9.185 0 016.44-2.615h43.423a5.906 5.906 0 005.898-5.898V50.326a5.905 5.905 0 00-5.898-5.897H47.601z" fill="#096142"/><path d="M109.301 90.353H58.08c-2.725 0-4.94-2.143-4.94-4.776V57.822c0-2.632 2.215-4.774 4.94-4.774h51.22c2.724 0 4.939 2.142 4.939 4.774v27.755c0 2.634-2.215 4.776-4.939 4.776zM58.138 58.615v26.962l51.163-.224-.06-26.74-22.084 19.659a4.76 4.76 0 01-3.466 1.478h-.018a4.721 4.721 0 01-3.442-1.483L58.138 58.615zm6.922-.533L83.653 74.62c.085.075.166.157.24.245.072-.082-.238-.173-.157-.245l18.583-16.538H65.06z" fill="#096142"/><path d="M83.692 79.749l-.018-.001a4.721 4.721 0 01-3.442-1.483L56.83 57.45a2.5 2.5 0 011.662-4.367h50.392a2.5 2.5 0 011.663 4.366L87.154 78.27a4.753 4.753 0 01-3.463 1.48v-.001zm-18.63-21.667l18.593 16.537c.085.076.166.158.24.246.072-.082-.238-.173-.157-.246l18.583-16.537H65.063z" fill="#096142"/><path d="M108.885 90.353a2.486 2.486 0 01-1.661-.634L89.101 73.58a2.498 2.498 0 01-.204-3.53 2.498 2.498 0 013.529-.204l18.123 16.141a2.499 2.499 0 01-1.664 4.367zm-50.392 0a2.499 2.499 0 01-1.664-4.368l18.136-16.141a2.5 2.5 0 013.325 3.735L60.154 89.721a2.496 2.496 0 01-1.661.632z" fill="#096142"/></svg>